<svg width="96" height="96" viewBox="0 0 96 96" fill="none" xmlns="http://www.w3.org/2000/svg">
<g opacity="0.1">
<path d="M40.924 76.2047C41.1265 77.179 41.337 78.101 41.554 78.9703C42.4221 82.4493 43.4024 85.13 44.3957 86.968C44.8907 87.8839 45.4139 88.6377 45.9649 89.1778C46.4996 89.702 47.1891 90.1481 48.0002 90.1481C48.8112 90.1481 49.5008 89.702 50.0354 89.1778C50.5864 88.6377 51.1096 87.8839 51.6046 86.968C52.5979 85.13 53.5783 82.4493 54.4464 78.9703C56.1859 71.9989 57.5172 61.648 57.5172 48.0009C57.5172 34.3537 56.1859 24.0028 54.4464 17.0314C53.5783 13.5524 52.5979 10.8717 51.6046 9.03374C51.1096 8.11786 50.5864 7.36403 50.0354 6.82387C49.5008 6.29971 48.8113 5.85363 48.0002 5.85363C47.1891 5.85363 46.4996 6.29971 45.9649 6.82387C45.414 7.36403 44.8907 8.11786 44.3958 9.03373C43.4024 10.8717 42.4221 13.5524 41.554 17.0314C41.3302 17.9284 41.1131 18.8814 40.9047 19.8901C41.6945 19.6917 42.4972 19.5256 43.3112 19.3934C43.45 18.7624 43.5922 18.1567 43.737 17.5761C44.5808 14.1948 45.5053 11.713 46.3752 10.1035C46.8118 9.29561 47.2097 8.75445 47.5401 8.43056C47.8166 8.15949 47.9693 8.11285 48.0002 8.10507C48.0311 8.11285 48.1838 8.15949 48.4603 8.43056C48.7907 8.75445 49.1886 9.29561 49.6252 10.1035C50.4951 11.713 51.4196 14.1948 52.2633 17.5761C53.9474 24.3252 55.2672 34.4854 55.2672 48.0009C55.2672 61.5163 53.9474 71.6766 52.2633 78.4256C51.4196 81.8069 50.495 84.2887 49.6252 85.8982C49.1886 86.7061 48.7907 87.2473 48.4603 87.5712C48.1837 87.8423 48.031 87.8889 48.0002 87.8966C47.9693 87.8889 47.8166 87.8423 47.5401 87.5712C47.2097 87.2473 46.8118 86.7061 46.3752 85.8982C45.5053 84.2887 44.5808 81.8069 43.737 78.4256C43.5992 77.8732 43.4638 77.2979 43.3314 76.6998C42.5171 76.5681 41.7141 76.4026 40.924 76.2047Z" fill="url(#paint0_radial)"/>
<path d="M20.037 40.0265C19.2945 39.364 18.6013 38.7207 17.9569 38.0982C15.3781 35.6069 13.5467 33.4175 12.4516 31.6383C11.9059 30.7517 11.5147 29.9217 11.3224 29.1744C11.1358 28.4493 11.0942 27.6291 11.4998 26.9267C11.9053 26.2243 12.6364 25.8502 13.3576 25.6493C14.1009 25.4422 15.0154 25.366 16.056 25.3952C18.1444 25.454 20.9562 25.9453 24.4031 26.933C31.3103 28.9122 40.9401 32.9347 52.7589 39.7583C64.5777 46.5819 72.8761 52.9103 78.0438 57.9025C80.6226 60.3937 82.454 62.5831 83.5491 64.3624C84.0948 65.2489 84.486 66.079 84.6783 66.8262C84.8649 67.5513 84.9065 68.3715 84.5009 69.0739C84.0954 69.7763 83.3643 70.1504 82.6431 70.3514C81.8998 70.5585 80.9853 70.6347 79.9447 70.6054C77.8563 70.5467 75.0445 70.0553 71.5976 69.0676C70.7089 68.813 69.775 68.5245 68.7973 68.2005C69.364 67.6158 69.9091 67.0037 70.4306 66.3648C71.0465 66.5601 71.6422 66.7399 72.2174 66.9047C75.5675 67.8646 78.1791 68.3049 80.0079 68.3563C80.9259 68.3821 81.5935 68.3081 82.0392 68.1839C82.4122 68.08 82.5289 67.9711 82.5511 67.9482C82.5598 67.9176 82.5958 67.762 82.4993 67.387C82.384 66.9389 82.1143 66.3238 81.6329 65.5417C80.674 63.9836 78.9869 61.942 76.4805 59.5207C71.4777 54.6878 63.3386 48.4646 51.6339 41.7069C39.9291 34.9491 30.4702 31.0121 23.7833 29.096C20.4332 28.136 17.8216 27.6958 15.9928 27.6443C15.0748 27.6185 14.4072 27.6925 13.9615 27.8167C13.5884 27.9207 13.4717 28.0296 13.4496 28.0524C13.4409 28.083 13.4049 28.2386 13.5014 28.6136C13.6167 29.0617 13.8864 29.6769 14.3678 30.4589C15.3267 32.017 17.0138 34.0586 19.5202 36.4799C19.9297 36.8755 20.3602 37.2804 20.8119 37.6942C20.5188 38.4652 20.2607 39.2433 20.037 40.0265Z" fill="url(#paint1_radial)"/>
<path d="M57.4359 46.6355C58.223 46.9331 60.3157 47.8042 60.7351 48.7993C61.249 50.0219 59.9969 52.5952 58.8583 53.1631C57.7157 53.7338 57.0049 54.4158 56.7434 54.8268C56.684 54.92 56.5809 55.1983 56.4883 55.4481L56.4808 55.4685C56.1238 56.4315 55.6359 57.7478 54.618 58.146C54.3176 58.2633 53.802 58.6177 53.2568 58.9931C52.0821 59.8013 50.7698 60.7042 49.6774 60.7042C49.5188 60.7042 49.3653 60.6858 49.2174 60.6447C48.8391 60.5401 48.3201 60.2375 47.9964 59.3892C47.4813 58.0375 47.6988 55.8843 48.4714 54.6867C48.7673 54.2278 48.5248 53.063 48.3796 52.3671C48.3129 52.05 48.2562 51.7758 48.2411 51.5672C48.1894 51.4166 47.6991 50.955 47.4053 50.6785L47.4045 50.6778C46.7587 50.0703 46.2014 49.5458 46.2014 48.9679C46.2014 47.8142 48.0409 45.5019 48.6044 44.8205C48.6717 44.7398 48.7596 44.6797 48.8586 44.6469C49.4654 44.4467 50.9473 43.9972 51.602 44.1613C52.1404 44.2959 52.9776 44.7776 53.2902 44.9651C53.8086 45.0174 55.523 45.2148 56.3101 45.6315C56.3518 45.6537 56.3908 45.681 56.4252 45.7127L57.4359 46.6355Z" fill="white"/>
<path fill-rule="evenodd" clip-rule="evenodd" d="M30.7471 47.9249C30.7471 38.4169 38.4828 30.6812 47.9908 30.6812C57.4988 30.6812 65.2346 38.4169 65.2346 47.9249C65.2346 57.4329 57.4988 65.1686 47.9908 65.1686C38.4828 65.1686 30.7471 57.4329 30.7471 47.9249ZM37.6785 60.3187C40.4764 62.6505 44.072 64.0561 47.9908 64.0561C56.8858 64.0561 64.1221 56.8199 64.1221 47.9249C64.1221 44.3499 62.9512 41.0435 60.9754 38.3663C59.5491 38.9676 57.6123 39.4532 57.0277 39.5934C56.4903 40.1674 54.875 41.76 53.4832 41.76C53.4031 41.76 53.3247 41.755 53.2463 41.7439C51.7132 41.5286 50.2475 39.9283 50.1858 39.8598C50.0884 39.753 50.0367 39.6123 50.0417 39.4677C50.0729 38.5337 50.0284 37.5531 49.9433 37.117C49.8818 37.1341 49.8099 37.1539 49.7468 37.1713L49.7096 37.1815C49.1539 37.335 48.3134 37.5653 47.6432 37.0291C46.9584 36.4817 46.9723 35.4287 47.0558 34.7924C46.4044 34.546 45.6256 34.1477 45.4293 33.6087C45.253 33.1231 45.4727 32.5246 45.7391 31.9544C43.4006 32.2826 41.2235 33.1136 39.3172 34.3346C40.0337 35.1412 40.5627 36.2498 40.7384 36.6486C41.0405 36.8828 41.7308 37.483 42.0045 38.2584C42.2748 39.0238 42.1452 39.9355 42.0718 40.3121C42.3521 41.1648 42.8338 42.9003 42.4055 43.6496C42.005 44.3493 40.8224 44.7776 40.2884 44.9401C40.002 45.3589 39.2505 46.2634 37.9872 46.4814C37.6446 46.5187 36.6472 46.7173 36.6472 47.9243C36.6472 48.7793 37.392 50.2272 37.7653 50.8658C38.2759 51.1283 39.1848 51.659 39.4045 52.2075C39.5864 52.663 39.6649 53.5035 39.6893 53.8334C39.9775 54.3757 40.9442 56.3966 40.1805 57.7711C39.9196 58.2406 39.2082 58.5393 38.7676 58.685L37.6785 60.3187Z" fill="white"/>
<path d="M68.887 27.7707C69.832 27.4589 70.7357 27.1803 71.5971 26.9335C75.044 25.9458 77.8557 25.4544 79.9441 25.3957C80.9848 25.3664 81.8992 25.4426 82.6425 25.6497C83.3638 25.8507 84.0949 26.2248 84.5004 26.9272C84.9059 27.6296 84.8644 28.4497 84.6778 29.1748C84.4855 29.9221 84.0942 30.7521 83.5486 31.6387C82.4535 33.418 80.6221 35.6073 78.0433 38.0986C72.8756 43.0908 64.5771 49.4192 52.7584 56.2428C40.9396 63.0664 31.3098 67.0889 24.4026 69.0681C20.9557 70.0558 18.1439 70.5471 16.0555 70.6059C15.0149 70.6351 14.1004 70.5589 13.3571 70.3518C12.6359 70.1509 11.9048 69.7768 11.4993 69.0744C11.0937 68.372 11.1353 67.5518 11.3219 66.8267C11.5142 66.0795 11.9054 65.2494 12.4511 64.3628C13.5462 62.5836 15.3776 60.3942 17.9564 57.9029C18.6213 57.2606 19.3381 56.5961 20.1075 55.9113C20.3305 56.6945 20.588 57.4726 20.8806 58.2437C20.4035 58.6794 19.95 59.1054 19.5197 59.5212C17.0133 61.9425 15.3262 63.9841 14.3672 65.5422C13.8859 66.3242 13.6162 66.9394 13.5009 67.3875C13.4044 67.7625 13.4403 67.918 13.4491 67.9487C13.4712 67.9715 13.588 68.0805 13.961 68.1844C14.4067 68.3086 15.0743 68.3826 15.9922 68.3568C17.8211 68.3053 20.4327 67.8651 23.7828 66.9051C30.4697 64.989 39.9286 61.052 51.6334 54.2942C63.3381 47.5365 71.4772 41.3133 76.48 36.4804C78.9864 34.0591 80.6734 32.0175 81.6324 30.4594C82.1138 29.6773 82.3835 29.0621 82.4988 28.6141C82.5953 28.239 82.5593 28.0835 82.5506 28.0529C82.5284 28.03 82.4117 27.9211 82.0387 27.8172C81.593 27.693 80.9254 27.619 80.0074 27.6448C78.1786 27.6962 75.567 28.1365 72.2169 29.0964C71.6695 29.2533 71.1036 29.4236 70.5194 29.608C69.9983 28.9686 69.4534 28.356 68.887 27.7707Z" fill="url(#paint2_radial)"/>
<path fill-rule="evenodd" clip-rule="evenodd" d="M21.3544 36.2315C22.9834 36.2315 24.304 37.5527 24.304 39.1825C24.304 40.8123 22.9834 42.1336 21.3544 42.1336C19.7253 42.1336 18.4047 40.8123 18.4047 39.1825C18.4047 37.5527 19.7253 36.2315 21.3544 36.2315Z" fill="white"/>
<path fill-rule="evenodd" clip-rule="evenodd" d="M68.2331 26.1265C69.8629 26.1265 71.1841 27.4477 71.1841 29.0775C71.1841 30.7073 69.8629 32.0286 68.2331 32.0286C66.6032 32.0286 65.282 30.7073 65.282 29.0775C65.282 27.4477 66.6032 26.1265 68.2331 26.1265Z" fill="white"/>
<path fill-rule="evenodd" clip-rule="evenodd" d="M42.2204 72.4442C43.8503 72.4442 45.1715 73.7648 45.1715 75.3939C45.1715 77.0229 43.8503 78.3435 42.2204 78.3435C40.5906 78.3435 39.2694 77.0229 39.2694 75.3939C39.2694 73.7648 40.5906 72.4442 42.2204 72.4442Z" fill="white"/>
</g>
<defs>
<radialGradient id="paint0_radial" cx="0" cy="0" r="1" gradientUnits="userSpaceOnUse" gradientTransform="translate(46.179 39.1556) rotate(57.2255) scale(58.1975 21.8461)">
<stop offset="0.53524" stop-color="white" stop-opacity="0"/>
<stop offset="0.609199" stop-color="white" stop-opacity="0.53"/>
<stop offset="0.727936" stop-color="white"/>
</radialGradient>
<radialGradient id="paint1_radial" cx="0" cy="0" r="1" gradientUnits="userSpaceOnUse" gradientTransform="translate(54.75 54.0002) rotate(-117.225) scale(58.1975 21.8461)">
<stop offset="0.53524" stop-color="white" stop-opacity="0"/>
<stop offset="0.609199" stop-color="white" stop-opacity="0.53"/>
<stop offset="0.727936" stop-color="white"/>
</radialGradient>
<radialGradient id="paint2_radial" cx="0" cy="0" r="1" gradientUnits="userSpaceOnUse" gradientTransform="translate(21.7502 57.0005) rotate(-21.9149) scale(105.498 39.6018)">
<stop offset="0.0364583" stop-color="white" stop-opacity="0"/>
<stop offset="0.119409" stop-color="white"/>
<stop offset="0.20959" stop-color="white"/>
</radialGradient>
</defs>
</svg>
