<svg width="64" height="64" viewBox="0 0 64 64" fill="none" xmlns="http://www.w3.org/2000/svg">
<path fill-rule="evenodd" clip-rule="evenodd" d="M32 0.0615234C49.6391 0.0615234 63.9385 14.3609 63.9385 32.0001C63.9385 49.6393 49.6391 63.9386 32 63.9386C14.3608 63.9386 0.0614166 49.6393 0.0614166 32.0001C0.0614166 14.3609 14.3608 0.0615234 32 0.0615234Z" fill="#2E2D2D"/>
<path fill-rule="evenodd" clip-rule="evenodd" d="M31.9386 13.5739C42.115 13.5739 50.3647 21.8235 50.3647 32C50.3647 42.1764 42.115 50.4261 31.9386 50.4261C21.7621 50.4261 13.5125 42.1764 13.5125 32C13.5125 21.8235 21.7621 13.5739 31.9386 13.5739Z" fill="#0D0D0D"/>
<path fill-rule="evenodd" clip-rule="evenodd" d="M32.5016 5.52428C32.2479 5.29079 32.117 5.28638 32.095 5.28638C32.073 5.28638 31.942 5.2908 31.6883 5.52428C31.4279 5.76396 31.1166 6.17749 30.7811 6.81555C30.1116 8.08911 29.4708 10.0141 28.9185 12.498C27.8184 17.4456 27.1271 24.3412 27.1271 31.9999C27.1271 39.6587 27.8184 46.5543 28.9185 51.5018C29.4708 53.9858 30.1116 55.9108 30.7811 57.1843C31.1166 57.8224 31.4279 58.2359 31.6883 58.4756C31.942 58.7091 32.073 58.7135 32.095 58.7135C32.117 58.7135 32.2479 58.7091 32.5016 58.4756C32.7621 58.2359 33.0734 57.8224 33.4088 57.1843C34.0783 55.9108 34.7191 53.9858 35.2715 51.5018C36.3716 46.5543 37.0628 39.6587 37.0628 31.9999C37.0628 24.3412 36.3716 17.4456 35.2715 12.498C34.7191 10.0141 34.0783 8.08911 33.4088 6.81555C33.0734 6.17749 32.7621 5.76396 32.5016 5.52428ZM38.3128 31.9999C38.3128 16.5561 35.529 4.03638 32.095 4.03638C28.661 4.03638 25.8771 16.5561 25.8771 31.9999C25.8771 47.4438 28.661 59.9635 32.095 59.9635C35.529 59.9635 38.3128 47.4438 38.3128 31.9999Z" fill="white"/>
<path fill-rule="evenodd" clip-rule="evenodd" d="M55.2414 19.1133C55.3168 18.7771 55.2551 18.6621 55.2444 18.6436C55.2337 18.6251 55.1646 18.5139 54.8351 18.411C54.4971 18.3054 53.9829 18.2427 53.2621 18.2714C51.8235 18.3287 49.8347 18.7366 47.406 19.5006C42.5684 21.0222 36.2472 23.8718 29.6103 27.7012C22.9735 31.5305 17.3436 35.5766 13.6062 39.0026C11.7298 40.7226 10.382 42.2398 9.61314 43.4561C9.22792 44.0654 9.02527 44.5416 8.94783 44.8867C8.87242 45.2227 8.93407 45.3378 8.94477 45.3563C8.95551 45.3749 9.0246 45.4861 9.35405 45.589C9.69213 45.6946 10.2063 45.7573 10.9271 45.7286C12.3657 45.6713 14.3545 45.2633 16.7832 44.4994C21.6208 42.9777 27.942 40.1282 34.5789 36.2988C41.2157 32.4694 46.8456 28.4234 50.583 24.9974C52.4594 23.2774 53.8072 21.7602 54.5761 20.5439C54.9613 19.9345 55.1639 19.4584 55.2414 19.1133ZM7.86241 45.9816C9.57948 48.9537 21.8205 45.1033 35.2036 37.3815C48.5866 29.6597 58.0438 20.9905 56.3268 18.0184C54.6097 15.0462 42.3687 18.8966 28.9856 26.6185C15.6026 34.3403 6.14539 43.0095 7.86241 45.9816Z" fill="white"/>
<path fill-rule="evenodd" clip-rule="evenodd" d="M56.3268 45.9816C58.0438 43.0095 48.5866 34.3403 35.2036 26.6185C21.8205 18.8966 9.57948 15.0462 7.86241 18.0184C6.14539 20.9905 15.6026 29.6597 28.9856 37.3815C42.3687 45.1033 54.6097 48.9537 56.3268 45.9816ZM8.94478 18.6436C8.95556 18.625 9.02472 18.5139 9.35405 18.411C9.69213 18.3054 10.2063 18.2427 10.9271 18.2714C12.3657 18.3287 14.3545 18.7366 16.7832 19.5006C21.6208 21.0222 27.942 23.8718 34.5789 27.7012C41.2157 31.5305 46.8456 35.5766 50.583 39.0026C52.4594 40.7226 53.8072 42.2398 54.5761 43.4561C54.9613 44.0654 55.1639 44.5416 55.2414 44.8867C55.3168 45.2228 55.2551 45.3378 55.2444 45.3563C55.2337 45.3749 55.1646 45.4861 54.8351 45.589C54.4971 45.6946 53.9829 45.7573 53.2621 45.7286C51.8235 45.6713 49.8347 45.2633 47.406 44.4994C42.5684 42.9777 36.2472 40.1282 29.6103 36.2988C22.9735 32.4694 17.3436 28.4234 13.6062 24.9974C11.7298 23.2774 10.382 21.7602 9.61314 20.5439C9.22792 19.9345 9.02527 19.4584 8.94783 19.1133C8.87242 18.7772 8.93406 18.6622 8.94477 18.6437" fill="white"/>
<path fill-rule="evenodd" clip-rule="evenodd" d="M14.2217 24.1688C15.3077 24.1688 16.1881 25.0496 16.1881 26.1362C16.1881 27.2227 15.3077 28.1035 14.2217 28.1035C13.1357 28.1035 12.2553 27.2227 12.2553 26.1362C12.2553 25.0496 13.1357 24.1688 14.2217 24.1688Z" fill="white"/>
<path fill-rule="evenodd" clip-rule="evenodd" d="M45.4741 17.4319C46.5607 17.4319 47.4415 18.3127 47.4415 19.3993C47.4415 20.4858 46.5607 21.3666 45.4741 21.3666C44.3876 21.3666 43.5067 20.4858 43.5067 19.3993C43.5067 18.3127 44.3876 17.4319 45.4741 17.4319Z" fill="white"/>
<path fill-rule="evenodd" clip-rule="evenodd" d="M28.1325 48.3108C29.219 48.3108 30.0998 49.1912 30.0998 50.2772C30.0998 51.3632 29.219 52.2436 28.1325 52.2436C27.0459 52.2436 26.1651 51.3632 26.1651 50.2772C26.1651 49.1912 27.0459 48.3108 28.1325 48.3108Z" fill="white"/>
<path fill-rule="evenodd" clip-rule="evenodd" d="M31.9854 28.6546C33.825 28.6546 35.3163 30.1459 35.3163 31.9854C35.3163 33.825 33.825 35.3163 31.9854 35.3163C30.1459 35.3163 28.6546 33.825 28.6546 31.9854C28.6546 30.1459 30.1459 28.6546 31.9854 28.6546Z" fill="white"/>
</svg>
