<svg width="32" height="32" viewBox="0 0 32 32" fill="none" xmlns="http://www.w3.org/2000/svg">
<path fill-rule="evenodd" clip-rule="evenodd" d="M16 0.399902C7.2 0.399902 0 7.5999 0 16.3999C0 23.4999 4.6 29.4999 10.9 31.5999C11.7 31.6999 12 31.2999 12 30.7999C12 30.3999 12 29.3999 12 28.0999C7.5 29.0999 6.6 25.9999 6.6 25.9999C5.9 24.1999 4.8 23.6999 4.8 23.6999C3.3 22.6999 4.9 22.6999 4.9 22.6999C6.5 22.7999 7.4 24.2999 7.4 24.2999C8.8 26.6999 11.1 25.9999 12.1 25.5999C12.2 24.5999 12.7 23.8999 13.1 23.4999C9.5 23.0999 5.8 21.6999 5.8 15.5999C5.8 13.8999 6.4 12.3999 7.4 11.2999C7.2 10.8999 6.7 9.2999 7.6 7.0999C7.6 7.0999 8.9 6.6999 12 8.6999C13.3 8.2999 14.6 8.1999 16 8.1999C17.4 8.1999 18.7 8.3999 20 8.6999C23.1 6.5999 24.4 6.9999 24.4 6.9999C25.3 9.1999 24.7 10.7999 24.6 11.1999C25.6 12.2999 26.2 13.6999 26.2 15.4999C26.2 21.5999 22.5 22.9999 18.9 23.3999C19.5 23.8999 20 24.8999 20 26.3999C20 28.4999 20 30.2999 20 30.7999C20 31.1999 20.3 31.6999 21.1 31.5999C27.4 29.4999 32 23.4999 32 16.3999C32 7.5999 24.8 0.399902 16 0.399902Z" fill="white" fill-opacity="0.5"/>
</svg>
