<svg width="64" height="64" viewBox="0 0 64 64" fill="none" xmlns="http://www.w3.org/2000/svg">
<rect width="64" height="64" rx="16" fill="white" fill-opacity="0.1"/>
<path d="M50.333 12H14.333C13.8026 12 13.2939 12.2107 12.9188 12.5858C12.5437 12.9609 12.333 13.4696 12.333 14V50C12.333 50.5304 12.5437 51.0391 12.9188 51.4142C13.2939 51.7893 13.8026 52 14.333 52H50.333C50.8634 52 51.3722 51.7893 51.7472 51.4142C52.1223 51.0391 52.333 50.5304 52.333 50V14C52.333 13.4696 52.1223 12.9609 51.7472 12.5858C51.3722 12.2107 50.8634 12 50.333 12ZM30.333 48H16.333V28H30.333V48ZM48.333 48H34.333V28H48.333V48ZM48.333 24H16.333V16H48.333V24Z" fill="#4251FA"/>
</svg>
