<svg width="64" height="64" viewBox="0 0 64 64" fill="none" xmlns="http://www.w3.org/2000/svg">
<rect width="64" height="64" rx="16" fill="white" fill-opacity="0.1"/>
<path d="M49.667 36H47.667V16H49.667C50.1974 16 50.7061 15.7893 51.0812 15.4142C51.4563 15.0391 51.667 14.5304 51.667 14C51.667 13.4696 51.4563 12.9609 51.0812 12.5858C50.7061 12.2107 50.1974 12 49.667 12H13.667C13.1366 12 12.6279 12.2107 12.2528 12.5858C11.8777 12.9609 11.667 13.4696 11.667 14C11.667 14.5304 11.8777 15.0391 12.2528 15.4142C12.6279 15.7893 13.1366 16 13.667 16H15.667V36H13.667C13.1366 36 12.6279 36.2107 12.2528 36.5858C11.8777 36.9609 11.667 37.4696 11.667 38C11.667 38.5304 11.8777 39.0391 12.2528 39.4142C12.6279 39.7893 13.1366 40 13.667 40H29.667V42.3L20.567 48.3C20.1937 48.5311 19.9068 48.8786 19.7505 49.289C19.5943 49.6993 19.5775 50.1496 19.7026 50.5705C19.8277 50.9914 20.0878 51.3594 20.4429 51.6177C20.7979 51.8761 21.228 52.0104 21.667 52C22.0602 52.0045 22.4449 51.8856 22.767 51.66L29.667 47.1V50C29.667 50.5304 29.8777 51.0391 30.2528 51.4142C30.6279 51.7893 31.1366 52 31.667 52C32.1974 52 32.7061 51.7893 33.0812 51.4142C33.4563 51.0391 33.667 50.5304 33.667 50V47.1L40.567 51.66C40.8891 51.8856 41.2738 52.0045 41.667 52C42.0943 51.9967 42.5093 51.8566 42.8512 51.6003C43.1931 51.344 43.4439 50.9849 43.5669 50.5757C43.6899 50.1665 43.6786 49.7286 43.5346 49.3263C43.3907 48.924 43.1217 48.5783 42.767 48.34L33.667 42.34V40H49.667C50.1974 40 50.7061 39.7893 51.0812 39.4142C51.4563 39.0391 51.667 38.5304 51.667 38C51.667 37.4696 51.4563 36.9609 51.0812 36.5858C50.7061 36.2107 50.1974 36 49.667 36ZM43.667 36H19.667V16H43.667V36ZM26.887 32.52C27.42 32.8349 28.0278 33.0011 28.647 33.0011C29.2661 33.0011 29.8739 32.8349 30.407 32.52L36.407 29.04C36.9199 28.7252 37.3436 28.2841 37.6375 27.7589C37.9314 27.2337 38.0857 26.6419 38.0857 26.04C38.0857 25.4381 37.9314 24.8463 37.6375 24.3211C37.3436 23.7959 36.9199 23.3548 36.407 23.04L30.407 19.56C29.8739 19.2451 29.2661 19.0789 28.647 19.0789C28.0278 19.0789 27.42 19.2451 26.887 19.56C26.3499 19.8628 25.9046 20.3052 25.5983 20.8403C25.292 21.3755 25.136 21.9835 25.147 22.6V29.56C25.1503 30.163 25.313 30.7544 25.6186 31.2742C25.9242 31.794 26.3618 32.2238 26.887 32.52ZM29.147 23.36L33.667 26L29.107 28.64L29.147 23.36Z" fill="#6563FF"/>
</svg>
