<svg width="64" height="64" viewBox="0 0 64 64" fill="none" xmlns="http://www.w3.org/2000/svg">
<rect width="64" height="64" rx="16" fill="white" fill-opacity="0.1"/>
<path d="M44.4171 26.2491C44.418 24.4057 44.0085 22.5853 43.2183 20.92C42.4279 19.2544 41.2766 17.7857 39.8479 16.6206C38.4192 15.4554 36.749 14.623 34.9585 14.1838C33.168 13.7446 31.3021 13.7097 29.4964 14.0815L29.4962 14.0815C27.3951 14.5165 25.4426 15.4885 23.829 16.9028C22.2155 18.3171 20.9959 20.1254 20.2894 22.1514C19.5828 24.1773 19.4132 26.3518 19.7973 28.4628C20.1813 30.5738 21.1059 32.5493 22.4807 34.1965L22.4807 34.1966L22.4842 34.2007C24.4874 36.4978 25.6147 39.4288 25.6671 42.4762L25.6714 42.7219H25.9171H29.9727H30.2227V42.4719V36.3886C30.2227 35.9171 30.41 35.4649 30.7434 35.1315C31.0768 34.7981 31.529 34.6108 32.0005 34.6108C32.4719 34.6108 32.9241 34.7981 33.2575 35.1315C33.5909 35.4649 33.7782 35.9171 33.7782 36.3886V42.4719V42.7219H34.0282H38.0838H38.3216L38.3335 42.4844C38.4886 39.3798 39.6577 36.4118 41.6613 34.0353L41.6637 34.0324C43.4587 31.837 44.4323 29.0847 44.4171 26.2491ZM44.4171 26.2491C44.4171 26.2493 44.4171 26.2496 44.4171 26.2498L44.1671 26.2497M44.4171 26.2491C44.4171 26.2488 44.4171 26.2486 44.4171 26.2483L44.1671 26.2497M44.1671 26.2497C44.1821 29.0275 43.2285 31.7236 41.4702 33.8741M44.1671 26.2497C44.1681 24.4432 43.7668 22.6592 42.9924 21.0272C42.218 19.3951 41.0898 17.956 39.6899 16.8143C38.29 15.6726 36.6534 14.857 34.8989 14.4266C33.1444 13.9963 31.3162 13.962 29.5468 14.3263C27.4881 14.7526 25.5749 15.705 23.9938 17.0908C22.4127 18.4767 21.2178 20.2485 20.5254 22.2337C19.8331 24.2189 19.6669 26.3496 20.0433 28.4181C20.4196 30.4866 21.3255 32.4222 22.6727 34.0364L41.4702 33.8741M41.4702 33.8741C39.4313 36.2925 38.2417 39.3127 38.0838 42.4719L41.4702 33.8741ZM42.1631 13.9111L42.5719 14.2473V14.2195C45.5815 16.8779 47.4847 20.5785 47.8891 24.5869C48.3115 28.7731 47.065 32.9569 44.4205 36.2293C42.8515 38.0859 41.9591 40.4202 41.8895 42.85L41.8894 42.85V42.8572V48.5553C41.8894 50.1024 41.2748 51.5861 40.1808 52.6801C39.0868 53.774 37.6031 54.3886 36.056 54.3886H27.9449C26.3978 54.3886 24.9141 53.774 23.8201 52.6801C22.7261 51.5861 22.1115 50.1024 22.1115 48.5553V42.4719H22.1117L22.1114 42.4642C22.0428 40.2567 21.2037 38.1429 19.7397 36.4894C18.227 34.6657 17.135 32.5308 16.5417 30.2368C15.9481 27.9417 15.8682 25.5439 16.3076 23.2144C16.9096 20.1079 18.4208 17.2502 20.6494 15.0038C22.8781 12.7573 25.7239 11.2235 28.8258 10.5969L28.8262 10.5968C31.1558 10.1218 33.562 10.1729 35.8693 10.7463C38.1766 11.3196 40.3268 12.4009 42.1631 13.9111ZM25.9171 46.2775H25.6671V46.5275V48.5553C25.6671 49.1594 25.9071 49.7387 26.3343 50.1659C26.7614 50.5931 27.3408 50.833 27.9449 50.833H36.056C36.6601 50.833 37.2395 50.5931 37.6666 50.1659C38.0938 49.7387 38.3338 49.1594 38.3338 48.5553V46.5275V46.2775H38.0838H25.9171Z" fill="#4251FA" stroke="#191919" stroke-width="0.5"/>
</svg>
