<svg width="64" height="64" viewBox="0 0 64 64" fill="none" xmlns="http://www.w3.org/2000/svg">
<rect width="64" height="64" rx="16" fill="white" fill-opacity="0.1"/>
<path d="M32.267 32.44C33.3341 31.5163 34.1901 30.3738 34.7767 29.09C35.3634 27.8063 35.667 26.4114 35.667 25C35.667 22.3478 34.6134 19.8043 32.7381 17.9289C30.8627 16.0536 28.3192 15 25.667 15C23.0148 15 20.4713 16.0536 18.5959 17.9289C16.7206 19.8043 15.667 22.3478 15.667 25C15.667 26.4114 15.9706 27.8063 16.5572 29.09C17.1439 30.3738 17.9998 31.5163 19.067 32.44C16.2673 33.7078 13.8919 35.7551 12.225 38.3371C10.558 40.9191 9.66994 43.9266 9.66699 47C9.66699 47.5304 9.87771 48.0391 10.2528 48.4142C10.6279 48.7893 11.1366 49 11.667 49C12.1974 49 12.7061 48.7893 13.0812 48.4142C13.4563 48.0391 13.667 47.5304 13.667 47C13.667 43.8174 14.9313 40.7652 17.1817 38.5147C19.4321 36.2643 22.4844 35 25.667 35C28.8496 35 31.9018 36.2643 34.1523 38.5147C36.4027 40.7652 37.667 43.8174 37.667 47C37.667 47.5304 37.8777 48.0391 38.2528 48.4142C38.6279 48.7893 39.1366 49 39.667 49C40.1974 49 40.7061 48.7893 41.0812 48.4142C41.4563 48.0391 41.667 47.5304 41.667 47C41.664 43.9266 40.776 40.9191 39.109 38.3371C37.4421 35.7551 35.0667 33.7078 32.267 32.44ZM25.667 31C24.4803 31 23.3203 30.6481 22.3336 29.9888C21.3469 29.3295 20.5778 28.3925 20.1237 27.2961C19.6696 26.1997 19.5508 24.9933 19.7823 23.8295C20.0138 22.6656 20.5852 21.5965 21.4244 20.7574C22.2635 19.9182 23.3326 19.3468 24.4965 19.1153C25.6603 18.8838 26.8667 19.0026 27.9631 19.4567C29.0595 19.9108 29.9965 20.6799 30.6558 21.6666C31.3151 22.6533 31.667 23.8133 31.667 25C31.667 26.5913 31.0349 28.1174 29.9096 29.2426C28.7844 30.3679 27.2583 31 25.667 31ZM45.147 31.64C46.4269 30.1987 47.263 28.4181 47.5546 26.5127C47.8462 24.6072 47.5808 22.6581 46.7905 20.9C46.0002 19.1419 44.7186 17.6496 43.0999 16.6028C41.4813 15.5561 39.5946 14.9995 37.667 15C37.1366 15 36.6279 15.2107 36.2528 15.5858C35.8777 15.9609 35.667 16.4696 35.667 17C35.667 17.5304 35.8777 18.0391 36.2528 18.4142C36.6279 18.7893 37.1366 19 37.667 19C39.2583 19 40.7844 19.6321 41.9096 20.7574C43.0349 21.8826 43.667 23.4087 43.667 25C43.6642 26.0505 43.3856 27.0818 42.8591 27.9908C42.3326 28.8999 41.5767 29.6548 40.667 30.18C40.3705 30.351 40.1228 30.5953 39.9477 30.8895C39.7726 31.1836 39.676 31.5178 39.667 31.86C39.6586 32.1995 39.7369 32.5356 39.8943 32.8365C40.0518 33.1374 40.2833 33.3933 40.567 33.58L41.347 34.1L41.607 34.24C44.0178 35.3834 46.0516 37.192 47.4689 39.4526C48.8863 41.7133 49.6281 44.3319 49.607 47C49.607 47.5304 49.8177 48.0391 50.1928 48.4142C50.5679 48.7893 51.0766 49 51.607 49C52.1374 49 52.6461 48.7893 53.0212 48.4142C53.3963 48.0391 53.607 47.5304 53.607 47C53.6233 43.9309 52.8546 40.9085 51.3739 38.2201C49.8932 35.5317 47.7497 33.2666 45.147 31.64Z" fill="#4251FA"/>
</svg>
