<svg width="64" height="64" viewBox="0 0 64 64" fill="none" xmlns="http://www.w3.org/2000/svg">
<rect width="64" height="64" rx="16" fill="white" fill-opacity="0.1"/>
<path transform="translate(7 7.5)" fill-rule="evenodd" clip-rule="evenodd" d="M35.3219 5.67743L35.3417 5.69384L35.3704 5.71767C35.3543 5.70423 35.3381 5.69081 35.3219 5.67743ZM35.3017 5.70141L35.3019 5.70161L35.3023 5.7019C35.3021 5.70173 35.3019 5.70157 35.3017 5.70141ZM37.1671 18.2497L37.6671 18.2499V18.2485C37.6824 21.142 36.6888 23.9504 34.8573 26.1906L34.8525 26.1964C32.884 28.5311 31.7356 31.4469 31.5832 34.4969L31.5594 34.9719H26.5282V28.3886C26.5282 27.9834 26.3673 27.5948 26.0808 27.3083C25.7942 27.0218 25.4056 26.8608 25.0005 26.8608C24.5953 26.8608 24.2067 27.0218 23.9201 27.3083C23.6336 27.5948 23.4727 27.9834 23.4727 28.3886V34.9719H18.4256L18.4172 34.4805C18.3657 31.492 17.2602 28.6177 15.2958 26.365L15.2887 26.3568C13.8862 24.6764 12.9431 22.6611 12.5513 20.5076C12.1595 18.3541 12.3325 16.1358 13.0533 14.0691C13.7741 12.0023 15.0182 10.1576 16.6642 8.71484C18.3103 7.27207 20.3021 6.28046 22.4455 5.8367C24.2875 5.45743 26.1915 5.49299 28.018 5.94103C29.8446 6.38906 31.5484 7.23822 33.0059 8.42683C34.4634 9.61545 35.6379 11.1137 36.4441 12.8128C37.2502 14.5115 37.6679 16.3683 37.6671 18.2485L37.6671 18.247L37.1671 18.2497ZM35.0043 6.10416L35.7313 6.7021C38.5057 9.29416 40.2571 12.8126 40.6404 16.612C41.0561 20.7318 39.8297 24.8491 37.2278 28.07C35.6233 29.9695 34.7108 32.3573 34.6396 34.8429L34.6394 34.85V40.5553C34.6394 42.0361 34.0511 43.4562 33.004 44.5033C31.957 45.5504 30.5368 46.1386 29.056 46.1386H20.9449C19.4641 46.1386 18.044 45.5504 16.9969 44.5033C15.9498 43.4562 15.3615 42.0361 15.3615 40.5553V34.4642L15.3613 34.4564C15.2909 32.1919 14.4306 30.0235 12.9296 28.3268C11.4416 26.532 10.3675 24.4313 9.78374 22.1742C9.19938 19.9149 9.12067 17.5546 9.55319 15.2614C10.1458 12.2037 11.6333 9.39096 13.8268 7.1799C16.0207 4.96855 18.8229 3.45854 21.8762 2.84179C24.1693 2.37423 26.5378 2.42448 28.809 2.98888C31.0802 3.55328 33.1968 4.61759 35.0043 6.10416ZM31.5838 38.0275H18.4171V40.5553C18.4171 41.2257 18.6834 41.8686 19.1575 42.3427C19.6315 42.8167 20.2745 43.083 20.9449 43.083H29.056C29.7264 43.083 30.3694 42.8167 30.8434 42.3427C31.3175 41.8686 31.5838 41.2257 31.5838 40.5553V38.0275Z" fill="#4251FA"/>
</svg>
