<svg width="40" height="40" viewBox="0 0 40 40" fill="none" xmlns="http://www.w3.org/2000/svg">
<g clip-path="url(#clip0_2175:5002)">
<rect width="40" height="40" fill="white"/>
<g clip-path="url(#clip1_2175:5002)">
<path d="M-0.379353 20.3802C-0.379353 31.6363 8.74459 40.7602 20.0006 40.7602C31.255 40.7602 40.3789 31.6363 40.3789 20.3802C40.3789 9.12416 31.255 0.000213623 20.0006 0.000213623C8.74459 0.000213623 -0.379353 9.12416 -0.379353 20.3802Z" fill="#F15A29"/>
<path d="M12.3564 24.8684C13.1984 23.5072 14.3773 22.4828 15.7281 21.7952V18.6162C15.7281 16.0309 17.7474 13.9283 20.2302 13.9283C22.713 13.9283 24.734 16.0309 24.734 18.6162V21.7848C26.1056 22.4776 27.3019 23.5124 28.1544 24.8927V19.7343H28.1492V18.3158C28.1457 12.9317 24.0465 10.4802 20.2389 10.4802C17.9418 10.4802 15.8028 11.3379 14.3687 12.8345C13.0335 14.227 12.3598 16.0709 12.3633 18.3106L12.3581 19.7326H12.3564V24.8684ZM12.3564 29.7576L15.7281 29.7663V23.0818C15.1552 23.4256 14.6291 23.8284 14.1759 24.3006C13.2887 25.2261 12.6776 26.3806 12.3564 27.7002V29.7576ZM17.0893 21.2292C18.1016 20.8993 19.1676 20.7275 20.2372 20.7275C21.3015 20.7275 22.3623 20.8976 23.3693 21.224V18.6162C23.3693 16.8105 21.963 15.3468 20.2285 15.3468C18.494 15.3468 17.0876 16.8105 17.0876 18.6162V21.2292H17.0893ZM17.0893 26.2053C17.8637 25.3094 18.9836 24.7416 20.2302 24.7416C21.4768 24.7416 22.595 25.3094 23.3711 26.2053V22.422C22.3623 22.0487 21.2911 21.863 20.2389 21.863C19.1346 21.863 18.0686 22.0626 17.0911 22.4272V26.2053H17.0893ZM24.734 29.7663L28.1544 29.7576V27.7419C27.6266 25.5681 26.3418 24.0263 24.734 23.0696V29.7663ZM11.0003 18.3141C10.9882 12.1435 15.6101 9.06165 20.2372 9.06165C24.8694 9.06165 29.5069 12.1487 29.5087 18.3141H29.5156V29.9799V30.6206C29.5156 30.9348 29.2726 31.1883 28.9704 31.1883H23.9145C23.6124 31.1883 23.3693 30.9348 23.3693 30.6206V29.2836C23.3693 27.4936 22.0446 25.931 20.3257 25.8771C18.5461 25.8216 17.0893 27.3061 17.0893 29.1465V30.6206C17.0893 30.9348 16.8463 31.1883 16.5442 31.1883H11.5368C11.2347 31.1883 10.9917 30.9348 10.9917 30.6206V29.9799V18.3141H11.0003Z" fill="#E7E3E0"/>
</g>
</g>
<defs>
<clipPath id="clip0_2175:5002">
<rect width="40" height="40" rx="20" fill="white"/>
</clipPath>
<clipPath id="clip1_2175:5002">
<rect width="40.7583" height="40.76" fill="white" transform="matrix(-1 0 0 1 40.3789 0.000213623)"/>
</clipPath>
</defs>
</svg>
