<svg width="40" height="40" viewBox="0 0 40 40" fill="none" xmlns="http://www.w3.org/2000/svg">
<rect width="40" height="40" fill="#FC015B"/>
<path d="M19.7044 6C18.674 6 17.6436 6.10304 16.6132 6.36064C16.6132 6.41216 16.6132 6.46368 16.6132 6.5152V23.2593C16.6132 23.6199 16.3041 23.8775 15.9949 23.8775H14.7584C14.5008 23.8775 14.2948 23.6715 14.2948 23.4139V7.08193C9.40034 9.14274 6 13.9856 6 19.5498C6 27.0718 12.1309 33.1512 19.7559 33.1512C27.3809 33.1512 33.4603 27.0718 33.4603 19.6014C33.4603 12.1309 27.2779 6 19.7044 6ZM19.4468 25.2171C19.4468 25.5262 19.1892 25.7838 18.8801 25.7838H17.6436C17.3345 25.7838 17.0769 25.5262 17.0769 25.2171V16.6132C17.0769 16.3041 17.3345 16.0465 17.6436 16.0465H18.8801C19.1892 16.0465 19.4468 16.3041 19.4468 16.6132V25.2171ZM22.2289 26.0414C22.2289 26.3505 21.9713 26.6081 21.6622 26.6081H20.4257C20.1166 26.6081 19.859 26.3505 19.859 26.0414V15.7889C19.859 15.4797 20.1166 15.2221 20.4257 15.2221H21.6622C21.9713 15.2221 22.2289 15.4797 22.2289 15.7889V26.0414ZM25.011 24.4958C25.011 24.8049 24.7534 25.0625 24.4443 25.0625H23.2078C22.8986 25.0625 22.641 24.8049 22.641 24.4958V17.4375C22.641 17.1284 22.8986 16.8708 23.2078 16.8708H24.4443C24.7534 16.8708 25.011 17.1284 25.011 17.4375V24.4958Z" fill="white"/>
</svg>
