<svg width="40" height="40" viewBox="0 0 40 40" fill="none" xmlns="http://www.w3.org/2000/svg">
<rect width="40" height="40" fill="black"/>
<g clip-path="url(#clip0_2329:4767)">
<path d="M7.08984 23.8119V16.877H11.3743V17.9737H8.26557V19.8118H11.0823V20.877H8.26557V22.7157H11.3743V23.8119H7.08984Z" fill="white"/>
<path d="M14.6084 23.8129H13.4729L11.5393 19.0479H12.7939L14.0567 22.4485L15.2876 19.0479H16.479L14.6084 23.8129Z" fill="white"/>
<path d="M17.0076 23.8125V19.0475H18.0965V19.6549C18.3728 19.1657 18.9644 18.9131 19.5088 18.9131C20.1321 18.9131 20.6844 19.1972 20.9369 19.7567C21.3077 19.1333 21.8679 18.9131 22.4834 18.9131C23.3434 18.9131 24.164 19.4575 24.164 20.72V23.8125H23.0673V20.9095C23.0673 20.3493 22.7832 19.9311 22.1441 19.9311C21.5445 19.9311 21.1579 20.4046 21.1579 20.9885V23.8125H20.0453V20.9095C20.0453 20.365 19.7689 19.9311 19.1222 19.9311C18.5146 19.9311 18.1359 20.3809 18.1359 20.9885V23.8125H17.0076Z" fill="white"/>
<path d="M29.6322 21.4301C29.6322 22.8978 28.5828 23.963 27.1546 23.963C25.7343 23.963 24.6929 22.8978 24.6929 21.4301C24.6929 19.9705 25.7423 18.9053 27.1546 18.9053C28.5828 18.9053 29.6322 19.9705 29.6322 21.4301ZM28.4881 21.4301C28.4881 20.4439 27.8647 19.931 27.1546 19.931C26.4603 19.931 25.8212 20.4361 25.8212 21.4301C25.8212 22.4242 26.4603 22.945 27.1546 22.945C27.8568 22.945 28.4881 22.4243 28.4881 21.4301Z" fill="white"/>
<path d="M30.9024 22.2508C30.942 22.6847 31.2661 23.0635 31.8729 23.0635C32.3464 23.0635 32.583 22.8109 32.583 22.519C32.583 22.2665 32.4095 22.0693 32.0229 21.9904L31.3206 21.8326C30.477 21.6435 30.0425 21.0988 30.0425 20.4439C30.0425 19.6148 30.8077 18.9053 31.7941 18.9053C33.1275 18.9053 33.5541 19.7654 33.6325 20.2387L32.6777 20.515C32.6383 20.2387 32.4332 19.8049 31.7941 19.8049C31.3916 19.8049 31.1077 20.0574 31.1077 20.3494C31.1077 20.6019 31.2967 20.7913 31.589 20.8464L32.3148 20.9964C33.2143 21.1936 33.6878 21.7382 33.6878 22.4403C33.6878 23.1661 33.1039 23.9631 31.8888 23.9631C30.5079 23.9631 29.9793 23.0636 29.9241 22.527L30.9024 22.2508Z" fill="white"/>
</g>
<defs>
<clipPath id="clip0_2329:4767">
<rect width="27.3623" height="7.87838" fill="white" transform="translate(6.6377 16.4521)"/>
</clipPath>
</defs>
</svg>
