<svg width="40" height="40" viewBox="0 0 40 40" fill="none" xmlns="http://www.w3.org/2000/svg">
<rect width="40" height="40" fill="#03CDFF"/>
<path fill-rule="evenodd" clip-rule="evenodd" d="M17.4907 23.882C17.5358 23.8785 17.5775 23.8785 17.6227 23.8751C20.8084 23.6597 23.0493 21.3494 24.0185 20.1334C24.088 20.0466 24.088 19.925 24.0185 19.8347C23.0527 18.6187 20.8085 16.3049 17.6192 16.0826C17.5775 16.0791 17.5358 16.0757 17.4907 16.0757C16.8757 17.243 16.5283 18.5701 16.5283 19.9806C16.5318 21.3876 16.8757 22.7147 17.4907 23.882ZM20.8606 19.112C20.8953 19.112 20.9266 19.1155 20.9613 19.119C21.4373 19.1746 21.7812 19.6088 21.7221 20.0848C21.6666 20.5608 21.2323 20.9047 20.7563 20.8456C20.3186 20.7935 19.9886 20.4218 19.9886 19.9806C19.9886 19.5011 20.3811 19.1086 20.8606 19.112Z" fill="white"/>
<path fill-rule="evenodd" clip-rule="evenodd" d="M24.9292 28.7939C29.5672 28.7939 33.3262 25.0349 33.3262 20.397C33.3262 15.759 29.5672 12 24.9292 12C22.4105 12 20.1523 13.1082 18.6133 14.8662C20.3191 15.1684 21.9207 15.9223 23.2478 17.0583C24.1684 17.8157 24.9848 18.6912 25.6762 19.6639L26.0688 20.2476C26.1278 20.3379 26.1278 20.4595 26.0688 20.5498L25.6797 21.1335C24.9918 22.1062 24.1754 22.9817 23.2547 23.7391C21.9311 24.8786 20.3295 25.6325 18.6202 25.9313C20.1523 27.6857 22.4105 28.7939 24.9292 28.7939Z" fill="white"/>
<path fill-rule="evenodd" clip-rule="evenodd" d="M10.032 20.1058C9.97295 20.0328 9.97295 19.9286 10.032 19.8556C12.0053 17.396 14.7256 15.9368 17.491 16.0758C17.8002 15.4887 18.1754 14.9432 18.6096 14.4464C18.3143 14.3943 18.019 14.3561 17.7203 14.3318C15.1251 14.2137 12.589 15.103 10.633 16.8123C10.0424 17.3056 9.497 17.8476 9.0002 18.4382C8.99672 18.4417 8.99325 18.4451 8.98977 18.4451C8.95851 18.466 8.91334 18.459 8.8925 18.4278C8.33316 17.4446 7.89195 16.3954 7.58275 15.3045L7.57928 15.2872C7.48895 15.0579 7.30829 14.8772 7.079 14.7904C6.88793 14.7105 6.67253 14.7174 6.48493 14.8077C6.12709 15.0023 5.93601 15.4088 6.01939 15.8083L6.02287 15.8187C6.42239 17.2466 7.01994 18.6084 7.80162 19.8661C7.84331 19.9321 7.84331 20.0155 7.80162 20.0815C7.01994 21.3426 6.41892 22.7114 6.01592 24.1392L6.01245 24.1566V24.174C6.01245 24.5353 6.22089 24.8619 6.54746 25.0112C6.64474 25.0529 6.75243 25.0773 6.85666 25.0807C7.14154 25.0738 7.4021 24.9279 7.55843 24.6916L7.56885 24.6743L7.5758 24.6569C7.885 23.5625 8.32622 22.5099 8.88902 21.5232C8.8925 21.5197 8.8925 21.5163 8.89597 21.5128C8.92377 21.485 8.96893 21.485 8.99672 21.5128C9.49352 22.1034 10.039 22.6523 10.6296 23.1456C12.4361 24.7125 14.7325 25.5984 17.1227 25.647C17.3173 25.647 17.5153 25.6401 17.7133 25.6262C18.0121 25.6019 18.3109 25.5636 18.6027 25.5115C18.1684 25.0147 17.7897 24.4658 17.4805 23.8787C14.7221 24.0211 12.0053 22.5655 10.032 20.1058Z" fill="white"/>
</svg>
