<svg width="40" height="40" viewBox="0 0 40 40" fill="none" xmlns="http://www.w3.org/2000/svg">
<rect width="40" height="40" fill="white"/>
<rect width="40" height="40" fill="white"/>
<path fill-rule="evenodd" clip-rule="evenodd" d="M13.8942 32.6C12.231 32.6004 10.5684 31.9671 9.3023 30.7013C8.07593 29.475 7.40039 27.8444 7.40039 26.1102C7.40039 24.376 8.07593 22.7454 9.3023 21.519L9.34889 21.4724L17.9406 12.8807L19.3408 14.2805L10.7039 22.9174C9.8499 23.7714 9.38042 24.9046 9.38042 26.1102C9.38042 27.3157 9.8499 28.4489 10.7025 29.3012C12.4621 31.0608 15.3252 31.0608 17.0848 29.3012C17.1085 29.2775 17.9145 28.4715 17.9145 28.4715L19.3143 29.872C19.3143 29.872 18.4986 30.6877 18.4832 30.7028C17.2185 31.9675 15.5563 32.6 13.8942 32.6Z" fill="#DF542A"/>
<path fill-rule="evenodd" clip-rule="evenodd" d="M25.7228 19.3401L17.0859 10.7032C16.2322 9.84953 15.0987 9.3797 13.8931 9.3797C12.6879 9.3797 11.5543 9.84953 10.7021 10.7018C9.84954 11.554 9.38007 12.6875 9.38007 13.8931C9.38007 15.0987 9.84954 16.2319 10.7021 17.0841C10.7157 17.0981 11.5314 17.9137 11.5314 17.9137L10.1316 19.3139L9.30337 18.4853C8.07557 17.2575 7.40039 15.6273 7.40039 13.8931C7.40039 12.1586 8.07557 10.5283 9.30194 9.30157C10.5283 8.07521 12.1589 7.40002 13.8931 7.40002C15.6277 7.40002 17.2583 8.07521 18.4846 9.30193L18.5298 9.34673L27.123 17.9403L25.7228 19.3401Z" fill="#F3B229"/>
<path fill-rule="evenodd" clip-rule="evenodd" d="M22.0603 27.1222L20.6602 25.7224L29.2985 17.0837C30.1507 16.2315 30.6205 15.0983 30.6205 13.8927C30.6205 12.6875 30.1507 11.554 29.2985 10.7018C27.5388 8.94212 24.6758 8.94212 22.9161 10.7018L22.0865 11.531L20.6863 10.1312L21.516 9.30157C22.7423 8.07557 24.3729 7.40002 26.1075 7.40002C27.8417 7.40002 29.4723 8.07557 30.6987 9.30157C31.9247 10.5279 32.6002 12.1586 32.6002 13.8927C32.6002 15.6273 31.9247 17.2579 30.6987 18.4839L22.0603 27.1222Z" fill="#6CC0B1"/>
<path fill-rule="evenodd" clip-rule="evenodd" d="M26.1107 32.6C24.3762 32.6 22.7455 31.9245 21.5192 30.6985L12.8809 22.0602L14.281 20.66L22.9194 29.2983C23.7719 30.1509 24.9051 30.6203 26.1107 30.6203C27.3159 30.6203 28.4491 30.1509 29.3017 29.2983C31.061 27.5387 31.061 24.6756 29.3017 22.916C29.2892 22.9034 28.4721 22.0863 28.4721 22.0863L29.8722 20.6865C29.8722 20.6865 30.6718 21.486 30.6997 21.5136C33.2335 24.0474 33.2335 28.1669 30.7019 30.6981C29.4755 31.9245 27.8449 32.6 26.1107 32.6Z" fill="#35A0CD"/>
</svg>
