<svg width="40" height="40" viewBox="0 0 40 40" fill="none" xmlns="http://www.w3.org/2000/svg">
<rect width="40" height="40" fill="white"/>
<rect width="40" height="40" fill="#073387"/>
<g clip-path="url(#clip0_2168:5508)">
<rect width="32.96" height="13.12" transform="translate(3.52002 13.4399)" fill="#073387"/>
<path d="M3.52002 17.229H4.07604V16.5635H3.52002V17.229ZM3.53568 22.0673H4.06821V18.1293H3.53568V22.0673Z" fill="white"/>
<path d="M5.82568 22.0676H6.35821V20.1808C6.35821 19.9929 6.37388 19.8128 6.42086 19.6484C6.60099 18.9986 7.18051 18.5367 7.85401 18.5367C8.61363 18.5367 8.70761 19.0847 8.70761 19.7032V22.0676H9.24016V19.5623C9.24016 18.5915 8.89558 18.0356 7.92448 18.0356C6.99254 18.0356 6.49135 18.6698 6.35038 19.0299H6.33472C6.33472 19.0299 6.35038 18.889 6.35038 18.7168V18.1296H5.82568V22.0676Z" fill="white"/>
<path d="M14.3403 20.079C14.3403 21.269 15.2722 22.1615 16.4235 22.1615C17.5747 22.1615 18.5066 21.269 18.5066 20.079C18.5066 18.9125 17.5747 18.0356 16.4235 18.0356C15.2722 18.0356 14.3403 18.9125 14.3403 20.079ZM14.8885 20.079C14.8885 19.1865 15.5777 18.521 16.4235 18.521C17.2692 18.521 17.9584 19.1865 17.9584 20.079C17.9584 20.995 17.2692 21.684 16.4235 21.684C15.5777 21.684 14.8885 20.995 14.8885 20.079Z" fill="white"/>
<path d="M19.9717 22.0675H20.5042V20.4077C20.5042 20.1572 20.5356 19.891 20.6139 19.6405C20.7861 19.0611 21.2012 18.6227 21.7572 18.6227C21.859 18.6227 21.953 18.6384 21.953 18.6384V18.1138C21.953 18.1138 21.8512 18.0903 21.7416 18.0903C21.1229 18.0903 20.6844 18.5444 20.4964 19.1394H20.4807C20.4807 19.1394 20.4964 18.9985 20.4964 18.8263V18.1295H19.9717V22.0675Z" fill="white"/>
<path d="M23.2329 22.0676H23.7654V20.2043C23.7654 20.0242 23.7811 19.8441 23.8202 19.6797C23.9847 19.0769 24.4703 18.521 25.1124 18.521C25.8564 18.521 25.9425 19.1004 25.9425 19.6954V22.0676H26.4751V20.2043C26.4751 19.9929 26.4907 19.805 26.5456 19.6328C26.6944 19.0534 27.1877 18.521 27.7907 18.521C28.5112 18.521 28.6444 19.0534 28.6444 19.6954V22.0676H29.1769V19.5623C29.1769 18.5915 28.8245 18.0356 27.8691 18.0356C27.2034 18.0356 26.6317 18.4897 26.4202 19.0221H26.4046C26.2871 18.3723 25.9112 18.0356 25.1829 18.0356C24.572 18.0356 23.9455 18.4975 23.7576 19.0299H23.7419C23.7419 19.0299 23.7576 18.889 23.7576 18.7168V18.1296H23.2329V22.0676Z" fill="white"/>
<path d="M30.5554 20.995C30.5554 21.7779 31.2368 22.1615 31.8946 22.1615C32.8813 22.1615 33.2103 21.3082 33.2103 21.3082H33.2259C33.2259 21.3082 33.2103 21.4412 33.2103 21.637V22.0676H33.7193V19.5466C33.7193 18.5602 33.1946 18.0356 32.247 18.0356C31.3621 18.0356 30.8452 18.4819 30.8452 18.4819L31.0958 18.889C31.0958 18.889 31.5579 18.5132 32.2078 18.5132C32.7717 18.5132 33.1868 18.7715 33.1868 19.531V19.6328H32.9675C32.2862 19.6328 30.5554 19.6641 30.5554 20.995ZM31.1036 20.9637C31.1036 20.0947 32.341 20.0712 32.9596 20.0712H33.1868V20.2434C33.1868 20.9245 32.7325 21.7075 31.9807 21.7075C31.3934 21.7075 31.1036 21.3316 31.1036 20.9637Z" fill="white"/>
<path d="M35.3757 21.1356C35.3757 21.9968 35.9552 22.0986 36.2841 22.0986C36.3859 22.0986 36.48 22.0829 36.48 22.0829V21.6054C36.48 21.6054 36.4172 21.6132 36.3468 21.6132C36.1433 21.6132 35.9081 21.5349 35.9081 21.0182V16.5635H35.3757V21.1356Z" fill="white"/>
<path fill-rule="evenodd" clip-rule="evenodd" d="M13.6872 14.483C14.0754 14.277 14.4426 14.1768 14.7899 14.1768C15.1412 14.1768 15.4211 14.2586 15.6369 14.4149L15.6388 14.4161C15.8518 14.563 15.9511 14.7464 15.9511 14.9715C15.9511 15.1647 15.8994 15.3272 15.7989 15.4636L15.797 15.4664C15.7036 15.603 15.6041 15.6563 15.4984 15.6563C15.4342 15.6563 15.3932 15.6329 15.3626 15.5828C15.3167 15.4982 15.2496 15.3487 15.1609 15.131C15.0849 14.9369 14.9893 14.7813 14.8707 14.6708C14.7535 14.5454 14.6017 14.4837 14.4235 14.4837C14.1204 14.4837 13.8697 14.652 13.6706 14.9549L13.6696 14.9565C13.4832 15.2531 13.301 15.7114 13.1212 16.3245C13.0231 16.6597 12.9452 16.9711 12.8876 17.2588C12.8714 17.3234 12.8591 17.3758 12.8507 17.4158C12.843 17.4522 12.8364 17.4879 12.8364 17.5121V17.5366C12.8364 17.6033 12.8588 17.6685 12.9162 17.7135C12.9691 17.7551 13.0373 17.7678 13.1043 17.7678C13.2535 17.7678 13.4668 17.7596 13.7433 17.7434L14.3271 17.7314L14.3316 17.7406L14.3427 17.7517C14.3431 17.752 14.3449 17.7538 14.3468 17.7596C14.3489 17.7658 14.351 17.7764 14.351 17.7931C14.351 17.8251 14.3274 17.8927 14.2469 18.0054L14.2455 18.0074L14.2442 18.0094C14.2106 18.0618 14.1812 18.0955 14.1573 18.1152C14.1335 18.1348 14.121 18.1358 14.1181 18.1358L13.0909 18.1603C12.9542 18.1604 12.8352 18.1813 12.7476 18.2361L12.745 18.2377L12.7426 18.2394C12.6625 18.2966 12.612 18.3836 12.5835 18.4872C12.0695 20.232 11.9597 20.7717 11.6203 22.4395L11.5706 22.684L11.5701 22.6862L11.5698 22.6885C11.5239 22.9846 11.3953 23.3413 11.2472 23.6789C11.0998 24.015 10.936 24.3259 10.8237 24.5288C10.6009 24.9315 10.3627 25.2537 10.1102 25.4977L10.1091 25.4989C9.86194 25.7459 9.62223 25.9259 9.3903 26.0418C9.19727 26.1383 9.04393 26.2052 8.92857 26.2447L8.87695 26.1186C8.97398 26.0581 9.0814 25.9712 9.19875 25.8609C9.35516 25.7226 9.50396 25.5368 9.64601 25.3062C9.79842 25.0729 9.9359 24.7885 10.0592 24.4542C10.1903 24.1305 10.4576 23.3611 10.5295 22.9151L11.4758 18.5387C11.4872 18.5017 11.4912 18.4596 11.4912 18.416C11.4912 18.347 11.463 18.2843 11.4022 18.2437C11.3484 18.2078 11.2798 18.1969 11.2111 18.1969L10.4774 18.2091C10.4272 18.209 10.4035 18.1996 10.3931 18.1928C10.387 18.1808 10.3797 18.1563 10.3797 18.1106C10.3797 18.0569 10.4008 17.9963 10.4558 17.9273C10.5151 17.855 10.5773 17.8225 10.6434 17.8165L11.438 17.7798L11.4406 17.7796C11.5823 17.7654 11.6589 17.6497 11.6954 17.5135L11.7927 17.1729C12.002 16.4726 12.2744 15.9018 12.6077 15.4573C12.9518 15.0012 13.3119 14.6785 13.6866 14.4834L13.6872 14.483Z" fill="white"/>
</g>
<defs>
<clipPath id="clip0_2168:5508">
<rect width="32.96" height="13.12" fill="white" transform="translate(3.52002 13.4399)"/>
</clipPath>
</defs>
</svg>
