<svg width="40" height="40" viewBox="0 0 40 40" fill="none" xmlns="http://www.w3.org/2000/svg">
<rect width="40" height="40" fill="black"/>
<path d="M10.261 10.7531C10.428 10.5381 10.605 10.3321 10.782 10.1251C10.79 10.1151 10.808 10.1131 10.816 10.1031C10.832 10.0831 10.858 10.0701 10.874 10.0501L10.89 10.0301C11.013 9.91311 11.144 9.78611 11.296 9.67511C11.8009 9.27388 12.3672 8.95649 12.973 8.73511C14.853 8.06111 16.945 8.47711 18.586 10.0611C20.876 12.2561 20.671 15.7941 18.843 18.1451C16.531 21.6491 12.56 26.5391 18.059 30.9191C19.048 31.7071 19.781 32.3561 22.895 33.2761C20.859 33.6601 18.97 33.5411 16.868 32.9921C15.381 32.1331 13.043 30.2961 12.248 27.8141C11.045 24.0511 14.364 18.4251 15.968 16.2591C18.17 13.2591 14.607 10.0141 11.984 13.6381C10.612 15.5261 8.21395 20.8711 9.04695 24.8351C9.53395 27.0831 10.184 28.7221 12.76 30.9731C12.274 30.6789 11.8092 30.3511 11.369 29.9921C5.38295 24.2921 6.07795 15.4781 10.261 10.7531Z" fill="url(#paint0_linear_2175:4878)"/>
<path d="M30.636 28.7471C30.469 28.9621 30.292 29.1681 30.115 29.3751C30.107 29.3851 30.089 29.3871 30.081 29.3971C30.065 29.4171 30.039 29.4301 30.023 29.4501L30.007 29.4701C29.884 29.5871 29.753 29.7141 29.601 29.8251C29.096 30.2263 28.5298 30.5437 27.924 30.7651C26.044 31.4391 23.952 31.0231 22.311 29.4391C20.021 27.2441 20.226 23.7061 22.054 21.3551C24.365 17.8511 28.337 12.9611 22.838 8.5811C21.849 7.7931 21.116 7.1441 18.001 6.2241C20.038 5.8401 21.927 5.9591 24.029 6.5081C25.516 7.3671 27.854 9.2041 28.649 11.6861C29.852 15.4491 26.533 21.0751 24.929 23.2411C22.727 26.2411 26.29 29.4861 28.913 25.8621C30.285 23.9741 32.683 18.6291 31.85 14.6651C31.362 12.4171 30.713 10.7781 28.137 8.5271C28.614 8.8151 29.078 9.1421 29.528 9.5081C35.513 15.2081 34.819 24.0221 30.636 28.7471Z" fill="url(#paint1_linear_2175:4878)"/>
<defs>
<linearGradient id="paint0_linear_2175:4878" x1="6.99995" y1="19.7501" x2="33.897" y2="19.7501" gradientUnits="userSpaceOnUse">
<stop stop-color="#0082FA"/>
<stop offset="1" stop-color="#00F2FE"/>
</linearGradient>
<linearGradient id="paint1_linear_2175:4878" x1="6.99998" y1="19.7501" x2="33.897" y2="19.7501" gradientUnits="userSpaceOnUse">
<stop stop-color="#0082FA"/>
<stop offset="1" stop-color="#00F2FE"/>
</linearGradient>
</defs>
</svg>
