<svg width="40" height="40" viewBox="0 0 40 40" fill="none" xmlns="http://www.w3.org/2000/svg">
<rect width="40" height="40" fill="#00D2FF"/>
<g clip-path="url(#clip0_2175:4804)">
<path fill-rule="evenodd" clip-rule="evenodd" d="M28.6827 22.2905C27.7047 22.2905 26.9114 21.4975 26.9114 20.5191C26.9114 19.5408 27.7047 18.7478 28.6827 18.7478C29.661 18.7478 30.454 19.5408 30.454 20.5191C30.454 21.4975 29.661 22.2905 28.6827 22.2905ZM28.6827 15.5093C25.9158 15.5093 23.6729 17.7523 23.6729 20.5191C23.6729 23.286 25.9158 25.529 28.6827 25.529C31.4496 25.529 33.6925 23.286 33.6925 20.5191C33.6925 17.7523 31.4496 15.5093 28.6827 15.5093Z" fill="white"/>
<path d="M12.5785 15.5093H9V25.529H12.5785V15.5093Z" fill="white"/>
<path fill-rule="evenodd" clip-rule="evenodd" d="M18.3067 18.0142L15.8018 15.5093H13.2969V18.0142L15.8018 20.5191L13.2969 23.024V25.529H15.8018L18.3067 23.024L20.8116 25.529H23.3166V23.024L20.8116 20.5191L23.3166 18.0142V15.5093H20.8116L18.3067 18.0142Z" fill="white"/>
<path fill-rule="evenodd" clip-rule="evenodd" d="M10.7892 14.7909C9.80122 14.7909 9 13.9896 9 13.0016C9 12.0136 9.80122 11.2124 10.7892 11.2124C11.7772 11.2124 12.5785 12.0136 12.5785 13.0016C12.5785 13.9896 11.7772 14.7909 10.7892 14.7909Z" fill="white"/>
</g>
<defs>
<clipPath id="clip0_2175:4804">
<rect width="25" height="14.6552" fill="white" transform="translate(9 11.1724)"/>
</clipPath>
</defs>
</svg>
