<svg width="40" height="40" viewBox="0 0 40 40" fill="none" xmlns="http://www.w3.org/2000/svg">
<rect width="40" height="40" fill="#28646E"/>
<path d="M20.1456 36.1047C29.0398 36.1047 36.2502 28.8943 36.2502 20.0001C36.2502 11.1058 29.0398 3.89551 20.1456 3.89551C11.2513 3.89551 4.04102 11.1058 4.04102 20.0001C4.04102 28.8943 11.2513 36.1047 20.1456 36.1047Z" fill="url(#paint0_linear_2175:4894)"/>
<path d="M20.1459 35.098C11.8208 35.098 5.04785 28.325 5.04785 20C5.04785 11.6749 11.8208 4.90195 20.1459 4.90195C28.471 4.90195 35.2439 11.6749 35.2439 20C35.2439 28.325 28.471 35.098 20.1459 35.098ZM20.1459 6.18025C12.5254 6.18025 6.32615 12.3805 6.32615 20C6.32615 27.6195 12.5254 33.8197 20.1459 33.8197C27.7654 33.8197 33.9656 27.62 33.9656 20C33.9656 12.38 27.7659 6.18025 20.1464 6.18025H20.1459Z" fill="#28646E"/>
<path d="M19.147 17.242C19.0597 17.2421 18.9745 17.2156 18.9027 17.166C18.8308 17.1165 18.7758 17.0462 18.7449 16.9646C18.714 16.883 18.7088 16.7939 18.7298 16.7092C18.7508 16.6245 18.7971 16.5483 18.8626 16.4906C20.0755 15.4221 20.612 14.5399 20.7071 14.3738C21.0639 13.7528 21.6366 13.4317 22.238 13.5133C22.3488 13.5309 22.4484 13.5911 22.5153 13.6812C22.5822 13.7713 22.6112 13.8839 22.5961 13.9951C22.5809 14.1063 22.5229 14.2071 22.4343 14.276C22.3458 14.3449 22.2338 14.3764 22.1223 14.3638C21.7715 14.3175 21.5365 14.6542 21.4519 14.8016C21.3447 14.9883 20.7443 15.9762 19.4313 17.1348C19.3526 17.2036 19.2515 17.2415 19.147 17.2415V17.242ZM11.9195 24.5192C11.8313 24.5191 11.7453 24.4919 11.6731 24.4412C11.6009 24.3905 11.546 24.3188 11.516 24.2359C11.4859 24.153 11.4821 24.0628 11.505 23.9776C11.528 23.8924 11.5766 23.8164 11.6442 23.7598C12.1425 23.3667 12.6709 23.0134 13.2245 22.7039C13.3257 22.6585 13.4406 22.654 13.5451 22.6913C13.6495 22.7286 13.7355 22.8049 13.7851 22.9041C13.8346 23.0034 13.8438 23.118 13.8108 23.2239C13.7778 23.3298 13.7051 23.4189 13.608 23.4724C13.1139 23.7529 12.6412 24.0694 12.1938 24.4196C12.117 24.4841 12.0198 24.5194 11.9195 24.5192Z" fill="#28646E"/>
<path d="M22.7151 20.4459C22.8852 20.6054 23.083 20.5365 23.2657 20.3639C24.5098 19.1782 25.8273 17.3166 26.2672 16.3503C26.3608 16.144 26.5505 16.0287 26.7543 16.1102C26.9934 16.2074 26.9904 16.6185 26.7735 17.0659C26.1982 18.2486 25.401 19.5521 23.8268 21.1827C23.7936 21.214 23.7673 21.2519 23.7495 21.2939C23.7317 21.336 23.7229 21.3813 23.7237 21.4269C23.7244 21.4726 23.7346 21.5176 23.7536 21.559C23.7727 21.6005 23.8002 21.6376 23.8344 21.6678C23.9733 21.7926 24.1982 21.7846 24.4091 21.5702C25.2269 20.7363 25.7775 20.0911 26.2511 19.4212C26.3718 19.2456 26.5178 19.1746 26.6617 19.2068C26.8686 19.2481 26.9013 19.4469 26.8379 19.686C26.7357 20.0725 25.6491 21.4937 25.2194 21.9758C24.0528 23.2778 22.8852 23.9909 20.6396 25.1585C19.8555 25.5692 19.2692 25.9557 18.9139 26.5551C18.5913 27.1006 18.4942 27.2793 18.461 27.3482C18.3977 27.4765 18.3874 27.6245 18.4322 27.7603C18.477 27.8961 18.5734 28.0089 18.7005 28.0744C18.7653 28.1054 18.8358 28.1229 18.9076 28.1258C18.9794 28.1286 19.051 28.1168 19.1181 28.091C19.1852 28.0653 19.2463 28.0261 19.2977 27.9759C19.3492 27.9257 19.3898 27.8656 19.4172 27.7991C19.4172 27.7926 19.4006 27.8082 19.8228 27.0946C20.1399 26.5843 20.6 26.1784 21.1459 25.9275C23.392 24.9038 24.3125 24.0936 25.6154 22.7906C26.2103 22.1952 27.0321 20.921 27.2586 20.544C27.8867 19.4872 27.557 18.5813 26.9904 18.4273C26.9737 18.4234 26.959 18.4137 26.9489 18.4C26.9388 18.3862 26.9338 18.3693 26.935 18.3523C26.9358 18.3411 26.9393 18.3302 26.9451 18.3206C27.3839 17.5687 27.5832 17.0493 27.6662 16.6467C27.778 16.0997 27.623 15.4359 26.8721 15.2738C26.858 15.2703 26.8452 15.2628 26.8354 15.252C26.8257 15.2412 26.8193 15.2278 26.8172 15.2134C26.8159 15.2036 26.8166 15.1937 26.8192 15.1842C26.8661 15.0106 26.9129 14.7922 26.9451 14.6482C27.1026 13.9376 26.6532 13.2945 26.1137 13.1787C25.9396 13.1398 25.7592 13.1385 25.5845 13.1749C25.4099 13.2114 25.2451 13.2847 25.1011 13.3901C25.0809 13.4035 25.0566 13.4092 25.0326 13.4062C25.0085 13.4031 24.9864 13.3915 24.9702 13.3735C24.8995 13.2942 24.8133 13.2301 24.717 13.1851C24.6208 13.1401 24.5163 13.1152 24.4101 13.1118C23.9395 13.1037 23.4765 13.2482 23.1383 13.9713C22.8958 14.4882 22.5349 15.1827 21.4786 16.3543C20.4982 17.4414 19.1333 18.5013 18.2914 19.0544C18.1434 19.1515 17.9366 19.1283 17.9627 18.93C18.002 18.6145 18.3402 16.4993 18.3971 15.8752C18.4912 14.8621 17.9461 14.3961 17.3352 14.3141C16.8319 14.2456 16.0684 14.3906 15.6502 15.536C15.4036 16.2074 14.8943 17.31 14.4615 19.0866C14.1565 20.3362 14.1067 21.7931 14.385 23.4665C14.4026 23.5675 14.3829 23.6714 14.3296 23.7589C13.9965 24.308 13.5083 25.0302 13.2355 25.6602C13.1811 25.7824 13.174 25.9205 13.2154 26.0476C13.2569 26.1748 13.344 26.2821 13.46 26.3487C13.5232 26.3833 13.5928 26.4047 13.6646 26.4114C13.7364 26.4181 13.8088 26.41 13.8773 26.3877C13.9458 26.3654 14.0091 26.3294 14.0632 26.2817C14.1172 26.2341 14.161 26.1759 14.1918 26.1107C14.3563 25.7684 14.685 25.1243 14.8173 24.8611C15.0438 24.3965 15.1948 24.0901 15.2562 23.8973C15.3115 23.7212 15.3447 23.5173 15.2436 23.0543C15.0725 22.2743 15.0126 20.8082 15.3306 19.5169C15.6775 18.1792 16.1001 16.8624 16.5964 15.5727C16.7242 15.2567 16.9059 15.1581 17.0896 15.1742C17.2723 15.1908 17.6175 15.2788 17.5178 15.923C17.3407 17.0805 17.0891 18.5521 17.006 19.0453C16.9658 19.2874 16.919 19.8545 17.3669 20.1132C17.7161 20.3155 18.1006 20.2028 18.5254 19.9195C19.4816 19.2818 21.1293 17.9829 22.1645 16.8203C23.2506 15.5999 23.5968 14.8737 23.8756 14.2164C24.0035 13.9165 24.3306 13.919 24.4463 13.9527C24.5621 13.9864 24.702 14.1425 24.6034 14.4726C24.3623 15.2748 23.3704 17.1117 21.4594 18.8349C21.243 19.0307 21.2737 19.2612 21.384 19.382C21.4942 19.5028 21.6889 19.5752 21.9114 19.382C23.6285 17.9175 24.6089 16.1676 25.0493 15.232C25.1962 14.92 25.322 14.5989 25.4257 14.2708C25.5193 13.999 25.7287 13.9019 25.8751 13.9321C26.084 13.9764 26.2224 14.1908 26.1554 14.5436C26.0486 14.9945 25.8916 15.432 25.6874 15.848C25.1373 17.0166 23.9748 18.5808 22.7211 19.9225C22.6842 19.9552 22.6545 19.9952 22.634 20.0401C22.6135 20.085 22.6027 20.1336 22.6022 20.183C22.6016 20.2323 22.6115 20.2812 22.631 20.3265C22.6505 20.3717 22.6794 20.4124 22.7156 20.4459H22.7151ZM14.9512 14.6271C15.0176 14.5687 14.9914 14.4942 14.9723 14.4339C14.8807 14.1389 14.3538 12.9049 14.2159 12.6568C14.146 12.532 14.0579 12.5149 13.9638 12.5511C13.8395 12.5984 13.686 12.7152 13.4504 12.9185C13.2159 13.1228 13.0831 13.2622 13.0196 13.379C12.9708 13.4686 12.9769 13.5582 13.0916 13.6427C13.3196 13.8123 14.4746 14.4947 14.7554 14.6291C14.8123 14.6553 14.8832 14.6905 14.9497 14.6291L14.9512 14.6271ZM24.473 25.552C24.3854 25.5576 24.3608 25.6341 24.3396 25.6915C24.234 25.9823 23.9018 27.2833 23.8615 27.5641C23.8409 27.705 23.8998 27.772 23.9969 27.8006C24.1242 27.8384 24.3155 27.8409 24.628 27.8198C24.94 27.7986 25.1283 27.7715 25.2501 27.7161C25.3427 27.6753 25.392 27.6003 25.3527 27.463C25.2747 27.1912 24.772 25.9461 24.628 25.6718C24.5993 25.6165 24.5636 25.5455 24.476 25.552H24.4735H24.473ZM25.2244 24.9491C25.1841 25.0271 25.235 25.0875 25.2747 25.1363C25.4675 25.3779 26.4071 26.3366 26.6255 26.5173C26.7352 26.6084 26.8233 26.5928 26.8983 26.5249C26.9969 26.4353 27.0986 26.2732 27.2425 25.9954C27.3859 25.7181 27.4609 25.5425 27.4775 25.4106C27.4906 25.31 27.4524 25.2295 27.313 25.1912C27.0397 25.1167 25.7151 24.8988 25.4056 24.8797C25.3437 24.8757 25.2647 24.8681 25.2234 24.9471L25.2244 24.9491ZM14.4957 15.4323C14.4806 15.3453 14.4021 15.3287 14.3422 15.3141C14.0418 15.2401 12.7121 15.0524 12.4288 15.0423C12.2864 15.0373 12.2255 15.1037 12.2074 15.2064C12.1837 15.3372 12.2023 15.5275 12.2577 15.8355C12.3131 16.1424 12.3604 16.3282 12.4278 16.4429C12.4796 16.53 12.5591 16.5712 12.691 16.5179C12.9537 16.4102 14.1359 15.7781 14.3921 15.6024C14.4444 15.5672 14.5118 15.5254 14.4957 15.4384V15.4323ZM20.1459 32.6552C20.2101 32.6573 20.2741 32.6464 20.334 32.6233C20.3939 32.6001 20.4485 32.5652 20.4947 32.5205C20.5408 32.4759 20.5775 32.4224 20.6026 32.3632C20.6276 32.3041 20.6406 32.2405 20.6406 32.1763C20.6406 32.1121 20.6276 32.0485 20.6026 31.9894C20.5775 31.9302 20.5408 31.8768 20.4947 31.8321C20.4485 31.7874 20.3939 31.7525 20.334 31.7293C20.2741 31.7062 20.2101 31.6954 20.1459 31.6975C20.0216 31.7015 19.9037 31.7537 19.8172 31.8431C19.7307 31.9324 19.6823 32.0519 19.6823 32.1763C19.6823 32.3007 19.7307 32.4202 19.8172 32.5096C19.9037 32.5989 20.0216 32.6511 20.1459 32.6552ZM20.1459 8.30304C20.273 8.30304 20.3948 8.25256 20.4847 8.16271C20.5745 8.07286 20.625 7.951 20.625 7.82393C20.625 7.69686 20.5745 7.575 20.4847 7.48515C20.3948 7.3953 20.273 7.34482 20.1459 7.34482C20.0188 7.34482 19.897 7.3953 19.8071 7.48515C19.7173 7.575 19.6668 7.69686 19.6668 7.82393C19.6668 7.951 19.7173 8.07286 19.8071 8.16271C19.897 8.25256 20.0188 8.30304 20.1459 8.30304ZM23.2974 32.2405C23.3603 32.2405 23.4226 32.2281 23.4807 32.204C23.5389 32.1799 23.5917 32.1446 23.6362 32.1001C23.6807 32.0557 23.7159 32.0028 23.74 31.9447C23.7641 31.8866 23.7765 31.8243 23.7765 31.7614C23.7765 31.6984 23.7641 31.6361 23.74 31.578C23.7159 31.5199 23.6807 31.4671 23.6362 31.4226C23.5917 31.3781 23.5389 31.3428 23.4807 31.3187C23.4226 31.2946 23.3603 31.2823 23.2974 31.2823C23.1703 31.2823 23.0484 31.3327 22.9586 31.4226C22.8687 31.5124 22.8183 31.6343 22.8183 31.7614C22.8183 31.8884 22.8687 32.0103 22.9586 32.1001C23.0484 32.19 23.1703 32.2405 23.2974 32.2405ZM16.9945 8.71773C17.1215 8.71773 17.2434 8.66726 17.3332 8.5774C17.4231 8.48755 17.4736 8.36569 17.4736 8.23862C17.4736 8.11155 17.4231 7.98969 17.3332 7.89984C17.2434 7.80999 17.1215 7.75951 16.9945 7.75951C16.8674 7.75951 16.7455 7.80999 16.6557 7.89984C16.5658 7.98969 16.5153 8.11155 16.5153 8.23862C16.5153 8.36569 16.5658 8.48755 16.6557 8.5774C16.7455 8.66726 16.8674 8.71773 16.9945 8.71773ZM26.2345 31.0241C26.2986 31.0262 26.3626 31.0153 26.4225 30.9922C26.4824 30.9691 26.5371 30.9341 26.5832 30.8894C26.6294 30.8448 26.6661 30.7913 26.6911 30.7321C26.7162 30.673 26.7291 30.6094 26.7291 30.5452C26.7291 30.481 26.7162 30.4174 26.6911 30.3583C26.6661 30.2992 26.6294 30.2457 26.5832 30.201C26.5371 30.1563 26.4824 30.1214 26.4225 30.0983C26.3626 30.0751 26.2986 30.0643 26.2345 30.0664C26.1101 30.0704 25.9923 30.1226 25.9057 30.212C25.8192 30.3013 25.7709 30.4208 25.7709 30.5452C25.7709 30.6696 25.8192 30.7891 25.9057 30.8785C25.9923 30.9678 26.1101 31.02 26.2345 31.0241ZM14.0579 9.93363C14.1221 9.93571 14.186 9.92486 14.2459 9.90174C14.3059 9.87861 14.3605 9.84367 14.4067 9.799C14.4528 9.75433 14.4895 9.70083 14.5145 9.6417C14.5396 9.58256 14.5525 9.51899 14.5525 9.45477C14.5525 9.39054 14.5396 9.32698 14.5145 9.26784C14.4895 9.20871 14.4528 9.15521 14.4067 9.11054C14.3605 9.06587 14.3059 9.03093 14.2459 9.0078C14.186 8.98467 14.1221 8.97383 14.0579 8.97591C13.9336 8.97994 13.8157 9.03216 13.7292 9.12152C13.6427 9.21088 13.5943 9.33039 13.5943 9.45477C13.5943 9.57915 13.6427 9.69865 13.7292 9.78802C13.8157 9.87738 13.9336 9.9296 14.0579 9.93363ZM28.7558 29.089C28.82 29.0911 28.884 29.0802 28.9439 29.0571C29.0038 29.034 29.0585 28.9991 29.1046 28.9544C29.1507 28.9097 29.1874 28.8562 29.2125 28.7971C29.2375 28.7379 29.2505 28.6744 29.2505 28.6102C29.2505 28.5459 29.2375 28.4824 29.2125 28.4232C29.1874 28.3641 29.1507 28.3106 29.1046 28.2659C29.0585 28.2213 29.0038 28.1863 28.9439 28.1632C28.884 28.1401 28.82 28.1292 28.7558 28.1313C28.6315 28.1353 28.5136 28.1875 28.4271 28.2769C28.3406 28.3663 28.2922 28.4858 28.2922 28.6102C28.2922 28.7345 28.3406 28.854 28.4271 28.9434C28.5136 29.0328 28.6315 29.085 28.7558 29.089ZM11.5355 11.8687C11.5997 11.8708 11.6636 11.8599 11.7236 11.8368C11.7835 11.8137 11.8381 11.7787 11.8843 11.7341C11.9304 11.6894 11.9671 11.6359 11.9922 11.5768C12.0172 11.5176 12.0301 11.4541 12.0301 11.3898C12.0301 11.3256 12.0172 11.262 11.9922 11.2029C11.9671 11.1438 11.9304 11.0903 11.8843 11.0456C11.8381 11.0009 11.7835 10.966 11.7236 10.9429C11.6636 10.9197 11.5997 10.9089 11.5355 10.911C11.4112 10.915 11.2933 10.9672 11.2068 11.0566C11.1203 11.1459 11.0719 11.2655 11.0719 11.3898C11.0719 11.5142 11.1203 11.6337 11.2068 11.7231C11.2933 11.8124 11.4112 11.8647 11.5355 11.8687ZM31.9073 23.6301C32.0344 23.6301 32.1562 23.5796 32.2461 23.4897C32.3359 23.3999 32.3864 23.278 32.3864 23.151C32.3864 23.0239 32.3359 22.902 32.2461 22.8122C32.1562 22.7223 32.0344 22.6718 31.9073 22.6718C31.7802 22.6718 31.6584 22.7223 31.5685 22.8122C31.4787 22.902 31.4282 23.0239 31.4282 23.151C31.4282 23.278 31.4787 23.3999 31.5685 23.4897C31.6584 23.5796 31.7802 23.6301 31.9073 23.6301ZM30.6909 26.5676C30.7538 26.5676 30.8161 26.5552 30.8742 26.5312C30.9324 26.5071 30.9852 26.4718 31.0297 26.4273C31.0742 26.3828 31.1095 26.33 31.1335 26.2719C31.1576 26.2137 31.17 26.1514 31.17 26.0885C31.17 26.0256 31.1576 25.9633 31.1335 25.9052C31.1095 25.8471 31.0742 25.7942 31.0297 25.7497C30.9852 25.7053 30.9324 25.67 30.8742 25.6459C30.8161 25.6218 30.7538 25.6094 30.6909 25.6094C30.5638 25.6094 30.442 25.6599 30.3521 25.7497C30.2623 25.8396 30.2118 25.9615 30.2118 26.0885C30.2118 26.2156 30.2623 26.3375 30.3521 26.4273C30.442 26.5172 30.5638 26.5676 30.6909 26.5676ZM9.60044 14.3906C9.72751 14.3906 9.84937 14.3401 9.93922 14.2502C10.0291 14.1604 10.0795 14.0385 10.0795 13.9115C10.0795 13.7844 10.0291 13.6625 9.93922 13.5727C9.84937 13.4828 9.72751 13.4323 9.60044 13.4323C9.47337 13.4323 9.35151 13.4828 9.26165 13.5727C9.1718 13.6625 9.12133 13.7844 9.12133 13.9115C9.12133 14.0385 9.1718 14.1604 9.26165 14.2502C9.35151 14.3401 9.47337 14.3906 9.60044 14.3906ZM8.38454 17.3276C8.44873 17.3297 8.51269 17.3189 8.5726 17.2957C8.63252 17.2726 8.68717 17.2377 8.73332 17.193C8.77946 17.1483 8.81615 17.0948 8.84121 17.0357C8.86627 16.9766 8.87918 16.913 8.87918 16.8488C8.87918 16.7846 8.86627 16.721 8.84121 16.6619C8.81615 16.6027 8.77946 16.5492 8.73332 16.5046C8.68717 16.4599 8.63252 16.4249 8.5726 16.4018C8.51269 16.3787 8.44873 16.3678 8.38454 16.3699C8.25747 16.3699 8.13561 16.4204 8.04576 16.5103C7.95591 16.6001 7.90543 16.722 7.90543 16.849C7.90543 16.9761 7.95591 17.098 8.04576 17.1878C8.13561 17.2777 8.25747 17.3281 8.38454 17.3281V17.3276ZM32.322 20.4791C32.449 20.4791 32.5709 20.4286 32.6608 20.3388C32.7506 20.2489 32.8011 20.1271 32.8011 20C32.8011 19.8729 32.7506 19.7511 32.6608 19.6612C32.5709 19.5714 32.449 19.5209 32.322 19.5209C32.1949 19.5209 32.073 19.5714 31.9832 19.6612C31.8933 19.7511 31.8429 19.8729 31.8429 20C31.8429 20.1271 31.8933 20.2489 31.9832 20.3388C32.073 20.4286 32.1949 20.4791 32.322 20.4791ZM7.96935 20.4791C8.09641 20.4791 8.21828 20.4286 8.30813 20.3388C8.39798 20.2489 8.44846 20.1271 8.44846 20C8.44846 19.8729 8.39798 19.7511 8.30813 19.6612C8.21828 19.5714 8.09641 19.5209 7.96935 19.5209C7.84228 19.5209 7.72041 19.5714 7.63056 19.6612C7.54071 19.7511 7.49023 19.8729 7.49023 20C7.49023 20.1271 7.54071 20.2489 7.63056 20.3388C7.72041 20.4286 7.84228 20.4791 7.96935 20.4791ZM31.9073 17.3276C31.9715 17.3297 32.0354 17.3189 32.0953 17.2957C32.1553 17.2726 32.2099 17.2377 32.2561 17.193C32.3022 17.1483 32.3389 17.0948 32.364 17.0357C32.389 16.9766 32.4019 16.913 32.4019 16.8488C32.4019 16.7846 32.389 16.721 32.364 16.6619C32.3389 16.6027 32.3022 16.5492 32.2561 16.5046C32.2099 16.4599 32.1553 16.4249 32.0953 16.4018C32.0354 16.3787 31.9715 16.3678 31.9073 16.3699C31.7802 16.3699 31.6584 16.4204 31.5685 16.5103C31.4787 16.6001 31.4282 16.722 31.4282 16.849C31.4282 16.9761 31.4787 17.098 31.5685 17.1878C31.6584 17.2777 31.7802 17.3281 31.9073 17.3281V17.3276ZM8.38454 23.6301C8.51161 23.6301 8.63347 23.5796 8.72332 23.4897C8.81317 23.3999 8.86365 23.278 8.86365 23.151C8.86365 23.0239 8.81317 22.902 8.72332 22.8122C8.63347 22.7223 8.51161 22.6718 8.38454 22.6718C8.25747 22.6718 8.13561 22.7223 8.04576 22.8122C7.95591 22.902 7.90543 23.0239 7.90543 23.151C7.90543 23.278 7.95591 23.3999 8.04576 23.4897C8.13561 23.5796 8.25747 23.6301 8.38454 23.6301ZM30.6909 14.3906C30.818 14.3906 30.9398 14.3401 31.0297 14.2502C31.1195 14.1604 31.17 14.0385 31.17 13.9115C31.17 13.7844 31.1195 13.6625 31.0297 13.5727C30.9398 13.4828 30.818 13.4323 30.6909 13.4323C30.5638 13.4323 30.442 13.4828 30.3521 13.5727C30.2623 13.6625 30.2118 13.7844 30.2118 13.9115C30.2118 14.0385 30.2623 14.1604 30.3521 14.2502C30.442 14.3401 30.5638 14.3906 30.6909 14.3906ZM9.60044 26.5676C9.66336 26.5676 9.72566 26.5552 9.78378 26.5312C9.84191 26.5071 9.89473 26.4718 9.93922 26.4273C9.98371 26.3828 10.019 26.33 10.0431 26.2719C10.0672 26.2137 10.0795 26.1514 10.0795 26.0885C10.0795 26.0256 10.0672 25.9633 10.0431 25.9052C10.019 25.8471 9.98371 25.7942 9.93922 25.7497C9.89473 25.7053 9.84191 25.67 9.78378 25.6459C9.72566 25.6218 9.66336 25.6094 9.60044 25.6094C9.47337 25.6094 9.35151 25.6599 9.26165 25.7497C9.1718 25.8396 9.12133 25.9615 9.12133 26.0885C9.12133 26.2156 9.1718 26.3375 9.26165 26.4273C9.35151 26.5172 9.47337 26.5676 9.60044 26.5676ZM28.7558 11.8687C28.82 11.8708 28.884 11.8599 28.9439 11.8368C29.0038 11.8137 29.0585 11.7787 29.1046 11.7341C29.1507 11.6894 29.1874 11.6359 29.2125 11.5768C29.2375 11.5176 29.2505 11.4541 29.2505 11.3898C29.2505 11.3256 29.2375 11.262 29.2125 11.2029C29.1874 11.1438 29.1507 11.0903 29.1046 11.0456C29.0585 11.0009 29.0038 10.966 28.9439 10.9429C28.884 10.9197 28.82 10.9089 28.7558 10.911C28.6315 10.915 28.5136 10.9672 28.4271 11.0566C28.3406 11.1459 28.2922 11.2655 28.2922 11.3898C28.2922 11.5142 28.3406 11.6337 28.4271 11.7231C28.5136 11.8124 28.6315 11.8647 28.7558 11.8687ZM11.5355 29.089C11.5997 29.0911 11.6636 29.0802 11.7236 29.0571C11.7835 29.034 11.8381 28.9991 11.8843 28.9544C11.9304 28.9097 11.9671 28.8562 11.9922 28.7971C12.0172 28.7379 12.0301 28.6744 12.0301 28.6102C12.0301 28.5459 12.0172 28.4824 11.9922 28.4232C11.9671 28.3641 11.9304 28.3106 11.8843 28.2659C11.8381 28.2213 11.7835 28.1863 11.7236 28.1632C11.6636 28.1401 11.5997 28.1292 11.5355 28.1313C11.4112 28.1353 11.2933 28.1875 11.2068 28.2769C11.1203 28.3663 11.0719 28.4858 11.0719 28.6102C11.0719 28.7345 11.1203 28.854 11.2068 28.9434C11.2933 29.0328 11.4112 29.085 11.5355 29.089ZM26.2345 9.93363C26.2986 9.93571 26.3626 9.92486 26.4225 9.90174C26.4824 9.87861 26.5371 9.84367 26.5832 9.799C26.6294 9.75433 26.6661 9.70083 26.6911 9.6417C26.7162 9.58256 26.7291 9.51899 26.7291 9.45477C26.7291 9.39054 26.7162 9.32698 26.6911 9.26784C26.6661 9.20871 26.6294 9.15521 26.5832 9.11054C26.5371 9.06587 26.4824 9.03093 26.4225 9.0078C26.3626 8.98467 26.2986 8.97383 26.2345 8.97591C26.1101 8.97994 25.9923 9.03216 25.9057 9.12152C25.8192 9.21088 25.7709 9.33039 25.7709 9.45477C25.7709 9.57915 25.8192 9.69865 25.9057 9.78802C25.9923 9.87738 26.1101 9.9296 26.2345 9.93363ZM14.0579 31.0241C14.1221 31.0262 14.186 31.0153 14.2459 30.9922C14.3059 30.9691 14.3605 30.9341 14.4067 30.8894C14.4528 30.8448 14.4895 30.7913 14.5145 30.7321C14.5396 30.673 14.5525 30.6094 14.5525 30.5452C14.5525 30.481 14.5396 30.4174 14.5145 30.3583C14.4895 30.2992 14.4528 30.2457 14.4067 30.201C14.3605 30.1563 14.3059 30.1214 14.2459 30.0983C14.186 30.0751 14.1221 30.0643 14.0579 30.0664C13.9336 30.0704 13.8157 30.1226 13.7292 30.212C13.6427 30.3013 13.5943 30.4208 13.5943 30.5452C13.5943 30.6696 13.6427 30.7891 13.7292 30.8785C13.8157 30.9678 13.9336 31.02 14.0579 31.0241ZM23.2974 8.71773C23.4244 8.71773 23.5463 8.66726 23.6362 8.5774C23.726 8.48755 23.7765 8.36569 23.7765 8.23862C23.7765 8.11155 23.726 7.98969 23.6362 7.89984C23.5463 7.80999 23.4244 7.75951 23.2974 7.75951C23.1703 7.75951 23.0484 7.80999 22.9586 7.89984C22.8687 7.98969 22.8183 8.11155 22.8183 8.23862C22.8183 8.36569 22.8687 8.48755 22.9586 8.5774C23.0484 8.66726 23.1703 8.71773 23.2974 8.71773ZM16.9945 32.2405C17.0574 32.2405 17.1197 32.2281 17.1778 32.204C17.2359 32.1799 17.2887 32.1446 17.3332 32.1001C17.3777 32.0557 17.413 32.0028 17.4371 31.9447C17.4612 31.8866 17.4736 31.8243 17.4736 31.7614C17.4736 31.6984 17.4612 31.6361 17.4371 31.578C17.413 31.5199 17.3777 31.4671 17.3332 31.4226C17.2887 31.3781 17.2359 31.3428 17.1778 31.3187C17.1197 31.2946 17.0574 31.2823 16.9945 31.2823C16.8674 31.2823 16.7455 31.3327 16.6557 31.4226C16.5658 31.5124 16.5153 31.6343 16.5153 31.7614C16.5153 31.8884 16.5658 32.0103 16.6557 32.1001C16.7455 32.19 16.8674 32.2405 16.9945 32.2405Z" fill="#28646E"/>
<defs>
<linearGradient id="paint0_linear_2175:4894" x1="4.04102" y1="20.0001" x2="36.2502" y2="20.0001" gradientUnits="userSpaceOnUse">
<stop stop-color="#D2F0F0"/>
<stop offset="1" stop-color="#F0E6B4"/>
</linearGradient>
</defs>
</svg>
