<svg width="40" height="40" viewBox="0 0 40 40" fill="none" xmlns="http://www.w3.org/2000/svg">
<rect width="40" height="40" fill="white"/>
<rect width="40" height="40" fill="black"/>
<g clip-path="url(#clip0_2175:4848)">
<path d="M15.1178 22.5999H13.3385L8.4834 17.8139V22.5999H7.04199V16.4573H8.86429L13.7194 21.242V16.4573H15.1178V22.5999ZM31.0893 16.4573L28.8744 18.6409L26.6594 16.4573H24.8371V22.5999H26.2786V17.8139L28.5574 20.0614C28.7335 20.2349 29.0166 20.2349 29.1927 20.0614L31.4715 17.8139V22.5999H32.9129V16.4573H31.0893ZM19.2789 19.6636V22.5999H20.7203V19.6636L24.0375 16.4573H22.2152L19.999 18.6409L17.784 16.4573H15.9617L19.2789 19.6636Z" fill="white"/>
</g>
<defs>
<clipPath id="clip0_2175:4848">
<rect width="25.9583" height="6.26131" fill="white" transform="translate(7.04199 16.4573)"/>
</clipPath>
</defs>
</svg>
