<svg width="40" height="41" viewBox="0 0 40 41" fill="none" xmlns="http://www.w3.org/2000/svg">
<g clip-path="url(#clip0_2361-5817)">
<rect y="0.242188" width="40" height="40" fill="#1B0144"/>
<path d="M31.9301 11.6283C31.6636 10.6019 30.8069 9.57557 29.2648 8.43303C28.0274 7.52286 26.7138 7 25.6668 7C25.4573 7 25.267 7.01936 25.0766 7.05809C24.6006 7.15492 24.1818 7.50349 23.9153 8.02636C23.5917 8.64604 23.5155 9.47875 23.725 9.98225C23.8011 10.1372 23.8963 10.3308 24.0105 10.5051C23.0015 11.1248 22.4304 11.2991 22.3542 11.3184C24.9814 12.2092 27.1707 14.0683 28.5414 16.4889L28.5605 16.2566C28.6176 15.6175 28.8079 14.8816 29.0745 14.1264C29.341 14.2039 29.6075 14.2426 29.874 14.2426C30.5784 14.2426 31.1876 13.9521 31.5684 13.4293C31.9491 12.9064 32.1014 12.2092 31.9301 11.6283Z" fill="#5E12A0"/>
<path d="M29.1886 13.5648C30.9211 14.0488 31.6254 12.6933 31.397 11.7831C31.1495 10.873 30.3499 9.94343 28.9412 8.89771C27.5324 7.85199 26.1046 7.42596 25.1908 7.6196C24.277 7.81326 24.0104 9.22692 24.2389 9.76915C24.3341 9.98216 24.5435 10.292 24.8291 10.6406C24.4674 10.8923 24.1247 11.086 23.8391 11.2603C25.5906 12.0542 27.1136 13.2936 28.2558 14.8428C28.3891 14.32 28.5794 13.8552 28.7508 13.4485C28.884 13.4679 29.0364 13.5066 29.1886 13.5648Z" fill="url(#paint0_radial_2361-5817)"/>
<path d="M19.2701 32.5429C25.1475 32.5429 29.912 27.6963 29.912 21.7177C29.912 15.7392 25.1475 10.8926 19.2701 10.8926C13.3927 10.8926 8.62817 15.7392 8.62817 21.7177C8.62817 27.6963 13.3927 32.5429 19.2701 32.5429Z" fill="url(#paint1_radial_2361-5817)"/>
<path opacity="0.6" d="M30.5214 10.8927C29.0746 9.34351 27.8562 8.93684 26.3903 8.60764C25.248 8.33652 25.5526 7.67811 26.9424 7.81366C26.2761 7.58128 25.6478 7.52318 25.1909 7.62001C24.2771 7.81366 24.0106 9.22732 24.2391 9.76955C24.3342 9.98257 24.5436 10.2924 24.8292 10.641C24.3152 10.9896 23.8773 11.2413 23.5156 11.435C23.687 11.5124 23.8964 11.6092 24.1439 11.7448C24.7911 12.0934 25.4955 12.6743 25.4955 12.6743C24.4294 11.7448 24.6579 11.3188 26.1238 10.273C26.5806 9.94383 27.4183 9.98257 28.1988 10.3892C28.9794 10.7959 29.8932 11.8223 29.8932 11.8223L29.0175 13.5264C29.0746 13.5458 29.1317 13.5651 29.1888 13.5845C29.7409 13.7394 30.1787 13.7007 30.5214 13.5651C30.9212 13.3134 31.9683 12.4613 30.5214 10.8927Z" fill="#A98698"/>
<path d="M26.3711 9.53674C26.7519 9.69166 27.2469 9.96278 27.8561 10.3694C28.5795 10.8536 29.2077 11.3958 29.6075 11.8218C28.9412 12.7126 28.5033 13.9326 28.2368 14.7847C28.3701 14.9784 28.5223 15.172 28.6557 15.3656C28.7889 14.8816 29.0173 14.165 29.3219 13.4485C29.3981 13.4679 29.4933 13.4679 29.5885 13.4679C29.8169 13.4679 30.0834 13.4291 30.2928 13.2548C30.4451 13.1387 30.6165 12.9257 30.5975 12.5383C30.5975 12.1704 30.3119 11.7056 29.7217 11.1441C29.3029 10.7374 28.7318 10.292 28.1607 9.88532C26.5234 8.7815 25.3812 8.47165 24.8672 8.99451C24.5245 9.34309 24.5626 9.76912 24.6768 10.079C24.0676 10.4856 23.5536 10.7761 23.2109 10.9698C23.4394 11.0472 23.6488 11.1441 23.8773 11.2409C24.4864 10.9117 25.3622 10.3501 26.3711 9.53674ZM29.9692 12.306C30.0263 12.4028 30.0454 12.4996 30.0454 12.5577C30.0454 12.732 29.9883 12.7901 29.9502 12.8289C29.874 12.8869 29.7217 12.9257 29.5885 12.9257C29.7027 12.6933 29.836 12.4996 29.9692 12.306ZM25.267 9.42055C25.3241 9.36245 25.4764 9.32372 25.7239 9.36245C25.5335 9.51737 25.3431 9.65293 25.1528 9.78849C25.1337 9.65293 25.1528 9.51737 25.267 9.42055Z" fill="#5E12A0"/>
<path d="M19.2702 10.2539C13.0449 10.2539 8 15.3857 8 21.7181C8 28.0506 13.0449 33.1823 19.2702 33.1823C25.4954 33.1823 30.5403 28.0506 30.5403 21.7181C30.5403 15.3857 25.4764 10.2539 19.2702 10.2539ZM19.2702 32.5433C13.3876 32.5433 8.62824 27.702 8.62824 21.7181C8.62824 15.7343 13.3876 10.893 19.2702 10.893C25.1527 10.893 29.9121 15.7343 29.9121 21.7181C29.9121 27.702 25.1337 32.5433 19.2702 32.5433Z" fill="#5E12A0"/>
<path opacity="0.6" d="M19.2701 32.5429C25.1475 32.5429 29.912 27.6963 29.912 21.7177C29.912 15.7392 25.1475 10.8926 19.2701 10.8926C13.3927 10.8926 8.62817 15.7392 8.62817 21.7177C8.62817 27.6963 13.3927 32.5429 19.2701 32.5429Z" fill="url(#paint2_linear_2361-5817)"/>
<path opacity="0.6" d="M19.194 31.226C13.3875 30.2771 9.44679 24.7193 10.3987 18.8129C10.8175 16.1986 12.112 13.9716 13.9396 12.3643C11.2744 13.9328 9.2945 16.6633 8.76145 19.9941C7.82861 25.9005 11.7694 31.4584 17.5568 32.4072C20.7931 32.9495 23.9153 31.9232 26.2188 29.9091C24.1818 31.1098 21.7069 31.6326 19.194 31.226Z" fill="#A98698"/>
<path opacity="0.6" d="M20.9645 11.047C18.2802 10.6016 15.6721 11.2212 13.5399 12.5962C13.5018 12.6349 13.4638 12.6736 13.4638 12.6736C14.2824 12.1701 15.4817 11.7247 15.4817 11.7247C12.3977 13.5451 11.4458 15.6171 11.4458 15.6171C12.6452 13.2546 16.1671 11.5892 18.9275 11.473C21.6879 11.3568 23.4965 12.1895 25.7048 13.9905C27.9132 15.8108 29.2458 19.5289 29.1125 22.4724C28.9983 25.4159 27.4753 27.7979 27.4753 27.7979C28.5224 26.423 29.1506 25.4159 29.5504 24.3896C29.6265 24.0797 29.7027 23.7699 29.7408 23.4407C30.6927 17.5537 26.7709 11.9959 20.9645 11.047Z" fill="url(#paint3_linear_2361-5817)"/>
<path d="M29.3791 21.6211C29.3791 27.2951 24.8482 31.904 19.2703 31.904C13.6923 31.904 9.14233 27.2951 9.14233 21.6211H29.3791Z" fill="url(#paint4_linear_2361-5817)"/>
<g opacity="0.6">
<path opacity="0.6" d="M28.5794 21.6211C28.5794 27.1595 24.277 31.691 18.8704 31.904C19.0036 31.904 19.1369 31.904 19.2701 31.904C24.8481 31.904 29.379 27.2951 29.379 21.6211H28.5794Z" fill="url(#paint5_linear_2361-5817)"/>
</g>
<g opacity="0.7">
<path opacity="0.7" d="M10.5701 21.6211H9.14233C9.14233 27.2951 13.6732 31.904 19.2512 31.904C19.4987 31.904 19.7271 31.904 19.9556 31.8847C14.7203 31.4974 10.5701 27.0433 10.5701 21.6211Z" fill="url(#paint6_linear_2361-5817)"/>
</g>
<path d="M29.3601 21.7177C29.3601 20.5364 27.3421 19.8586 24.6579 19.6262C22.716 19.4713 20.7551 19.6649 18.5087 20.3621C16.5669 20.9431 14.8155 20.8462 13.54 20.6913C10.7034 20.3621 9.14233 20.3234 9.14233 21.7177C9.14233 23.7316 13.1783 26.2491 19.2322 25.3777C22.2972 24.9323 23.8773 24.0221 25.6859 23.4025C27.6467 22.744 29.3601 22.7634 29.3601 21.7177Z" fill="url(#paint7_linear_2361-5817)"/>
<path d="M22.5828 16.8373C23.529 16.8373 24.2961 16.057 24.2961 15.0945C24.2961 14.1319 23.529 13.3516 22.5828 13.3516C21.6365 13.3516 20.8694 14.1319 20.8694 15.0945C20.8694 16.057 21.6365 16.8373 22.5828 16.8373Z" fill="white"/>
<path d="M25.3811 18.1348C25.7807 18.1348 26.1046 17.8054 26.1046 17.399C26.1046 16.9925 25.7807 16.6631 25.3811 16.6631C24.9816 16.6631 24.6577 16.9925 24.6577 17.399C24.6577 17.8054 24.9816 18.1348 25.3811 18.1348Z" fill="white"/>
<g opacity="0.6">
<path opacity="0.6" d="M27.9704 13.7002C27.9514 13.7002 27.9324 13.7002 27.9324 13.7002C27.8181 13.6809 27.7419 13.5647 27.761 13.4291C27.9324 12.5383 28.6557 11.6862 28.6938 11.6475C28.77 11.5507 28.9223 11.5507 28.9984 11.6281C29.0936 11.7056 29.0936 11.8605 29.0175 11.938C28.9984 11.9573 28.3321 12.7513 28.1798 13.5259C28.1608 13.6421 28.0656 13.7002 27.9704 13.7002Z" fill="url(#paint8_linear_2361-5817)"/>
</g>
<path opacity="0.2" d="M18.567 29.7925C18.8614 29.7925 19.1 29.5497 19.1 29.2502C19.1 28.9508 18.8614 28.708 18.567 28.708C18.2726 28.708 18.0339 28.9508 18.0339 29.2502C18.0339 29.5497 18.2726 29.7925 18.567 29.7925Z" fill="white"/>
<g opacity="0.4">
<path opacity="0.6" d="M18.2613 29.6C18.0519 29.3869 18.0519 29.0384 18.2613 28.8254C18.2993 28.7867 18.3374 28.7673 18.3755 28.7285C18.2993 28.7479 18.2422 28.7867 18.1851 28.8448C17.9757 29.0578 17.9757 29.4063 18.1851 29.6194C18.3565 29.7936 18.623 29.8324 18.8324 29.7162C18.642 29.7936 18.4136 29.7549 18.2613 29.6Z" fill="url(#paint9_linear_2361-5817)"/>
</g>
<path opacity="0.3" d="M18.7561 29.0956C18.8191 29.0956 18.8703 29.0437 18.8703 28.9795C18.8703 28.9153 18.8191 28.8633 18.7561 28.8633C18.693 28.8633 18.6418 28.9153 18.6418 28.9795C18.6418 29.0437 18.693 29.0956 18.7561 29.0956Z" fill="white"/>
<path opacity="0.2" d="M21.3465 29.5219C21.6409 29.5219 21.8796 29.2792 21.8796 28.9797C21.8796 28.6802 21.6409 28.4375 21.3465 28.4375C21.0522 28.4375 20.8135 28.6802 20.8135 28.9797C20.8135 29.2792 21.0522 29.5219 21.3465 29.5219Z" fill="white"/>
<g opacity="0.4">
<path opacity="0.6" d="M21.0408 29.3284C20.8314 29.1154 20.8314 28.7668 21.0408 28.5539C21.0789 28.5151 21.117 28.4958 21.155 28.457C21.0789 28.4764 21.0218 28.5151 20.9647 28.5732C20.7553 28.7862 20.7553 29.1348 20.9647 29.3478C21.136 29.5221 21.4025 29.5609 21.612 29.4446C21.4215 29.5221 21.1931 29.4834 21.0408 29.3284Z" fill="url(#paint10_linear_2361-5817)"/>
</g>
<path opacity="0.3" d="M21.5356 28.8252C21.5987 28.8252 21.6498 28.7732 21.6498 28.709C21.6498 28.6448 21.5987 28.5928 21.5356 28.5928C21.4725 28.5928 21.4214 28.6448 21.4214 28.709C21.4214 28.7732 21.4725 28.8252 21.5356 28.8252Z" fill="white"/>
<path opacity="0.2" d="M19.9745 30.7802C20.1953 30.7802 20.3742 30.5981 20.3742 30.3735C20.3742 30.1489 20.1953 29.9668 19.9745 29.9668C19.7537 29.9668 19.5747 30.1489 19.5747 30.3735C19.5747 30.5981 19.7537 30.7802 19.9745 30.7802Z" fill="white"/>
<g opacity="0.4">
<path opacity="0.6" d="M19.746 30.6264C19.5937 30.4714 19.5937 30.2003 19.746 30.0454C19.7651 30.026 19.8031 30.0067 19.8222 29.9873C19.7651 30.0067 19.727 30.0454 19.6889 30.0841C19.5366 30.239 19.5366 30.5101 19.6889 30.6651C19.8222 30.8006 20.0125 30.82 20.1839 30.7232C20.0316 30.7813 19.8603 30.7425 19.746 30.6264Z" fill="url(#paint11_linear_2361-5817)"/>
</g>
<path opacity="0.3" d="M20.1079 30.238C20.1499 30.238 20.184 30.2033 20.184 30.1605C20.184 30.1177 20.1499 30.083 20.1079 30.083C20.0658 30.083 20.0317 30.1177 20.0317 30.1605C20.0317 30.2033 20.0658 30.238 20.1079 30.238Z" fill="white"/>
<path opacity="0.2" d="M22.4305 30.4901C22.6513 30.4901 22.8303 30.3081 22.8303 30.0834C22.8303 29.8588 22.6513 29.6768 22.4305 29.6768C22.2097 29.6768 22.0308 29.8588 22.0308 30.0834C22.0308 30.3081 22.2097 30.4901 22.4305 30.4901Z" fill="white"/>
<g opacity="0.4">
<path opacity="0.6" d="M22.2021 30.3353C22.0498 30.1804 22.0498 29.9093 22.2021 29.7544C22.2211 29.735 22.2592 29.7157 22.2782 29.6963C22.2211 29.7157 22.1831 29.7544 22.145 29.7931C21.9927 29.948 21.9927 30.2191 22.145 30.3741C22.2782 30.5096 22.4686 30.529 22.6399 30.4322C22.4876 30.4903 22.3163 30.4515 22.2021 30.3353Z" fill="url(#paint12_linear_2361-5817)"/>
</g>
<path opacity="0.3" d="M22.5637 29.9469C22.6057 29.9469 22.6398 29.9123 22.6398 29.8694C22.6398 29.8267 22.6057 29.792 22.5637 29.792C22.5216 29.792 22.4875 29.8267 22.4875 29.8694C22.4875 29.9123 22.5216 29.9469 22.5637 29.9469Z" fill="white"/>
<path opacity="0.2" d="M16.3003 29.599C16.7839 29.599 17.176 29.2002 17.176 28.7082C17.176 28.2162 16.7839 27.8174 16.3003 27.8174C15.8166 27.8174 15.4246 28.2162 15.4246 28.7082C15.4246 29.2002 15.8166 29.599 16.3003 29.599Z" fill="white"/>
<g opacity="0.4">
<path opacity="0.6" d="M15.8058 29.2703C15.4631 28.9217 15.4631 28.3601 15.8058 28.0115C15.8629 27.9534 15.92 27.9147 15.9961 27.876C15.8819 27.9147 15.7867 27.9922 15.6916 28.0696C15.3489 28.4182 15.3489 28.9798 15.6916 29.3284C15.9771 29.6188 16.415 29.6769 16.7576 29.4639C16.434 29.5994 16.0533 29.5414 15.8058 29.2703Z" fill="url(#paint13_linear_2361-5817)"/>
</g>
<path opacity="0.3" d="M16.6049 28.4371C16.71 28.4371 16.7953 28.3504 16.7953 28.2434C16.7953 28.1365 16.71 28.0498 16.6049 28.0498C16.4998 28.0498 16.4146 28.1365 16.4146 28.2434C16.4146 28.3504 16.4998 28.4371 16.6049 28.4371Z" fill="white"/>
<path opacity="0.2" d="M24.1252 27.4105C24.6088 27.4105 25.0009 27.0117 25.0009 26.5197C25.0009 26.0277 24.6088 25.6289 24.1252 25.6289C23.6416 25.6289 23.2495 26.0277 23.2495 26.5197C23.2495 27.0117 23.6416 27.4105 24.1252 27.4105Z" fill="white"/>
<g opacity="0.4">
<path opacity="0.6" d="M23.6108 27.0818C23.268 26.7332 23.268 26.1716 23.6108 25.823C23.6679 25.765 23.725 25.7262 23.8011 25.6875C23.6869 25.7262 23.5917 25.8037 23.4965 25.8811C23.1538 26.2297 23.1538 26.7913 23.4965 27.1399C23.7821 27.4303 24.2199 27.4884 24.5626 27.2754C24.239 27.411 23.8773 27.3529 23.6108 27.0818Z" fill="url(#paint14_linear_2361-5817)"/>
</g>
<path opacity="0.3" d="M24.4294 26.2496C24.5345 26.2496 24.6198 26.1629 24.6198 26.0559C24.6198 25.949 24.5345 25.8623 24.4294 25.8623C24.3243 25.8623 24.239 25.949 24.239 26.0559C24.239 26.1629 24.3243 26.2496 24.4294 26.2496Z" fill="white"/>
</g>
<defs>
<radialGradient id="paint0_radial_2361-5817" cx="0" cy="0" r="1" gradientUnits="userSpaceOnUse" gradientTransform="translate(31.0497 10.5631) scale(8.50864 8.65515)">
<stop stop-color="#FFEAFF" stop-opacity="0.6"/>
<stop offset="0.6807" stop-color="#A087C9"/>
<stop offset="1" stop-color="#10002F"/>
</radialGradient>
<radialGradient id="paint1_radial_2361-5817" cx="0" cy="0" r="1" gradientUnits="userSpaceOnUse" gradientTransform="translate(26.316 14.2547) scale(20.8176 21.1761)">
<stop stop-color="#FFEAFF" stop-opacity="0.6"/>
<stop offset="0.6807" stop-color="#A087C9"/>
<stop offset="1" stop-color="#10002F"/>
</radialGradient>
<linearGradient id="paint2_linear_2361-5817" x1="17.5631" y1="32.3893" x2="21.082" y2="11.0472" gradientUnits="userSpaceOnUse">
<stop stop-color="#81FFFF"/>
<stop offset="0.6202" stop-color="white" stop-opacity="0"/>
</linearGradient>
<linearGradient id="paint3_linear_2361-5817" x1="26.77" y1="14.3655" x2="17.833" y2="22.4266" gradientUnits="userSpaceOnUse">
<stop offset="0.2888" stop-color="white"/>
<stop offset="0.7796" stop-color="white" stop-opacity="0"/>
</linearGradient>
<linearGradient id="paint4_linear_2361-5817" x1="9.1509" y1="26.7565" x2="29.3742" y2="26.7565" gradientUnits="userSpaceOnUse">
<stop stop-color="#0002E9"/>
<stop offset="0.9952" stop-color="#FF00C7"/>
</linearGradient>
<linearGradient id="paint5_linear_2361-5817" x1="30.3314" y1="22.5234" x2="19.1469" y2="32.9145" gradientUnits="userSpaceOnUse">
<stop offset="0.2888" stop-color="white"/>
<stop offset="0.7796" stop-color="white" stop-opacity="0"/>
</linearGradient>
<linearGradient id="paint6_linear_2361-5817" x1="9.1509" y1="26.7565" x2="19.9703" y2="26.7565" gradientUnits="userSpaceOnUse">
<stop stop-color="#000292"/>
<stop offset="0.9952" stop-color="#7D00C7"/>
</linearGradient>
<linearGradient id="paint7_linear_2361-5817" x1="9.16447" y1="22.5719" x2="29.3607" y2="22.5719" gradientUnits="userSpaceOnUse">
<stop stop-color="#000292"/>
<stop offset="0.9952" stop-color="#BE00C7"/>
</linearGradient>
<linearGradient id="paint8_linear_2361-5817" x1="29.0293" y1="11.5532" x2="27.5416" y2="13.9299" gradientUnits="userSpaceOnUse">
<stop offset="0.2888" stop-color="white"/>
<stop offset="0.7796" stop-color="white" stop-opacity="0"/>
</linearGradient>
<linearGradient id="paint9_linear_2361-5817" x1="18.0275" y1="29.268" x2="18.833" y2="29.268" gradientUnits="userSpaceOnUse">
<stop offset="0.2888" stop-color="white"/>
<stop offset="0.7796" stop-color="white" stop-opacity="0"/>
</linearGradient>
<linearGradient id="paint10_linear_2361-5817" x1="20.8051" y1="28.9928" x2="21.6106" y2="28.9928" gradientUnits="userSpaceOnUse">
<stop offset="0.2888" stop-color="white"/>
<stop offset="0.7796" stop-color="white" stop-opacity="0"/>
</linearGradient>
<linearGradient id="paint11_linear_2361-5817" x1="19.5722" y1="30.3792" x2="20.1769" y2="30.3792" gradientUnits="userSpaceOnUse">
<stop offset="0.2888" stop-color="white"/>
<stop offset="0.7796" stop-color="white" stop-opacity="0"/>
</linearGradient>
<linearGradient id="paint12_linear_2361-5817" x1="22.02" y1="30.0874" x2="22.6247" y2="30.0874" gradientUnits="userSpaceOnUse">
<stop offset="0.2888" stop-color="white"/>
<stop offset="0.7796" stop-color="white" stop-opacity="0"/>
</linearGradient>
<linearGradient id="paint13_linear_2361-5817" x1="15.4258" y1="28.7314" x2="16.7412" y2="28.7314" gradientUnits="userSpaceOnUse">
<stop offset="0.2888" stop-color="white"/>
<stop offset="0.7796" stop-color="white" stop-opacity="0"/>
</linearGradient>
<linearGradient id="paint14_linear_2361-5817" x1="23.238" y1="26.5422" x2="24.5535" y2="26.5422" gradientUnits="userSpaceOnUse">
<stop offset="0.2888" stop-color="white"/>
<stop offset="0.7796" stop-color="white" stop-opacity="0"/>
</linearGradient>
<clipPath id="clip0_2361-5817">
<rect y="0.242188" width="40" height="40" rx="20" fill="white"/>
</clipPath>
</defs>
</svg>
