<svg width="40" height="40" viewBox="0 0 40 40" fill="none" xmlns="http://www.w3.org/2000/svg">
<g clip-path="url(#clip0_2175:4787)">
<rect width="40" height="40" fill="#1B1BDD"/>
<path d="M21.8005 13.198L18.2854 11.3065C18.2407 11.3809 18.2109 11.4852 18.2109 11.5746V13.7491L19.4918 14.4343C19.6557 14.5236 19.7599 14.7023 19.7599 14.8811V28.1072L21.86 29.2242C21.9345 29.254 22.009 29.2838 22.0834 29.2838V13.6449C22.0685 13.4512 21.9643 13.2874 21.8005 13.198Z" fill="white"/>
<path d="M28.0116 9.89145L24.4817 7.99988C24.437 8.07435 24.4072 8.17861 24.4072 8.26797V10.4425L25.6881 11.1277C25.852 11.217 25.9562 11.3958 25.9562 11.5745V24.7857L28.0563 25.9028C28.1308 25.9326 28.2053 25.9623 28.2797 25.9623V10.3234C28.2797 10.1446 28.1755 9.98081 28.0116 9.89145Z" fill="white"/>
<path d="M15.6044 16.5045L12.0745 14.6129C12.0298 14.6874 12 14.7916 12 14.881L12.0149 30.2817C12.0149 30.4753 12.1192 30.6391 12.283 30.7285L15.6342 32.5307C15.7087 32.5605 15.7831 32.5903 15.8576 32.5903V16.9513C15.8725 16.7577 15.7682 16.579 15.6044 16.5045Z" fill="white"/>
</g>
<defs>
<clipPath id="clip0_2175:4787">
<rect width="40" height="40" rx="20" fill="white"/>
</clipPath>
</defs>
</svg>
