<svg width="40" height="40" viewBox="0 0 40 40" fill="none" xmlns="http://www.w3.org/2000/svg">
<rect width="40" height="40" fill="#005647"/>
<path d="M19.0339 14.9581L19.0392 14.9669V14.9651V14.9669V14.9651L17.385 6.24569L16.0019 5.80576L15.1484 6.96365L15.1502 6.96541L19.0339 14.9581Z" fill="white"/>
<path d="M19.9375 11.312L20.6414 14.6906L21.3875 11.261L20.6414 10.77L19.9375 11.319V11.312Z" fill="white"/>
<path d="M25.1589 11.9102L24.2668 12.0088L23.2109 15.3435L25.5285 12.7144L25.1589 11.9102Z" fill="white"/>
<path d="M32.8314 12.6106V11.1782L31.4465 10.733L24.9355 16.8339L32.8314 12.6106Z" fill="white"/>
<path d="M16.9184 16.2142L14.9827 13.3036L15.0179 13.3705L14.9827 13.3036L14.1029 13.4444L13.9639 14.3243L16.9184 16.2142Z" fill="white"/>
<path d="M29.3768 19.1864L25.9189 19.8692L29.3768 20.6153H29.3803L29.9047 19.8991L29.3768 19.1864Z" fill="white"/>
<path d="M15.3803 19.8834L6.46382 18.759L5.61035 19.9186L6.46733 21.0748L15.3803 19.8834Z" fill="white"/>
<path d="M12.0917 21.8103L11.8154 22.6515L12.5422 23.1688L15.6199 21.4531L12.0917 21.8103Z" fill="white"/>
<path d="M13.0994 24.2633L13.0713 25.1449L13.916 25.4441L16.3848 22.852L13.0994 24.2633Z" fill="white"/>
<path d="M17.5411 24.0473L14.9121 26.3525L15.1532 27.2024L16.0506 27.2394L17.5411 24.0473Z" fill="white"/>
<path d="M20.658 25.0658L19.9541 28.4726L20.6809 28.9899L21.4059 28.462L20.658 25.0658Z" fill="white"/>
<path d="M32.8545 27.1495V27.1477L24.9375 22.9385L31.4731 29.0253L32.8562 28.5801L32.8545 27.1495Z" fill="white"/>
<path d="M24.1256 27.7969L22.3447 24.8247L22.7477 28.2421L23.6029 28.5148L24.1273 27.7986L24.1256 27.7969Z" fill="white"/>
<path d="M19.0534 24.8299L15.2031 32.8419V32.8401V32.8419L16.0601 33.9998L17.4415 33.5546L19.0534 24.8299Z" fill="white"/>
</svg>
