<svg width="40" height="40" viewBox="0 0 40 40" fill="none" xmlns="http://www.w3.org/2000/svg">
<rect width="40" height="40" fill="black"/>
<path d="M28.1161 11.4557C25.8894 9.22659 22.9314 8 19.7847 8C13.2861 8 8 13.2909 8 19.7942C8 26.2975 13.2861 31.5884 19.7847 31.5884C22.9314 31.5884 25.8918 30.3618 28.1161 28.1327C30.3429 25.9036 31.5671 22.9432 31.5671 19.7942C31.5671 16.6451 30.3429 13.6824 28.1161 11.4557ZM19.7847 30.7722C13.7367 30.7722 8.81616 25.8469 8.81616 19.7942C8.81616 13.7414 13.7367 8.81616 19.7847 8.81616C25.8328 8.81616 30.7533 13.7414 30.7533 19.7942C30.7533 25.8469 25.8328 30.7722 19.7847 30.7722Z" fill="white"/>
<path d="M23.6534 20.0721C22.8985 19.3975 21.9102 18.947 20.9525 18.5106L20.9454 18.5082C19.2565 17.7369 17.7964 17.0693 17.9002 15.4913C17.945 14.8898 18.3814 14.5265 18.7399 14.3307C19.1433 14.109 19.6787 13.9769 20.1741 13.9769C20.2331 13.9769 20.292 13.9793 20.3486 13.9816C21.7899 14.0783 22.9269 14.6893 24.0379 15.9583L24.1039 16.0362L24.1818 15.9701L24.6158 15.5927L24.6936 15.5243L24.6252 15.4465C23.3868 14.0264 22.0423 13.3117 20.3982 13.2008C20.3274 13.1938 20.2519 13.1914 20.1694 13.1914C20.1198 13.1914 20.0656 13.1914 20.009 13.1938H19.9382C18.8602 13.1938 17.6784 13.5476 16.7797 14.142C15.7065 14.852 15.105 15.8286 15.0884 16.8924C15.046 19.4801 17.1619 20.3505 19.0277 21.1218L19.0324 21.1242L19.0513 21.1312C20.7025 21.8153 22.1272 22.405 22.0965 23.9854C22.0824 25.028 20.5916 25.6036 19.5679 25.6036H19.5254H19.424V25.606C17.8978 25.5611 16.5344 24.903 15.3715 23.6552L15.3007 23.5797L15.2253 23.6481L14.803 24.0397L14.7275 24.1105L14.7983 24.1859C16.1193 25.6083 17.7492 26.3726 19.5136 26.3938H19.5938C20.7331 26.3938 21.9715 26.0872 22.9056 25.5706C24.0756 24.9313 24.7573 23.9996 24.8281 22.9475C24.9083 21.7917 24.5238 20.8505 23.6534 20.0721ZM18.1762 17.8218C18.8484 18.3974 19.7589 18.8102 20.6388 19.2088L20.6553 19.2159C21.587 19.6452 22.4692 20.0509 23.1085 20.6147C23.8161 21.2374 24.1157 21.9592 24.052 22.8862C23.993 23.8038 23.3113 24.4171 22.691 24.7874C22.8113 24.5421 22.8773 24.2756 22.8844 23.9925C22.8985 23.0395 22.5329 22.2776 21.7639 21.6596C21.0917 21.1195 20.2 20.7538 19.3367 20.3976C17.5416 19.6593 15.8456 18.9611 15.8763 16.8995C15.8857 16.1069 16.3622 15.3568 17.2185 14.7883C17.2468 14.7695 17.2751 14.7506 17.3057 14.7317C17.2043 14.9535 17.1477 15.1846 17.1336 15.4276C17.0651 16.3829 17.4072 17.166 18.1762 17.8218Z" fill="white"/>
</svg>
