<svg width="40" height="40" viewBox="0 0 40 40" fill="none" xmlns="http://www.w3.org/2000/svg">
<rect width="40" height="40" fill="#00B6FA"/>
<path fill-rule="evenodd" clip-rule="evenodd" d="M10.0051 11H29.7306V19.2619C29.7306 19.3962 29.7317 19.5415 29.7328 19.6963C29.7458 21.4062 29.7677 24.2857 28.411 26.524C26.5687 29.6192 23.1865 31.9899 19.8944 32.2751L19.868 32.2773L19.8415 32.2751C16.5243 31.99 13.1414 29.619 11.2991 26.523L11.2984 26.5218C9.96787 24.2646 9.98977 21.4103 10.0028 19.7023C10.0041 19.5453 10.0051 19.3981 10.0051 19.2619V11ZM10.6212 11.6161V19.2619C10.6212 19.3996 10.6203 19.5459 10.6193 19.6998C10.6082 21.4268 10.5909 24.108 11.8288 26.2085C13.5833 29.1565 16.7902 31.3833 19.8678 31.6589C22.9205 31.3833 26.1276 29.1565 27.8822 26.2079L27.8835 26.2057C29.1443 24.1265 29.1273 21.4235 29.1164 19.6929C29.1154 19.5415 29.1145 19.3974 29.1145 19.2619V11.6161H10.6212Z" fill="white"/>
<path d="M26.9962 13.6842H12.7393V17.9757L23.7651 26.324L22.9323 27.0615L12.7393 19.4174V21.2949C12.7393 27.2292 18.3354 29.442 19.8677 29.442C24.9976 28.7379 26.9296 24.3794 26.9296 22.1666L17.2029 14.8577H18.9684L26.9962 20.8925V13.6842Z" fill="white"/>
</svg>
