<svg width="40" height="40" viewBox="0 0 40 40" fill="none" xmlns="http://www.w3.org/2000/svg">
<rect width="40" height="40" fill="#BD9920"/>
<g clip-path="url(#clip0_2336:9335)">
<path d="M33.3839 25.9696C33.3831 25.9755 33.3808 25.981 33.3772 25.9858C33.3737 25.9905 33.369 25.9943 33.3636 25.9968C33.3583 25.9983 33.3527 25.9983 33.3473 25.9969C33.342 25.9955 33.3371 25.9927 33.3332 25.9887C33.3261 25.9808 33.3209 25.9714 33.3177 25.9613C33.3146 25.9511 33.3137 25.9404 33.3151 25.9299C33.3173 25.898 33.3301 25.8677 33.3513 25.8438C33.3647 25.8286 33.3818 25.8173 33.401 25.811C33.4204 25.8049 33.4411 25.804 33.461 25.8085C33.4808 25.813 33.4991 25.8226 33.5141 25.8365C33.5316 25.8523 33.5456 25.8718 33.5551 25.8935C33.5619 25.9072 33.5669 25.9218 33.5701 25.9368C33.5773 25.9699 33.5768 26.0043 33.5685 26.0372C33.5554 26.0872 33.5314 26.1335 33.4982 26.173C33.4849 26.1896 33.4704 26.2051 33.4547 26.2194C33.4435 26.23 33.4331 26.2406 33.4226 26.2509C33.4012 26.2713 33.3784 26.2922 33.3537 26.3137C33.099 26.5307 32.7929 26.6786 32.4647 26.7433C32.4411 26.7484 32.4059 26.7561 32.3591 26.7666C32.312 26.7745 32.2531 26.7814 32.1846 26.7911C32.1059 26.8034 32.0265 26.8114 31.9469 26.815C31.8578 26.8191 31.7585 26.8292 31.6514 26.8251C31.104 26.8176 30.5601 26.7358 30.0346 26.5819C29.7233 26.4951 29.3962 26.386 29.061 26.2577C28.7257 26.1295 28.3835 25.985 28.0324 25.835C27.3315 25.5354 26.6023 25.2082 25.866 24.9273C25.1583 24.6461 24.4255 24.4327 23.6774 24.2898C23.0333 24.1697 22.376 24.1367 21.7231 24.1916C21.2601 24.2317 20.8036 24.3276 20.3636 24.4771C20.2912 24.5023 20.2198 24.5271 20.1496 24.5515C20.0968 24.5719 20.0447 24.592 19.9926 24.6119C19.9069 24.6433 19.8587 24.6555 19.8541 24.6457C19.8495 24.6359 19.889 24.6041 19.9674 24.5527C20.0069 24.5273 20.0559 24.4958 20.115 24.4622C20.1829 24.4274 20.2523 24.3922 20.3231 24.3566C20.7597 24.1532 21.2236 24.0143 21.7001 23.9442C22.3728 23.8444 23.0563 23.8416 23.7298 23.9358C24.5054 24.0471 25.268 24.2355 26.0061 24.4983C26.7651 24.7571 27.5099 25.0627 28.2146 25.339C28.567 25.477 28.911 25.6106 29.2369 25.7251C29.5629 25.8396 29.8783 25.9351 30.1735 26.0092C30.6567 26.1379 31.1549 26.2015 31.6549 26.1983C31.7504 26.2004 31.836 26.1892 31.9134 26.1842C31.982 26.1801 32.0504 26.1719 32.118 26.1598L32.2667 26.1369C32.307 26.1278 32.3365 26.1208 32.3558 26.1162C32.6711 26.0474 32.9527 25.9729 33.1659 25.912C33.1931 25.9055 33.2198 25.8997 33.2447 25.8948C33.2564 25.8923 33.2683 25.8904 33.2803 25.8893C33.2856 25.8901 33.2909 25.8913 33.2961 25.8929C33.2973 25.8934 33.2986 25.894 33.2997 25.8947L33.3093 25.9044L33.3242 25.9187C33.3383 25.9326 33.3547 25.9441 33.3726 25.9526C33.378 25.9555 33.3841 25.957 33.3902 25.957C33.388 25.9573 33.3859 25.9579 33.3838 25.9588L33.4072 25.9497H33.4079L33.4099 25.9492L33.4125 25.948L33.4172 25.9442C33.4155 25.9501 33.4153 25.9563 33.4166 25.9623C33.4179 25.9709 33.4204 25.9792 33.4241 25.9871C33.4156 25.9746 33.4042 25.9644 33.3909 25.9572C33.3818 25.9541 33.3803 25.9563 33.3818 25.9552C33.3852 25.9533 33.3862 25.95 33.3892 25.9439C33.3923 25.9379 33.3907 25.9424 33.3898 25.9451L33.3877 25.9532L33.3839 25.9696Z" fill="white"/>
<path d="M19.9006 24.5366C20.7214 24.1655 21.4517 23.7119 22.3333 23.4829C23.1684 23.266 24.0343 23.1927 24.8939 23.2662C26.6103 23.4144 28.1948 24.1768 29.8191 24.7265C31.2917 25.2253 32.9064 25.5637 34.4242 25.1422C34.9846 24.9865 35.7599 24.6947 36.107 24.1737C36.4095 23.7196 36.1899 23.0395 35.8131 22.6961C35.4283 22.3445 34.7094 22.3494 34.5159 22.9224C34.3539 23.4028 34.8418 23.9012 35.2864 23.685C35.3138 23.6706 35.3349 23.6465 35.3452 23.6173C35.3556 23.5881 35.3546 23.5561 35.3424 23.5276C35.3302 23.4992 35.3077 23.4764 35.2794 23.4638C35.2511 23.4512 35.2191 23.4498 35.1898 23.4598C34.8549 23.5828 34.6411 23.0566 34.8878 22.8477C34.9722 22.7812 35.0749 22.7421 35.1821 22.7356C35.2893 22.7292 35.3959 22.7556 35.4877 22.8115C35.7897 22.9797 36.0368 23.4192 35.9729 23.782C35.8595 24.4232 34.7728 24.7572 34.2522 24.8888C33.0363 25.1965 31.7337 25.0131 30.536 24.6618C28.1862 23.9723 25.9794 22.777 23.4804 23.0562C22.2713 23.1911 20.7754 23.5942 19.8651 24.4752C19.8379 24.5017 19.8635 24.5531 19.9006 24.5363V24.5366Z" fill="white"/>
<path d="M11.3543 12.0892C11.5899 11.7521 11.7163 11.3509 11.7163 10.9397C11.7098 10.6978 11.627 10.4643 11.4797 10.2724C11.4068 10.1829 11.314 10.1116 11.2087 10.0643C11.1034 10.0169 10.9886 9.9948 10.8732 9.99969C9.92847 9.99969 9.44939 10.8815 9.44939 12.6205C9.44966 12.8705 9.46331 13.1204 9.4903 13.3689L8.09461 14.5408C7.75872 14.2502 7.31748 14.103 6.78165 14.103C6.38603 14.1019 5.99559 14.1929 5.6412 14.3688C5.29316 14.5388 4.98438 14.7796 4.73455 15.0756C4.45539 15.4248 4.22798 15.8123 4.05933 16.2263C3.84654 16.7416 3.74132 17.295 3.75014 17.8524C3.73742 18.4311 3.86375 19.0044 4.11853 19.5241C3.921 20.1365 3.82353 20.7766 3.82988 21.42C3.82545 22.1118 4.03401 22.7882 4.42726 23.3574C4.83103 23.947 5.35464 24.246 5.98352 24.246C6.00331 24.2465 6.02298 24.2428 6.04127 24.2352C6.05956 24.2276 6.07608 24.2163 6.08978 24.2021C6.10861 24.1792 6.12252 24.1528 6.13062 24.1243C6.13872 24.0958 6.14084 24.066 6.13684 24.0367C6.12779 23.8562 6.02651 23.8368 5.98352 23.8368C5.50245 23.8368 5.11904 23.6097 4.81139 23.1424C4.49869 22.6668 4.33509 22.1087 4.34155 21.5396C4.33663 21.0554 4.38919 20.5723 4.49813 20.1004C5.01215 20.6959 5.74484 20.9976 6.67892 20.9976C7.31209 21.0102 7.94022 20.8827 8.51839 20.6243C9.02347 20.3954 9.45734 20.0342 9.77415 19.5791C10.0791 19.1304 10.3068 18.6339 10.4478 18.11C10.5949 17.5671 10.6688 17.007 10.6676 16.4446C10.6676 15.8814 10.5507 14.8133 10.3202 13.2695C10.7087 12.9167 11.0556 12.5207 11.3543 12.0892ZM11.2162 10.9909C11.2162 11.4422 10.891 12.0038 10.2488 12.6619C10.2244 12.4121 10.212 12.2033 10.212 12.0396C10.212 11.0104 10.4346 10.4886 10.8736 10.4886C11.0207 10.4886 11.2162 10.5407 11.2162 10.9909ZM7.69627 14.8844C6.04126 16.2986 4.92163 17.643 4.36381 18.8858C4.27164 18.5647 4.22592 18.2322 4.22804 17.8982C4.22764 17.5087 4.28777 17.1215 4.40626 16.7505C4.67209 15.88 5.11497 15.2529 5.72275 14.8869C6.05679 14.6891 6.43883 14.5871 6.827 14.592C7.1914 14.592 7.47651 14.6877 7.69627 14.8844ZM5.91681 17.3292C6.54307 16.5941 7.22664 15.9097 7.96111 15.2827C8.01094 15.4392 8.03628 15.6025 8.03623 15.7668C8.03281 16.282 7.82856 16.7756 7.46691 17.1426C7.21249 17.4253 6.93217 17.5686 6.63421 17.5686H6.52614L6.54505 17.675C6.55584 17.7632 6.59571 17.8454 6.65837 17.9084C6.72446 17.9646 6.80945 17.9934 6.89606 17.9891C7.265 17.994 7.62455 17.8726 7.91504 17.6451C8.18666 17.442 8.39755 17.1685 8.5249 16.8541C8.6433 16.5337 8.70145 16.1942 8.69643 15.8526C8.69894 15.5116 8.59861 15.1777 8.40851 14.8946L9.54633 13.9512C9.67151 15.2692 9.73496 16.0715 9.73496 16.337C9.73496 17.4627 9.49763 18.4328 9.02951 19.2203C8.79447 19.6156 8.45772 19.9407 8.05434 20.1616C7.60739 20.4005 7.10646 20.5202 6.59981 20.5092C5.71407 20.5092 5.07922 20.1918 4.65915 19.5392C4.93793 18.731 5.36438 17.9817 5.91681 17.3292Z" fill="white"/>
<path d="M13.0391 13.6797C13.1641 13.6718 13.284 13.6273 13.3839 13.5517C13.4998 13.4882 13.5966 13.3947 13.6641 13.281C13.7317 13.1674 13.7675 13.0377 13.7679 12.9055C13.7679 12.5193 13.5469 12.462 13.415 12.462C13.3282 12.4607 13.2432 12.4867 13.1721 12.5363C13.1009 12.5859 13.0472 12.6567 13.0184 12.7386C12.9531 12.8871 12.9035 13.0422 12.8705 13.2011C12.8434 13.3317 12.8108 13.351 12.811 13.3511H12.6858L12.7356 13.5017C12.7601 13.5826 12.8325 13.6797 13.0391 13.6797Z" fill="white"/>
<path d="M17.2566 10C16.9735 10 16.7097 10.1285 16.4724 10.382C16.2281 10.6518 16.0301 10.9602 15.8865 11.2946C15.4849 12.1565 15.1001 13.717 14.7419 15.9319L14.6319 16.155H14.4413C14.4066 16.155 14.2937 16.1693 14.2937 16.3541C14.2937 16.5311 14.397 16.5512 14.436 16.5526L14.3597 16.7074C14.0908 17.2487 13.7844 17.7707 13.4429 18.2694C12.9999 18.9191 12.7784 19.0161 12.6858 19.0161C12.6433 19.0161 12.5138 19.0161 12.5138 18.6224C12.5196 18.2542 12.5611 17.8874 12.6378 17.5272C12.6855 17.2663 12.7263 17.0586 12.7628 16.8918C12.8002 16.7192 12.8533 16.4936 12.9216 16.222C12.989 15.9525 13.0393 15.7423 13.0705 15.5975C13.1011 15.4584 13.1171 15.3165 13.1182 15.174C13.1205 15.0531 13.1037 14.9325 13.0684 14.8168C12.9766 14.5192 12.8096 14.4567 12.6857 14.4567C12.5854 14.4567 12.453 14.5103 12.3926 14.7644C12.3684 14.862 12.345 14.9649 12.3234 15.0703C12.3021 15.1736 12.2815 15.2619 12.2623 15.3319C12.2438 15.3981 12.2198 15.4935 12.1875 15.6305C11.8757 16.8627 11.7175 17.7675 11.7175 18.3201C11.7175 19.2993 12.2253 19.5047 12.6512 19.5047C12.8534 19.5047 13.0779 19.3746 13.3374 19.1065C13.5857 18.8492 13.8073 18.5675 13.9988 18.2656C14.1611 18.0107 14.332 17.718 14.5076 17.3967C14.4839 17.5462 14.4588 17.7057 14.4316 17.878L14.2205 19.217C13.9344 19.4702 13.6781 19.7551 13.4565 20.0663C12.8153 20.9287 12.3696 21.7703 12.1319 22.5677C12.0547 22.8047 12.0111 23.0513 12.0025 23.3003C12.0025 23.7771 12.2469 24.0292 12.7085 24.0292C13.3754 24.0292 13.922 23.281 14.3795 21.7425C14.6657 20.8091 15.0155 19.0609 15.4195 16.5458C15.707 16.5169 15.9889 16.4472 16.2569 16.3389L16.3119 16.3169L16.3262 15.8697L16.1937 15.9297C15.9685 16.0329 15.7289 16.1012 15.4832 16.1323C15.5873 15.4692 15.6733 14.9505 15.7389 14.588L15.9418 14.5439L15.9491 14.542C16.5628 14.3532 17.0946 13.8437 17.5303 13.0273C17.8851 12.3554 18.0649 11.7199 18.0649 11.1385C18.0652 10.1977 17.6255 10 17.2566 10ZM17.5765 11.0936C17.5765 11.5702 17.4073 12.1391 17.073 12.785C16.7125 13.4933 16.296 13.9315 15.833 14.0901C16.051 12.9225 16.2782 12.0117 16.5089 11.3811C16.7365 10.7588 17.0033 10.4431 17.3019 10.4431C17.4842 10.4431 17.5765 10.662 17.5765 11.0936ZM14.1038 19.8928C13.9009 21.027 13.6867 21.9208 13.4666 22.5531C13.2389 23.2084 12.9688 23.5406 12.6631 23.5406C12.6235 23.5406 12.503 23.5406 12.503 23.2039C12.503 22.9335 12.6995 22.3809 13.087 21.5615C13.3557 20.9654 13.6972 20.4049 14.1038 19.8928Z" fill="white"/>
<path d="M24.0331 15.3677C24.0452 15.1292 23.9653 14.8951 23.8098 14.7138C23.7302 14.6309 23.6337 14.5661 23.5268 14.5238C23.42 14.4814 23.3053 14.4624 23.1906 14.468C22.5479 14.468 21.9375 15.0722 21.3298 16.3124C21.4254 15.7615 21.5336 15.1597 21.6525 14.5173C21.9693 14.3543 22.2932 14.0061 22.64 13.4557C23.1306 12.6814 23.4381 11.9182 23.5537 11.1867C23.5754 11.0503 23.5871 10.9125 23.5887 10.7744C23.5887 10.1344 23.2606 10 22.9854 10C22.5756 10 22.2141 10.3479 21.9112 11.0332C21.7557 11.3761 21.6195 11.7274 21.5031 12.0855C21.3842 12.4485 21.2623 12.9098 21.1301 13.4957C20.9924 14.1087 20.8806 14.616 20.7883 15.0468C20.7295 15.3197 20.6636 15.6351 20.5892 15.9971L20.4752 16.2427C20.2807 16.6761 19.9384 17.2465 19.4589 17.9362C19.2543 18.2216 19.0126 18.4783 18.7401 18.6996C18.4881 18.902 18.2484 19.0046 18.0275 19.0046C17.4671 19.0046 17.1948 18.598 17.1948 17.7615C17.2072 17.1046 17.3697 16.4593 17.6699 15.8748C17.9748 15.2503 18.3099 14.9341 18.6655 14.9341C18.7605 14.9341 18.8484 14.9619 18.8484 15.1628C18.8456 15.3728 18.7961 15.5795 18.7035 15.7679C18.6001 15.9859 18.5463 16.0322 18.5324 16.0411H18.4114L18.455 16.1622C18.4661 16.2134 18.494 16.2594 18.5342 16.2929C18.5744 16.3265 18.6247 16.3456 18.677 16.3474C18.763 16.3463 18.8479 16.3276 18.9265 16.2927C19.0051 16.2578 19.0758 16.2073 19.1343 16.1442C19.2595 16.0218 19.3484 15.8672 19.3914 15.6975C19.4323 15.528 19.4524 15.3542 19.4512 15.1798C19.4506 15.0778 19.4284 14.977 19.3862 14.8841C19.3439 14.7912 19.2826 14.7083 19.2061 14.6408C19.0527 14.5056 18.8527 14.4354 18.6485 14.4453C18.4157 14.448 18.1863 14.5015 17.9764 14.6022C17.4191 14.8695 16.9747 15.3914 16.656 16.1532C16.4387 16.6643 16.3294 17.1035 16.3294 17.4595C16.3227 17.7585 16.3585 18.0569 16.4358 18.3457C16.6602 19.1073 17.1961 19.4934 18.0273 19.4934C18.3281 19.4934 18.646 19.3622 18.9724 19.1032C19.2826 18.8588 19.56 18.5755 19.7978 18.2603C19.951 18.0562 20.1103 17.8183 20.2735 17.5514C20.2121 17.8509 20.1628 18.0859 20.1268 18.2494C20.078 18.4426 20.0468 18.6398 20.0336 18.8386C20.0331 18.95 20.0546 19.0605 20.097 19.1635C20.2008 19.4169 20.3672 19.4706 20.4885 19.4706C20.6163 19.4706 20.7107 19.3722 20.7691 19.1785C20.9586 18.5573 21.2453 17.7777 21.6216 16.8601C21.808 16.3641 22.0532 15.8922 22.352 15.4546C22.5986 15.1092 22.8193 14.9341 23.0077 14.9341C23.0711 14.9341 23.2021 14.9341 23.2021 15.2083C23.2021 15.4422 23.0901 15.9808 22.8691 16.8091C22.644 17.6509 22.5298 18.2977 22.5298 18.7304C22.5298 19.6627 22.9385 19.8582 23.2811 19.8582C23.3878 19.8596 23.4918 19.8247 23.576 19.7592C23.6154 19.734 23.6483 19.7 23.6722 19.6599C23.6961 19.6198 23.7103 19.5747 23.7136 19.5282V19.4377H23.6231C23.5067 19.4377 23.44 19.2007 23.44 18.7874C23.44 18.4604 23.5389 17.871 23.7339 17.0355C23.9355 16.1733 24.0331 15.6276 24.0331 15.3677ZM21.778 13.8791C22.3517 10.9729 22.7908 10.4679 23.0137 10.4441C23.1011 10.4887 23.1454 10.607 23.1454 10.797C23.1454 11.2821 22.9301 11.9548 22.5056 12.7962C22.2556 13.2843 22.0117 13.6472 21.778 13.8789V13.8791Z" fill="white"/>
<path d="M30.1881 15.8702L29.7759 16.7072C29.5069 17.2486 29.2005 17.7705 28.859 18.2693C28.4161 18.919 28.1944 19.016 28.1019 19.016C27.9599 19.016 27.9299 18.7677 27.9299 18.5594C27.9299 18.478 27.9389 18.3429 27.9579 18.1581C27.9769 17.9733 28.1118 17.2662 28.3615 16.0562C28.3836 15.9382 28.3954 15.8186 28.397 15.6986C28.397 15.228 28.1928 15.1292 28.0215 15.1292C27.8211 15.1292 27.7076 15.3917 27.6396 15.5894C27.5509 15.8484 27.2504 16.4458 26.7452 17.3656C26.532 17.771 26.2777 18.1535 25.9863 18.5069C25.6647 18.89 25.4622 18.9705 25.3488 18.9705C25.1833 18.9705 25.1485 18.6602 25.1485 18.4002C25.1485 17.7025 25.3296 16.952 25.6878 16.1692C26.0575 15.3499 26.4669 14.9344 26.9047 14.9344C26.9953 14.9277 27.0856 14.9508 27.1619 15.0002C27.236 15.0591 27.236 15.103 27.236 15.1174C27.2345 15.1434 27.2385 15.1695 27.2476 15.194C27.2567 15.2185 27.2708 15.2408 27.289 15.2595C27.3072 15.2782 27.3291 15.293 27.3533 15.3028C27.3775 15.3126 27.4035 15.3173 27.4296 15.3165C27.4565 15.3195 27.4837 15.3168 27.5095 15.3087C27.5353 15.3006 27.5591 15.2872 27.5794 15.2694C27.5978 15.2512 27.6121 15.2293 27.6215 15.2052C27.6308 15.1811 27.635 15.1553 27.6337 15.1294C27.6329 15.0403 27.6139 14.9523 27.5779 14.8707C27.542 14.7891 27.4898 14.7157 27.4246 14.6549C27.3503 14.5842 27.2624 14.5292 27.1662 14.4933C27.07 14.4574 26.9676 14.4414 26.865 14.4461C26.6392 14.4473 26.4157 14.4925 26.2072 14.5793C25.6033 14.8459 25.1008 15.4174 24.7137 16.2785C24.4364 16.9101 24.2957 17.5015 24.2957 18.036C24.2957 18.996 24.629 19.4827 25.2865 19.4827C25.8205 19.4827 26.4414 18.8381 27.1814 17.5145C27.1514 17.7365 27.1355 17.9602 27.1337 18.1843C27.1337 19.0611 27.4479 19.5057 28.0677 19.5057C28.2699 19.5057 28.4944 19.3756 28.7539 19.1075C29.0021 18.8503 29.2234 18.5686 29.4146 18.2667C29.6086 17.9627 29.815 17.606 30.028 17.2062C30.2453 16.7989 30.3856 16.5256 30.4579 16.3695C30.5288 16.2156 30.5879 16.0924 30.6334 16.0018L30.6991 15.8707L30.1881 15.8702Z" fill="white"/>
<path d="M32.81 15.8698L32.3973 16.7067C32.1283 17.2481 31.8219 17.77 31.4804 18.2688C31.0375 18.9185 30.8159 19.0155 30.7233 19.0155C30.6808 19.0155 30.5514 19.0155 30.5514 18.6218C30.5571 18.2535 30.5987 17.8867 30.6754 17.5266C30.723 17.2656 30.7638 17.0579 30.8003 16.8912C30.8378 16.7186 30.8908 16.4929 30.9591 16.2214C31.0265 15.9519 31.0768 15.7417 31.108 15.5969C31.1386 15.4577 31.1546 15.3158 31.1557 15.1734C31.158 15.0524 31.1412 14.9318 31.1059 14.8161C31.0141 14.5185 30.8471 14.4561 30.7232 14.4561C30.6229 14.4561 30.4906 14.5096 30.4302 14.7638C30.4059 14.8614 30.3826 14.9643 30.3609 15.0696C30.3393 15.175 30.3187 15.2625 30.2998 15.3313C30.281 15.3986 30.2565 15.4967 30.225 15.63C29.9132 16.8621 29.7551 17.767 29.7551 18.3195C29.7551 19.2987 30.2628 19.5042 30.6888 19.5042C30.891 19.5042 31.1154 19.374 31.3749 19.1059C31.6232 18.8487 31.8448 18.5669 32.0364 18.2651C32.2306 17.9599 32.4369 17.6031 32.6493 17.2046C32.8666 16.7973 33.0068 16.5241 33.0792 16.3679C33.1501 16.2141 33.2092 16.0908 33.2547 16.0002L33.3204 15.8691L32.81 15.8698Z" fill="white"/>
<path d="M31.0767 13.6797C31.2017 13.6718 31.3217 13.6273 31.4216 13.5517C31.5375 13.4882 31.6343 13.3947 31.7018 13.281C31.7693 13.1674 31.8052 13.0377 31.8056 12.9055C31.8056 12.5193 31.5847 12.462 31.4526 12.462C31.3659 12.4606 31.2809 12.4866 31.2098 12.5363C31.1386 12.5859 31.0849 12.6567 31.0562 12.7386C30.9908 12.8871 30.9412 13.0422 30.9082 13.2011C30.881 13.3317 30.8485 13.351 30.8487 13.3511H30.7236L30.7735 13.5017C30.7978 13.5826 30.8702 13.6797 31.0767 13.6797Z" fill="white"/>
<path d="M36.2159 15.323C36.2286 15.0808 36.1518 14.8424 36.0001 14.6532C35.9209 14.5672 35.8235 14.5 35.7152 14.4561C35.6068 14.4123 35.4901 14.393 35.3733 14.3997C34.768 14.3997 34.163 15.0314 33.5298 16.3276L33.6153 15.8995C33.6458 15.7604 33.6617 15.6184 33.6629 15.476C33.664 15.3477 33.643 15.2202 33.6009 15.0989C33.4987 14.8037 33.3307 14.7417 33.2078 14.7417C33.1145 14.7417 32.9522 14.7829 32.9134 15.0555C32.4829 17.4551 32.2737 18.7094 32.2737 18.8898C32.2737 19.3695 32.4966 19.4706 32.6835 19.4706C32.7846 19.4706 32.9167 19.4144 32.9717 19.1473C33.0046 18.9852 33.1376 18.577 33.3669 17.9344C33.6218 17.2347 33.9286 16.5549 34.2848 15.9009C34.7394 15.0547 35.0284 14.8771 35.1908 14.8771C35.287 14.8771 35.3853 14.909 35.3853 15.1456C35.3853 15.3766 35.2693 15.9248 35.0408 16.7748C34.8082 17.6406 34.6903 18.2985 34.6903 18.7304C34.6903 19.6627 35.0989 19.8582 35.4415 19.8582C35.5482 19.8596 35.6522 19.8248 35.7365 19.7593C35.7758 19.7341 35.8087 19.7001 35.8326 19.66C35.8565 19.6199 35.8707 19.5748 35.8741 19.5282V19.4377H35.7835C35.6671 19.4377 35.6004 19.2007 35.6004 18.7875C35.6004 18.4616 35.7031 17.8663 35.9056 17.019C36.1143 16.1459 36.2159 15.5909 36.2159 15.323Z" fill="white"/>
<path d="M15.0035 28.5296C15.006 28.5251 15.0072 28.52 15.0069 28.5149C15.0066 28.5099 15.0048 28.5049 15.0018 28.5008C14.9988 28.4967 14.9946 28.4935 14.9899 28.4917C14.9851 28.4898 14.9799 28.4894 14.9749 28.4904C14.9659 28.4921 14.9575 28.4958 14.9501 28.5012C14.9427 28.5066 14.9367 28.5136 14.9324 28.5217C14.9183 28.5453 14.913 28.573 14.9172 28.6001C14.9198 28.6178 14.927 28.6344 14.9381 28.6484C14.9496 28.6627 14.9645 28.6738 14.9814 28.6809C14.9984 28.688 15.0168 28.6907 15.035 28.6889C15.0557 28.6872 15.0757 28.681 15.0937 28.6708C15.1054 28.6648 15.1163 28.6573 15.1261 28.6484C15.1477 28.6293 15.1643 28.6052 15.1743 28.5781C15.1892 28.5363 15.1942 28.4916 15.1888 28.4476C15.187 28.4292 15.1837 28.4111 15.179 28.3933C15.176 28.3801 15.1734 28.3674 15.1707 28.3549C15.1646 28.3297 15.1579 28.3035 15.15 28.2759C15.0642 27.9905 14.9087 27.731 14.6974 27.5208C14.6822 27.5051 14.6597 27.4817 14.63 27.4505C14.5988 27.4207 14.5582 27.3857 14.5118 27.3438C14.459 27.2947 14.4038 27.2484 14.3462 27.205C14.2816 27.1563 14.2125 27.0982 14.1305 27.046C13.7183 26.7697 13.2727 26.547 12.8043 26.3831C12.5293 26.2831 12.2314 26.1906 11.9183 26.107C11.6051 26.0235 11.2785 25.9477 10.9428 25.8711C10.2723 25.7184 9.56704 25.5699 8.87969 25.3861C8.21172 25.2166 7.5602 24.9878 6.93288 24.7025C6.39322 24.4546 5.88688 24.1398 5.42577 23.7656C5.10107 23.5009 4.80769 23.1999 4.55133 22.8685C4.50951 22.8137 4.46845 22.7598 4.42814 22.7069C4.39882 22.6656 4.36976 22.6249 4.34071 22.5843C4.29211 22.5184 4.26215 22.4852 4.25382 22.4897C4.24549 22.4941 4.25943 22.5364 4.29274 22.6124C4.30976 22.6503 4.33085 22.6972 4.35836 22.7511C4.39203 22.8102 4.42645 22.8702 4.46163 22.9312C4.68933 23.2991 4.96702 23.6336 5.28674 23.9251C5.74098 24.3412 6.24915 24.6944 6.79756 24.975C7.43025 25.2963 8.09164 25.5577 8.77307 25.7558C9.46675 25.9667 10.1727 26.1379 10.8346 26.3087C11.1653 26.3943 11.4877 26.4787 11.7873 26.5669C12.0869 26.6552 12.3693 26.7511 12.626 26.8515C13.0503 27.0111 13.453 27.223 13.8247 27.4824C13.8971 27.5301 13.9553 27.5819 14.0107 27.6251C14.0598 27.6632 14.1068 27.7039 14.1514 27.7472C14.191 27.7834 14.2248 27.815 14.2509 27.8395C14.2765 27.8667 14.2951 27.8866 14.3072 27.8997C14.5089 28.1095 14.6824 28.306 14.8116 28.4579C14.829 28.4767 14.8458 28.4941 14.862 28.5103C14.8695 28.5181 14.8774 28.5255 14.8858 28.5324C14.8902 28.5346 14.8948 28.5365 14.8994 28.5381C14.9006 28.5384 14.9018 28.5386 14.903 28.5387L14.9149 28.5369L14.933 28.5346C14.9506 28.5322 14.9684 28.5327 14.9858 28.536C14.9913 28.5368 14.9966 28.5389 15.0012 28.542C14.9997 28.5407 14.9984 28.5391 14.9973 28.5375C14.9973 28.5375 15.0218 28.5724 15.0103 28.5556L15.0114 28.557C15.0119 28.5577 15.0124 28.5584 15.0129 28.5592C15.0142 28.5636 15.0145 28.5642 15.0145 28.5642C15.0161 28.5592 15.0191 28.5547 15.0231 28.5511C15.0284 28.5458 15.0345 28.5413 15.0412 28.5378C15.0285 28.5421 15.015 28.5433 15.0017 28.5414C14.9934 28.5388 14.9934 28.5366 14.9938 28.538C14.9954 28.5411 14.9945 28.5439 14.9938 28.5497C14.9932 28.5555 14.9938 28.5515 14.9948 28.5491L14.9972 28.5425L15.0035 28.5296Z" fill="white"/>
<path d="M4.61059 23.3029C5.19376 23.8716 5.67537 24.4791 6.35285 24.9513C6.99436 25.3986 7.70468 25.7379 8.45571 25.956C9.95368 26.389 11.5251 26.2765 13.0662 26.3511C14.4635 26.4183 15.9327 26.6628 17.0908 27.498C17.5185 27.8065 18.087 28.2959 18.2238 28.8347C18.343 29.3042 17.9523 29.7901 17.5296 29.9496C17.0977 30.1132 16.4904 29.8772 16.4994 29.3454C16.507 28.8997 17.0704 28.6492 17.3816 28.9698C17.4004 28.99 17.4107 29.0166 17.4103 29.0442C17.41 29.0717 17.3991 29.0981 17.3798 29.1178C17.3605 29.1375 17.3344 29.149 17.3069 29.15C17.2793 29.1509 17.2525 29.1412 17.2319 29.1229C16.9852 28.9141 16.6458 29.2759 16.7917 29.5266C16.8436 29.6085 16.9183 29.6733 17.0067 29.713C17.0952 29.7526 17.1933 29.7654 17.2889 29.7496C17.5953 29.7094 17.937 29.4294 17.9923 29.1117C18.0895 28.5505 17.2701 27.926 16.8689 27.6498C15.932 27.0054 14.7739 26.7346 13.6539 26.6354C11.4564 26.4409 9.22787 26.7068 7.19552 25.6711C6.21256 25.1702 5.06732 24.357 4.56163 23.3416C4.54642 23.311 4.5838 23.2774 4.61014 23.3031L4.61059 23.3029Z" fill="white"/>
<path d="M4.50081 22.7623C5.33632 23.7224 6.47143 24.3807 7.76828 24.4036C8.40892 24.4151 9.03227 24.2554 9.65843 24.1411C10.1625 24.0486 10.7331 23.9365 11.2352 24.0725C11.5764 24.165 11.8945 24.4475 11.8644 24.8313C11.8325 25.2358 11.4118 25.4131 11.0551 25.4252C10.7335 25.4357 10.3487 25.2522 10.3506 24.8808C10.3491 24.8111 10.3665 24.7423 10.4009 24.6817C10.4353 24.6211 10.4855 24.5709 10.546 24.5364C10.6066 24.502 10.6754 24.4845 10.745 24.4859C10.8147 24.4873 10.8827 24.5075 10.9419 24.5443C10.9634 24.5576 10.979 24.5786 10.9854 24.603C10.9918 24.6275 10.9885 24.6534 10.9762 24.6755C10.9639 24.6976 10.9436 24.714 10.9195 24.7215C10.8953 24.7289 10.8693 24.7268 10.8467 24.7155C10.7622 24.7874 10.6774 24.859 10.5921 24.9305C10.6083 24.9935 10.6449 25.0493 10.6962 25.0892C10.7475 25.1292 10.8106 25.151 10.8755 25.1512C10.9904 25.1809 11.111 25.1792 11.225 25.1464C11.5428 25.0636 11.7302 24.7338 11.4694 24.4719C11.154 24.1557 10.5148 24.2547 10.1108 24.3038C9.3706 24.3948 8.64271 24.61 7.89327 24.6089C6.55098 24.6065 5.18245 23.9441 4.44007 22.8107C4.41636 22.7745 4.47184 22.7292 4.50098 22.7627L4.50081 22.7623Z" fill="white"/>
<path d="M14.1861 26.6466C14.702 26.5004 15.2322 26.7337 15.6628 27.0054C16.018 27.2293 16.5507 27.5614 16.4886 28.0553C16.4442 28.4092 16.0443 28.6197 15.7456 28.3975C15.4921 28.2086 15.5182 27.7521 15.8389 27.6573C15.8522 27.6538 15.8662 27.6543 15.8793 27.6586C15.8923 27.663 15.9038 27.6711 15.9123 27.6819C15.9208 27.6927 15.926 27.7057 15.9273 27.7194C15.9285 27.7331 15.9257 27.7469 15.9192 27.759C15.8978 27.7918 15.8773 27.8252 15.8572 27.8586C15.7657 27.9882 15.8242 28.1203 16.0327 28.2548C16.1074 28.125 16.182 27.9953 16.2564 27.8656C16.232 27.7728 16.1822 27.6886 16.1128 27.6223C15.9415 27.4328 15.7431 27.2696 15.524 27.1382C15.1334 26.8698 14.6711 26.7253 14.1972 26.7236C14.1879 26.7234 14.1789 26.7199 14.172 26.7138C14.165 26.7076 14.1604 26.6992 14.1591 26.69C14.1578 26.6808 14.1598 26.6714 14.1647 26.6635C14.1697 26.6556 14.1773 26.6498 14.1861 26.647V26.6466Z" fill="white"/>
<path d="M4.8905 23.9169C5.79046 24.9586 6.85271 25.9348 8.20939 26.3131C9.45655 26.6608 10.8738 26.4274 12.0149 27.1354C12.3019 27.3136 12.7778 27.649 12.699 28.0565C12.6305 28.4131 12.1934 28.5756 11.8765 28.4873C11.0948 28.2701 11.6892 27.2682 12.1245 27.7068C12.1824 27.7652 12.105 27.8812 12.0332 27.8291C11.896 27.7296 11.6706 27.8959 11.7067 28.0518C11.7402 28.1981 11.9388 28.2892 12.0848 28.2798C12.2622 28.2685 12.4766 28.0816 12.4681 27.889C12.4632 27.7817 12.3182 27.6581 12.2517 27.5929C11.9148 27.2619 11.4621 27.0679 11.0117 26.9466C10.1875 26.7243 9.32132 26.7471 8.48843 26.5665C6.97481 26.2395 5.73063 25.1886 4.86797 23.9343C4.85892 23.9209 4.87946 23.9043 4.89014 23.9162L4.8905 23.9169Z" fill="white"/>
<path d="M4.78915 23.2061C5.10259 23.4595 5.47994 23.541 5.73871 23.1472C5.79149 23.0457 5.85602 22.9507 5.93096 22.8642C6.1433 22.6542 6.45493 22.5326 6.7376 22.455C7.34118 22.2941 7.9812 22.3392 8.55625 22.5832C8.58166 22.598 8.60028 22.6222 8.60816 22.6505C8.61604 22.6788 8.61255 22.7091 8.59843 22.7349C8.31639 23.3478 7.72852 23.6629 7.09947 23.8154C6.53992 23.9507 5.86389 24.0914 5.40228 23.6663C5.3876 23.651 5.37707 23.6323 5.37168 23.6118C5.36629 23.5913 5.36622 23.5698 5.37148 23.5493C5.37674 23.5288 5.38715 23.51 5.40173 23.4946C5.41631 23.4793 5.43457 23.4679 5.45478 23.4616C6.15063 23.1774 6.88387 22.8914 7.62561 22.7624C7.64732 22.7569 7.67033 22.7601 7.68973 22.7713C7.70913 22.7825 7.72337 22.8008 7.72942 22.8224C7.73548 22.844 7.73285 22.867 7.72211 22.8867C7.71137 22.9064 7.69337 22.921 7.67195 22.9276C6.94858 23.1601 6.24105 23.3585 5.54891 23.6836C5.55678 23.6195 5.5652 23.5556 5.57308 23.4915C5.99033 23.8477 6.67415 23.6804 7.1564 23.5528C7.68716 23.4123 8.16162 23.1407 8.40464 22.6271C8.41849 22.6776 8.43288 22.7283 8.44728 22.7791C7.64498 22.442 6.37664 22.4458 5.89738 23.2938C5.64612 23.7387 5.00321 23.6477 4.7086 23.2881C4.6987 23.2772 4.69333 23.263 4.69361 23.2483C4.69389 23.2336 4.6998 23.2195 4.7101 23.209C4.72041 23.1985 4.73435 23.1924 4.74905 23.1918C4.76375 23.1913 4.7781 23.1964 4.78915 23.2061Z" fill="white"/>
<path d="M6.66737 24.3225C7.06076 24.323 7.45219 24.2673 7.82981 24.157C8.19186 24.0464 8.33369 23.7642 8.62016 23.5533C8.82393 23.4066 9.05912 23.3094 9.30703 23.2695C9.55494 23.2296 9.80874 23.2481 10.0483 23.3235C10.0615 23.327 10.0738 23.3335 10.0842 23.3424C10.0946 23.3513 10.1028 23.3625 10.1082 23.375C10.1137 23.3876 10.1162 23.4012 10.1156 23.4149C10.115 23.4286 10.1113 23.442 10.1048 23.454C9.65028 24.0868 8.81657 24.1951 8.09547 24.0967C7.99337 24.0829 8.01953 23.9279 8.1152 23.922C8.79693 23.8802 9.49722 23.9725 9.96327 23.348C9.97748 23.398 9.99114 23.4476 10.0053 23.4977C9.69304 23.3883 9.35303 23.3875 9.04032 23.4955C8.85581 23.5582 8.68544 23.6567 8.53888 23.7851C8.43443 23.8789 8.36266 24.0092 8.25241 24.0948C7.85842 24.3991 7.1345 24.4041 6.66846 24.3693C6.63922 24.3672 6.63687 24.3227 6.66746 24.3223L6.66737 24.3225Z" fill="white"/>
<path d="M24.1696 24.1335C24.1689 24.1279 24.1665 24.1226 24.1628 24.1183C24.1591 24.1141 24.1543 24.111 24.1488 24.1094C24.1434 24.1078 24.1376 24.1078 24.1322 24.1094C24.1268 24.111 24.122 24.1142 24.1183 24.1184C24.1116 24.126 24.1067 24.1349 24.1039 24.1446C24.1011 24.1543 24.1005 24.1645 24.1022 24.1745C24.1058 24.2045 24.1197 24.2323 24.1417 24.2531C24.1558 24.2668 24.1734 24.2765 24.1924 24.2813C24.2121 24.2859 24.2326 24.2857 24.2521 24.2804C24.2717 24.2752 24.2896 24.2653 24.3043 24.2514C24.3211 24.2359 24.3344 24.217 24.3432 24.1959C24.3494 24.1828 24.3539 24.1688 24.3565 24.1546C24.3625 24.1233 24.3607 24.091 24.3512 24.0606C24.3362 24.0141 24.3104 23.9718 24.2761 23.937C24.2621 23.9221 24.247 23.9083 24.2308 23.8959C24.2193 23.8868 24.2085 23.877 24.1977 23.868C24.1755 23.8499 24.152 23.8318 24.1266 23.813C23.8597 23.6214 23.5493 23.4993 23.2234 23.4578C23.1996 23.4544 23.1642 23.449 23.1172 23.4416C23.0699 23.4367 23.0109 23.4334 22.9421 23.4279C22.863 23.4206 22.7835 23.4173 22.7041 23.4182C22.6149 23.4191 22.5155 23.4148 22.4087 23.4244C21.8628 23.4604 21.3237 23.5656 20.8043 23.7376C20.4966 23.8352 20.1744 23.9548 19.8449 24.0926C19.5153 24.2303 19.1789 24.3837 18.8341 24.5427C18.1457 24.8604 17.4299 25.2052 16.7058 25.5071C16.0083 25.8084 15.2852 26.0468 14.5454 26.2197C13.9072 26.3662 13.2532 26.4319 12.5987 26.4152C12.137 26.4025 11.6782 26.337 11.2314 26.2199C11.1579 26.2002 11.0857 26.1808 11.0149 26.1617C10.9615 26.1454 10.9089 26.1292 10.8562 26.1135C10.7694 26.0886 10.7209 26.0796 10.7166 26.0892C10.7124 26.0987 10.7528 26.1263 10.8332 26.1702C10.8736 26.1919 10.9237 26.2187 10.9838 26.2473C11.0529 26.2761 11.1233 26.3054 11.1951 26.335C11.6415 26.5031 12.1091 26.6085 12.5845 26.6481C13.2612 26.7059 13.9426 26.6724 14.6103 26.5485C15.3792 26.4035 16.1327 26.1869 16.8612 25.9014C17.6089 25.619 18.3409 25.2936 19.0335 24.9975C19.38 24.8498 19.7184 24.7067 20.0394 24.582C20.3605 24.4574 20.6717 24.3515 20.9634 24.2665C21.4414 24.1204 21.9357 24.0346 22.435 24.0111C22.5301 24.004 22.616 24.0102 22.6934 24.0106C22.7619 24.0108 22.8303 24.0148 22.8984 24.0226C22.9578 24.0279 23.0081 24.0325 23.0477 24.0362C23.0883 24.0426 23.118 24.0476 23.1374 24.0508C23.4541 24.0985 23.7383 24.1533 23.9535 24.199C23.9812 24.2037 24.0078 24.208 24.0326 24.2109C24.0444 24.2127 24.0564 24.2138 24.0684 24.2142C24.0737 24.2131 24.0789 24.2118 24.0841 24.21C24.0853 24.2095 24.0864 24.2088 24.0875 24.2081L24.0966 24.1985L24.1109 24.1843C24.1246 24.1704 24.1405 24.1589 24.158 24.1501C24.1633 24.1471 24.1693 24.1454 24.1754 24.145C24.1732 24.1448 24.171 24.1444 24.1689 24.1437L24.1926 24.151H24.1934H24.1953C24.1962 24.1513 24.1971 24.1516 24.198 24.152C24.2021 24.1549 24.2029 24.1553 24.2029 24.1553C24.2008 24.1498 24.2003 24.1438 24.2015 24.1381C24.2025 24.1299 24.2047 24.122 24.208 24.1145C24.1998 24.1268 24.1889 24.1369 24.176 24.1441C24.1669 24.1475 24.1656 24.1456 24.1669 24.1465C24.1703 24.1481 24.1714 24.1512 24.1747 24.1566C24.1781 24.1621 24.1762 24.158 24.1752 24.1555L24.1728 24.1481L24.1696 24.1335Z" fill="white"/>
<path d="M11.9562 26.5676C13.4181 26.9754 14.9892 27.2239 16.4659 26.7439C17.8236 26.3024 18.9822 25.2233 20.4625 25.178C20.8348 25.1665 21.4762 25.1843 21.6527 25.6065C21.8073 25.976 21.505 26.3917 21.16 26.504C20.3092 26.7809 20.2444 25.4986 20.9118 25.6359C21.0006 25.654 21.0002 25.8079 20.9027 25.8039C20.7162 25.7964 20.6105 26.0864 20.7386 26.2076C20.8587 26.3215 21.0966 26.284 21.225 26.1863C21.381 26.0677 21.4638 25.7653 21.3386 25.5937C21.2687 25.4981 21.0601 25.4731 20.9593 25.4536C20.4479 25.3552 19.914 25.4536 19.4263 25.6165C18.5338 25.9152 17.7518 26.4644 16.8773 26.8071C15.2877 27.43 13.504 27.2234 11.9469 26.5978C11.9301 26.5913 11.9392 26.5632 11.9564 26.568L11.9562 26.5676Z" fill="white"/>
<path d="M11.3538 12.0892C11.5894 11.7521 11.7158 11.3509 11.7159 10.9397C11.7093 10.6978 11.6265 10.4643 11.4792 10.2724C11.4063 10.1829 11.3135 10.1116 11.2082 10.0643C11.103 10.0169 10.9881 9.9948 10.8727 9.99969C9.92798 9.99969 9.4489 10.8815 9.4489 12.6205C9.44917 12.8705 9.46283 13.1204 9.48982 13.3689L8.09412 14.5408C7.75823 14.2502 7.31699 14.103 6.78116 14.103C6.38555 14.1019 5.9951 14.1929 5.64072 14.3688C5.29267 14.5388 4.98389 14.7796 4.73406 15.0756C4.4549 15.4248 4.22749 15.8123 4.05884 16.2263C3.84605 16.7416 3.74083 17.295 3.74965 17.8524C3.73693 18.4311 3.86326 19.0044 4.11804 19.5241C3.92051 20.1365 3.82304 20.7766 3.8294 21.42C3.82496 22.1118 4.03352 22.7882 4.42677 23.3574C4.83054 23.947 5.35415 24.246 5.98303 24.246C6.00282 24.2465 6.02249 24.2428 6.04078 24.2352C6.05907 24.2276 6.07559 24.2163 6.08929 24.2021C6.10813 24.1792 6.12203 24.1528 6.13013 24.1243C6.13823 24.0958 6.14035 24.066 6.13636 24.0367C6.1273 23.8562 6.02602 23.8368 5.98303 23.8368C5.50196 23.8368 5.11855 23.6097 4.8109 23.1424C4.4982 22.6668 4.3346 22.1087 4.34106 21.5396C4.33614 21.0554 4.38871 20.5723 4.49764 20.1004C5.01166 20.6959 5.74435 20.9976 6.67843 20.9976C7.3116 21.0102 7.93973 20.8827 8.5179 20.6243C9.02298 20.3954 9.45685 20.0342 9.77366 19.5791C10.0786 19.1304 10.3063 18.6339 10.4473 18.11C10.5944 17.5671 10.6683 17.007 10.6671 16.4446C10.6671 15.8814 10.5503 14.8133 10.3197 13.2695C10.7082 12.9167 11.0552 12.5207 11.3538 12.0892ZM11.2157 10.9909C11.2157 11.4422 10.8905 12.0038 10.2483 12.6619C10.2239 12.4121 10.2116 12.2033 10.2116 12.0396C10.2116 11.0104 10.4341 10.4886 10.8731 10.4886C11.0202 10.4886 11.2157 10.5407 11.2157 10.9909ZM7.69578 14.8844C6.04078 16.2986 4.92115 17.643 4.36332 18.8858C4.27115 18.5647 4.22543 18.2322 4.22756 17.8982C4.22716 17.5087 4.28728 17.1215 4.40577 16.7505C4.67161 15.88 5.11448 15.2529 5.72227 14.8869C6.05631 14.6891 6.43834 14.5871 6.82651 14.592C7.19091 14.592 7.47602 14.6877 7.69578 14.8844ZM5.91632 17.3292C6.54258 16.5941 7.22616 15.9097 7.96062 15.2827C8.01045 15.4392 8.03579 15.6025 8.03574 15.7668C8.03232 16.282 7.82807 16.7756 7.46643 17.1426C7.212 17.4253 6.93168 17.5686 6.63372 17.5686H6.52565L6.54456 17.675C6.55535 17.7632 6.59522 17.8454 6.65789 17.9084C6.72397 17.9646 6.80897 17.9934 6.89557 17.9891C7.26451 17.994 7.62406 17.8726 7.91455 17.6451C8.18617 17.442 8.39706 17.1685 8.52442 16.8541C8.64281 16.5337 8.70096 16.1942 8.69594 15.8526C8.69845 15.5116 8.59812 15.1777 8.40802 14.8946L9.54584 13.9512C9.67102 15.2692 9.73447 16.0715 9.73447 16.337C9.73447 17.4627 9.49715 18.4328 9.02902 19.2203C8.79399 19.6156 8.45723 19.9407 8.05385 20.1616C7.60691 20.4005 7.10597 20.5202 6.59932 20.5092C5.71358 20.5092 5.07873 20.1918 4.65866 19.5392C4.93744 18.731 5.36389 17.9817 5.91632 17.3292Z" fill="white"/>
</g>
<defs>
<clipPath id="clip0_2336:9335">
<rect width="32.4983" height="20.0004" fill="white" transform="translate(3.75073 10)"/>
</clipPath>
</defs>
</svg>
