<svg width="40" height="40" viewBox="0 0 40 40" fill="none" xmlns="http://www.w3.org/2000/svg">
<rect width="40" height="40" fill="white"/>
<rect width="40" height="40" fill="white"/>
<circle cx="20" cy="20" r="20" fill="white"/>
<path fill-rule="evenodd" clip-rule="evenodd" d="M24.2358 15.5957C22.8969 15.0702 21.455 14.7958 19.9987 14.7958C16.9381 14.7958 14.0591 15.992 11.8924 18.1639C9.73506 20.3263 8.53649 23.1987 8.5172 26.2519L8.51465 26.662L8.87253 26.8646C10.5974 27.8416 12.548 28.3555 14.5246 28.3555C14.579 28.3555 14.6338 28.3552 14.6882 28.3543C16.4113 28.3297 18.1159 27.9172 19.6612 27.156C19.174 26.8846 18.707 26.5791 18.2631 26.2422C15.5695 27.2986 12.5167 27.1683 9.93323 25.8453C10.1845 20.4873 14.6159 16.1954 19.9987 16.1954C21.4959 16.1954 22.9747 16.5251 24.3102 17.1516C24.3274 16.6329 24.3027 16.113 24.2358 15.5957Z" fill="black"/>
<path fill-rule="evenodd" clip-rule="evenodd" d="M31.4805 26.1567C31.4395 22.3607 29.5826 18.8974 26.4873 16.7877C26.4896 17.3431 26.4523 17.8983 26.3757 18.4501C28.5751 20.2378 29.916 22.8703 30.0626 25.7544C25.3183 28.188 19.4015 26.4837 16.7063 21.8332C15.9784 20.5771 15.532 19.1726 15.4009 17.7375C14.943 17.9861 14.5056 18.272 14.0928 18.5927C14.3105 19.9738 14.7836 21.3149 15.4896 22.5331C17.0227 25.1785 19.4875 27.075 22.4298 27.8733C23.428 28.1442 24.443 28.2782 25.4524 28.2782C27.419 28.2782 29.3646 27.7694 31.1251 26.7727L31.4848 26.5689L31.4805 26.1567Z" fill="black"/>
<path fill-rule="evenodd" clip-rule="evenodd" d="M20.4047 6.8869L20.0498 6.67969L19.6949 6.88658C17.9413 7.90819 16.4844 9.37292 15.4816 11.1223C14.6157 12.6331 14.1035 14.3254 13.9834 16.0529C14.4635 15.7688 14.9636 15.5191 15.4807 15.3056C15.9261 12.4579 17.5897 9.88424 20.0492 8.31148C24.5665 11.2029 26.0521 17.1979 23.3387 21.8797C22.6039 23.1476 21.5991 24.2439 20.4088 25.0856C20.8534 25.3555 21.3202 25.5898 21.8053 25.7857C22.9058 24.8976 23.8426 23.8096 24.5555 22.5795C27.7235 17.1133 25.8614 10.0736 20.4047 6.8869Z" fill="black"/>
<path fill-rule="evenodd" clip-rule="evenodd" d="M19.9995 18.8284C19.3534 18.8284 18.8279 19.354 18.8279 20.0001C18.8279 20.6461 19.3534 21.1717 19.9995 21.1717C20.6455 21.1717 21.1711 20.6461 21.1711 20.0001C21.1711 19.354 20.6455 18.8284 19.9995 18.8284ZM19.9995 22.5786C18.5776 22.5786 17.4209 21.4219 17.4209 20.0001C17.4209 18.5782 18.5776 17.4215 19.9995 17.4215C21.4214 17.4215 22.5782 18.5782 22.5782 20.0001C22.5782 21.4219 21.4214 22.5786 19.9995 22.5786Z" fill="black"/>
</svg>
