<svg width="398" height="400" viewBox="0 0 398 400" fill="none" xmlns="http://www.w3.org/2000/svg">
<g filter="url(#filter0_d)">
<path d="M158.148 338.469L46.2665 51.9558C36.9844 32.1151 22.8956 22.1947 4 22.1947V0H169.088V22.1947H144.225C134.612 22.1947 129.805 24.2124 129.805 28.2478C129.805 35.3097 131.131 42.3717 133.783 49.4336L212.846 262.301L285.445 59.5221C286.771 55.4867 287.434 49.938 287.434 42.8761C287.434 29.0885 272.516 22.1947 242.681 22.1947V0H366V22.1947H347.602C342.961 22.1947 338.817 24.2124 335.17 28.2478C331.855 32.2832 328.375 38.1682 324.728 45.9027L206.879 342L158.148 338.469Z" fill="url(#paint0_linear)"/>
</g>
<defs>
<filter id="filter0_d" x="0" y="0" width="398" height="400" filterUnits="userSpaceOnUse" color-interpolation-filters="sRGB">
<feFlood flood-opacity="0" result="BackgroundImageFix"/>
<feColorMatrix in="SourceAlpha" type="matrix" values="0 0 0 0 0 0 0 0 0 0 0 0 0 0 0 0 0 0 127 0"/>
<feOffset dx="14" dy="40"/>
<feGaussianBlur stdDeviation="9"/>
<feColorMatrix type="matrix" values="0 0 0 0 0 0 0 0 0 0 0 0 0 0 0 0 0 0 0.2 0"/>
<feBlend mode="normal" in2="BackgroundImageFix" result="effect1_dropShadow"/>
<feBlend mode="normal" in="SourceGraphic" in2="effect1_dropShadow" result="shape"/>
</filter>
<linearGradient id="paint0_linear" x1="185" y1="0" x2="185" y2="342" gradientUnits="userSpaceOnUse">
<stop stop-color="#DE8B71"/>
<stop offset="0.572917" stop-color="#983825"/>
<stop offset="1" stop-color="#E86159" stop-opacity="0"/>
</linearGradient>
</defs>
</svg>
