<svg width="131" height="38" viewBox="0 0 131 38" xmlns="http://www.w3.org/2000/svg">
<path d="M116.191 15.8769C116.305 15.8389 116.381 15.8199 116.438 15.8199C117.235 15.8199 118.052 15.8199 118.887 15.8199C119.476 18.1172 120.178 20.3385 120.672 22.6737C120.938 21.5536 121.203 20.4334 121.469 19.3133C121.735 18.1741 122.02 17.035 122.305 15.8579C123.197 15.8579 124.07 15.8579 125.02 15.8579C125.665 18.1172 126.273 20.4524 126.804 22.7876C127.298 20.4524 127.924 18.1741 128.494 15.8579C129.329 15.8579 130.146 15.8579 131 15.8579C129.994 19.2184 129.006 22.5598 128.019 25.9012C127.108 25.9012 126.216 25.9012 125.266 25.9012C124.735 23.604 124.127 21.3257 123.615 18.9905C123.197 21.3447 122.475 23.604 121.963 25.9202C121.033 25.9202 120.159 25.9202 119.21 25.9202C118.185 22.5788 117.198 19.2373 116.191 15.8769Z" fill="white" />
<path d="M54.7162 17.6424C53.7669 17.6424 52.8746 17.6424 52.0012 17.6424C51.8493 17.4716 51.9253 17.2627 51.8873 17.0919C51.5456 15.611 50.5204 15.0224 49.2104 14.8706C48.6598 14.8136 48.1282 14.9085 47.6156 15.0604C46.6283 15.3452 46.0018 16.0097 45.6601 16.959C45.4702 17.4906 45.3373 18.0411 45.3563 18.6107C45.3753 19.484 45.2994 20.3574 45.4892 21.2307C45.8309 22.7875 46.9701 23.7937 48.7357 23.7937C49.4382 23.7937 50.0837 23.6988 50.7102 23.3571C51.3937 22.9774 51.8114 22.4078 51.9253 21.6294C51.9443 21.4395 51.9822 21.2687 52.1151 21.0788C52.8746 21.0788 53.653 21.0788 54.4314 21.0788C54.5263 21.0788 54.6212 21.0408 54.7541 21.1927C54.7541 22.9394 54.0707 24.3633 52.4949 25.2936C51.6785 25.7872 50.7672 25.9771 49.8179 26.11C48.5649 26.2619 47.3688 26.129 46.1917 25.7682C44.5399 25.2556 43.4578 24.1355 42.9451 22.4837C42.3186 20.4713 42.2996 18.4398 42.8882 16.4274C43.4578 14.4529 44.8247 13.1998 46.7992 12.7442C48.432 12.3645 50.0647 12.4024 51.6785 12.991C53.577 13.6745 54.925 15.6679 54.7162 17.6424Z" fill="white" />
<path d="M59.1778 25.9012C58.2665 25.9012 57.4501 25.9012 56.5958 25.9012C56.5958 21.2687 56.5958 16.6742 56.5958 12.0417C57.4311 12.0417 58.2475 12.0417 59.1588 12.0417C59.1778 12.4404 59.1588 12.8581 59.1588 13.2758C59.1588 13.6745 59.1588 14.0732 59.1588 14.4909C59.1588 14.9086 59.1588 15.3452 59.1588 15.7629C59.1588 16.1616 59.1588 16.5603 59.1588 16.997C59.4816 16.8831 59.6334 16.6552 59.8233 16.4844C60.9814 15.4022 62.804 15.2883 64.19 16.0287C64.9494 16.4274 65.405 17.1488 65.5379 18.0032C65.6139 18.4209 65.6518 18.8386 65.6518 19.2752C65.6708 21.4016 65.6518 23.547 65.6518 25.6733C65.6518 25.7303 65.6329 25.8062 65.6139 25.9012C64.7595 25.9012 63.9052 25.9012 63.0508 25.9012C62.899 25.7493 62.9749 25.5404 62.9749 25.3696C62.9749 23.49 62.9749 21.6294 62.9749 19.7499C62.9749 19.3702 62.9559 18.9904 62.7661 18.6487C62.6332 18.3829 62.4433 18.1741 62.1585 18.0791C60.7916 17.6615 59.7474 18.0222 59.2727 19.4081C59.1588 19.7309 59.1588 20.0536 59.1588 20.3954C59.1588 21.9902 59.1588 23.566 59.1588 25.1607C59.1778 25.3886 59.1778 25.6164 59.1778 25.9012Z" fill="white" />
<path d="M73.246 19.6929C73.265 18.9145 73.3979 18.1551 72.5246 17.6805C71.7842 17.6615 70.9678 17.4147 70.3223 18.1361C70.1894 18.326 70.2843 18.5728 70.1704 18.7816C69.354 18.7816 68.5376 18.7816 67.7213 18.7816C67.5694 17.5476 67.9491 16.7692 69.0123 16.1996C70.1514 15.5921 71.3855 15.4781 72.6575 15.63C72.9233 15.668 73.2081 15.725 73.4929 15.7819C75.1826 16.1616 75.904 17.3577 75.923 18.8955C75.961 20.2435 75.923 21.5915 75.923 22.9394C75.923 23.2052 75.885 23.4521 75.98 23.6989C76.2458 24.1165 76.6824 23.8887 77.0621 24.0216C77.0621 24.6102 77.0621 25.2177 77.0621 25.8632C76.2837 26.2429 75.4673 26.2429 74.9168 26.091C74.0814 25.8063 73.7966 25.3506 73.5308 24.876C73.246 24.9709 73.1131 25.1797 72.9423 25.3316C71.7652 26.3758 69.5818 26.4897 68.101 25.5405C67.4744 25.1418 67.2086 24.5152 67.1327 23.8128C66.9808 22.237 67.5504 20.9839 69.2021 20.3574C70.0755 20.0347 70.9678 19.8638 71.8791 19.7879C72.3347 19.7689 72.7524 19.7309 73.246 19.6929ZM73.2271 21.5345C72.3917 21.4965 71.5943 21.5535 70.8349 21.8383C69.9995 22.1421 69.7717 22.5787 69.9046 23.471C70.4172 24.1165 71.1576 24.2684 72.0689 23.9457C72.8284 23.6609 73.3979 22.6736 73.2271 21.5345Z" fill="white" />
<path d="M105.407 20.984C105.407 20.1676 105.483 19.4461 105.692 18.7437C106.11 17.1679 107.116 16.1996 108.711 15.8199C110.154 15.4782 111.559 15.5351 112.964 15.9908C114.141 16.3705 114.938 17.1869 115.337 18.326C115.698 19.4082 115.868 20.5093 115.698 21.6674C115.622 22.1801 115.603 22.6927 115.451 23.2053C114.957 24.838 113.818 25.7303 112.185 26.0721C110.989 26.3189 109.793 26.2619 108.616 25.9582C106.774 25.4835 105.863 24.2115 105.578 22.4648C105.464 21.9332 105.351 21.4206 105.407 20.984ZM110.534 23.9837C112.128 24.0596 112.869 23.0344 112.964 21.7244C113.002 21.1359 112.983 20.5663 112.964 19.9777C112.888 18.269 111.502 17.4906 109.888 17.7944C109.091 17.9463 108.597 18.4209 108.369 19.1993C108.027 20.3574 108.046 21.5156 108.388 22.6737C108.597 23.3572 109.072 23.7938 109.774 23.9457C110.021 23.9837 110.287 23.9647 110.534 23.9837Z" fill="white" />
<path d="M92.3265 25.9012C91.4152 25.9012 90.5988 25.9012 89.7255 25.9012C89.7255 25.6544 89.7255 25.4076 89.7255 25.1798C89.7255 23.547 89.7255 21.9143 89.7255 20.2815C89.7255 20.1486 89.7255 19.9967 89.7255 19.8638C89.7065 18.345 88.8711 17.6615 87.3902 17.9843C86.6688 18.1362 85.9663 19.0285 85.9094 19.8638C85.8904 20.0537 85.9094 20.2435 85.9094 20.4334C85.9094 22.0472 85.9094 23.6609 85.9094 25.2557C85.9094 25.4646 85.9094 25.6734 85.9094 25.9012C85.0171 25.9012 84.1627 25.9012 83.2704 25.9012C83.2704 22.5788 83.2704 19.2373 83.2704 15.8769C83.9728 15.763 84.6943 15.8579 85.4157 15.8199C85.7195 16.2186 85.5676 16.7122 85.7195 17.1679C86.0233 17.016 86.1562 16.7882 86.346 16.6173C87.5421 15.5921 88.8711 15.3263 90.371 15.8009C91.586 16.1996 92.1556 17.1109 92.3075 18.326C92.3455 18.6298 92.3455 18.9335 92.3455 19.2563C92.3455 21.3067 92.3455 23.3762 92.3455 25.4266C92.3265 25.5785 92.3265 25.7114 92.3265 25.9012Z" fill="white" />
<path d="M99.2941 12.2126C99.2941 12.8012 99.2941 13.3707 99.2941 13.9593C98.8954 14.0922 98.4967 13.9783 98.117 14.0352C97.8892 14.1302 97.7183 14.282 97.5854 14.5099C97.5854 14.9086 97.5854 15.3262 97.5854 15.8199C98.155 15.8199 98.7246 15.8199 99.2941 15.8199C99.2941 16.5413 99.2941 17.2058 99.2941 17.9083C98.7625 18.0791 98.193 17.9083 97.6614 18.0032C97.6424 18.0222 97.6234 18.0412 97.6044 18.0602C97.5854 18.0791 97.5665 18.0981 97.5665 18.1171C97.5665 20.6991 97.5665 23.2622 97.5665 25.8822C97.1108 26.0151 96.6741 25.9202 96.2375 25.9391C95.8198 25.9581 95.3831 25.9391 94.9085 25.9391C94.9085 23.2812 94.9085 20.6802 94.9085 18.0412C94.4338 17.9273 93.9782 18.0222 93.4656 17.9652C93.4086 17.2818 93.4656 16.5793 93.4276 15.8389C93.9212 15.8389 94.3769 15.8389 94.8325 15.8389C94.9275 15.2123 94.8515 14.6238 94.9654 14.0352C95.2123 12.7822 95.8198 12.1177 97.0728 11.9089C97.8512 11.776 98.5917 11.9089 99.2941 12.2126Z" fill="white" />
<path d="M103.661 25.9011C102.807 25.9011 101.99 25.9011 101.136 25.9011C101.136 21.2877 101.136 16.6742 101.136 12.0417C101.516 11.9278 101.952 12.0037 102.37 11.9848C102.788 11.9658 103.205 11.9848 103.68 11.9848C103.661 16.6362 103.661 21.2307 103.661 25.9011Z" fill="white" />
<path d="M78.2962 15.8389C79.1695 15.8389 80.0239 15.8389 80.8972 15.8389C80.8972 19.1803 80.8972 22.5028 80.8972 25.8822C80.4795 25.9961 80.0429 25.9012 79.6062 25.9202C79.1885 25.9392 78.7519 25.9202 78.2962 25.9202C78.2962 22.5597 78.2962 19.2373 78.2962 15.8389Z" fill="white" />
<path d="M78.2962 12.0227C79.1885 12.0227 80.0239 12.0227 80.8972 12.0227C80.8972 12.8201 80.8972 13.5795 80.8972 14.3769C80.0239 14.3769 79.1885 14.3769 78.2962 14.3769C78.2962 13.6175 78.2962 12.8581 78.2962 12.0227Z" fill="white" />
<path d="M34.1739 13.6366L23.542 3.02367C20.5803 0.0619334 15.7959 0.0619334 12.8342 3.02367L2.2213 13.6366C-0.740435 16.5983 -0.740435 21.3827 2.2213 24.3444L12.8342 34.9763C15.7959 37.938 20.5803 37.938 23.542 34.9763L34.1739 24.3444C37.1167 21.4016 37.1167 16.5983 34.1739 13.6366ZM22.7636 28.9199H13.7645C10.7078 28.9199 8.23971 26.4518 8.23971 23.3951V14.396C8.23971 11.3393 10.7078 8.87121 13.7645 8.87121H22.7636C24.9659 8.87121 26.8645 10.1622 27.7568 12.0228C27.3201 11.9279 26.8455 11.8899 26.3899 11.8899C22.4788 11.8899 19.3272 15.0605 19.3272 18.9525C19.3272 22.8635 22.4978 26.0151 26.3899 26.0151C26.8265 26.0151 27.2632 25.9772 27.6809 25.9012C26.7696 27.6858 24.909 28.9199 22.7636 28.9199Z" fill="white" />
</svg>
