<svg width="87" height="26" viewBox="0 0 87 26" xmlns="http://www.w3.org/2000/svg">
<path fill-rule="evenodd" clip-rule="evenodd" d="M14.3333 18.3931L12.5642 16.6014C11.8922 17.2283 11.2129 17.725 10.5258 18.0909C9.83928 18.4565 9.01801 18.6393 8.06258 18.6393C7.31593 18.6393 6.6255 18.494 5.99096 18.2027C5.35642 17.9115 4.80769 17.5123 4.34478 17.0044C3.88187 16.4968 3.52381 15.9034 3.26969 15.2242C3.01587 14.545 2.88927 13.8168 2.88927 13.0409C2.88927 12.2644 3.01587 11.5402 3.26969 10.8682C3.52381 10.1965 3.88187 9.61069 4.34478 9.11034C4.80769 8.61029 5.35642 8.21479 5.99096 7.92352C6.6255 7.63256 7.31593 7.48693 8.06258 7.48693C8.95818 7.48693 9.7571 7.6661 10.4587 8.02444C11.1606 8.38248 11.8251 8.85292 12.4518 9.43514L14.2212 7.39749C13.8481 7.03915 13.4525 6.71072 13.0343 6.4119C12.6165 6.11338 12.1611 5.85566 11.6683 5.63932C11.1754 5.42269 10.6343 5.255 10.0445 5.13565C9.45463 5.016 8.80136 4.95618 8.08494 4.95618C6.89049 4.95618 5.80059 5.16919 4.81525 5.5946C3.8296 6.02002 2.97871 6.60225 2.26198 7.34129C1.54525 8.08034 0.989277 8.94235 0.593445 9.92794C0.197614 10.9132 0 11.9659 0 13.0856C0 14.2202 0.201542 15.2801 0.604625 16.2657C1.00771 17.2507 1.56399 18.1054 2.27316 18.8297C2.98233 19.5536 3.82204 20.1247 4.79258 20.5428C5.76313 20.961 6.82341 21.1698 7.97283 21.1698C8.70467 21.1698 9.37275 21.1063 9.97737 20.9794C10.582 20.8525 11.1383 20.6661 11.6459 20.4199C12.1535 20.1733 12.6276 19.882 13.0682 19.5464C13.5084 19.2104 13.9303 18.8257 14.3333 18.3931Z" fill="white"/>
<path fill-rule="evenodd" clip-rule="evenodd" d="M49.8702 9.39514C49.8702 8.87363 50.0929 8.4305 50.5386 8.06574C50.984 7.70038 51.6078 7.51801 52.4096 7.51801C53.1224 7.51801 53.8278 7.65607 54.5256 7.9316C55.2237 8.20712 55.929 8.60564 56.6415 9.12685L58.1116 7.04895C57.3102 6.40837 56.4525 5.92062 55.5392 5.58571C54.6256 5.25049 53.5976 5.08289 52.4541 5.08289C51.6821 5.08289 50.9692 5.19081 50.3195 5.40695C49.6662 5.62278 49.1096 5.93177 48.6453 6.33391C48.1813 6.73634 47.8174 7.21656 47.5503 7.77514C47.2867 8.33373 47.153 8.95563 47.153 9.64082C47.153 10.3706 47.2681 10.9889 47.4983 11.4954C47.7285 12.0018 48.0662 12.4338 48.5044 12.7913C48.9423 13.1488 49.488 13.4466 50.1338 13.6851C50.7835 13.9235 51.5225 14.1391 52.3576 14.3329C53.0855 14.5117 53.6754 14.6829 54.1322 14.8466C54.5851 15.0106 54.9415 15.1857 55.205 15.3717C55.4647 15.558 55.6432 15.7627 55.7397 15.9861C55.8361 16.2097 55.8842 16.4627 55.8842 16.7457C55.8842 17.3568 55.6357 17.8409 55.1383 18.1981C54.6407 18.5559 53.9687 18.7344 53.1224 18.7344C52.1425 18.7344 51.2662 18.5592 50.4941 18.2093C49.7218 17.8593 48.9573 17.3568 48.1997 16.7011L46.5516 18.6675C47.4871 19.5164 48.5044 20.1458 49.6031 20.5555C50.7021 20.9651 51.8528 21.1698 53.0554 21.1698C53.8722 21.1698 54.6223 21.0655 55.3054 20.8572C55.9846 20.6483 56.5712 20.3429 57.0538 19.9408C57.5401 19.5387 57.9187 19.0473 58.1934 18.4664C58.4644 17.8855 58.6018 17.2226 58.6018 16.4777C58.6018 15.8224 58.4942 15.2526 58.2787 14.7685C58.0633 14.2844 57.7441 13.8602 57.3285 13.4949C56.9126 13.1301 56.3855 12.8208 55.7544 12.5676C55.1236 12.3147 54.3957 12.0838 53.5789 11.8752C52.8327 11.6964 52.2203 11.5249 51.7341 11.3612C51.2514 11.1975 50.8728 11.0188 50.5942 10.8249C50.3195 10.6314 50.1305 10.4228 50.0262 10.1994C49.9225 9.97574 49.8702 9.70775 49.8702 9.39514Z" fill="white"/>
<path fill-rule="evenodd" clip-rule="evenodd" d="M80.3611 9.6164V20.7897H83.0826V5.20947H80.16L75.4084 12.5768L70.6568 5.20947H67.7345V20.7897H70.456V9.66085L75.3413 16.9615H75.4307L80.3611 9.6164Z" fill="white"/>
<path fill-rule="evenodd" clip-rule="evenodd" d="M33.0025 8.32852L25.5455 15.7756C25.4493 15.5893 25.3625 15.3951 25.2847 15.1938C25.0243 14.5171 24.8941 13.7992 24.8941 13.041C24.8941 12.2822 25.0243 11.5646 25.2847 10.8879C25.5455 10.211 25.9066 9.62373 26.3683 9.12528C26.8301 8.62712 27.385 8.23311 28.0328 7.94294C28.6808 7.65308 29.3918 7.50799 30.1662 7.50799C30.9408 7.50799 31.6558 7.65669 32.3108 7.95438C32.5543 8.06485 32.7849 8.18946 33.0025 8.32852ZM32.3445 18.1833C31.6965 18.4735 30.9854 18.6183 30.2111 18.6183C29.4365 18.6183 28.7215 18.4696 28.0662 18.1722C27.823 18.0614 27.5924 17.9368 27.3751 17.7974L34.8318 10.351C34.928 10.537 35.0148 10.7308 35.0925 10.9325C35.353 11.6091 35.4832 12.327 35.4832 13.0856C35.4832 13.8441 35.353 14.5617 35.0925 15.2386C34.8318 15.9153 34.4707 16.5025 34.009 17.0007C33.5472 17.4988 32.9926 17.8932 32.3445 18.1833ZM33.4727 20.4923C34.4707 20.061 35.3346 19.4773 36.0643 18.7408C36.794 18.0048 37.3598 17.1458 37.7619 16.1642C38.1643 15.1826 38.3653 14.1415 38.3653 13.041C38.3653 11.9403 38.1643 10.8991 37.7619 9.91722C37.5235 9.33508 37.2299 8.7975 36.8814 8.30415L41.7315 3.46074L39.8043 1.53613L34.9394 6.3943C34.5027 6.09691 34.0285 5.83985 33.5173 5.62283C32.5193 5.19902 31.4173 4.98681 30.2111 4.98681C29.0045 4.98681 27.9025 5.20263 26.9045 5.63397C25.9065 6.0653 25.0427 6.64895 24.3129 7.3852C23.5832 8.12145 23.0171 8.9805 22.6151 9.96207C22.213 10.9436 22.0119 11.9848 22.0119 13.0856C22.0119 14.186 22.213 15.2269 22.6151 16.2088C22.8538 16.7912 23.1474 17.3288 23.4958 17.8224L18.646 22.6652L20.5733 24.5898L25.4378 19.732C25.8746 20.0294 26.3487 20.2864 26.8599 20.5034C27.8579 20.9273 28.9599 21.1392 30.1662 21.1392C31.3727 21.1392 32.4747 20.9233 33.4727 20.4923Z" fill="white"/>
</svg>
