<svg width="99" height="34" viewBox="0 0 99 34" fill="none" xmlns="http://www.w3.org/2000/svg">
<path d="M4.88329 9.88699V14.8517H13.2193V17.9078H4.88329V25.3537H1.54179V6.82837H14.2268V9.88442H4.88329V9.88699Z" fill="#fff" stroke="#fff" stroke-width="0.188931" stroke-miterlimit="10"/>
<path d="M16.6874 25.3538V11.7677H19.9757V25.3538H16.6874Z" fill="#fff" stroke="#fff" stroke-width="0.188931" stroke-miterlimit="10"/>
<path d="M35.3744 27.1576C35.3744 28.0468 35.177 28.7853 34.7796 29.3781C34.3821 29.9709 33.8733 30.436 33.2531 30.7758C32.6329 31.1157 31.9317 31.3558 31.1571 31.4938C30.3799 31.6344 29.6205 31.7034 28.8788 31.7034C28.051 31.7034 27.2257 31.642 26.4081 31.5194C25.5879 31.3967 24.8259 31.085 24.1171 30.579C23.6007 30.2136 23.1982 29.787 22.9147 29.2989C22.6312 28.8109 22.4869 28.2462 22.4869 27.5997C22.4869 27.0069 22.6262 26.4626 22.9021 25.9669C23.178 25.4712 23.5754 25.093 24.0918 24.8298C23.6615 24.5871 23.3273 24.2498 23.0945 23.8231C22.8616 23.3963 22.7451 22.9569 22.7451 22.502C22.7451 21.3343 23.2793 20.4221 24.35 19.7577C23.9348 19.3387 23.6083 18.8532 23.3678 18.2936C23.1248 17.7365 23.0058 17.1105 23.0058 16.413C23.0058 15.6106 23.1527 14.8977 23.4463 14.2691C23.7399 13.6405 24.1374 13.1193 24.6387 12.7002C25.1399 12.2811 25.7221 11.9643 26.3853 11.7471C27.0486 11.5299 27.7599 11.42 28.5193 11.42C29.0711 11.42 29.6079 11.4942 30.1242 11.6424C30.6406 11.7906 31.1241 11.995 31.5748 12.2556C31.8684 11.6628 32.2557 11.2335 32.7392 10.9627C33.2227 10.6918 33.7493 10.559 34.3188 10.559C34.4227 10.559 34.5694 10.559 34.7593 10.559C34.9492 10.559 35.096 10.5768 35.1998 10.61V13.1448L34.9416 13.1193C34.5619 13.1193 34.2201 13.1806 33.9189 13.3032C33.6177 13.4259 33.4125 13.6533 33.3114 13.9829C33.7771 14.7495 34.01 15.5672 34.01 16.4385C34.01 17.2229 33.8581 17.9205 33.5569 18.5287C33.2557 19.1393 32.8532 19.653 32.3545 20.0695C31.8532 20.4885 31.271 20.8104 30.6078 21.0354C29.942 21.2627 29.2484 21.3751 28.5244 21.3751C27.7649 21.3751 27.041 21.2525 26.3498 21.0097C26.1954 21.0966 26.0435 21.2244 25.8968 21.388C25.7499 21.554 25.6765 21.7508 25.6765 21.9756C25.6765 22.3768 25.836 22.6426 26.1549 22.7728C26.4739 22.9032 26.8055 22.9696 27.1523 22.9696H29.3775C29.7041 22.9696 30.0584 22.9747 30.4382 22.9824C30.8178 22.9926 31.2027 23.0259 31.59 23.0871C31.9773 23.1485 32.357 23.2405 32.7291 23.3606C33.1012 23.4832 33.4404 23.657 33.7518 23.8819C34.3391 24.283 34.7568 24.7634 35.0074 25.3179C35.2504 25.8851 35.3744 26.4958 35.3744 27.1576ZM32.3215 27.2368C32.3215 26.8178 32.2101 26.4958 31.9848 26.2709C31.7595 26.0435 31.4887 25.88 31.1697 25.7753C30.8508 25.6705 30.504 25.6092 30.1344 25.5938C29.7622 25.576 29.4231 25.5683 29.1116 25.5683H26.5752C26.2284 25.673 25.9398 25.8698 25.7069 26.156C25.474 26.4447 25.3576 26.805 25.3576 27.2394C25.3576 27.6738 25.474 28.0136 25.7069 28.259C25.9398 28.5017 26.2284 28.6908 26.5752 28.8211C26.9194 28.9514 27.2916 29.0332 27.689 29.0689C28.0864 29.1047 28.4409 29.12 28.7496 29.12C29.0762 29.12 29.4483 29.1073 29.8635 29.0817C30.2786 29.0562 30.6659 28.982 31.0279 28.8594C31.39 28.7367 31.6963 28.5502 31.9469 28.2973C32.195 28.0418 32.3215 27.6891 32.3215 27.2368ZM30.8964 16.418C30.8964 15.6872 30.6837 15.0817 30.2609 14.6013C29.8382 14.1209 29.256 13.8832 28.5142 13.8832C27.7726 13.8832 27.1903 14.1235 26.7675 14.6013C26.3448 15.0791 26.1322 15.6847 26.1322 16.418C26.1322 17.1488 26.3423 17.7519 26.7675 18.222C27.1903 18.6922 27.7726 18.9273 28.5142 18.9273C29.256 18.9273 29.8382 18.6922 30.2609 18.222C30.6862 17.7519 30.8964 17.1514 30.8964 16.418Z" fill="#fff" stroke="#fff" stroke-width="0.188931" stroke-miterlimit="10"/>
<path d="M53.1326 25.3537V16.9138C53.1326 16.0782 52.9908 15.4292 52.7047 14.9667C52.4212 14.5068 51.8719 14.2742 51.0618 14.2742C50.596 14.2742 50.1986 14.3841 49.8721 14.6013C49.5455 14.8185 49.2721 15.1073 49.0569 15.4625C48.8418 15.8202 48.6822 16.2162 48.5785 16.6506C48.4747 17.0876 48.4241 17.5117 48.4241 17.9307V25.3511H45.2142V16.9138C45.2142 16.0782 45.0724 15.4292 44.7864 14.9667C44.5029 14.5068 43.9535 14.2742 43.1435 14.2742C42.6777 14.2742 42.2803 14.3841 41.9537 14.6013C41.6272 14.8185 41.3487 15.1073 41.1259 15.4625C40.9006 15.8202 40.7386 16.2162 40.6348 16.6506C40.5311 17.0876 40.4804 17.5117 40.4804 17.9307V25.3511H37.2706V11.7676H39.9615L40.2196 13.5716C40.5994 12.9455 41.1082 12.4319 41.7461 12.0308C42.384 11.6296 43.1536 11.4303 44.0497 11.4303C44.999 11.4303 45.7939 11.6271 46.4318 12.018C47.0698 12.409 47.5634 12.9558 47.9076 13.6508C48.3051 12.9379 48.8519 12.3885 49.5506 12.0053C50.2492 11.622 51.0567 11.4303 51.9706 11.4303C53.4211 11.4303 54.5122 11.8698 55.2463 12.7514C55.9804 13.6329 56.3475 14.7751 56.3475 16.1881V25.3588H53.1326V25.3537Z" fill="#fff" stroke="#fff" stroke-width="0.188931" stroke-miterlimit="10"/>
<path d="M71.045 18.6667C71.0273 18.7894 71.0197 18.9018 71.0197 19.0066V19.5815H62.0129C62.0129 20.1053 62.0938 20.601 62.2584 21.0711C62.4229 21.5414 62.671 21.9323 62.995 22.2466C63.238 22.474 63.519 22.6681 63.838 22.8343C64.1569 23.0004 64.5392 23.0821 64.9898 23.0821C65.4556 23.0821 65.8404 23.0335 66.1416 22.939C66.4428 22.8445 66.7163 22.6733 66.9567 22.4305C67.2655 22.1162 67.4833 21.7329 67.6048 21.2807H70.7109C70.6754 21.6819 70.5412 22.1214 70.3084 22.6017C70.0755 23.0821 69.8299 23.4756 69.5717 23.7899C69.0021 24.4696 68.3212 24.9577 67.5263 25.2541C66.7315 25.5505 65.9036 25.6987 65.0429 25.6987C64.1089 25.6987 63.3039 25.5453 62.6229 25.2413C61.9394 24.9372 61.3319 24.5309 60.7977 24.0275C60.1244 23.3658 59.6105 22.5736 59.2561 21.6512C58.9017 20.7288 58.7245 19.7093 58.7245 18.5952C58.7245 17.499 58.8839 16.482 59.2029 15.5519C59.5219 14.6192 60.0105 13.8246 60.6636 13.1602C61.1648 12.6389 61.7723 12.2199 62.4887 11.9056C63.2052 11.5913 64.0279 11.4354 64.9619 11.4354C65.9644 11.4354 66.8934 11.6398 67.7592 12.0487C68.6199 12.4575 69.3287 13.0886 69.8831 13.9421C70.3818 14.6908 70.7008 15.4548 70.84 16.2291C70.9741 16.9982 71.045 17.8133 71.045 18.6667ZM67.8098 17.2026C67.7895 16.2112 67.5136 15.4164 66.9795 14.8262C66.7568 14.5835 66.4757 14.3918 66.139 14.2513C65.8024 14.1133 65.4024 14.0418 64.9341 14.0418C64.4354 14.0418 63.995 14.1389 63.6127 14.3305C63.2355 14.5221 62.9216 14.7751 62.6811 15.0894C62.4381 15.3858 62.2659 15.7001 62.1622 16.0297C62.0609 16.3594 61.9977 16.7529 61.9825 17.2052H67.8098V17.2026Z" fill="#fff" stroke="#fff" stroke-width="0.188931" stroke-miterlimit="10"/>
<path d="M81.7884 25.3538V17.0186C81.7884 16.2189 81.6312 15.5903 81.3228 15.138C81.0115 14.6857 80.4266 14.4583 79.5635 14.4583C78.9937 14.4583 78.5176 14.6193 78.1382 14.9412C77.7581 15.2632 77.4573 15.6772 77.2321 16.1831C77.0069 16.6891 76.8777 17.2767 76.8444 17.9462C76.8089 18.6182 76.7915 19.2391 76.7915 19.8141V25.3538H73.5562V11.7677H76.2746L76.5081 13.518C76.9056 12.8051 77.4702 12.2762 78.204 11.9363C78.9378 11.5965 79.6927 11.4253 80.4674 11.4253C81.1936 11.4253 81.8367 11.5479 82.396 11.7907C82.9552 12.036 83.4313 12.3707 83.8213 12.7975C84.2082 13.2241 84.5075 13.7377 84.7145 14.3382C84.9224 14.9387 85.0259 15.5878 85.0259 16.2853V25.3512H81.7884V25.3538Z" fill="#fff" stroke="#fff" stroke-width="0.188931" stroke-miterlimit="10"/>
<path d="M95.9469 25.1723C95.0151 25.415 94.0908 25.5377 93.1771 25.5377C91.8131 25.5377 90.7951 25.1671 90.1217 24.4261C89.4484 23.6852 89.1121 22.663 89.1121 21.3574V14.4583H86.6515V11.7676H89.1121V8.31809L92.3474 7.50806V11.7676H95.739V14.4583H92.3474V21.0686C92.3474 21.5924 92.466 21.9706 92.7094 22.2057C92.9519 22.4408 93.3321 22.5583 93.8482 22.5583C94.1921 22.5583 94.5163 22.5507 94.8178 22.5328C95.1186 22.5148 95.4934 22.4817 95.9439 22.428V25.1723H95.9469Z" fill="#fff" stroke="#fff" stroke-width="0.188931" stroke-miterlimit="10"/>
<path fill-rule="evenodd" clip-rule="evenodd" d="M20.2441 8.75505C20.2441 7.73808 19.429 6.84375 18.3253 6.84375C17.1988 6.84375 16.4064 7.73808 16.4064 8.75505C16.4064 9.82054 17.1988 10.6178 18.3253 10.6178C19.429 10.6178 20.2441 9.82054 20.2441 8.75505Z" fill="#fff"/>
</svg>
