<svg width="73" height="20" viewBox="0 0 73 20" fill="none" xmlns="http://www.w3.org/2000/svg">
<g clip-path="url(#clip0)">
<path fill-rule="evenodd" clip-rule="evenodd" d="M4.98192 19.9999C3.70593 20.0002 2.43048 19.5144 1.45911 18.5433C0.518265 17.6024 0 16.3514 0 15.021C0 13.6906 0.518265 12.4396 1.45911 11.4988L1.49485 11.463L8.08627 4.87158L9.16046 5.9455L2.5344 12.5716C1.87922 13.2267 1.51905 14.0961 1.51905 15.021C1.51905 15.9459 1.87922 16.8153 2.53331 17.4691C3.88326 18.8191 6.07975 18.8191 7.42972 17.4691C7.44785 17.451 8.06621 16.8326 8.06621 16.8326L9.14011 17.9071C9.14011 17.9071 8.51435 18.5328 8.50256 18.5444C7.53229 19.5147 6.25708 19.9999 4.98192 19.9999Z" fill="white"/>
<path fill-rule="evenodd" clip-rule="evenodd" d="M14.0566 9.82721L7.43054 3.20112C6.77564 2.54621 5.90599 2.18576 4.9811 2.18576C4.05648 2.18576 3.18684 2.54621 2.53303 3.20002C1.87895 3.85383 1.51877 4.72347 1.51877 5.64838C1.51877 6.57327 1.87895 7.44263 2.53303 8.09643C2.54347 8.10715 3.16924 8.73292 3.16924 8.73292L2.09532 9.80711L1.45994 9.17144C0.517989 8.22953 0 6.97878 0 5.64838C0 4.31765 0.517989 3.06695 1.45884 2.12583C2.39968 1.18498 3.65066 0.666992 4.9811 0.666992C6.31179 0.666992 7.56278 1.18498 8.50362 2.1261L8.53828 2.16047L15.1308 8.75326L14.0566 9.82721Z" fill="white"/>
<path fill-rule="evenodd" clip-rule="evenodd" d="M11.247 15.7975L10.1729 14.7236L16.8001 8.09618C17.4539 7.44234 17.8143 6.57298 17.8143 5.64809C17.8143 4.72347 17.4539 3.85383 16.8001 3.20002C15.4501 1.85006 13.2536 1.85006 11.9036 3.20002L11.2671 3.83623L10.193 2.76231L10.8294 2.12583C11.7703 1.18526 13.0212 0.666992 14.352 0.666992C15.6824 0.666992 16.9334 1.18526 17.8743 2.12583C18.8148 3.06667 19.3331 4.31765 19.3331 5.64809C19.3331 6.97878 18.8148 8.22978 17.8743 9.17037L11.247 15.7975Z" fill="white"/>
<path fill-rule="evenodd" clip-rule="evenodd" d="M14.3541 20C13.0233 20 11.7724 19.4818 10.8315 18.5412L4.20435 11.914L5.27852 10.8398L11.9057 17.467C12.5598 18.1211 13.4292 18.4813 14.3541 18.4813C15.2787 18.4813 16.148 18.1211 16.8021 17.467C18.1518 16.117 18.1518 13.9206 16.8021 12.5706C16.7925 12.561 16.1657 11.9341 16.1657 11.9341L17.2399 10.8602C17.2399 10.8602 17.8532 11.4736 17.8747 11.4947C19.8185 13.4386 19.8185 16.599 17.8763 18.5409C16.9355 19.4818 15.6845 20 14.3541 20Z" fill="white"/>
<path d="M27.0662 8.1509H27.9007V2.64551H27.0662V8.1509Z" fill="white"/>
<path d="M29.3691 8.1509H30.2037V4.23897H30.2187L32.7071 8.1509H33.4963V2.64551H32.6618V6.55742H32.6467L30.1545 2.64551H29.3691V8.1509Z" fill="white"/>
<path d="M35.9051 8.1509H36.7433V3.38937H38.25V2.64551H34.3984V3.38937H35.9051V8.1509Z" fill="white"/>
<path d="M39.1482 8.1509H42.6637V7.36172H39.9827V5.74558H42.271V5.00549H39.9827V3.43469H42.6637V2.64551H39.1482V8.1509Z" fill="white"/>
<path d="M44.5967 3.38937H45.9032C46.17 3.38937 46.3739 3.44602 46.5149 3.5593C46.6936 3.68768 46.7855 3.89536 46.7905 4.18233C46.7905 4.42148 46.7137 4.62286 46.5602 4.78649C46.4041 4.9627 46.17 5.05332 45.8579 5.05836H44.5967V3.38937ZM43.7622 8.1509H44.5967V5.79846H45.6615L46.7981 8.1509H47.7912L46.5149 5.70783C47.2147 5.43848 47.5696 4.92997 47.5797 4.18233C47.5646 3.67383 47.3821 3.28239 47.0322 3.008C46.7427 2.76634 46.3689 2.64551 45.9107 2.64551H43.7622V8.1509Z" fill="white"/>
<path d="M51.6199 6.6102C51.3879 7.11112 51.038 7.36162 50.5702 7.36162C50.3734 7.36162 50.2048 7.32006 50.0641 7.23702C49.9206 7.16651 49.8046 7.07463 49.7166 6.96133C49.6083 6.84302 49.5368 6.68821 49.5015 6.49691C49.4609 6.30561 49.4411 5.93934 49.4411 5.3981C49.4411 4.85687 49.4609 4.48809 49.5015 4.29174C49.5368 4.10545 49.6083 3.95316 49.7166 3.83484C49.8046 3.72156 49.9206 3.62716 50.0641 3.55164C50.2048 3.47864 50.3734 3.43962 50.5702 3.43459C50.837 3.43962 51.0636 3.5164 51.2497 3.66492C51.4285 3.821 51.5518 4.0098 51.6199 4.23132H52.5035C52.415 3.77065 52.2038 3.38424 51.8689 3.07209C51.5339 2.76247 51.1013 2.60513 50.5702 2.6001C50.1371 2.60513 49.7756 2.70834 49.4865 2.90973C49.1917 3.10859 48.9776 3.33515 48.8442 3.58941C48.7616 3.72282 48.6997 3.89778 48.6596 4.11426C48.6214 4.33075 48.6025 4.7587 48.6025 5.3981C48.6025 6.0274 48.6214 6.45288 48.6596 6.67438C48.6794 6.7927 48.7045 6.89087 48.735 6.96892C48.7678 7.04442 48.8041 7.12373 48.8442 7.20677C48.9776 7.46104 49.1917 7.68507 49.4865 7.87893C49.7756 8.08028 50.1371 8.18603 50.5702 8.19608C51.0482 8.19608 51.4624 8.06017 51.8123 7.7883C52.1521 7.51392 52.3826 7.12122 52.5035 6.6102H51.6199Z" fill="white"/>
<path d="M56.4191 8.1509H57.2533V2.64551H56.4191V5.00549H54.2402V2.64551H53.4055V8.1509H54.2402V5.74558H56.4191V8.1509Z" fill="white"/>
<path d="M59.7036 6.1798L60.5001 3.77453H60.5156L61.3121 6.1798H59.7036ZM61.9767 8.1509H62.8563L60.8554 2.64551H60.1565L58.1555 8.1509H59.039L59.4619 6.91992H61.5499L61.9767 8.1509Z" fill="white"/>
<path d="M63.7588 8.1509H64.593V2.64551H63.7588V8.1509Z" fill="white"/>
<path d="M66.0618 8.1509H66.896V4.23897H66.9115L69.3996 8.1509H70.1889V2.64551H69.3542V6.55742H69.3392L66.8472 2.64551H66.0618V8.1509Z" fill="white"/>
<path d="M27.0662 17.8174H27.9007V15.4649H30.1889V14.7248H27.9007V13.1012H30.5816V12.312H27.0662V17.8174Z" fill="white"/>
<path d="M31.3401 15.0646C31.3401 15.6939 31.359 16.1194 31.3967 16.3409C31.4169 16.4592 31.4421 16.5574 31.4723 16.6354C31.505 16.7109 31.5415 16.7902 31.5818 16.8733C31.7152 17.1275 31.9292 17.3516 32.2237 17.5454C32.5132 17.7468 32.8744 17.8525 33.3074 17.8626C33.7454 17.8525 34.1104 17.7468 34.4024 17.5454C34.6919 17.3516 34.9008 17.1275 35.0292 16.8733C35.1223 16.7399 35.1866 16.5624 35.2218 16.3409C35.2545 16.1194 35.2709 15.6939 35.2709 15.0646C35.2709 14.4252 35.2545 13.9972 35.2218 13.7808C35.1866 13.5643 35.1223 13.3893 35.0292 13.2559C34.9008 13.0016 34.6919 12.7751 34.4024 12.5762C34.1104 12.3749 33.7454 12.2716 33.3074 12.2666C32.8744 12.2716 32.5132 12.3749 32.2237 12.5762C31.9292 12.7751 31.7152 13.0016 31.5818 13.2559C31.4987 13.3893 31.437 13.5643 31.3967 13.7808C31.359 13.9972 31.3401 14.4252 31.3401 15.0646ZM32.1784 15.0646C32.1784 14.5234 32.1985 14.1546 32.2388 13.9582C32.274 13.772 32.3458 13.6197 32.454 13.5014C32.5421 13.3881 32.6579 13.2937 32.8014 13.2182C32.9424 13.1451 33.111 13.1061 33.3074 13.1011C33.5063 13.1061 33.6787 13.1451 33.8247 13.2182C33.9631 13.2937 34.0739 13.3881 34.157 13.5014C34.2652 13.6197 34.3395 13.772 34.3798 13.9582C34.4175 14.1546 34.4364 14.5234 34.4364 15.0646C34.4364 15.6058 34.4175 15.9721 34.3798 16.1634C34.3395 16.3547 34.2652 16.5095 34.157 16.6278C34.0739 16.7411 33.9631 16.833 33.8247 16.9035C33.6787 16.9866 33.5063 17.0281 33.3074 17.0281C33.111 17.0281 32.9424 16.9866 32.8014 16.9035C32.6579 16.833 32.5421 16.7411 32.454 16.6278C32.3458 16.5095 32.274 16.3547 32.2388 16.1634C32.1985 15.9721 32.1784 15.6058 32.1784 15.0646Z" fill="white"/>
<path d="M36.4563 15.952C36.4614 16.531 36.6527 16.9904 37.0302 17.3303C37.4003 17.6802 37.861 17.8576 38.4123 17.8627C38.9737 17.8576 39.4381 17.6802 39.8056 17.3303C40.1706 16.9904 40.3582 16.531 40.3682 15.952V12.312H39.5337V15.8614C39.5287 16.2365 39.423 16.5222 39.2166 16.7185C39.0051 16.925 38.737 17.0282 38.4123 17.0282C38.0875 17.0282 37.822 16.925 37.6156 16.7185C37.4041 16.5222 37.2958 16.2365 37.2908 15.8614V12.312H36.4563V15.952Z" fill="white"/>
<path d="M41.7385 17.8174H42.573V13.9054H42.5881L45.0765 17.8174H45.8657V12.312H45.0312V16.2239H45.0161L42.5239 12.312H41.7385V17.8174Z" fill="white"/>
<path d="M47.342 17.8174H49.2113C49.624 17.8174 49.9725 17.7268 50.2572 17.5455C50.5443 17.3768 50.768 17.1629 50.929 16.9036C50.9894 16.8054 51.0411 16.711 51.0841 16.6204C51.1243 16.5272 51.1547 16.4215 51.1745 16.3032C51.2175 16.0691 51.2388 15.6562 51.2388 15.0647C51.2388 14.5083 51.2248 14.1169 51.1972 13.8904C51.162 13.6638 51.0779 13.4473 50.9445 13.2409C50.5718 12.6267 50.0131 12.317 49.2678 12.312H47.342V17.8174ZM48.1766 13.1012H49.1736C49.5965 13.0911 49.9237 13.2459 50.1552 13.5656C50.2683 13.694 50.3403 13.8614 50.3703 14.0678C50.393 14.2742 50.4046 14.6166 50.4046 15.0949C50.4046 15.5858 50.393 15.9206 50.3703 16.0993C50.3451 16.2805 50.2862 16.4303 50.1929 16.5486C49.9817 16.8683 49.6414 17.0282 49.1736 17.0282H48.1766V13.1012Z" fill="white"/>
<path d="M53.3528 15.8463L54.1498 13.441H54.1648L54.9618 15.8463H53.3528ZM55.6263 17.8174H56.506L54.5045 12.312H53.8061L51.8047 17.8174H52.6887L53.1111 16.5864H55.1996L55.6263 17.8174Z" fill="white"/>
<path d="M57.767 17.8174H58.6051V13.0558H60.1116V12.312H56.26V13.0558H57.767V17.8174Z" fill="white"/>
<path d="M61.01 17.8174H61.8447V12.312H61.01V17.8174Z" fill="white"/>
<path d="M63.124 15.0646C63.124 15.6939 63.1429 16.1194 63.1811 16.3409C63.2009 16.4592 63.226 16.5574 63.2565 16.6354C63.2893 16.7109 63.3256 16.7902 63.3657 16.8733C63.4991 17.1275 63.7132 17.3516 64.0075 17.5454C64.2971 17.7468 64.6586 17.8525 65.0916 17.8626C65.5295 17.8525 65.8944 17.7468 66.1864 17.5454C66.4759 17.3516 66.6852 17.1275 66.8132 16.8733C66.9065 16.7399 66.9708 16.5624 67.0061 16.3409C67.0385 16.1194 67.0549 15.6939 67.0549 15.0646C67.0549 14.4252 67.0385 13.9972 67.0061 13.7808C66.9708 13.5643 66.9065 13.3893 66.8132 13.2559C66.6852 13.0016 66.4759 12.7751 66.1864 12.5762C65.8944 12.3749 65.5295 12.2716 65.0916 12.2666C64.6586 12.2716 64.2971 12.3749 64.0075 12.5762C63.7132 12.7751 63.4991 13.0016 63.3657 13.2559C63.2826 13.3893 63.2212 13.5643 63.1811 13.7808C63.1429 13.9972 63.124 14.4252 63.124 15.0646ZM63.9626 15.0646C63.9626 14.5234 63.9824 14.1546 64.023 13.9582C64.0583 13.772 64.1298 13.6197 64.2381 13.5014C64.326 13.3881 64.4421 13.2937 64.5856 13.2182C64.7262 13.1451 64.8949 13.1061 65.0916 13.1011C65.2903 13.1061 65.4628 13.1451 65.6088 13.2182C65.747 13.2937 65.8582 13.3881 65.9408 13.5014C66.0491 13.6197 66.1235 13.772 66.1637 13.9582C66.2018 14.1546 66.2207 14.5234 66.2207 15.0646C66.2207 15.6058 66.2018 15.9721 66.1637 16.1634C66.1235 16.3547 66.0491 16.5095 65.9408 16.6278C65.8582 16.7411 65.747 16.833 65.6088 16.9035C65.4628 16.9866 65.2903 17.0281 65.0916 17.0281C64.8949 17.0281 64.7262 16.9866 64.5856 16.9035C64.4421 16.833 64.326 16.7411 64.2381 16.6278C64.1298 16.5095 64.0583 16.3547 64.023 16.1634C63.9824 15.9721 63.9626 15.6058 63.9626 15.0646Z" fill="white"/>
<path d="M68.3425 17.8174H69.1767V13.9054H69.1917L71.6804 17.8174H72.4696V12.312H71.6349V16.2239H71.62L69.1279 12.312H68.3425V17.8174Z" fill="white"/>
</g>
<defs>
<clipPath id="clip0">
<rect width="72.9821" height="19.333" fill="white" transform="translate(0 0.666992)"/>
</clipPath>
</defs>
</svg>
