<svg width="95" height="32" viewBox="0 0 95 32" fill="none" xmlns="http://www.w3.org/2000/svg">
<g clip-path="url(#clip0)">
<path d="M0 4.80952C0.00855131 4.53389 0.0768497 4.2634 0.200175 4.01675C0.3235 3.7701 0.498912 3.55317 0.714286 3.38095C0.907541 3.20865 1.13389 3.07756 1.37952 2.99569C1.62514 2.91381 1.88487 2.88287 2.14286 2.90476C2.40084 2.88287 2.66058 2.91381 2.9062 2.99569C3.15182 3.07756 3.37817 3.20865 3.57143 3.38095C3.74373 3.5742 3.87482 3.80055 3.95669 4.04618C4.03856 4.2918 4.0695 4.55154 4.04762 4.80952C4.0695 5.0675 4.03856 5.32724 3.95669 5.57286C3.87482 5.81848 3.74373 6.04483 3.57143 6.23809C3.39921 6.45346 3.18228 6.62887 2.93563 6.7522C2.68898 6.87552 2.41849 6.94382 2.14286 6.95237C1.57454 6.95237 1.02949 6.72661 0.627628 6.32475C0.225765 5.92288 0 5.37784 0 4.80952H0ZM3.57143 10.5238V24.0952H0.47619V10.5238H3.57143ZM17.619 31.4762V22.6667C16.3492 23.9365 14.9206 24.5714 13.3333 24.5714C12.4689 24.5642 11.6165 24.3687 10.8352 23.9986C10.054 23.6286 9.36274 23.0928 8.80952 22.4286C7.53968 21.1587 6.90476 19.4921 6.90476 17.4286C6.90476 15.3651 7.53968 13.619 8.80952 12.1905C9.36274 11.5262 10.054 10.9904 10.8352 10.6204C11.6165 10.2503 12.4689 10.0549 13.3333 10.0476C14.9206 10.0476 16.3492 10.6825 17.619 11.9524V10.5238H20.7143V31.4762H17.619ZM10.2381 17.1905C10.2381 18.4603 10.5556 19.5714 11.1905 20.5238C11.5104 20.9052 11.9117 21.2101 12.365 21.4161C12.8182 21.6221 13.3118 21.724 13.8095 21.7143C14.3446 21.7429 14.8792 21.6507 15.3738 21.4446C15.8684 21.2386 16.3102 20.9238 16.6667 20.5238C17.4603 19.7302 17.8571 18.6984 17.8571 17.4286C17.8571 16.1587 17.4603 15.0476 16.6667 14.0952C16.3365 13.726 15.9332 13.4296 15.4823 13.2246C15.0314 13.0197 14.5429 12.9107 14.0476 12.9048C13.5126 12.8762 12.978 12.9683 12.4834 13.1744C11.9888 13.3805 11.5469 13.6952 11.1905 14.0952C10.5019 14.9741 10.1627 16.0765 10.2381 17.1905ZM27.8571 0.523804V24.0952H24.7619V0.523804H27.8571ZM35 10.5238V18.3809C35 20.6032 35.873 21.7143 37.619 21.7143C39.3651 21.7143 40.2381 20.6032 40.2381 18.3809V10.5238H43.3333V18.3809C43.4105 19.3399 43.3301 20.3051 43.0952 21.2381C42.788 21.9837 42.2965 22.6391 41.6667 23.1429C40.5556 24.0952 39.2063 24.5714 37.619 24.5714C36.0317 24.5714 34.6825 24.0952 33.5714 23.1429C32.9416 22.6391 32.4501 21.9837 32.1429 21.2381L31.9048 18.3809V10.5238H35ZM55.2381 12.9048L52.619 14.0952C52.3016 13.3016 51.8254 12.9048 51.1905 12.9048C51.0615 12.8938 50.9316 12.9093 50.8088 12.9502C50.686 12.9912 50.5728 13.0567 50.4762 13.1429C50.39 13.2395 50.3245 13.3527 50.2836 13.4755C50.2426 13.5983 50.2272 13.7281 50.2381 13.8571C50.2381 14.4921 50.7937 15.0476 51.9048 15.5238C53.6508 16.1587 54.7619 16.7936 55.2381 17.4286C55.7143 18.0635 56.0317 18.9365 56.1905 20.0476C56.1768 20.6338 56.0429 21.211 55.7972 21.7434C55.5515 22.2758 55.1991 22.7521 54.7619 23.1429C53.8687 24.0194 52.6793 24.5292 51.4286 24.5714C49.0476 24.5714 47.381 23.4603 46.4286 21.2381L49.0476 19.8095C49.2913 20.331 49.6124 20.8126 50 21.2381C50.1933 21.4104 50.4196 21.5415 50.6652 21.6233C50.9109 21.7052 51.1706 21.7362 51.4286 21.7143C52.381 21.7143 52.8571 21.2381 52.8571 20.2857C52.8571 19.5714 52.619 19.0952 51.6667 18.619L50.7143 18.1429L49.7619 17.6667L47.8571 16.4762C47.321 15.8043 47.065 14.9513 47.1429 14.0952C47.1303 13.5622 47.2298 13.0325 47.4348 12.5403C47.6399 12.0481 47.946 11.6045 48.3333 11.2381C48.7443 10.844 49.2297 10.5357 49.7611 10.3313C50.2926 10.1269 50.8594 10.0305 51.4286 10.0476C53.1746 10.0476 54.4444 11 55.2381 12.9048ZM58.5714 4.80952C58.5495 4.55154 58.5805 4.2918 58.6624 4.04618C58.7442 3.80055 58.8753 3.5742 59.0476 3.38095C59.4405 3.02955 59.9491 2.83528 60.4762 2.83528C61.0033 2.83528 61.5119 3.02955 61.9048 3.38095C62.1201 3.55317 62.2955 3.7701 62.4189 4.01675C62.5422 4.2634 62.6105 4.53389 62.619 4.80952C62.6105 5.08515 62.5422 5.35564 62.4189 5.60229C62.2955 5.84894 62.1201 6.06587 61.9048 6.23809C61.7325 6.45346 61.5156 6.62887 61.269 6.7522C61.0223 6.87552 60.7518 6.94382 60.4762 6.95237C59.9501 6.89356 59.4644 6.64209 59.1127 6.24642C58.7609 5.85075 58.5682 5.3389 58.5714 4.80952ZM62.1429 10.5238V24.0952H59.0476V10.5238H62.1429ZM65.4762 17.1905C65.4618 16.2532 65.6452 15.3235 66.0144 14.462C66.3837 13.6004 66.9304 12.8264 67.619 12.1905C68.9943 10.8665 70.8291 10.1268 72.7381 10.1268C74.6471 10.1268 76.4819 10.8665 77.8571 12.1905C78.5641 12.8627 79.1205 13.677 79.4899 14.5799C79.8593 15.4827 80.0331 16.4536 80 17.4286C80 18.3637 79.8101 19.289 79.4417 20.1485C79.0734 21.008 78.5343 21.7837 77.8571 22.4286C77.1761 23.1237 76.3601 23.6724 75.4594 24.0409C74.5586 24.4094 73.5921 24.5899 72.619 24.5714C71.684 24.5714 70.7586 24.3815 69.8991 24.0131C69.0396 23.6448 68.2639 23.1057 67.619 22.4286C66.1905 21 65.4762 19.254 65.4762 17.1905ZM68.5714 17.1905C68.5714 18.619 68.9683 19.7302 69.7619 20.5238C70.1283 20.9111 70.572 21.2172 71.0641 21.4223C71.5563 21.6274 72.086 21.7268 72.619 21.7143C73.8889 21.7143 74.9206 21.3175 75.7143 20.5238C76.5079 19.7302 76.8254 18.619 76.6667 17.1905C76.6667 15.9206 76.3492 14.8889 75.7143 14.0952C75.3215 13.6763 74.839 13.3517 74.303 13.1455C73.767 12.9394 73.1913 12.8571 72.619 12.9048C72.086 12.8922 71.5563 12.9917 71.0641 13.1967C70.572 13.4018 70.1283 13.7079 69.7619 14.0952C68.9683 14.8889 68.5714 15.9206 68.5714 17.1905ZM83.3333 10.5238H86.4286V11.7143C87.5397 10.6032 88.8095 10.0476 90.2381 10.0476C91.8254 10.0476 93.0159 10.6032 93.8095 11.7143C94.6032 12.5079 95 13.8571 95 15.7619V24.0952H91.9048V16.4762C91.9048 15.2063 91.6667 14.254 91.1905 13.619C90.9524 13.1429 90.2381 12.9048 89.2857 12.9048C88.3333 12.9048 87.619 13.2222 87.1429 13.8571C86.6667 14.4921 86.4286 15.6825 86.4286 17.4286V24.0952H83.3333V10.5238Z" fill="#fff"/>
</g>
<defs>
<clipPath id="clip0">
<rect width="95" height="30.9524" fill="white" transform="translate(0 0.523804)"/>
</clipPath>
</defs>
</svg>
