<svg width="143" height="22" viewBox="0 0 143 22" fill="none" xmlns="http://www.w3.org/2000/svg">
<path d="M6.34769 21.9752C4.05296 21.9752 1.98257 20.5949 1.10265 18.4728C0.22273 16.3506 0.705829 13.9093 2.33624 12.2875L9.89322 4.73047L11.1182 5.95543L3.56989 13.5124C2.54335 14.5045 2.12923 15.971 2.49154 17.3513C2.85385 18.7316 3.93219 19.8099 5.31246 20.1722C6.69273 20.5345 8.15923 20.1204 9.15134 19.1025C9.16861 19.0853 9.87595 18.3778 9.87595 18.3778L11.101 19.6028L10.3763 20.3361C9.29796 21.3799 7.85731 21.9752 6.34769 21.9752Z" fill="#fff"/>
<path d="M16.6998 10.4392L9.14277 2.88218C8.14208 1.89007 6.69285 1.50187 5.32985 1.86419C3.96674 2.22653 2.90566 3.29619 2.53478 4.65061C2.17244 6.0136 2.56063 7.46294 3.55274 8.46364L4.27735 9.18825L3.05239 10.4132L2.32767 9.6886C0.895681 8.25652 0.334951 6.16033 0.861177 4.20207C1.3874 2.2438 2.91435 0.708215 4.87262 0.190612C6.83089 -0.32698 8.92708 0.225128 10.3592 1.65716L17.9247 9.2141L16.6998 10.4392Z" fill="#fff"/>
<path d="M13.4473 17.2707L12.2224 16.0544L19.7793 8.49737C21.2804 6.95322 21.2544 4.48603 19.7361 2.95903C18.2092 1.43214 15.7506 1.41488 14.1978 2.91592L13.4732 3.64053L12.2482 2.41557L12.9728 1.69093C14.4049 0.258905 16.5012 -0.301836 18.4595 0.224401C20.4176 0.750628 21.9532 2.27753 22.4708 4.2358C22.997 6.19407 22.4363 8.29037 21.0043 9.72233L13.4473 17.2707Z" fill="#fff"/>
<path d="M16.9854 21.9998C15.4758 22.0085 14.0352 21.4047 12.9741 20.3349L5.41711 12.7779L6.64208 11.553L14.1991 19.11C15.7432 20.6541 18.2364 20.6541 19.7805 19.11C21.3247 17.5658 21.3247 15.0727 19.7805 13.5285L19.0559 12.8039L20.2809 11.5788L21.0055 12.3036C22.6273 13.9254 23.1191 16.3667 22.2391 18.4889C21.3505 20.611 19.2802 21.9998 16.9854 21.9998Z" fill="#fff"/>
<mask id="path-5-outside-1" maskUnits="userSpaceOnUse" x="30.6226" y="3.39966" width="113" height="15" fill="black">
<rect fill="white" x="30.6226" y="3.39966" width="113" height="15"/>
<path d="M32.9601 17.0353V4.50525H31.6226V17.0353H32.9601Z"/>
<path d="M47.254 17.0353V4.50525H45.9165V14.5188L39.2643 4.50525H37.9972V17.0353H39.3347V6.98663L45.9869 17.0353H47.254Z"/>
<path d="M59.5979 5.70194V4.50525H51.0099V5.70194H54.6352V17.0353H55.9727V5.70194H59.5979Z"/>
<path d="M71.1223 17.0353V15.8386H64.6813V11.3158H70.172V10.1192H64.6813V5.70194H71.1223V4.50525H63.3438V17.0353H71.1223Z"/>
<path d="M84.0679 17.0353L81.0937 11.351C82.7128 11.0167 83.8215 9.81998 83.8215 7.98974C83.8215 5.82513 82.2904 4.50525 80.1082 4.50525H75.3039V17.0353H76.6413V11.4742H79.6507L82.5016 17.0353H84.0679ZM82.484 8.00734C82.484 9.5384 81.4457 10.2951 79.985 10.2951H76.6413V5.70194H79.985C81.4457 5.70194 82.484 6.47627 82.484 8.00734Z"/>
<path d="M96.5144 13.4101H95.1769C94.8425 14.9411 93.7338 15.9442 92.1676 15.9442C91.3404 15.9442 90.5485 15.6275 90.003 15.0643C89.211 14.2548 89.123 13.3925 89.123 10.7703C89.123 8.14813 89.211 7.2858 90.003 6.47627C90.5485 5.91312 91.3404 5.59635 92.1676 5.59635C93.7338 5.59635 94.8073 6.59946 95.1417 8.13053H96.5144C96.092 5.77234 94.4202 4.39966 92.1676 4.39966C90.9357 4.39966 89.8094 4.85722 88.9647 5.70194C87.7856 6.88104 87.7856 8.11293 87.7856 10.7703C87.7856 13.4277 87.7856 14.6595 88.9647 15.8386C89.8094 16.6834 90.9357 17.1409 92.1676 17.1409C94.4026 17.1409 96.1096 15.7682 96.5144 13.4101Z"/>
<path d="M109.497 17.0353V4.50525H108.16V10.1192H102.211V4.50525H100.874V17.0353H102.211V11.3158H108.16V17.0353H109.497Z"/>
<path d="M123.264 17.0353L118.671 4.50525H117.545L112.934 17.0353H114.359L115.362 14.202H120.836L121.839 17.0353H123.264ZM120.448 13.0405H115.767L118.125 6.42348L120.448 13.0405Z"/>
<path d="M128.039 17.0353V4.50525H126.702V17.0353H128.039Z"/>
<path d="M142.333 17.0353V4.50525H140.996V14.5188L134.343 4.50525H133.076V17.0353H134.414V6.98663L141.066 17.0353H142.333Z"/>
</mask>
<path d="M32.9601 17.0353V4.50525H31.6226V17.0353H32.9601Z" fill="#fff"/>
<path d="M47.254 17.0353V4.50525H45.9165V14.5188L39.2643 4.50525H37.9972V17.0353H39.3347V6.98663L45.9869 17.0353H47.254Z" fill="#fff"/>
<path d="M59.5979 5.70194V4.50525H51.0099V5.70194H54.6352V17.0353H55.9727V5.70194H59.5979Z" fill="#fff"/>
<path d="M71.1223 17.0353V15.8386H64.6813V11.3158H70.172V10.1192H64.6813V5.70194H71.1223V4.50525H63.3438V17.0353H71.1223Z" fill="#fff"/>
<path d="M84.0679 17.0353L81.0937 11.351C82.7128 11.0167 83.8215 9.81998 83.8215 7.98974C83.8215 5.82513 82.2904 4.50525 80.1082 4.50525H75.3039V17.0353H76.6413V11.4742H79.6507L82.5016 17.0353H84.0679ZM82.484 8.00734C82.484 9.5384 81.4457 10.2951 79.985 10.2951H76.6413V5.70194H79.985C81.4457 5.70194 82.484 6.47627 82.484 8.00734Z" fill="#fff"/>
<path d="M96.5144 13.4101H95.1769C94.8425 14.9411 93.7338 15.9442 92.1676 15.9442C91.3404 15.9442 90.5485 15.6275 90.003 15.0643C89.211 14.2548 89.123 13.3925 89.123 10.7703C89.123 8.14813 89.211 7.2858 90.003 6.47627C90.5485 5.91312 91.3404 5.59635 92.1676 5.59635C93.7338 5.59635 94.8073 6.59946 95.1417 8.13053H96.5144C96.092 5.77234 94.4202 4.39966 92.1676 4.39966C90.9357 4.39966 89.8094 4.85722 88.9647 5.70194C87.7856 6.88104 87.7856 8.11293 87.7856 10.7703C87.7856 13.4277 87.7856 14.6595 88.9647 15.8386C89.8094 16.6834 90.9357 17.1409 92.1676 17.1409C94.4026 17.1409 96.1096 15.7682 96.5144 13.4101Z" fill="#fff"/>
<path d="M109.497 17.0353V4.50525H108.16V10.1192H102.211V4.50525H100.874V17.0353H102.211V11.3158H108.16V17.0353H109.497Z" fill="#fff"/>
<path d="M123.264 17.0353L118.671 4.50525H117.545L112.934 17.0353H114.359L115.362 14.202H120.836L121.839 17.0353H123.264ZM120.448 13.0405H115.767L118.125 6.42348L120.448 13.0405Z" fill="#fff"/>
<path d="M128.039 17.0353V4.50525H126.702V17.0353H128.039Z" fill="#fff"/>
<path d="M142.333 17.0353V4.50525H140.996V14.5188L134.343 4.50525H133.076V17.0353H134.414V6.98663L141.066 17.0353H142.333Z" fill="#fff"/>
<path d="M32.9601 17.0353V4.50525H31.6226V17.0353H32.9601Z" stroke="#fff" mask="url(#path-5-outside-1)"/>
<path d="M47.254 17.0353V4.50525H45.9165V14.5188L39.2643 4.50525H37.9972V17.0353H39.3347V6.98663L45.9869 17.0353H47.254Z" stroke="#fff" mask="url(#path-5-outside-1)"/>
<path d="M59.5979 5.70194V4.50525H51.0099V5.70194H54.6352V17.0353H55.9727V5.70194H59.5979Z" stroke="#fff" mask="url(#path-5-outside-1)"/>
<path d="M71.1223 17.0353V15.8386H64.6813V11.3158H70.172V10.1192H64.6813V5.70194H71.1223V4.50525H63.3438V17.0353H71.1223Z" stroke="#fff" mask="url(#path-5-outside-1)"/>
<path d="M84.0679 17.0353L81.0937 11.351C82.7128 11.0167 83.8215 9.81998 83.8215 7.98974C83.8215 5.82513 82.2904 4.50525 80.1082 4.50525H75.3039V17.0353H76.6413V11.4742H79.6507L82.5016 17.0353H84.0679ZM82.484 8.00734C82.484 9.5384 81.4457 10.2951 79.985 10.2951H76.6413V5.70194H79.985C81.4457 5.70194 82.484 6.47627 82.484 8.00734Z" stroke="#fff" mask="url(#path-5-outside-1)"/>
<path d="M96.5144 13.4101H95.1769C94.8425 14.9411 93.7338 15.9442 92.1676 15.9442C91.3404 15.9442 90.5485 15.6275 90.003 15.0643C89.211 14.2548 89.123 13.3925 89.123 10.7703C89.123 8.14813 89.211 7.2858 90.003 6.47627C90.5485 5.91312 91.3404 5.59635 92.1676 5.59635C93.7338 5.59635 94.8073 6.59946 95.1417 8.13053H96.5144C96.092 5.77234 94.4202 4.39966 92.1676 4.39966C90.9357 4.39966 89.8094 4.85722 88.9647 5.70194C87.7856 6.88104 87.7856 8.11293 87.7856 10.7703C87.7856 13.4277 87.7856 14.6595 88.9647 15.8386C89.8094 16.6834 90.9357 17.1409 92.1676 17.1409C94.4026 17.1409 96.1096 15.7682 96.5144 13.4101Z" stroke="#fff" mask="url(#path-5-outside-1)"/>
<path d="M109.497 17.0353V4.50525H108.16V10.1192H102.211V4.50525H100.874V17.0353H102.211V11.3158H108.16V17.0353H109.497Z" stroke="#fff" mask="url(#path-5-outside-1)"/>
<path d="M123.264 17.0353L118.671 4.50525H117.545L112.934 17.0353H114.359L115.362 14.202H120.836L121.839 17.0353H123.264ZM120.448 13.0405H115.767L118.125 6.42348L120.448 13.0405Z" stroke="#fff" mask="url(#path-5-outside-1)"/>
<path d="M128.039 17.0353V4.50525H126.702V17.0353H128.039Z" stroke="#fff" mask="url(#path-5-outside-1)"/>
<path d="M142.333 17.0353V4.50525H140.996V14.5188L134.343 4.50525H133.076V17.0353H134.414V6.98663L141.066 17.0353H142.333Z" stroke="#fff" mask="url(#path-5-outside-1)"/>
</svg>
