<svg width="169" height="64" viewBox="0 0 169 64" fill="none" xmlns="http://www.w3.org/2000/svg">
<g clip-path="url(#clip0_2035:3691)">
<path d="M60.223 16.5702C56.1026 12.4455 50.6292 10.1758 44.8065 10.1758C32.7815 10.1758 23 19.966 23 31.9998C23 44.0335 32.7815 53.8238 44.8065 53.8238C50.6292 53.8238 56.107 51.5541 60.223 47.4293C64.3434 43.3046 66.6087 37.8268 66.6087 31.9998C66.6087 26.1728 64.3434 20.6906 60.223 16.5702ZM44.8065 52.3135C33.6152 52.3135 24.5102 43.1998 24.5102 31.9998C24.5102 20.7997 33.6152 11.686 44.8065 11.686C55.9979 11.686 65.1028 20.7997 65.1028 31.9998C65.1028 43.1998 55.9979 52.3135 44.8065 52.3135Z" fill="white"/>
<path d="M51.9646 32.5148C50.5679 31.2665 48.739 30.4328 46.9669 29.6253L46.9538 29.621C43.8287 28.1937 41.1268 26.9584 41.3189 24.0384C41.4018 22.9254 42.2093 22.2532 42.8728 21.8909C43.6191 21.4806 44.61 21.2362 45.5266 21.2362C45.6357 21.2362 45.7448 21.2406 45.8496 21.2449C48.5164 21.4239 50.6203 22.5544 52.6761 24.9026L52.7983 25.0467L52.9424 24.9244L53.7455 24.2261L53.8895 24.0995L53.7629 23.9555C51.4714 21.3279 48.9835 20.0053 45.9412 19.8002C45.8103 19.7871 45.6706 19.7827 45.5178 19.7827C45.4262 19.7827 45.3258 19.7827 45.221 19.7871H45.0901C43.0954 19.7871 40.9086 20.4418 39.2456 21.5417C37.2596 22.8555 36.1466 24.6626 36.1161 26.6311C36.0375 31.4193 39.9527 33.0299 43.4053 34.4572L43.414 34.4615L43.4489 34.4746C46.5043 35.7404 49.1406 36.8316 49.0839 39.756C49.0577 41.6853 46.2991 42.7503 44.4048 42.7503H44.3262H44.1386V42.7546C41.3145 42.6717 38.7917 41.4539 36.6398 39.145L36.5089 39.0053L36.3692 39.1319L35.5879 39.8564L35.4482 39.9874L35.5792 40.127C38.0235 42.759 41.0395 44.1732 44.3044 44.2125H44.4528C46.561 44.2125 48.8525 43.6451 50.581 42.6892C52.7459 41.5063 54.0074 39.7822 54.1383 37.8355C54.2867 35.6968 53.5752 33.9552 51.9646 32.5148ZM41.8296 28.3508C43.0735 29.4158 44.7584 30.1797 46.3864 30.9173L46.417 30.9304C48.1411 31.7248 49.7735 32.4755 50.9564 33.5187C52.2658 34.671 52.8201 36.0067 52.7023 37.722C52.5932 39.4199 51.3317 40.5548 50.1838 41.2401C50.4064 40.7861 50.5286 40.2929 50.5417 39.7691C50.5679 38.0057 49.8914 36.5959 48.4684 35.4523C47.2245 34.4528 45.5746 33.7763 43.9771 33.1172C40.6554 31.751 37.5172 30.459 37.5739 26.6442C37.5914 25.1776 38.473 23.7896 40.0575 22.7377C40.1098 22.7028 40.1622 22.6678 40.219 22.6329C40.0313 23.0432 39.9265 23.471 39.9003 23.9205C39.7738 25.6883 40.4067 27.1374 41.8296 28.3508Z" fill="white"/>
<path d="M80.2705 29.612C79.4762 29.612 78.6949 29.4811 77.931 29.2323C77.1715 28.9835 76.5168 28.6125 75.9756 28.1455L76.8791 26.6221C77.4553 27.0368 78.0227 27.3423 78.577 27.5562C79.1226 27.7614 79.6769 27.8705 80.2182 27.8705C80.6983 27.8705 81.078 27.7832 81.3617 27.5999C81.6455 27.4165 81.7764 27.1634 81.7764 26.8142C81.7764 26.4781 81.6149 26.2249 81.2875 26.0722C80.9602 25.9194 80.4277 25.7361 79.6988 25.5266C79.079 25.352 78.5552 25.1905 78.1231 25.0377C77.6866 24.885 77.3418 24.7016 77.0668 24.5052C76.8049 24.3088 76.6085 24.0818 76.4906 23.8199C76.3728 23.5581 76.3073 23.2525 76.3073 22.8859C76.3073 22.4058 76.4033 21.9736 76.591 21.5808C76.7743 21.2011 77.0362 20.8606 77.3723 20.59C77.7084 20.3194 78.1012 20.1099 78.5595 19.9702C79.0179 19.8305 79.5067 19.752 80.0392 19.752C80.7463 19.752 81.4185 19.848 82.0383 20.0575C82.6581 20.2626 83.2342 20.59 83.7449 21.057L82.7672 22.528C82.2871 22.1701 81.8201 21.8951 81.3661 21.7336C80.9078 21.559 80.4626 21.4848 80.0174 21.4848C79.6027 21.4848 79.2666 21.5721 78.9829 21.7336C78.6992 21.9082 78.5683 22.1788 78.5683 22.5498C78.5683 22.7244 78.6032 22.8553 78.6643 22.9644C78.7298 23.0736 78.8389 23.1696 78.9786 23.2569C79.1182 23.3442 79.3147 23.4184 79.546 23.497C79.7861 23.5712 80.0785 23.6584 80.4277 23.737C81.078 23.9116 81.6367 24.0731 82.1038 24.2477C82.5708 24.4223 82.9505 24.6056 83.2473 24.8238C83.5398 25.0421 83.758 25.2909 83.8977 25.5746C84.0374 25.8583 84.1028 26.1944 84.1028 26.596C84.1028 27.5213 83.7537 28.2589 83.0684 28.7958C82.3875 29.3501 81.4534 29.612 80.2705 29.612Z" fill="white"/>
<path d="M95.8182 25.3262H88.2409C88.3719 26.0332 88.721 26.6007 89.2841 27.0241C89.8515 27.4387 90.5455 27.6439 91.3705 27.6439C92.4355 27.6439 93.3041 27.2947 93.9894 26.5876L95.1984 27.9799C94.7619 28.5037 94.2207 28.8922 93.5572 29.1541C92.8938 29.416 92.143 29.5556 91.3181 29.5556C90.2531 29.5556 89.319 29.3505 88.5115 28.9227C87.7084 28.4994 87.0755 27.9101 86.639 27.1594C86.1938 26.4086 85.9756 25.5488 85.9756 24.6016C85.9756 23.6544 86.1938 22.8164 86.6172 22.0569C87.0406 21.3062 87.6386 20.7169 88.4024 20.2935C89.1619 19.8702 90.0217 19.6606 90.9689 19.6606C91.9161 19.6606 92.7541 19.8658 93.4918 20.2804C94.2294 20.6951 94.8056 21.28 95.2333 22.0307C95.648 22.7815 95.8531 23.6632 95.8531 24.6409C95.8488 24.8155 95.84 25.0293 95.8182 25.3262ZM89.1313 22.1137C88.6294 22.537 88.3282 23.1132 88.2191 23.8203H93.7013C93.6053 23.1219 93.3084 22.5589 92.8109 22.1224C92.3089 21.6859 91.7022 21.4677 90.9602 21.4677C90.24 21.4633 89.6289 21.6772 89.1313 22.1137Z" fill="white"/>
<path d="M100.471 28.9271C99.6766 28.5038 99.0568 27.9145 98.6116 27.1638C98.1664 26.413 97.9395 25.5532 97.9395 24.606C97.9395 23.6501 98.1664 22.799 98.6116 22.0482C99.0568 21.2975 99.6766 20.7082 100.471 20.2979C101.265 19.8745 102.169 19.665 103.177 19.665C104.133 19.665 104.962 19.8615 105.678 20.2412C106.394 20.634 106.94 21.1884 107.298 21.9042L105.556 22.9168C105.272 22.4716 104.936 22.1312 104.513 21.9173C104.098 21.6903 103.644 21.5812 103.142 21.5812C102.296 21.5812 101.597 21.8518 101.043 22.4105C100.488 22.9561 100.205 23.6937 100.205 24.6104C100.205 25.5226 100.475 26.2646 101.03 26.8102C101.575 27.3645 102.278 27.6395 103.138 27.6395C103.627 27.6395 104.085 27.5304 104.508 27.3034C104.923 27.0765 105.268 26.7491 105.552 26.3039L107.293 27.3165C106.922 28.0455 106.368 28.5998 105.652 28.9926C104.936 29.3854 104.107 29.5819 103.164 29.5819C102.156 29.56 101.265 29.3505 100.471 28.9271Z" fill="white"/>
<path d="M115.542 19.6562V21.8125C115.346 21.7819 115.171 21.7601 115.018 21.7601C114.137 21.7601 113.451 22.022 112.954 22.5327C112.452 23.0433 112.216 23.7853 112.216 24.7543V29.4465H109.955V19.7654H112.107V21.1796C112.757 20.1669 113.901 19.6562 115.542 19.6562Z" fill="white"/>
<path d="M126.982 25.3262H119.405C119.536 26.0332 119.885 26.6007 120.448 27.0241C121.016 27.4387 121.71 27.6439 122.535 27.6439C123.6 27.6439 124.468 27.2947 125.153 26.5876L126.362 27.9799C125.926 28.5037 125.385 28.8922 124.721 29.1541C124.058 29.416 123.307 29.5556 122.482 29.5556C121.417 29.5556 120.483 29.3505 119.676 28.9227C118.872 28.4994 118.24 27.9101 117.803 27.1594C117.358 26.4086 117.14 25.5488 117.14 24.6016C117.14 23.6544 117.358 22.8164 117.781 22.0569C118.205 21.3062 118.803 20.7169 119.566 20.2935C120.326 19.8702 121.186 19.6606 122.133 19.6606C123.08 19.6606 123.918 19.8658 124.656 20.2804C125.393 20.6951 125.97 21.28 126.397 22.0307C126.812 22.7815 127.017 23.6632 127.017 24.6409C127.026 24.8155 127.013 25.0293 126.982 25.3262ZM120.304 22.1137C119.802 22.537 119.501 23.1132 119.392 23.8203H124.874C124.778 23.1219 124.481 22.5589 123.984 22.1224C123.482 21.6859 122.875 21.4677 122.133 21.4677C121.413 21.4633 120.806 21.6772 120.304 22.1137Z" fill="white"/>
<path d="M135.712 28.9051C135.45 29.1234 135.123 29.2849 134.743 29.394C134.363 29.5031 133.962 29.5555 133.534 29.5555C132.469 29.5555 131.653 29.2718 131.077 28.7174C130.5 28.1631 130.208 27.3556 130.208 26.2906V21.6334H128.619V19.8394H130.208V17.6309H132.469V19.8394H135.057V21.6465H132.469V26.2513C132.469 26.7184 132.587 27.0806 132.818 27.3294C133.045 27.5782 133.385 27.7004 133.818 27.7004C134.328 27.7004 134.743 27.5695 135.079 27.2989L135.712 28.9051Z" fill="white"/>
<path d="M83.9549 35.6838C84.662 36.3821 85.0112 37.3904 85.0112 38.7217V44.2519H83.7279V38.8526C83.7279 37.8618 83.4791 37.1111 82.9903 36.5873C82.4883 36.0635 81.7943 35.8016 80.869 35.8016C79.8476 35.8016 79.0314 36.1072 78.4334 36.7139C77.8355 37.3249 77.543 38.163 77.543 39.2367V44.2301H76.2598V34.7148H77.4906V36.4651C77.8398 35.8889 78.3287 35.4306 78.9485 35.1164C79.5683 34.8021 80.2841 34.6362 81.1134 34.6362C82.3006 34.6406 83.2478 34.9898 83.9549 35.6838Z" fill="white"/>
<path d="M96.6871 39.8736H88.7258C88.8 40.8644 89.1841 41.6588 89.8693 42.2699C90.5546 42.8809 91.4232 43.1821 92.4795 43.1821C93.0687 43.1821 93.61 43.073 94.1119 42.8678C94.6008 42.6627 95.0372 42.3441 95.3952 41.9338L96.1241 42.7718C95.7007 43.2825 95.1769 43.6622 94.5353 43.9372C93.9068 44.1991 93.2084 44.3388 92.4489 44.3388C91.4712 44.3388 90.6113 44.1336 89.8519 43.719C89.1011 43.3043 88.5162 42.7282 88.0885 41.9905C87.6651 41.2485 87.46 40.4236 87.46 39.4895C87.46 38.5641 87.6651 37.7261 88.071 36.9885C88.4726 36.2464 89.0269 35.6834 89.734 35.2687C90.4411 34.8541 91.2355 34.6489 92.1172 34.6489C92.9989 34.6489 93.7933 34.8541 94.4873 35.2687C95.1813 35.6834 95.7356 36.2464 96.1284 36.9754C96.53 37.7043 96.7264 38.5423 96.7264 39.4764L96.6871 39.8736ZM89.782 36.6305C89.1622 37.2198 88.8043 37.9793 88.7258 38.9264H95.4781C95.3908 37.9793 95.0416 37.2198 94.4218 36.6305C93.802 36.0413 93.0294 35.7489 92.0954 35.7489C91.1744 35.7489 90.4018 36.0413 89.782 36.6305Z" fill="white"/>
<path d="M103.919 43.6627C103.679 43.881 103.374 44.0425 103.029 44.1647C102.671 44.2825 102.3 44.3393 101.92 44.3393C101.03 44.3393 100.344 44.0992 99.8555 43.6103C99.3754 43.1302 99.1266 42.4449 99.1266 41.5632V35.8061H97.4287V34.7192H99.1266V32.6416H100.41V34.7192H103.304V35.8061H100.41V41.4978C100.41 42.0652 100.55 42.4973 100.833 42.7941C101.117 43.0866 101.527 43.2393 102.051 43.2393C102.313 43.2393 102.575 43.1957 102.824 43.1084C103.072 43.0211 103.282 42.9032 103.465 42.7505L103.919 43.6627Z" fill="white"/>
<path d="M117.293 34.793H118.825L114.814 44.2515H113.5L111.597 39.6379L109.716 44.2515H108.402L104.387 34.793H105.91L109.171 42.6714L110.759 38.7431L109.127 34.8148H110.441L111.606 37.8396L112.771 34.8148H114.085L112.466 38.7431L114.055 42.6714L117.293 34.793Z" fill="white"/>
<path d="M123.98 44.3739C123.295 44.3739 122.666 44.2429 122.099 43.981C121.531 43.7191 121.042 43.37 120.619 42.9247C120.204 42.4795 119.881 41.9558 119.65 41.3665C119.423 40.7773 119.301 40.1575 119.301 39.5071C119.301 38.8437 119.419 38.2108 119.65 37.6259C119.89 37.0366 120.217 36.5172 120.628 36.0676C121.042 35.6224 121.531 35.2602 122.107 35.0026C122.675 34.7407 123.295 34.6011 123.967 34.6011C124.639 34.6011 125.272 34.732 125.835 35.0026C126.411 35.2645 126.9 35.6224 127.315 36.0676C127.729 36.5129 128.052 37.0366 128.292 37.6259C128.532 38.2151 128.641 38.8437 128.641 39.5071C128.641 40.1618 128.524 40.7816 128.292 41.3665C128.065 41.9558 127.738 42.4752 127.323 42.9247C126.909 43.37 126.411 43.7322 125.844 43.981C125.298 44.2429 124.665 44.3739 123.98 44.3739ZM120.553 39.5202C120.553 40.0527 120.641 40.5416 120.824 40.9999C121.007 41.4582 121.247 41.8466 121.553 42.1958C121.859 42.545 122.225 42.8069 122.64 43.0033C123.055 43.1997 123.5 43.2958 123.967 43.2958C124.434 43.2958 124.879 43.1997 125.294 43.0033C125.708 42.8069 126.075 42.5363 126.394 42.1871C126.708 41.8379 126.961 41.4451 127.131 40.978C127.315 40.5197 127.402 40.0222 127.402 39.4984C127.402 38.9746 127.315 38.4857 127.131 38.0187C126.948 37.5517 126.708 37.1501 126.394 36.8009C126.079 36.4517 125.721 36.1811 125.294 35.9847C124.879 35.7883 124.434 35.6923 123.967 35.6923C123.5 35.6923 123.055 35.7883 122.653 35.9847C122.238 36.1811 121.88 36.4648 121.566 36.8097C121.252 37.1588 120.999 37.5735 120.828 38.0274C120.654 38.4988 120.553 38.9877 120.553 39.5202Z" fill="white"/>
<path d="M135.433 35.9019C134.595 35.9237 133.879 36.1507 133.26 36.5872C132.64 37.0237 132.203 37.6216 131.955 38.3811V44.2474H130.724V34.8151H131.889V37.0804C132.238 36.3515 132.705 35.7841 133.303 35.3825C133.892 34.9678 134.53 34.7627 135.206 34.7627C135.302 34.7627 135.381 34.7758 135.446 34.7845V35.9063H135.433V35.9019Z" fill="white"/>
<path d="M144.66 44.2474L141.181 39.4156L139.161 41.2968V44.2474H137.93V31.0352H139.161V40.0135L144.455 34.8369H145.847L141.998 38.691L146 44.2518H144.66V44.2474Z" fill="white"/>
</g>
<defs>
<clipPath id="clip0_2035:3691">
<rect width="123" height="43.648" fill="white" transform="translate(23 10.1758)"/>
</clipPath>
</defs>
</svg>
