<svg width="169" height="64" viewBox="0 0 169 64" fill="none" xmlns="http://www.w3.org/2000/svg">
<g clip-path="url(#clip0)">
<path d="M80.9397 32.7078C81.2358 32.394 81.5877 32.1451 81.9751 31.9751C82.3625 31.8052 82.778 31.7177 83.1975 31.7176C84.9966 31.7176 86.2859 33.1164 86.3369 35.1186V38.2812H86.352C86.352 38.3583 86.3811 38.4323 86.4327 38.4868C86.4844 38.5414 86.5545 38.572 86.6275 38.572H88.4486C88.5217 38.572 88.5918 38.5414 88.6434 38.4868C88.6951 38.4323 88.7241 38.3583 88.7241 38.2812V25.6702C88.7241 25.5931 88.6951 25.5191 88.6434 25.4646C88.5918 25.41 88.5217 25.3794 88.4486 25.3794H86.6207C86.5476 25.3794 86.4775 25.41 86.4258 25.4646C86.3742 25.5191 86.3452 25.5931 86.3452 25.6702V30.5864H79.9948V25.6702C79.9948 25.5931 79.9657 25.5191 79.9141 25.4646C79.8624 25.41 79.7923 25.3794 79.7192 25.3794H77.8995C77.8265 25.3794 77.7564 25.41 77.7047 25.4646C77.6531 25.5191 77.624 25.5931 77.624 25.6702V38.2812C77.624 38.3583 77.6531 38.4323 77.7047 38.4868C77.7564 38.5414 77.8265 38.572 77.8995 38.572H79.7192C79.7895 38.5721 79.8572 38.5439 79.9084 38.4931C79.9597 38.4423 79.9905 38.3727 79.9948 38.2986V35.0794C79.9951 34.6376 80.0788 34.2004 80.241 33.7932C80.4033 33.386 80.6408 33.017 80.9397 32.7078Z" fill="white"/>
<path d="M54.3875 38.525L51.5553 34.1818H48.774V38.4232C48.7737 38.4477 48.7688 38.4718 48.7596 38.4943C48.7504 38.5167 48.7371 38.537 48.7205 38.554C48.7038 38.571 48.6842 38.5844 48.6627 38.5934C48.6411 38.6024 48.6181 38.6068 48.595 38.6065H46.5824C46.5592 38.6068 46.5362 38.6024 46.5147 38.5934C46.4932 38.5844 46.4735 38.571 46.4569 38.554C46.4403 38.537 46.427 38.5167 46.4178 38.4943C46.4086 38.4718 46.4037 38.4477 46.4033 38.4232V25.5665C46.4037 25.5421 46.4086 25.518 46.4178 25.4955C46.427 25.4731 46.4403 25.4528 46.4569 25.4358C46.4735 25.4188 46.4932 25.4054 46.5147 25.3964C46.5362 25.3874 46.5592 25.3829 46.5824 25.3833H52.2633C53.8571 25.3833 55.1424 25.837 55.9826 26.692C56.681 27.4103 57.0502 28.4368 57.0502 29.6393C57.0502 32.1403 55.5859 33.2148 54.3585 33.683L54.0031 33.8183L56.9979 38.3156C57.0171 38.3435 57.0284 38.3765 57.0307 38.4108C57.0329 38.4452 57.0259 38.4795 57.0105 38.5098C56.9952 38.5402 56.972 38.5653 56.9437 38.5824C56.9154 38.5995 56.8831 38.6079 56.8505 38.6065H54.5362C54.507 38.6068 54.4781 38.5996 54.4522 38.5854C54.4262 38.5712 54.404 38.5505 54.3875 38.525ZM48.774 31.9178C48.7744 31.9423 48.7793 31.9664 48.7885 31.9888C48.7977 32.0113 48.811 32.0316 48.8276 32.0486C48.8443 32.0656 48.8639 32.079 48.8854 32.088C48.907 32.097 48.93 32.1014 48.9531 32.101H52.0705C53.6298 32.101 54.6368 31.2141 54.6368 29.8414C54.6368 28.3743 53.656 27.5222 52.0195 27.5222H48.9531C48.93 27.5219 48.907 27.5263 48.8854 27.5353C48.8639 27.5443 48.8443 27.5577 48.8276 27.5747C48.811 27.5917 48.7977 27.612 48.7885 27.6344C48.7793 27.6569 48.7744 27.681 48.774 27.7054V31.9178Z" fill="white"/>
<path d="M67.9059 38.7959C64.0984 38.7959 61.2441 35.786 61.3474 31.8295C61.4508 27.873 64.9896 24.8995 68.8467 25.2325C70.4033 25.3663 71.6403 25.8999 72.752 26.909C72.7696 26.9251 72.7841 26.9448 72.7945 26.9668C72.805 26.9888 72.8112 27.0128 72.8129 27.0374C72.8145 27.062 72.8116 27.0867 72.8042 27.11C72.7969 27.1334 72.7852 27.155 72.7699 27.1736L71.5026 28.6728C71.4713 28.7078 71.4287 28.7291 71.3832 28.7324C71.3377 28.7356 71.2928 28.7205 71.2574 28.6902C70.187 27.7872 69.1732 27.3816 68.0023 27.3816C65.6605 27.3816 63.8325 29.3911 63.8325 31.9575V32.177C63.8321 33.3512 64.2729 34.4776 65.0582 35.3093C65.8435 36.1409 66.9092 36.6099 68.0216 36.6133C69.4776 36.5973 70.4322 36.055 71.3772 35.2305C71.4103 35.1992 71.4533 35.1818 71.4978 35.1818C71.5423 35.1818 71.5852 35.1992 71.6183 35.2305L72.8498 36.5086C72.8666 36.526 72.8799 36.5467 72.889 36.5695C72.8981 36.5924 72.9028 36.6169 72.9028 36.6417C72.9028 36.6665 72.8981 36.691 72.889 36.7139C72.8799 36.7367 72.8666 36.7574 72.8498 36.7747C71.4323 38.2012 69.9818 38.7886 67.9086 38.7886" fill="white"/>
<path d="M106.353 38.4844L103.336 29.5013C103.323 29.4656 103.3 29.435 103.27 29.4134C103.24 29.3918 103.205 29.3802 103.168 29.3802C103.132 29.3802 103.097 29.3918 103.067 29.4134C103.037 29.435 103.014 29.4656 103 29.5013L99.9835 38.4844C99.9708 38.5205 99.9478 38.5516 99.9177 38.5735C99.8877 38.5953 99.8519 38.6069 99.8154 38.6066H97.931C97.8942 38.6072 97.8582 38.5956 97.828 38.5734C97.7979 38.5513 97.7751 38.5196 97.7629 38.483L93.5188 25.6233C93.5099 25.5955 93.5076 25.5658 93.5119 25.5368C93.5162 25.5078 93.527 25.4803 93.5435 25.4566C93.5599 25.433 93.5816 25.4139 93.6065 25.4009C93.6315 25.3879 93.659 25.3814 93.6868 25.382H95.8316C95.8693 25.3814 95.9061 25.3937 95.9367 25.417C95.9672 25.4403 95.9898 25.4734 96.0011 25.5114L98.7754 34.8173C98.7875 34.8546 98.8103 34.887 98.8407 34.9099C98.8711 34.9328 98.9075 34.9451 98.9448 34.9451C98.9822 34.9451 99.0186 34.9328 99.049 34.9099C99.0794 34.887 99.1022 34.8546 99.1143 34.8173L102.119 25.4605C102.131 25.4234 102.153 25.3913 102.183 25.3686C102.213 25.3459 102.25 25.3338 102.287 25.334H104.127C104.164 25.3338 104.2 25.3459 104.231 25.3686C104.261 25.3913 104.283 25.4234 104.295 25.4605L107.301 34.8173C107.313 34.8546 107.336 34.887 107.366 34.9099C107.397 34.9328 107.433 34.9451 107.47 34.9451C107.508 34.9451 107.544 34.9328 107.574 34.9099C107.605 34.887 107.628 34.8546 107.64 34.8173L110.413 25.5114C110.424 25.4734 110.447 25.4403 110.477 25.417C110.508 25.3937 110.545 25.3814 110.582 25.382H112.648C112.676 25.3814 112.704 25.3879 112.729 25.4009C112.754 25.4139 112.775 25.433 112.792 25.4566C112.808 25.4803 112.819 25.5078 112.823 25.5368C112.828 25.5658 112.825 25.5955 112.817 25.6233L108.572 38.483C108.56 38.5195 108.537 38.551 108.507 38.5732C108.477 38.5953 108.441 38.607 108.404 38.6066H106.521C106.485 38.6069 106.449 38.5953 106.419 38.5735C106.389 38.5516 106.366 38.5205 106.353 38.4844Z" fill="white"/>
<path d="M124.884 38.4931L123.754 35.6446C123.74 35.6107 123.717 35.5819 123.687 35.5617C123.658 35.5416 123.624 35.531 123.589 35.5312H117.787C117.752 35.5311 117.718 35.5417 117.688 35.5619C117.659 35.5821 117.636 35.6108 117.623 35.6446L116.481 38.4931C116.467 38.5273 116.444 38.5563 116.414 38.5765C116.385 38.5967 116.35 38.6072 116.315 38.6065H114.348C114.319 38.6073 114.291 38.6004 114.265 38.5864C114.24 38.5725 114.218 38.552 114.202 38.5268C114.185 38.5017 114.175 38.4726 114.173 38.4423C114.17 38.412 114.174 38.3815 114.186 38.3535L119.511 25.5055C119.525 25.4723 119.548 25.4441 119.578 25.4245C119.607 25.4049 119.641 25.3946 119.675 25.395H121.761C121.795 25.3946 121.829 25.4049 121.858 25.4245C121.887 25.4441 121.91 25.4723 121.925 25.5055L127.247 38.3535C127.259 38.3816 127.263 38.4123 127.26 38.4427C127.258 38.4731 127.247 38.5023 127.231 38.5275C127.215 38.5527 127.193 38.5732 127.167 38.587C127.141 38.6008 127.112 38.6075 127.083 38.6065H125.041C125.005 38.6072 124.971 38.5967 124.942 38.5765C124.912 38.5563 124.889 38.5273 124.875 38.4931H124.884ZM118.733 33.4679H122.626C122.655 33.4687 122.683 33.4619 122.709 33.4481C122.734 33.4344 122.756 33.4141 122.773 33.3892C122.789 33.3642 122.799 33.3354 122.803 33.3052C122.806 33.2751 122.802 33.2445 122.791 33.2164L120.847 28.3366C120.833 28.3031 120.81 28.2746 120.781 28.2547C120.752 28.2347 120.718 28.2241 120.683 28.2241C120.648 28.2241 120.614 28.2347 120.585 28.2547C120.556 28.2746 120.532 28.3031 120.518 28.3366L118.572 33.2164C118.561 33.2444 118.556 33.2749 118.559 33.3051C118.562 33.3353 118.573 33.3642 118.589 33.3892C118.605 33.4143 118.627 33.4346 118.653 33.4483C118.678 33.4621 118.707 33.4688 118.736 33.4679" fill="white"/>
<path d="M39.7177 38.4931L38.5867 35.6446C38.573 35.6108 38.5501 35.5821 38.5209 35.5619C38.4918 35.5417 38.4577 35.5311 38.4228 35.5312H32.6207C32.5856 35.531 32.5513 35.5416 32.5219 35.5617C32.4925 35.5819 32.4694 35.6107 32.4554 35.6446L31.3244 38.4931C31.3109 38.5271 31.2881 38.5561 31.2589 38.5763C31.2297 38.5965 31.1954 38.6071 31.1605 38.6065H29.1934C29.1644 38.6075 29.1357 38.6008 29.1099 38.587C29.0841 38.5731 29.062 38.5527 29.0457 38.5275C29.0293 38.5022 29.0193 38.4731 29.0165 38.4427C29.0136 38.4123 29.0181 38.3816 29.0294 38.3535L34.3522 25.5055C34.3665 25.4724 34.3896 25.4443 34.4187 25.4247C34.4478 25.4051 34.4816 25.3948 34.5161 25.395H36.6031C36.6374 25.3949 36.671 25.4053 36.6998 25.4249C36.7287 25.4445 36.7515 25.4725 36.7656 25.5055L42.0939 38.3535C42.1049 38.3816 42.1091 38.4122 42.1061 38.4424C42.1031 38.4727 42.093 38.5017 42.0767 38.5268C42.0605 38.5519 42.0385 38.5723 42.0129 38.5862C41.9873 38.6002 41.9588 38.6071 41.93 38.6065H39.8816C39.8467 38.6069 39.8125 38.5963 39.7833 38.5761C39.7542 38.5559 39.7313 38.527 39.7177 38.4931ZM33.5753 33.4679H37.4682C37.4969 33.4688 37.5254 33.462 37.5511 33.4483C37.5767 33.4346 37.5987 33.4143 37.615 33.3892C37.6313 33.3642 37.6414 33.3353 37.6444 33.3051C37.6474 33.2749 37.6432 33.2444 37.6321 33.2164L35.6857 28.3366C35.6717 28.303 35.6487 28.2744 35.6196 28.2544C35.5905 28.2343 35.5565 28.2236 35.5217 28.2236C35.487 28.2236 35.453 28.2343 35.4239 28.2544C35.3948 28.2744 35.3718 28.303 35.3578 28.3366L33.4155 33.2164C33.4044 33.2444 33.4002 33.2749 33.4032 33.3051C33.4062 33.3353 33.4163 33.3642 33.4326 33.3892C33.4489 33.4143 33.4709 33.4346 33.4965 33.4483C33.5222 33.462 33.5507 33.4688 33.5794 33.4679" fill="white"/>
<path d="M132.83 38.4237V33.3695L128.072 25.663C128.055 25.635 128.046 25.6027 128.045 25.5694C128.044 25.5362 128.052 25.5033 128.067 25.4743C128.083 25.4453 128.105 25.4213 128.133 25.4049C128.16 25.3884 128.191 25.3801 128.223 25.3809H130.553C130.584 25.3806 130.615 25.3888 130.642 25.4045C130.669 25.4203 130.691 25.4433 130.708 25.4711L133.876 30.9557C133.892 30.9831 133.915 31.0056 133.942 31.0212C133.969 31.0368 133.999 31.0449 134.03 31.0449C134.06 31.0449 134.09 31.0368 134.117 31.0212C134.144 31.0056 134.167 30.9831 134.183 30.9557L137.419 25.4725C137.435 25.4453 137.458 25.4229 137.485 25.4074C137.511 25.3919 137.541 25.3837 137.572 25.3838H139.805C139.836 25.3828 139.868 25.3908 139.895 25.4072C139.923 25.4235 139.946 25.4475 139.961 25.4766C139.977 25.5056 139.985 25.5386 139.984 25.572C139.983 25.6053 139.973 25.6378 139.956 25.6659L135.201 33.3098V38.4237C135.201 38.4482 135.196 38.4723 135.187 38.4947C135.177 38.5172 135.164 38.5375 135.148 38.5545C135.131 38.5715 135.111 38.5849 135.09 38.5939C135.068 38.6029 135.045 38.6073 135.022 38.607H133.011C132.988 38.6073 132.965 38.6029 132.943 38.5939C132.922 38.5849 132.902 38.5715 132.885 38.5545C132.869 38.5375 132.855 38.5172 132.846 38.4947C132.837 38.4723 132.832 38.4482 132.832 38.4237" fill="white"/>
</g>
<defs>
<clipPath id="clip0">
<rect width="110.969" height="13.5881" fill="white" transform="translate(29.0156 25.2061)"/>
</clipPath>
</defs>
</svg>
