<svg width="169" height="64" viewBox="0 0 169 64" fill="none" xmlns="http://www.w3.org/2000/svg">
<g clip-path="url(#clip0_2065:3714)">
<path d="M36.9523 30.8728V33.6253H40.8528V36.1839H36.9523V39.169H41.9725V41.8246H33.6377V28.2173H41.9725V30.8728H36.9523Z" fill="white"/>
<path d="M53.0632 41.7425L50.5023 36.6059H49.1691V41.7425H45.8545V28.1353H51.4175C52.4903 28.1353 53.4013 28.3226 54.1507 28.6974C54.9131 29.0721 55.4818 29.589 55.8564 30.2481C56.2312 30.8942 56.4185 31.6178 56.4185 32.419C56.4185 33.3236 56.1601 34.1313 55.6432 34.842C55.1392 35.5527 54.3898 36.0567 53.3947 36.3539L56.535 41.7425H53.0632ZM49.1691 34.2605H51.2239C51.8312 34.2605 52.2834 34.1119 52.5806 33.8146C52.8907 33.5174 53.0458 33.0975 53.0458 32.5547C53.0458 32.0378 52.8907 31.6308 52.5806 31.3335C52.2834 31.0363 51.8312 30.8877 51.2239 30.8877H49.1691V34.2605Z" fill="white"/>
<path d="M64.7925 41.9598C63.7974 41.9598 62.9057 41.7982 62.1174 41.4752C61.3292 41.1521 60.696 40.674 60.2179 40.0408C59.7527 39.4076 59.5071 38.6452 59.4814 37.7535H63.0092C63.0607 38.2575 63.2353 38.6452 63.5325 38.9165C63.8297 39.175 64.2174 39.3042 64.6956 39.3042C65.1866 39.3042 65.5742 39.1944 65.8586 38.9747C66.1429 38.7421 66.285 38.4255 66.285 38.0249C66.285 37.6889 66.1687 37.4111 65.936 37.1914C65.7165 36.9717 65.4386 36.7908 65.1026 36.6487C64.7796 36.5065 64.3144 36.345 63.7069 36.1641C62.8283 35.8927 62.1111 35.6213 61.5553 35.35C60.9998 35.0786 60.5217 34.678 60.121 34.1482C59.7205 33.6184 59.52 32.927 59.52 32.0741C59.52 30.8077 59.9789 29.8192 60.8963 29.1084C61.8139 28.3848 63.0092 28.0229 64.4824 28.0229C65.9812 28.0229 67.1894 28.3848 68.1071 29.1084C69.0245 29.8192 69.5156 30.8142 69.5803 32.0935H65.9942C65.9685 31.6542 65.8069 31.3117 65.5097 31.0662C65.2125 30.8077 64.8313 30.6785 64.3659 30.6785C63.9654 30.6785 63.6424 30.7883 63.3967 31.008C63.1513 31.2148 63.0285 31.5185 63.0285 31.9191C63.0285 32.3584 63.2353 32.7009 63.6487 32.9464C64.0624 33.1919 64.7085 33.4568 65.5871 33.7411C66.4659 34.0383 67.1767 34.3226 67.7193 34.594C68.2751 34.8654 68.7532 35.2595 69.1537 35.7764C69.5544 36.2933 69.7546 36.9588 69.7546 37.7729C69.7546 38.5482 69.5544 39.2525 69.1537 39.8857C68.7661 40.5189 68.1974 41.0229 67.448 41.3977C66.6986 41.7724 65.8132 41.9598 64.7925 41.9598Z" fill="white"/>
<path d="M76.6603 28.2173V41.8246H73.3457V28.2173H76.6603Z" fill="white"/>
<path d="M85.5359 41.9598C84.5408 41.9598 83.6491 41.7982 82.8608 41.4752C82.0726 41.1521 81.4394 40.674 80.9613 40.0408C80.4961 39.4076 80.2505 38.6452 80.2246 37.7535H83.7526C83.8041 38.2575 83.9787 38.6452 84.2759 38.9165C84.5731 39.175 84.9608 39.3042 85.439 39.3042C85.93 39.3042 86.3175 39.1944 86.602 38.9747C86.8862 38.7421 87.0284 38.4255 87.0284 38.0249C87.0284 37.6889 86.9121 37.4111 86.6794 37.1914C86.4597 36.9717 86.182 36.7908 85.846 36.6487C85.523 36.5065 85.0578 36.345 84.4503 36.1641C83.5717 35.8927 82.8545 35.6213 82.2987 35.35C81.7432 35.0786 81.2648 34.678 80.8644 34.1482C80.4637 33.6184 80.2634 32.927 80.2634 32.0741C80.2634 30.8077 80.7223 29.8192 81.6397 29.1084C82.5573 28.3848 83.7526 28.0229 85.2258 28.0229C86.7246 28.0229 87.9328 28.3848 88.8505 29.1084C89.7679 29.8192 90.259 30.8142 90.3237 32.0935H86.7375C86.7117 31.6542 86.5503 31.3117 86.2531 31.0662C85.9559 30.8077 85.5745 30.6785 85.1093 30.6785C84.7088 30.6785 84.3858 30.7883 84.1401 31.008C83.8947 31.2148 83.7719 31.5185 83.7719 31.9191C83.7719 32.3584 83.9787 32.7009 84.3921 32.9464C84.8058 33.1919 85.4519 33.4568 86.3305 33.7411C87.2093 34.0383 87.9199 34.3226 88.4627 34.594C89.0185 34.8654 89.4966 35.2595 89.8971 35.7764C90.2978 36.2933 90.498 36.9588 90.498 37.7729C90.498 38.5482 90.2978 39.2525 89.8971 39.8857C89.5096 40.5189 88.9408 41.0229 88.1914 41.3977C87.4418 41.7724 86.5566 41.9598 85.5359 41.9598Z" fill="white"/>
<path d="M103.878 28.2173V30.8728H100.273V41.8246H96.958V30.8728H93.3525V28.2173H103.878Z" fill="white"/>
<path d="M110.406 30.8728V33.6253H114.307V36.1839H110.406V39.169H115.427V41.8246H107.092V28.2173H115.427V30.8728H110.406Z" fill="white"/>
<path d="M131.303 41.8246H127.988L122.444 33.4315V41.8246H119.13V28.2173H122.444L127.988 36.6492V28.2173H131.303V41.8246Z" fill="white"/>
<path d="M134.694 35.0013C134.694 33.6574 134.985 32.4621 135.567 31.4154C136.148 30.3557 136.956 29.5352 137.99 28.9537C139.036 28.3592 140.219 28.062 141.537 28.062C143.152 28.062 144.535 28.4884 145.685 29.3413C146.835 30.1942 147.604 31.3572 147.992 32.8304H144.348C144.076 32.2618 143.688 31.8289 143.184 31.5317C142.693 31.2345 142.131 31.0858 141.498 31.0858C140.477 31.0858 139.65 31.4412 139.017 32.1519C138.384 32.8627 138.067 33.8125 138.067 35.0013C138.067 36.1902 138.384 37.14 139.017 37.8507C139.65 38.5615 140.477 38.9168 141.498 38.9168C142.131 38.9168 142.693 38.7682 143.184 38.471C143.688 38.1738 144.076 37.7409 144.348 37.1723H147.992C147.604 38.6455 146.835 39.8085 145.685 40.6614C144.535 41.5013 143.152 41.9213 141.537 41.9213C140.219 41.9213 139.036 41.6305 137.99 41.049C136.956 40.4546 136.148 39.634 135.567 38.5873C134.985 37.5406 134.694 36.3453 134.694 35.0013Z" fill="white"/>
<path d="M154.886 30.8728V33.6253H158.786V36.1839H154.886V39.169H159.906V41.8246H151.571V28.2173H159.906V30.8728H154.886Z" fill="white"/>
<path d="M27.8587 22.1201H10.3708C9.72106 22.1201 9.19434 22.6468 9.19434 23.2966V40.7836C9.19434 41.4334 9.72106 41.9601 10.3708 41.9601H27.8587C28.5084 41.9601 29.0352 41.4334 29.0352 40.7836V23.2966C29.0352 22.6468 28.5084 22.1201 27.8587 22.1201Z" fill="white"/>
<path d="M24.349 32.6525C24.349 33.4482 24.1664 34.1787 23.8011 34.844C23.4359 35.4962 22.875 36.0245 22.1184 36.4289C21.3618 36.8332 20.4226 37.0354 19.3008 37.0354H17.2267V41.9662H13.8809V28.2305H19.3008C20.3965 28.2305 21.3227 28.4196 22.0793 28.7979C22.8358 29.1762 23.4033 29.698 23.7815 30.3632C24.1598 31.0285 24.349 31.7916 24.349 32.6525ZM19.0464 34.3744C19.6856 34.3744 20.1617 34.2244 20.4748 33.9244C20.7879 33.6243 20.9444 33.2004 20.9444 32.6525C20.9444 32.1047 20.7879 31.6807 20.4748 31.3807C20.1617 31.0807 19.6856 30.9307 19.0464 30.9307H17.2267V34.3744H19.0464Z" fill="black"/>
<path d="M24.349 24.7505H13.8809V26.9611H24.349V24.7505Z" fill="#E50913"/>
</g>
<defs>
<clipPath id="clip0_2065:3714">
<rect width="150.824" height="20" fill="white" transform="translate(9.08789 22)"/>
</clipPath>
</defs>
</svg>
