<svg width="169" height="64" viewBox="0 0 169 64" fill="none" xmlns="http://www.w3.org/2000/svg">
<path d="M46.257 40.8012V36.1979L41.3557 39.9381H34.5528V32.9285H39.3737L41.9181 34.9686V29.7898L39.3737 32.0915H34.5528V25.1342L41.3557 25.1342L46.2034 28.7698V24.4542L27.0268 24.4542V24.8203C27.0268 24.8203 29.0087 24.8988 29.0087 26.6774L29.0087 38.578C29.0087 40.3042 27 40.435 27 40.435V40.8012H46.257Z" fill="white"/>
<path d="M47.4538 40.8012H52.5962L54.9798 38.9442V32.0915C55.5691 31.2807 56.6939 30.2345 58.4616 30.2345C60.4436 30.2345 60.6578 31.9607 60.6578 34.1054V38.4211C60.6578 40.1735 58.1938 40.435 58.1938 40.435V40.8012L68.1838 40.8012L66.1751 38.7611V34.1839C66.1751 33.6347 65.9609 32.4838 65.5859 31.9607C66.2555 31.1238 67.4875 30.2868 69.1212 30.2868C71.2907 30.2868 71.6388 31.9346 71.6388 34.1054V40.8012H79.1381V40.435C77.8257 40.3566 77.1561 39.755 77.1561 38.578L77.1294 33.8962C77.1026 30.993 74.2904 29.0313 70.5675 29.0313C67.2732 29.0313 65.693 30.5222 65.1306 31.3068C64.1932 29.8683 62.0238 29.0313 59.8008 29.0313C56.6404 29.0313 55.2477 30.4699 54.6049 31.2807L54.471 30.6791L52.6229 29.1621H47.4538V29.5283C48.7662 29.6067 49.4358 30.2083 49.4625 31.3853V38.578C49.4625 40.3304 47.4538 40.435 47.4538 40.435V40.8012Z" fill="white"/>
<path d="M79.4272 35.1255C79.454 38.578 83.7929 40.9581 88.962 40.9581C92.658 40.9581 96.6487 39.8858 98.4967 37.6626L97.9879 37.2702C96.729 38.2903 94.5328 38.7088 92.7116 38.6826C88.6406 38.6042 85.3731 36.6948 85.2392 34.3408C85.2124 33.8439 85.2392 33.3993 85.3463 32.9808L98.7646 32.9808C98.7646 31.6469 96.3809 29.0052 90.2476 29.0052C84.3018 29.0052 79.3737 31.4899 79.4272 35.1255ZM90.1672 29.5283C93.1937 29.5283 93.4347 32.1177 93.4347 32.1177L85.5605 32.1177C86.2301 30.5222 87.8371 29.5283 90.1672 29.5283Z" fill="white"/>
<path d="M98.9943 29.5283C100.307 29.6067 100.976 30.2083 100.976 31.3853V38.578C100.976 40.3304 98.9943 40.4089 98.9943 40.4089V40.8012H106.494V32.6408C106.761 32.353 107.11 32.1177 107.458 31.9084C109.011 30.4176 110.698 30.4699 110.698 30.4699L113.832 33.2423L115.171 29.2406C114.636 29.1621 114.073 29.1098 113.457 29.1098C110.484 29.1098 108.556 29.9468 106.199 31.5684L105.931 30.6006L104.163 29.1621L98.9943 29.1621V29.5283Z" fill="white"/>
<path d="M115.715 29.5283C117.054 29.6067 117.724 30.2345 117.724 31.3853V40.8012H125.25V40.435C123.91 40.3566 123.241 39.7288 123.241 38.578V29.1621H115.715V29.5283ZM116.518 25.3434L120.107 27.6713L123.669 25.3434L120.107 23.0156L116.518 25.3434Z" fill="white"/>
<path d="M137.849 38.7611C137.849 39.5981 136.751 40.2519 134.929 40.2519C134.501 40.2519 134.019 40.2258 133.51 40.1473L126.814 36.0148L126.787 40.775L129.01 40.3042C130.564 40.6181 132.76 40.9843 134.876 40.9843C139.215 40.9843 142 39.4673 142 37.6103C142 33.7131 130.59 33.7393 130.59 30.9407C130.59 29.9991 132.465 29.319 134.394 29.6329L141.143 33.8962L141.197 28.979L138.92 29.5806C137.206 29.2406 135.492 29.0052 133.671 29.0052C130.537 29.0052 126.6 30.2345 126.6 32.4838C126.6 36.8779 137.849 36.5117 137.849 38.7611Z" fill="white"/>
</svg>
