<svg width="169" height="64" viewBox="0 0 169 64" fill="none" xmlns="http://www.w3.org/2000/svg">
<g clip-path="url(#clip0)">
<path d="M31.5 52.9885L39.5526 57.2751V23.9319L31.5 19.6147V52.9885Z" fill="white"/>
<path d="M57.3115 6.72461V11.4398L60.5264 13.185V41.813L65.3641 44.3849V11.0418L57.3115 6.72461Z" fill="white"/>
<path d="M44.3896 13.1851V17.9003L47.6352 19.6149V48.2428L52.4728 50.8454V17.4716L44.3896 13.1851Z" fill="white"/>
<path d="M85.296 25.9223C84.8979 25.2181 84.3162 24.6057 83.5814 24.2383C82.724 23.8096 81.8055 23.5953 80.8563 23.6259H75.3145V36.3325L78.2844 37.9246V33.1482H80.7951C81.7443 33.1788 82.6934 32.9645 83.5507 32.5358C84.2856 32.1684 84.8979 31.5866 85.296 30.8824C85.7246 30.117 85.9389 29.2597 85.9083 28.4024C85.9083 27.545 85.7246 26.6877 85.296 25.9223ZM82.5403 29.6271C82.3566 29.9945 82.0504 30.2701 81.7136 30.4538C81.285 30.6681 80.7951 30.7906 80.3052 30.76H78.2844V26.0754H80.3052C80.7951 26.0754 81.285 26.1672 81.7443 26.3816C82.1117 26.5653 82.3872 26.8408 82.571 27.2082C82.9078 27.9737 82.9077 28.8616 82.5403 29.6271Z" fill="white"/>
<path d="M89.8578 41.6298C89.521 41.6298 89.1536 41.5992 88.8168 41.538C88.5412 41.5074 88.2656 41.4155 88.0207 41.3237L88.6637 39.1498C89.0923 39.3029 89.521 39.3335 89.9802 39.2722C90.3783 39.1498 90.6845 38.8436 90.8376 38.4456L91.0213 38.0169L87.2246 27.1475H90.2864L92.4603 34.8939H92.5828L94.7873 27.1475H97.8797L93.7769 38.813C93.5932 39.3335 93.3176 39.854 92.9808 40.2826C92.644 40.7113 92.2154 41.0481 91.7255 41.2624C91.1131 41.5074 90.4701 41.6298 89.8578 41.6298Z" fill="white"/>
<path d="M109.393 37.8942C108.443 37.9248 107.464 37.6798 106.637 37.2206C105.871 36.7613 105.259 36.1183 104.83 35.3222C104.402 34.4343 104.187 33.4545 104.187 32.4748C104.157 31.495 104.371 30.5152 104.83 29.6273C105.228 28.8312 105.841 28.1576 106.637 27.7289C108.352 26.8104 110.434 26.8104 112.148 27.7289C112.914 28.1882 113.526 28.8312 113.955 29.6273C114.383 30.5152 114.598 31.495 114.598 32.4748C114.628 33.4545 114.414 34.4343 113.955 35.3222C113.557 36.1183 112.944 36.7919 112.148 37.2206C111.291 37.6798 110.342 37.9248 109.393 37.8942ZM109.393 35.6284C109.852 35.659 110.28 35.506 110.617 35.2304C110.954 34.9242 111.23 34.5262 111.352 34.0975C111.689 33.0259 111.689 31.893 111.352 30.8214C111.199 30.3927 110.954 29.9947 110.617 29.6885C110.28 29.4129 109.852 29.2599 109.393 29.2599C108.933 29.2599 108.505 29.3823 108.168 29.6885C107.831 29.9947 107.555 30.3927 107.433 30.8214C107.096 31.893 107.096 33.0259 107.433 34.0975C107.586 34.5262 107.831 34.9242 108.168 35.2304C108.505 35.506 108.933 35.659 109.393 35.6284Z" fill="white"/>
<path d="M119.435 31.5869V37.6799H116.526V27.1472H119.313V29.0149H119.435C119.649 28.4026 120.078 27.8821 120.599 27.5453C121.18 27.1779 121.885 26.9941 122.589 26.9941C123.262 26.9941 123.905 27.1472 124.487 27.484C125.038 27.8208 125.467 28.2801 125.742 28.8618C126.049 29.5354 126.202 30.2397 126.202 30.9745V37.6799H123.293V31.495C123.324 30.9439 123.14 30.4234 122.803 29.9947C122.436 29.6273 121.946 29.413 121.425 29.4436C121.058 29.4436 120.69 29.5354 120.384 29.6885C120.078 29.8722 119.833 30.1172 119.68 30.4234C119.527 30.7908 119.435 31.1888 119.435 31.5869Z" fill="white"/>
<path d="M137.255 30.1474L134.592 30.3005C134.53 30.0862 134.439 29.8719 134.285 29.6881C134.132 29.5044 133.918 29.3513 133.704 29.2595C133.428 29.137 133.153 29.0758 132.846 29.0758C132.448 29.0758 132.05 29.1676 131.714 29.3513C131.438 29.5044 131.254 29.78 131.254 30.1168C131.254 30.3617 131.377 30.6067 131.56 30.7598C131.867 30.9741 132.234 31.1272 132.601 31.1884L134.5 31.5559C135.326 31.6783 136.123 32.0457 136.796 32.5663C137.317 33.0255 137.562 33.6991 137.562 34.4033C137.562 35.0769 137.347 35.6893 136.949 36.2098C136.521 36.7609 135.939 37.1896 135.296 37.4345C134.53 37.7407 133.704 37.8938 132.877 37.8632C131.499 37.8632 130.366 37.557 129.54 36.9753C128.744 36.4241 128.223 35.5668 128.101 34.5871L130.979 34.434C131.04 34.832 131.285 35.1688 131.622 35.4137C132.387 35.8424 133.336 35.873 134.132 35.475C134.408 35.3219 134.592 35.0157 134.622 34.7095C134.622 34.4646 134.5 34.2196 134.285 34.0665C133.979 33.8522 133.642 33.6991 133.244 33.6685L131.407 33.3011C130.397 33.0868 129.631 32.75 129.111 32.2295C128.621 31.7089 128.346 31.0047 128.346 30.3005C128.315 29.6575 128.529 29.0452 128.897 28.5553C129.295 28.0348 129.846 27.6367 130.458 27.4224C131.224 27.1468 132.02 26.9938 132.816 27.0244C134.132 27.0244 135.204 27.2999 135.969 27.8817C136.674 28.4022 137.164 29.2289 137.255 30.1474Z" fill="white"/>
<path d="M99.4414 37.6798V23.6567H102.35V37.7105L99.4414 37.6798Z" fill="white"/>
</g>
<defs>
<clipPath id="clip0">
<rect width="106" height="50.5505" fill="white" transform="translate(31.5 6.72461)"/>
</clipPath>
</defs>
</svg>
