<svg width="171" height="64" viewBox="0 0 171 64" fill="none" xmlns="http://www.w3.org/2000/svg">
<path d="M44.3984 42.766V21.3145H57.6513V24.707H48.0353V30.3928H56.7483V33.6877H48.0353V39.3753H57.6513V42.766H44.3984Z" fill="white"/>
<path d="M67.6557 42.7668H64.1431L58.1621 28.0273H62.0428L65.9491 38.5464L69.7565 28.0273H73.4419L67.6557 42.7668Z" fill="white"/>
<path d="M75.0762 42.767V28.0276H78.4444V29.9065C79.2993 28.3934 81.1291 27.6118 82.8133 27.6118C84.7412 27.6118 86.4496 28.4905 87.2307 30.2214C88.3776 28.293 90.1103 27.6118 92.0144 27.6118C94.6744 27.6118 97.213 29.2959 97.213 33.2009V42.767H93.8205V33.7872C93.8205 32.0545 92.9417 30.7609 90.9647 30.7609C89.1101 30.7609 87.9142 32.2255 87.9142 34.0315V42.767H84.4726V33.7872C84.4726 32.1031 83.6177 30.7609 81.6173 30.7609C79.7379 30.7609 78.5663 32.1521 78.5663 34.0315V42.767H75.0762Z" fill="white"/>
<path d="M114.128 35.3974C114.128 39.9372 110.882 43.2321 106.464 43.2321C102.071 43.2321 98.8496 39.9372 98.8496 35.3974C98.8496 30.8823 102.096 27.5874 106.464 27.5874C110.882 27.5874 114.128 30.8823 114.128 35.3974ZM110.589 35.3974C110.589 32.3468 108.661 30.7603 106.464 30.7603C104.317 30.7603 102.34 32.3225 102.34 35.3974C102.34 38.4722 104.317 40.0834 106.464 40.0834C108.637 40.0834 110.589 38.4727 110.589 35.3974Z" fill="white"/>
<path d="M118.058 37.9359C118.18 39.2781 119.182 40.4497 121.059 40.4497C122.524 40.4497 123.256 39.6686 123.256 38.7656C123.256 37.9845 122.719 37.3744 121.523 37.1305L119.351 36.6423C116.741 36.0574 115.397 34.3724 115.397 32.3468C115.397 29.7822 117.765 27.5874 120.816 27.5874C124.94 27.5874 126.26 30.2479 126.502 31.712L123.549 32.5668C123.427 31.712 122.793 30.3703 120.816 30.3703C119.571 30.3703 118.692 31.1513 118.692 32.0544C118.692 32.8354 119.277 33.4213 120.181 33.5918L122.426 34.0557C125.209 34.6658 126.673 36.3503 126.673 38.5222C126.673 40.7674 124.867 43.2325 121.109 43.2325C116.837 43.2325 115.202 40.4501 115.031 38.7903L118.058 37.9359Z" fill="white"/>
</svg>
