<svg width="169" height="64" viewBox="0 0 169 64" fill="none" xmlns="http://www.w3.org/2000/svg">
<g clip-path="url(#clip0_2065:3699)">
<path fill-rule="evenodd" clip-rule="evenodd" d="M99.8959 40.1122C97.7996 40.1122 96.099 38.4124 96.099 36.3153C96.099 34.2182 97.7996 32.5184 99.8959 32.5184C101.993 32.5184 103.693 34.2182 103.693 36.3153C103.693 38.4124 101.993 40.1122 99.8959 40.1122ZM99.8959 25.5767C93.9651 25.5767 89.1572 30.3845 89.1572 36.3153C89.1572 42.2461 93.9651 47.054 99.8959 47.054C105.827 47.054 110.635 42.2461 110.635 36.3153C110.635 30.3845 105.827 25.5767 99.8959 25.5767Z" fill="#EBEBEB"/>
<path d="M65.3765 25.5767H57.7061V47.054H65.3765V25.5767Z" fill="#EBEBEB"/>
<path fill-rule="evenodd" clip-rule="evenodd" d="M77.6547 30.946L72.2854 25.5767H66.916V30.946L72.2854 36.3153L66.916 41.6847V47.054H72.2854L77.6547 41.6847L83.024 47.054H88.3934V41.6847L83.024 36.3153L88.3934 30.946V25.5767H83.024L77.6547 30.946Z" fill="#EBEBEB"/>
<path fill-rule="evenodd" clip-rule="evenodd" d="M61.5413 24.0367C59.4235 24.0367 57.7061 22.3193 57.7061 20.2015C57.7061 18.0836 59.4235 16.3662 61.5413 16.3662C63.6591 16.3662 65.3765 18.0836 65.3765 20.2015C65.3765 22.3193 63.6591 24.0367 61.5413 24.0367Z" fill="#EBEBEB"/>
</g>
<defs>
<clipPath id="clip0_2065:3699">
<rect width="53.5879" height="53.5879" fill="white" transform="translate(57.7061 5.20605)"/>
</clipPath>
</defs>
</svg>
