<svg width="169" height="64" viewBox="0 0 169 64" fill="none" xmlns="http://www.w3.org/2000/svg">
<g clip-path="url(#clip0)">
<path d="M90.0543 36.0306H86.9801C86.9553 36.033 86.9303 36.0298 86.9068 36.0214C86.8834 36.0129 86.8621 35.9993 86.8446 35.9816C86.827 35.9639 86.8136 35.9425 86.8054 35.919C86.7971 35.8955 86.7942 35.8705 86.7968 35.8457V29.3813C86.8017 29.3316 86.7955 29.2814 86.7786 29.2344C86.7618 29.1873 86.7347 29.1446 86.6993 29.1093C86.6639 29.074 86.6211 29.047 86.574 29.0302C86.527 29.0134 86.4767 29.0073 86.427 29.0123H85.3682C85.3185 29.007 85.2682 29.0129 85.221 29.0295C85.1739 29.0462 85.1311 29.0732 85.0957 29.1086C85.0604 29.144 85.0335 29.1869 85.0169 29.2341C85.0003 29.2813 84.9946 29.3316 85 29.3813V36.9639C85 37.4334 85.2621 37.7027 85.7388 37.7027H90.0543C90.104 37.7079 90.1543 37.7019 90.2014 37.6852C90.2485 37.6685 90.2913 37.6415 90.3267 37.6061C90.362 37.5708 90.3891 37.528 90.4058 37.4808C90.4225 37.4337 90.4285 37.3835 90.4233 37.3337V36.3996C90.4289 36.3497 90.4232 36.2992 90.4067 36.2519C90.3901 36.2045 90.3631 36.1615 90.3277 36.126C90.2923 36.0905 90.2493 36.0634 90.202 36.0467C90.1546 36.0301 90.1042 36.0243 90.0543 36.0298V36.0306ZM135.285 32.3776H134.104C134.054 32.3731 134.005 32.3797 133.959 32.3969C133.913 32.414 133.871 32.4413 133.837 32.4766C133.802 32.512 133.776 32.5546 133.761 32.6013C133.745 32.648 133.74 32.6976 133.746 32.7466V37.3337C133.74 37.3827 133.745 37.4324 133.76 37.4791C133.776 37.5259 133.802 37.5686 133.836 37.604C133.871 37.6394 133.912 37.6667 133.959 37.6837C134.005 37.7008 134.054 37.7073 134.104 37.7027H135.285C135.36 37.7099 135.434 37.6916 135.496 37.6511C135.559 37.6105 135.606 37.5499 135.629 37.4792C135.645 37.4328 135.65 37.3833 135.645 37.3345V32.7466C135.651 32.6975 135.646 32.6476 135.63 32.6007C135.614 32.5538 135.588 32.5111 135.554 32.4756C135.519 32.4402 135.477 32.413 135.431 32.396C135.384 32.379 135.335 32.3727 135.285 32.3776ZM134.139 31.1821C134.24 31.1218 134.225 31.0165 134.215 30.9337C134.161 30.5253 133.76 28.7824 133.636 28.4255C133.631 28.3919 133.618 28.3599 133.599 28.3314C133.581 28.303 133.556 28.2786 133.528 28.2599C133.499 28.2413 133.467 28.2289 133.433 28.2234C133.399 28.2179 133.365 28.2193 133.332 28.2277C133.157 28.2615 132.931 28.3748 132.574 28.5895C132.217 28.8049 132.009 28.9537 131.899 29.0927C131.865 29.1309 131.843 29.1788 131.837 29.2297C131.831 29.2806 131.841 29.3322 131.865 29.3773C131.882 29.4079 131.905 29.4336 131.931 29.4545C132.194 29.7302 133.546 30.8983 133.883 31.1331C133.952 31.1813 134.037 31.2456 134.137 31.1837L134.139 31.1821ZM135.19 28.8789C135.293 28.9336 135.375 28.8652 135.44 28.8146C136.096 28.26 136.717 27.6658 137.3 27.0355C137.326 27.0134 137.347 26.9862 137.362 26.9554C137.377 26.9247 137.386 26.8912 137.387 26.857C137.388 26.8229 137.382 26.789 137.369 26.7572C137.357 26.7255 137.338 26.6965 137.314 26.6721C137.196 26.5411 136.982 26.402 136.615 26.2059C136.248 26.0105 136.014 25.9084 135.838 25.8835C135.804 25.8771 135.77 25.8776 135.736 25.885C135.703 25.8924 135.672 25.9066 135.644 25.9266C135.616 25.9466 135.593 25.9721 135.576 26.0015C135.558 26.0308 135.547 26.0635 135.543 26.0973C135.439 26.4607 135.13 28.2221 135.1 28.6329C135.094 28.7157 135.083 28.821 135.186 28.8773L135.19 28.8789ZM95.1222 32.3776H93.9405C93.8913 32.3732 93.8418 32.3798 93.7956 32.3969C93.7493 32.4141 93.7075 32.4413 93.673 32.4766C93.6386 32.512 93.6125 32.5545 93.5966 32.6012C93.5807 32.6479 93.5754 32.6976 93.5811 32.7466V37.3337C93.5753 37.3828 93.5805 37.4325 93.5963 37.4792C93.6122 37.526 93.6383 37.5686 93.6727 37.604C93.7072 37.6394 93.7491 37.6666 93.7954 37.6837C93.8417 37.7008 93.8913 37.7073 93.9405 37.7027H95.1222C95.1712 37.7069 95.2205 37.7001 95.2666 37.6828C95.3126 37.6656 95.3543 37.6383 95.3885 37.603C95.4228 37.5677 95.4487 37.5252 95.4645 37.4787C95.4803 37.4321 95.4856 37.3826 95.48 37.3337V32.7474C95.4858 32.6985 95.4806 32.6489 95.4648 32.6023C95.4491 32.5557 95.4231 32.5131 95.3889 32.4778C95.3546 32.4424 95.3129 32.4152 95.2668 32.398C95.2206 32.3808 95.1713 32.3741 95.1222 32.3784V32.3776ZM93.9758 31.1821C94.0771 31.1218 94.0602 31.0165 94.0498 30.9337C93.9983 30.5253 93.5964 28.7824 93.4734 28.4255C93.4673 28.392 93.4545 28.3601 93.4356 28.3318C93.4168 28.3034 93.3924 28.2792 93.3638 28.2607C93.3353 28.2422 93.3032 28.2297 93.2697 28.224C93.2361 28.2183 93.2017 28.2196 93.1687 28.2277C92.9942 28.2615 92.7667 28.3748 92.4106 28.5895C92.0545 28.8049 91.8462 28.9537 91.7353 29.0927C91.7125 29.1181 91.6952 29.1479 91.6844 29.1803C91.6736 29.2126 91.6697 29.2469 91.6728 29.2808C91.6759 29.3148 91.686 29.3477 91.7024 29.3776C91.7188 29.4075 91.7412 29.4337 91.7683 29.4545C92.0311 29.7302 93.3825 30.8983 93.7202 31.1331C93.7885 31.1813 93.8729 31.2456 93.9734 31.1837L93.9758 31.1821ZM95.0266 28.8789C95.1303 28.9336 95.2115 28.8652 95.2766 28.8146C95.9323 28.26 96.5536 27.6659 97.1368 27.0355C97.1629 27.0134 97.1841 26.986 97.199 26.9552C97.214 26.9244 97.2223 26.8909 97.2235 26.8567C97.2247 26.8225 97.2188 26.7884 97.2061 26.7566C97.1934 26.7248 97.1742 26.6961 97.1497 26.6721C97.0331 26.5411 96.8193 26.402 96.4503 26.2059C96.0813 26.0105 95.8506 25.9084 95.6745 25.8835C95.6239 25.8737 95.5716 25.8797 95.5246 25.9007C95.4775 25.9217 95.4381 25.9567 95.4116 26.0009C95.3944 26.0305 95.3834 26.0633 95.3795 26.0973C95.275 26.4607 94.9671 28.2221 94.9373 28.6329C94.9301 28.7157 94.9196 28.821 95.0233 28.8773L95.0266 28.8789ZM104.83 37.6963H103.77C103.72 37.7018 103.67 37.696 103.622 37.6794C103.575 37.6627 103.532 37.6356 103.497 37.6001C103.461 37.5646 103.434 37.5216 103.418 37.4742C103.401 37.4268 103.395 37.3764 103.401 37.3265V35.7637C103.391 35.4453 103.257 35.1434 103.029 34.9219C102.8 34.7004 102.494 34.5767 102.175 34.5771C101.857 34.5771 101.551 34.7009 101.322 34.9223C101.093 35.1437 100.959 35.4454 100.948 35.7637V37.3273C100.954 37.3771 100.948 37.4275 100.931 37.4748C100.914 37.5221 100.887 37.565 100.852 37.6004C100.816 37.6358 100.773 37.6628 100.726 37.6794C100.679 37.696 100.628 37.7018 100.578 37.6963H99.5205C99.4706 37.7018 99.4201 37.696 99.3727 37.6793C99.3254 37.6627 99.2824 37.6356 99.2469 37.6001C99.2114 37.5646 99.1843 37.5216 99.1676 37.4743C99.151 37.4269 99.1452 37.3764 99.1507 37.3265V29.5397C99.1456 29.4899 99.1518 29.4396 99.1686 29.3925C99.1854 29.3453 99.2125 29.3025 99.2479 29.2671C99.2833 29.2317 99.3261 29.2046 99.3732 29.1878C99.4204 29.171 99.4707 29.1649 99.5205 29.1699H100.578C100.628 29.1649 100.679 29.171 100.726 29.1878C100.773 29.2046 100.816 29.2317 100.851 29.2671C100.886 29.3025 100.914 29.3453 100.93 29.3925C100.947 29.4396 100.953 29.4899 100.948 29.5397V32.8422C100.948 32.8762 100.955 32.9098 100.969 32.9411C100.982 32.9723 101.002 33.0005 101.026 33.024C101.051 33.0475 101.08 33.0658 101.111 33.0778C101.143 33.0898 101.177 33.0953 101.211 33.0939C101.308 33.0792 101.401 33.0429 101.482 32.9877C101.563 32.9325 101.631 32.8597 101.681 32.7747L103.105 30.6749C103.276 30.4369 103.425 30.3211 103.66 30.3211H104.902C105.164 30.3211 105.305 30.5398 105.154 30.7745L103.558 32.9419C103.473 33.073 103.456 33.1935 103.658 33.2948C104.122 33.5197 104.512 33.8704 104.785 34.3069C105.059 34.7434 105.203 35.2479 105.203 35.7629V37.3265C105.209 37.3768 105.203 37.4277 105.186 37.4754C105.169 37.523 105.142 37.5663 105.106 37.6019C105.07 37.6374 105.026 37.6644 104.979 37.6808C104.931 37.6971 104.88 37.7024 104.83 37.6963ZM110.782 30.1491C109.065 30.1491 107.919 31.3895 107.919 32.8044V35.1575C107.919 36.5724 109.065 37.8129 110.782 37.8129C112.346 37.8129 112.946 37.0733 113.251 36.4583C113.295 36.3805 113.31 36.2896 113.292 36.2022C113.274 36.1147 113.226 36.0364 113.156 35.9815L112.409 35.4887C112.374 35.4596 112.332 35.4384 112.288 35.4266C112.244 35.4147 112.198 35.4125 112.153 35.4202C112.107 35.4278 112.064 35.445 112.027 35.4707C111.989 35.4965 111.957 35.53 111.933 35.5691C111.631 36.0764 111.276 36.3023 110.782 36.3023C110.552 36.3088 110.327 36.2453 110.134 36.1202C109.942 35.9951 109.792 35.8144 109.705 35.6021C109.647 35.4611 109.618 35.3099 109.62 35.1575V34.8713C109.618 34.8478 109.621 34.8241 109.629 34.8018C109.636 34.7796 109.649 34.7594 109.666 34.7427C109.683 34.7257 109.704 34.7128 109.726 34.7049C109.749 34.6969 109.772 34.6945 109.796 34.6969H112.946C113.391 34.6969 113.645 34.442 113.645 33.9975V32.8036C113.643 31.3887 112.498 30.1483 110.782 30.1483V30.1491ZM111.942 33.0906C111.944 33.1142 111.941 33.1379 111.933 33.1602C111.926 33.1825 111.913 33.2027 111.896 33.2195C111.879 33.2363 111.859 33.2491 111.837 33.2571C111.815 33.2652 111.791 33.2682 111.767 33.2659H109.799C109.775 33.2683 109.751 33.2654 109.728 33.2575C109.706 33.2496 109.685 33.2368 109.668 33.2201C109.652 33.2034 109.639 33.183 109.631 33.1606C109.623 33.1382 109.62 33.1143 109.623 33.0906V32.8036C109.623 32.4958 109.745 32.2005 109.963 31.9828C110.18 31.7651 110.476 31.6428 110.783 31.6428C111.091 31.6428 111.387 31.7651 111.604 31.9828C111.822 32.2005 111.944 32.4958 111.944 32.8036L111.942 33.0898V33.0906ZM119.58 30.4522C120.311 30.4522 120.609 30.9345 120.925 31.4643C121.041 31.6476 121.24 31.6637 121.423 31.5479L122.202 31.0334C122.402 30.9024 122.352 30.6515 122.302 30.535C121.987 29.7214 121.058 28.8749 119.58 28.8749C117.786 28.8749 116.591 30.17 116.591 31.6484V35.041C116.591 36.5186 117.786 37.8129 119.58 37.8129C121.058 37.8129 121.987 36.9663 122.302 36.1528C122.352 36.037 122.402 35.7878 122.202 35.6543L121.423 35.1398C121.385 35.1099 121.342 35.0881 121.296 35.0759C121.25 35.0637 121.202 35.0614 121.155 35.0691C121.108 35.0771 121.063 35.095 121.023 35.1216C120.984 35.1482 120.95 35.1829 120.925 35.2234C120.609 35.7548 120.311 36.2356 119.58 36.2356C119.421 36.2395 119.263 36.2114 119.116 36.1529C118.968 36.0945 118.834 36.0069 118.721 35.8954C118.608 35.7839 118.518 35.6508 118.458 35.504C118.397 35.3572 118.367 35.1997 118.368 35.041V31.6484C118.366 31.4893 118.396 31.3315 118.456 31.1843C118.517 31.0371 118.606 30.9037 118.72 30.7922C118.833 30.6805 118.967 30.5928 119.115 30.5343C119.263 30.4759 119.421 30.448 119.58 30.4522ZM127.519 30.2287C125.802 30.2287 124.657 31.4691 124.657 32.884V35.1575C124.657 36.5724 125.802 37.8129 127.519 37.8129C129.236 37.8129 130.381 36.5724 130.381 35.1575V32.884C130.381 31.4748 129.237 30.2287 127.519 30.2287ZM128.68 35.1575C128.673 35.3824 128.601 35.6003 128.472 35.7849C128.344 35.9694 128.164 36.1126 127.956 36.1969C127.747 36.2813 127.519 36.3032 127.298 36.2599C127.077 36.2167 126.874 36.1102 126.712 35.9534C126.496 35.744 126.369 35.4587 126.359 35.1575V32.884C126.37 32.5836 126.497 32.2993 126.713 32.0907C126.93 31.8821 127.219 31.7656 127.519 31.7656C127.82 31.7656 128.109 31.8821 128.325 32.0907C128.542 32.2993 128.669 32.5836 128.68 32.884V35.1575ZM142.239 30.2343C141.727 30.2317 141.223 30.3648 140.779 30.6202C140.759 30.6323 140.737 30.6402 140.714 30.6436C140.691 30.6469 140.668 30.6455 140.646 30.6395C140.624 30.6329 140.603 30.6219 140.586 30.6071C140.568 30.5923 140.553 30.574 140.543 30.5535C140.51 30.504 140.465 30.4641 140.412 30.4376C140.358 30.4111 140.299 30.3989 140.24 30.4023H139.584C139.534 30.3969 139.484 30.4027 139.437 30.4194C139.389 30.4361 139.347 30.4633 139.311 30.4988C139.276 30.5344 139.249 30.5774 139.233 30.6247C139.216 30.6719 139.21 30.7223 139.215 30.7721V37.3353C139.21 37.3851 139.216 37.4353 139.233 37.4824C139.249 37.5295 139.276 37.5724 139.311 37.6079C139.347 37.6434 139.389 37.6705 139.437 37.6872C139.484 37.7039 139.534 37.7098 139.584 37.7043H140.642C140.717 37.7126 140.793 37.6951 140.857 37.6549C140.921 37.6146 140.969 37.5538 140.994 37.4825C141.011 37.4354 141.017 37.3851 141.012 37.3353V33.0392C141.012 32.714 141.141 32.4022 141.371 32.1723C141.601 31.9424 141.913 31.8132 142.238 31.8132C142.563 31.8132 142.875 31.9424 143.105 32.1723C143.334 32.4022 143.464 32.714 143.464 33.0392V37.3337C143.458 37.3836 143.463 37.4342 143.48 37.4816C143.496 37.529 143.523 37.5719 143.559 37.6071C143.595 37.6422 143.638 37.669 143.685 37.6855C143.733 37.7021 143.783 37.708 143.833 37.7027H144.891C144.966 37.711 145.041 37.6935 145.105 37.6532C145.169 37.613 145.218 37.5522 145.243 37.4809C145.259 37.4337 145.265 37.3835 145.26 37.3337V33.0392C145.262 31.5439 144.053 30.2343 142.239 30.2343Z" fill="white"/>
<path fill-rule="evenodd" clip-rule="evenodd" d="M74.5174 31.9999C74.5174 46.2076 62.9996 57.7254 48.7919 57.7254C34.5842 57.7254 23.0664 46.2076 23.0664 31.9999C23.0664 17.7922 34.5842 6.27441 48.7919 6.27441C62.9996 6.27441 74.5174 17.7922 74.5174 31.9999ZM24.6738 32C24.6738 45.2985 35.493 56.1176 48.7914 56.1176C62.0899 56.1176 72.9091 45.2985 72.9091 32C72.9091 18.7015 62.0899 7.88235 48.7914 7.88235C35.493 7.88235 24.6738 18.7015 24.6738 32ZM26.7158 32C26.7158 19.8286 36.6185 9.92431 48.7914 9.92431H48.7922C60.9636 9.92431 70.8671 19.8278 70.8671 32C70.8671 44.1722 60.9628 54.0757 48.7914 54.0757C36.6185 54.0757 26.7158 44.1714 26.7158 32ZM52.8951 32.7123C53.1668 32.9671 53.4827 32.857 53.7746 32.5812C55.7619 30.6872 57.8665 27.7135 58.5692 26.17C58.7187 25.8404 59.0218 25.6563 59.3474 25.7865C59.7292 25.9417 59.7244 26.5985 59.3779 27.3131C58.459 29.2024 57.1856 31.2845 54.6709 33.8892C54.6179 33.9392 54.5758 33.9998 54.5475 34.0669C54.5191 34.1341 54.505 34.2065 54.5062 34.2794C54.5073 34.3523 54.5236 34.4242 54.554 34.4904C54.5845 34.5567 54.6284 34.6159 54.683 34.6642C54.9049 34.8636 55.2642 34.8507 55.6011 34.5082C56.9075 33.1761 57.7869 32.1455 58.5434 31.0755C58.7364 30.7949 58.9695 30.6816 59.1994 30.733C59.5298 30.7989 59.5821 31.1165 59.4808 31.4984C59.3176 32.1158 57.5819 34.386 56.8954 35.1562C55.0319 37.2359 53.1668 38.3751 49.5797 40.2402C48.3272 40.8962 47.3906 41.5136 46.8231 42.4711C46.3078 43.3425 46.1526 43.6279 46.0995 43.7381C45.9985 43.943 45.982 44.1794 46.0536 44.3964C46.1252 44.6133 46.2791 44.7935 46.4822 44.8981C46.5857 44.9477 46.6983 44.9756 46.813 44.9801C46.9277 44.9847 47.0421 44.9658 47.1493 44.9247C47.2564 44.8835 47.354 44.8209 47.4362 44.7408C47.5183 44.6606 47.5832 44.5645 47.627 44.4584L47.6269 44.4573C47.626 44.4482 47.6244 44.4324 48.2749 43.3329C48.7815 42.5177 49.5165 41.8694 50.3885 41.4686C53.9764 39.8334 55.4467 38.5391 57.5281 36.4577C58.4783 35.5067 59.7911 33.4712 60.1529 32.869C61.1562 31.1808 60.6296 29.7337 59.7244 29.4877C59.6978 29.4815 59.6744 29.466 59.6582 29.4441C59.642 29.4222 59.6341 29.3952 59.636 29.368C59.6373 29.3501 59.6428 29.3327 59.652 29.3173C60.3531 28.1163 60.6714 27.2866 60.8041 26.6435C60.9825 25.7696 60.7349 24.7092 59.5355 24.4504C59.5129 24.4449 59.4925 24.4327 59.4769 24.4155C59.4613 24.3983 59.4512 24.3769 59.4478 24.3539C59.4457 24.3383 59.4468 24.3224 59.4511 24.3073C59.5138 24.0747 59.5765 23.7917 59.6254 23.5709L59.652 23.4511C59.9037 22.316 59.1858 21.2886 58.324 21.1036C58.0459 21.0415 57.7577 21.0394 57.4787 21.0976C57.1998 21.1559 56.9365 21.273 56.7065 21.4413C56.6743 21.4628 56.6354 21.4719 56.597 21.467C56.5586 21.4622 56.5233 21.4436 56.4975 21.4148C56.3844 21.2881 56.2468 21.1858 56.093 21.1139C55.9392 21.042 55.7724 21.0022 55.6027 20.9967C54.851 20.9839 54.1114 21.2146 53.5712 22.3698C53.1837 23.1955 52.6073 24.3049 50.9198 26.1764C49.3538 27.9129 47.1736 29.6059 45.8286 30.4894C45.5923 30.6446 45.2619 30.6076 45.3037 30.2909C45.3239 30.1284 45.3937 29.667 45.4821 29.0831L45.4822 29.0825L45.4823 29.0823C45.6681 27.855 45.9359 26.0864 45.9974 25.4111C46.1478 23.7928 45.2771 23.0483 44.3012 22.9173C43.4972 22.808 42.2777 23.0395 41.6096 24.8692C41.5265 25.0955 41.4248 25.3523 41.3094 25.6435L41.3094 25.6436L41.3094 25.6436C40.8779 26.7328 40.2563 28.3018 39.7108 30.5409C39.2236 32.537 39.144 34.8644 39.5886 37.5374C39.6167 37.6987 39.5853 37.8647 39.5001 38.0045C39.3788 38.2045 39.2445 38.419 39.1044 38.6427C38.6301 39.4002 38.0888 40.2648 37.7524 41.0417C37.6655 41.2369 37.6541 41.4574 37.7203 41.6605C37.7865 41.8636 37.9257 42.035 38.111 42.1415C38.212 42.1968 38.3232 42.2308 38.4378 42.2416C38.5524 42.2523 38.6681 42.2394 38.7776 42.2038C38.887 42.1682 38.9881 42.1106 39.0745 42.0344C39.1609 41.9583 39.2308 41.8653 39.2799 41.7612C39.4805 41.3441 39.8336 40.6461 40.0837 40.152L40.0839 40.1515C40.1615 39.9983 40.2291 39.8646 40.2791 39.7651L40.3264 39.6682L40.3265 39.6681C40.662 38.9801 40.8864 38.5198 40.9802 38.2256C41.0686 37.9442 41.1217 37.6186 40.9601 36.879C40.6867 35.6329 40.5911 33.2911 41.0991 31.2282C41.6532 29.0915 42.3282 26.988 43.121 24.9279C43.3252 24.423 43.6154 24.2655 43.9089 24.2912C44.2007 24.3177 44.7522 24.4584 44.593 25.4874C44.3458 27.1024 44.0079 29.1001 43.8379 30.1049L43.7754 30.475C43.7111 30.8617 43.6363 31.7677 44.3518 32.1809C44.9097 32.5041 45.5239 32.324 46.2024 31.8714C47.7299 30.8528 50.3619 28.7779 52.0156 26.9208C53.7505 24.9713 54.3036 23.8113 54.7489 22.7613C54.9531 22.2822 55.4757 22.2862 55.6606 22.3401C55.8455 22.3939 56.069 22.6432 55.9114 23.1705C55.5263 24.452 53.9418 27.3863 50.8893 30.1389C50.5436 30.4517 50.5927 30.8198 50.7687 31.0128C50.9448 31.2057 51.2559 31.3215 51.6112 31.0128C54.3542 28.6734 55.9202 25.8781 56.6237 24.3836C56.8584 23.8852 57.0594 23.3723 57.225 22.8482C57.3745 22.414 57.709 22.2589 57.9429 22.3071C58.2765 22.3779 58.4976 22.7203 58.3907 23.2839C58.22 24.0042 57.9693 24.7031 57.643 25.3677C56.7644 27.2344 54.9073 29.7329 52.9047 31.8762C52.8457 31.9284 52.7983 31.9924 52.7656 32.0641C52.7329 32.1358 52.7155 32.2135 52.7147 32.2923C52.7138 32.3711 52.7295 32.4491 52.7607 32.5215C52.792 32.5938 52.838 32.6588 52.8959 32.7123H52.8951ZM40.493 23.4173C40.5961 23.3267 40.5596 23.2119 40.5294 23.1169L40.5268 23.1086C40.3804 22.6375 39.5387 20.6663 39.3185 20.27C39.2067 20.0706 39.066 20.0433 38.9157 20.1012C38.7171 20.1767 38.4719 20.3632 38.0957 20.688C37.7211 21.0144 37.5088 21.2371 37.4075 21.4236C37.3296 21.5667 37.3392 21.7098 37.5225 21.8449C37.8867 22.1158 39.7317 23.2059 40.1803 23.4206L40.1875 23.4239C40.2771 23.4652 40.3873 23.516 40.4906 23.4206L40.493 23.4173ZM55.7032 40.8689C55.5686 40.8774 55.527 40.9909 55.494 41.0811L55.4901 41.0915C55.3213 41.5562 54.7907 43.6344 54.7264 44.0829C54.6935 44.308 54.7875 44.415 54.9427 44.4608C55.1461 44.5211 55.4516 44.5251 55.9508 44.4913C56.4492 44.4576 56.7499 44.4142 56.9444 44.3257C57.0924 44.2606 57.1711 44.1408 57.1084 43.9214C56.9838 43.4872 56.1807 41.4983 55.9508 41.0602L55.9493 41.0572C55.9037 40.9693 55.8463 40.8585 55.708 40.8689H55.704H55.7032ZM56.9034 39.9058C56.8401 40.0285 56.9179 40.1239 56.9809 40.2012L56.9838 40.2048C57.2917 40.5907 58.7927 42.1222 59.1416 42.4108C59.3168 42.5563 59.4575 42.5314 59.5773 42.4228C59.7348 42.2797 59.8972 42.0209 60.1272 41.5771C60.3563 41.1342 60.4761 40.8536 60.5026 40.643C60.5235 40.4822 60.4624 40.3535 60.2397 40.2925C59.8032 40.1735 57.6873 39.8254 57.1928 39.7948L57.1846 39.7943C57.087 39.7878 56.9659 39.7798 56.9018 39.9026L56.9034 39.9058ZM39.7654 24.7036C39.742 24.5685 39.6229 24.5396 39.5284 24.5167L39.5202 24.5147C39.0403 24.3965 36.9163 24.0967 36.4637 24.0806C36.2362 24.0725 36.1389 24.1786 36.11 24.3427C36.0722 24.5517 36.102 24.8556 36.1904 25.3476C36.2788 25.8379 36.3544 26.1346 36.4621 26.3179C36.5449 26.457 36.6719 26.5229 36.8826 26.4377C37.3022 26.2656 39.1906 25.2559 39.5998 24.9753L39.6085 24.9695C39.6906 24.9144 39.7903 24.8476 39.7654 24.7133V24.7036ZM48.7911 52.2154C48.8936 52.2187 48.9958 52.2014 49.0915 52.1645C49.1872 52.1275 49.2745 52.0717 49.3482 52.0004C49.4219 51.929 49.4805 51.8435 49.5205 51.7491C49.5606 51.6546 49.5812 51.5531 49.5812 51.4505C49.5812 51.3479 49.5606 51.2463 49.5205 51.1519C49.4805 51.0574 49.4219 50.972 49.3482 50.9006C49.2745 50.8293 49.1872 50.7734 49.0915 50.7365C48.9958 50.6996 48.8936 50.6822 48.7911 50.6856C48.5925 50.692 48.4042 50.7754 48.266 50.9182C48.1278 51.0609 48.0505 51.2518 48.0505 51.4505C48.0505 51.6492 48.1278 51.8401 48.266 51.9828C48.4042 52.1256 48.5925 52.209 48.7911 52.2154ZM48.7911 13.3153C48.994 13.3153 49.1887 13.2346 49.3322 13.0911C49.4758 12.9476 49.5564 12.7529 49.5564 12.5499C49.5564 12.3469 49.4758 12.1523 49.3322 12.0088C49.1887 11.8652 48.994 11.7846 48.7911 11.7846C48.5881 11.7846 48.3934 11.8652 48.2499 12.0088C48.1064 12.1523 48.0257 12.3469 48.0257 12.5499C48.0257 12.7529 48.1064 12.9476 48.2499 13.0911C48.3934 13.2346 48.5881 13.3153 48.7911 13.3153ZM53.8252 51.553C53.9257 51.553 54.0252 51.5332 54.1181 51.4947C54.211 51.4563 54.2953 51.3999 54.3664 51.3288C54.4375 51.2578 54.4938 51.1734 54.5323 51.0805C54.5708 50.9877 54.5906 50.8882 54.5906 50.7877C54.5906 50.6871 54.5708 50.5876 54.5323 50.4948C54.4938 50.4019 54.4375 50.3175 54.3664 50.2465C54.2953 50.1754 54.211 50.119 54.1181 50.0806C54.0252 50.0421 53.9257 50.0223 53.8252 50.0223C53.6222 50.0223 53.4276 50.103 53.284 50.2465C53.1405 50.39 53.0599 50.5847 53.0599 50.7877C53.0599 50.9906 53.1405 51.1853 53.284 51.3288C53.4276 51.4724 53.6222 51.553 53.8252 51.553ZM43.7569 13.9777C43.9599 13.9777 44.1546 13.8971 44.2981 13.7535C44.4416 13.61 44.5222 13.4153 44.5222 13.2124C44.5222 13.0094 44.4416 12.8147 44.2981 12.6712C44.1546 12.5277 43.9599 12.447 43.7569 12.447C43.5539 12.447 43.3593 12.5277 43.2157 12.6712C43.0722 12.8147 42.9916 13.0094 42.9916 13.2124C42.9916 13.4153 43.0722 13.61 43.2157 13.7535C43.3593 13.8971 43.5539 13.9777 43.7569 13.9777ZM58.5169 49.6099C58.6194 49.6132 58.7216 49.5959 58.8173 49.559C58.913 49.522 59.0003 49.4662 59.074 49.3948C59.1478 49.3235 59.2064 49.238 59.2464 49.1436C59.2864 49.0491 59.307 48.9476 59.307 48.845C59.307 48.7424 59.2864 48.6408 59.2464 48.5464C59.2064 48.4519 59.1478 48.3665 59.074 48.2951C59.0003 48.2237 58.913 48.1679 58.8173 48.131C58.7216 48.094 58.6194 48.0767 58.5169 48.08C58.3183 48.0865 58.13 48.1699 57.9918 48.3126C57.8536 48.4554 57.7764 48.6463 57.7764 48.845C57.7764 49.0437 57.8536 49.2346 57.9918 49.3773C58.13 49.5201 58.3183 49.6035 58.5169 49.6099ZM39.066 15.92C39.1686 15.9233 39.2707 15.906 39.3664 15.869C39.4621 15.8321 39.5494 15.7763 39.6232 15.7049C39.6969 15.6335 39.7555 15.5481 39.7955 15.4536C39.8355 15.3592 39.8562 15.2576 39.8562 15.155C39.8562 15.0524 39.8355 14.9509 39.7955 14.8564C39.7555 14.762 39.6969 14.6765 39.6232 14.6052C39.5494 14.5338 39.4621 14.478 39.3664 14.441C39.2707 14.4041 39.1686 14.3868 39.066 14.3901C38.8674 14.3965 38.6792 14.48 38.541 14.6227C38.4028 14.7655 38.3255 14.9563 38.3255 15.155C38.3255 15.3537 38.4028 15.5446 38.541 15.6874C38.6792 15.8301 38.8674 15.9135 39.066 15.92ZM62.5446 46.5188C62.6471 46.5222 62.7493 46.5048 62.845 46.4679C62.9407 46.4309 63.028 46.3751 63.1017 46.3038C63.1754 46.2324 63.234 46.147 63.274 46.0525C63.3141 45.958 63.3347 45.8565 63.3347 45.7539C63.3347 45.6513 63.3141 45.5498 63.274 45.4553C63.234 45.3608 63.1754 45.2754 63.1017 45.204C63.028 45.1327 62.9407 45.0769 62.845 45.0399C62.7493 45.003 62.6471 44.9856 62.5446 44.989C62.346 44.9954 62.1577 45.0788 62.0195 45.2216C61.8813 45.3643 61.804 45.5552 61.804 45.7539C61.804 45.9526 61.8813 46.1435 62.0195 46.2862C62.1577 46.429 62.346 46.5124 62.5446 46.5188ZM35.0368 19.011C35.1393 19.0144 35.2415 18.997 35.3372 18.9601C35.4329 18.9232 35.5202 18.8673 35.5939 18.796C35.6676 18.7246 35.7262 18.6392 35.7663 18.5447C35.8063 18.4502 35.8269 18.3487 35.8269 18.2461C35.8269 18.1435 35.8063 18.042 35.7663 17.9475C35.7262 17.853 35.6676 17.7676 35.5939 17.6962C35.5202 17.6249 35.4329 17.5691 35.3372 17.5321C35.2415 17.4952 35.1393 17.4779 35.0368 17.4812C34.8382 17.4876 34.6499 17.571 34.5117 17.7138C34.3735 17.8565 34.2962 18.0474 34.2962 18.2461C34.2962 18.4448 34.3735 18.6357 34.5117 18.7784C34.6499 18.9212 34.8382 19.0046 35.0368 19.011ZM67.5787 37.7987C67.7817 37.7987 67.9764 37.7181 68.1199 37.5745C68.2634 37.431 68.344 37.2363 68.344 37.0334C68.344 36.8304 68.2634 36.6357 68.1199 36.4922C67.9764 36.3487 67.7817 36.268 67.5787 36.268C67.3757 36.268 67.1811 36.3487 67.0375 36.4922C66.894 36.6357 66.8134 36.8304 66.8134 37.0334C66.8134 37.2363 66.894 37.431 67.0375 37.5745C67.1811 37.7181 67.3757 37.7987 67.5787 37.7987ZM65.6356 42.4912C65.7361 42.4912 65.8357 42.4714 65.9285 42.4329C66.0214 42.3945 66.1057 42.3381 66.1768 42.267C66.2479 42.1959 66.3042 42.1116 66.3427 42.0187C66.3812 41.9259 66.401 41.8264 66.401 41.7258C66.401 41.6253 66.3812 41.5258 66.3427 41.433C66.3042 41.3401 66.2479 41.2557 66.1768 41.1847C66.1057 41.1136 66.0214 41.0572 65.9285 41.0188C65.8357 40.9803 65.7361 40.9605 65.6356 40.9605C65.4327 40.9605 65.238 41.0411 65.0945 41.1847C64.9509 41.3282 64.8703 41.5229 64.8703 41.7258C64.8703 41.9288 64.9509 42.1235 65.0945 42.267C65.238 42.4105 65.4327 42.4912 65.6356 42.4912ZM31.9457 23.0395C32.1487 23.0395 32.3433 22.9589 32.4869 22.8153C32.6304 22.6718 32.711 22.4771 32.711 22.2742C32.711 22.0712 32.6304 21.8765 32.4869 21.733C32.3433 21.5895 32.1487 21.5088 31.9457 21.5088C31.7427 21.5088 31.548 21.5895 31.4045 21.733C31.261 21.8765 31.1804 22.0712 31.1804 22.2742C31.1804 22.4771 31.261 22.6718 31.4045 22.8153C31.548 22.9589 31.7427 23.0395 31.9457 23.0395ZM30.0034 27.7312C30.106 27.7345 30.2081 27.7172 30.3038 27.6802C30.3995 27.6433 30.4868 27.5875 30.5606 27.5161C30.6343 27.4448 30.6929 27.3593 30.7329 27.2648C30.7729 27.1704 30.7936 27.0688 30.7936 26.9662C30.7936 26.8637 30.7729 26.7621 30.7329 26.6676C30.6929 26.5732 30.6343 26.4877 30.5606 26.4164C30.4868 26.345 30.3995 26.2892 30.3038 26.2523C30.2081 26.2153 30.106 26.198 30.0034 26.2013C29.8004 26.2013 29.6058 26.2819 29.4622 26.4255C29.3187 26.569 29.2381 26.7637 29.2381 26.9667C29.2381 27.1696 29.3187 27.3643 29.4622 27.5078C29.6058 27.6514 29.8004 27.732 30.0034 27.732V27.7312ZM68.2411 32.7653C68.4441 32.7653 68.6388 32.6847 68.7823 32.5412C68.9258 32.3976 69.0065 32.203 69.0065 32C69.0065 31.797 68.9258 31.6024 68.7823 31.4588C68.6388 31.3153 68.4441 31.2347 68.2411 31.2347C68.0382 31.2347 67.8435 31.3153 67.7 31.4588C67.5564 31.6024 67.4758 31.797 67.4758 32C67.4758 32.203 67.5564 32.3976 67.7 32.5412C67.8435 32.6847 68.0382 32.7653 68.2411 32.7653ZM29.3402 32.7653C29.5432 32.7653 29.7378 32.6847 29.8814 32.5412C30.0249 32.3976 30.1055 32.203 30.1055 32C30.1055 31.797 30.0249 31.6024 29.8814 31.4588C29.7378 31.3153 29.5432 31.2347 29.3402 31.2347C29.1372 31.2347 28.9425 31.3153 28.799 31.4588C28.6555 31.6024 28.5749 31.797 28.5749 32C28.5749 32.203 28.6555 32.3976 28.799 32.5412C28.9425 32.6847 29.1372 32.7653 29.3402 32.7653ZM67.5787 27.7312C67.6812 27.7345 67.7834 27.7172 67.8791 27.6802C67.9748 27.6433 68.0621 27.5875 68.1358 27.5161C68.2096 27.4448 68.2682 27.3593 68.3082 27.2648C68.3482 27.1704 68.3688 27.0688 68.3688 26.9662C68.3688 26.8637 68.3482 26.7621 68.3082 26.6676C68.2682 26.5732 68.2096 26.4877 68.1358 26.4164C68.0621 26.345 67.9748 26.2892 67.8791 26.2523C67.7834 26.2153 67.6812 26.198 67.5787 26.2013C67.3757 26.2013 67.1811 26.2819 67.0375 26.4255C66.894 26.569 66.8134 26.7637 66.8134 26.9667C66.8134 27.1696 66.894 27.3643 67.0375 27.5078C67.1811 27.6514 67.3757 27.732 67.5787 27.732V27.7312ZM30.0034 37.7987C30.2064 37.7987 30.4011 37.7181 30.5446 37.5745C30.6881 37.431 30.7688 37.2363 30.7688 37.0334C30.7688 36.8304 30.6881 36.6357 30.5446 36.4922C30.4011 36.3487 30.2064 36.268 30.0034 36.268C29.8004 36.268 29.6058 36.3487 29.4622 36.4922C29.3187 36.6357 29.2381 36.8304 29.2381 37.0334C29.2381 37.2363 29.3187 37.431 29.4622 37.5745C29.6058 37.7181 29.8004 37.7987 30.0034 37.7987ZM65.6356 23.0395C65.8386 23.0395 66.0333 22.9589 66.1768 22.8153C66.3203 22.6718 66.401 22.4771 66.401 22.2742C66.401 22.0712 66.3203 21.8765 66.1768 21.733C66.0333 21.5895 65.8386 21.5088 65.6356 21.5088C65.4327 21.5088 65.238 21.5895 65.0945 21.733C64.9509 21.8765 64.8703 22.0712 64.8703 22.2742C64.8703 22.4771 64.9509 22.6718 65.0945 22.8153C65.238 22.9589 65.4327 23.0395 65.6356 23.0395ZM31.9457 42.4912C32.0462 42.4912 32.1457 42.4714 32.2386 42.4329C32.3314 42.3945 32.4158 42.3381 32.4869 42.267C32.5579 42.1959 32.6143 42.1116 32.6528 42.0187C32.6912 41.9259 32.711 41.8264 32.711 41.7258C32.711 41.6253 32.6912 41.5258 32.6528 41.433C32.6143 41.3401 32.5579 41.2557 32.4869 41.1847C32.4158 41.1136 32.3314 41.0572 32.2386 41.0188C32.1457 40.9803 32.0462 40.9605 31.9457 40.9605C31.7427 40.9605 31.548 41.0411 31.4045 41.1847C31.261 41.3282 31.1804 41.5229 31.1804 41.7258C31.1804 41.9288 31.261 42.1235 31.4045 42.267C31.548 42.4105 31.7427 42.4912 31.9457 42.4912ZM62.5446 19.011C62.6471 19.0144 62.7493 18.997 62.845 18.9601C62.9407 18.9232 63.028 18.8673 63.1017 18.796C63.1754 18.7246 63.234 18.6392 63.274 18.5447C63.3141 18.4502 63.3347 18.3487 63.3347 18.2461C63.3347 18.1435 63.3141 18.042 63.274 17.9475C63.234 17.853 63.1754 17.7676 63.1017 17.6962C63.028 17.6249 62.9407 17.5691 62.845 17.5321C62.7493 17.4952 62.6471 17.4779 62.5446 17.4812C62.346 17.4876 62.1577 17.571 62.0195 17.7138C61.8813 17.8565 61.804 18.0474 61.804 18.2461C61.804 18.4448 61.8813 18.6357 62.0195 18.7784C62.1577 18.9212 62.346 19.0046 62.5446 19.011ZM35.0368 46.5188C35.1393 46.5222 35.2415 46.5048 35.3372 46.4679C35.4329 46.4309 35.5202 46.3751 35.5939 46.3038C35.6676 46.2324 35.7262 46.147 35.7663 46.0525C35.8063 45.958 35.8269 45.8565 35.8269 45.7539C35.8269 45.6513 35.8063 45.5498 35.7663 45.4553C35.7262 45.3608 35.6676 45.2754 35.5939 45.204C35.5202 45.1327 35.4329 45.0769 35.3372 45.0399C35.2415 45.003 35.1393 44.9856 35.0368 44.989C34.8382 44.9954 34.6499 45.0788 34.5117 45.2216C34.3735 45.3643 34.2962 45.5552 34.2962 45.7539C34.2962 45.9526 34.3735 46.1435 34.5117 46.2862C34.6499 46.429 34.8382 46.5124 35.0368 46.5188ZM58.5169 15.92C58.6194 15.9233 58.7216 15.906 58.8173 15.869C58.913 15.8321 59.0003 15.7763 59.074 15.7049C59.1478 15.6335 59.2064 15.5481 59.2464 15.4536C59.2864 15.3592 59.307 15.2576 59.307 15.155C59.307 15.0524 59.2864 14.9509 59.2464 14.8564C59.2064 14.762 59.1478 14.6765 59.074 14.6052C59.0003 14.5338 58.913 14.478 58.8173 14.441C58.7216 14.4041 58.6194 14.3868 58.5169 14.3901C58.3183 14.3965 58.13 14.48 57.9918 14.6227C57.8536 14.7655 57.7764 14.9563 57.7764 15.155C57.7764 15.3537 57.8536 15.5446 57.9918 15.6874C58.13 15.8301 58.3183 15.9135 58.5169 15.92ZM39.066 49.6099C39.1686 49.6132 39.2707 49.5959 39.3664 49.559C39.4621 49.522 39.5494 49.4662 39.6232 49.3948C39.6969 49.3235 39.7555 49.238 39.7955 49.1436C39.8355 49.0491 39.8562 48.9476 39.8562 48.845C39.8562 48.7424 39.8355 48.6408 39.7955 48.5464C39.7555 48.4519 39.6969 48.3665 39.6232 48.2951C39.5494 48.2237 39.4621 48.1679 39.3664 48.131C39.2707 48.094 39.1686 48.0767 39.066 48.08C38.8674 48.0865 38.6792 48.1699 38.541 48.3126C38.4028 48.4554 38.3255 48.6463 38.3255 48.845C38.3255 49.0437 38.4028 49.2346 38.541 49.3773C38.6792 49.5201 38.8674 49.6035 39.066 49.6099ZM53.8252 13.9777C54.0282 13.9777 54.2229 13.8971 54.3664 13.7535C54.5099 13.61 54.5906 13.4153 54.5906 13.2124C54.5906 13.0094 54.5099 12.8147 54.3664 12.6712C54.2229 12.5277 54.0282 12.447 53.8252 12.447C53.6222 12.447 53.4276 12.5277 53.284 12.6712C53.1405 12.8147 53.0599 13.0094 53.0599 13.2124C53.0599 13.4153 53.1405 13.61 53.284 13.7535C53.4276 13.8971 53.6222 13.9777 53.8252 13.9777ZM43.7569 51.553C43.8574 51.553 43.9569 51.5332 44.0498 51.4947C44.1426 51.4563 44.227 51.3999 44.2981 51.3288C44.3692 51.2578 44.4255 51.1734 44.464 51.0805C44.5024 50.9877 44.5222 50.8882 44.5222 50.7877C44.5222 50.6871 44.5024 50.5876 44.464 50.4948C44.4255 50.4019 44.3692 50.3175 44.2981 50.2465C44.227 50.1754 44.1426 50.119 44.0498 50.0806C43.9569 50.0421 43.8574 50.0223 43.7569 50.0223C43.5539 50.0223 43.3593 50.103 43.2157 50.2465C43.0722 50.39 42.9916 50.5847 42.9916 50.7877C42.9916 50.9906 43.0722 51.1853 43.2157 51.3288C43.3593 51.4724 43.5539 51.553 43.7569 51.553ZM46.806 27.473C46.9207 27.5522 47.0569 27.5945 47.1963 27.5943V27.5935C47.3633 27.5936 47.5248 27.5331 47.6505 27.4231C49.7479 25.5725 50.707 23.9944 50.8782 23.6961C51.0133 23.4606 51.3887 22.9227 51.9491 22.9967C52.1271 23.0169 52.3061 22.9666 52.4475 22.8565C52.589 22.7465 52.6817 22.5854 52.7059 22.4078C52.7301 22.2302 52.6837 22.0502 52.5768 21.9063C52.4699 21.7625 52.311 21.6662 52.134 21.6381C51.1733 21.5078 50.2584 22.0207 49.6884 23.0128C49.5365 23.2781 48.6795 24.6873 46.7421 26.3941C46.6375 26.4862 46.5635 26.608 46.5299 26.7433C46.4963 26.8786 46.5047 27.0209 46.554 27.1513C46.6034 27.2816 46.6913 27.3939 46.806 27.473ZM35.2575 39.0944C35.3728 39.1753 35.5102 39.2189 35.6512 39.219C35.8114 39.2193 35.9666 39.1629 36.0893 39.0598C36.804 38.5005 37.559 37.9948 38.3483 37.5469C38.5035 37.4613 38.6196 37.3191 38.6723 37.1499C38.725 36.9807 38.7103 36.7976 38.6312 36.6391C38.552 36.4805 38.4147 36.3587 38.2478 36.2991C38.0809 36.2395 37.8974 36.2467 37.7357 36.3193C36.8514 36.8137 36.0073 37.378 35.2114 38.0059C35.1033 38.0963 35.0257 38.2178 34.989 38.3539C34.9524 38.4899 34.9585 38.634 35.0065 38.7664C35.0545 38.8989 35.1421 39.0134 35.2575 39.0944Z" fill="white"/>
</g>
<defs>
<clipPath id="clip0">
<rect width="123" height="51.451" fill="white" transform="translate(23 6.27441)"/>
</clipPath>
</defs>
</svg>
