<svg width="169" height="64" viewBox="0 0 169 64" fill="none" xmlns="http://www.w3.org/2000/svg">
<path fill-rule="evenodd" clip-rule="evenodd" d="M43.2065 37.3103C43.2753 37.305 43.3388 37.305 43.4077 37.2997C48.2617 36.9715 51.6759 33.4514 53.1528 31.5987C53.2586 31.4664 53.2586 31.2811 53.1528 31.1435C51.6812 29.2908 48.2617 25.7654 43.4024 25.4266C43.3388 25.4213 43.2753 25.416 43.2065 25.416C42.2696 27.1946 41.7402 29.2167 41.7402 31.3658C41.7455 33.5096 42.2696 35.5317 43.2065 37.3103ZM48.3411 30.0424C48.394 30.0424 48.4417 30.0477 48.4946 30.053C49.2198 30.1377 49.7438 30.7994 49.6538 31.5246C49.5692 32.2498 48.9075 32.7738 48.1823 32.6838C47.5153 32.6044 47.0125 32.038 47.0125 31.3658C47.0125 30.6353 47.6106 30.0371 48.3411 30.0424Z" fill="white"/>
<path fill-rule="evenodd" clip-rule="evenodd" d="M54.5404 44.7943C61.607 44.7943 67.3345 39.0668 67.3345 32.0002C67.3345 24.9335 61.607 19.2061 54.5404 19.2061C50.7027 19.2061 47.262 20.8946 44.917 23.5731C47.516 24.0336 49.9563 25.1823 51.9784 26.9132C53.3811 28.0672 54.6251 29.4011 55.6784 30.8833L56.2766 31.7726C56.3666 31.9102 56.3666 32.0955 56.2766 32.2331L55.6837 33.1224C54.6357 34.6045 53.3917 35.9385 51.989 37.0924C49.9722 38.8286 47.5319 39.9773 44.9276 40.4325C47.262 43.1057 50.7027 44.7943 54.5404 44.7943Z" fill="white"/>
<path fill-rule="evenodd" clip-rule="evenodd" d="M31.8417 31.5567C31.7517 31.4455 31.7517 31.2867 31.8417 31.1755C34.8483 27.4278 38.993 25.2046 43.2066 25.4163C43.6777 24.5217 44.2494 23.6907 44.911 22.9337C44.4611 22.8543 44.0111 22.7961 43.5559 22.759C39.6018 22.5791 35.7376 23.9342 32.7574 26.5385C31.8575 27.2902 31.0265 28.116 30.2695 29.0158C30.2642 29.0211 30.2589 29.0264 30.2536 29.0264C30.206 29.0582 30.1372 29.0476 30.1054 29C29.2532 27.5019 28.5809 25.9033 28.1098 24.2412L28.1045 24.2147C27.9669 23.8654 27.6916 23.5901 27.3423 23.4578C27.0511 23.336 26.7229 23.3466 26.4371 23.4842C25.8919 23.7807 25.6007 24.4 25.7278 25.0087L25.7331 25.0246C26.3418 27.2002 27.2523 29.2752 28.4433 31.1914C28.5068 31.292 28.5068 31.419 28.4433 31.5196C27.2523 33.4411 26.3365 35.5267 25.7225 37.7023L25.7172 37.7287V37.7552C25.7172 38.3057 26.0348 38.8033 26.5324 39.0309C26.6806 39.0944 26.8447 39.1315 27.0035 39.1368C27.4376 39.1262 27.8346 38.9039 28.0728 38.5439L28.0886 38.5175L28.0992 38.491C28.5703 36.8236 29.2426 35.2197 30.1001 33.7164C30.1054 33.7111 30.1054 33.7058 30.1107 33.7005C30.1531 33.6581 30.2219 33.6581 30.2642 33.7005C31.0212 34.6004 31.8522 35.4367 32.7521 36.1884C35.5047 38.5757 39.0036 39.9255 42.6455 39.9996C42.9419 39.9996 43.2436 39.989 43.5453 39.9678C44.0006 39.9308 44.4558 39.8726 44.9004 39.7932C44.2388 39.0362 43.6618 38.1999 43.1907 37.3053C38.9877 37.5223 34.8483 35.3044 31.8417 31.5567Z" fill="white"/>
<path d="M76.7597 36.2807H78.463V32.8487H81.895V31.1454H78.463V27.7197H76.7597V31.1454H73.334V32.8487H76.7597V36.2807Z" fill="white"/>
<path d="M94.8485 28.7776C94.8485 33.9274 94.8426 34.3028 94.7429 34.6606C94.4731 35.6225 93.8221 36.256 92.8953 36.4496C92.0507 36.6314 91.1181 36.3205 90.3791 35.6108C90.1562 35.3938 89.9157 35.1122 89.857 34.9891C89.7925 34.8718 89.7104 34.7721 89.6693 34.7721C89.6283 34.7721 89.1004 35.2706 88.4904 35.8806L87.3818 36.995L87.5461 37.2179C88.3555 38.2854 89.9216 39.2122 91.4407 39.523C92.1504 39.6638 93.259 39.6814 93.9746 39.5524C95.916 39.2122 97.488 37.8279 98.0158 36.0038C98.0862 35.7633 98.1742 35.5111 98.2094 35.4466C98.2622 35.3586 98.2857 33.8336 98.2974 29.2996L98.315 23.2758H96.5788H94.8485V28.7776Z" fill="white"/>
<path d="M140.822 27.064L139.854 28.0436L139.127 27.6858C138.593 27.4218 138.224 27.2869 137.731 27.1696C137.103 27.023 137.004 27.0171 135.942 27.0406C134.951 27.0699 134.763 27.0875 134.306 27.2283C130.3 28.4307 128.382 32.5893 130.217 36.1144C130.352 36.3666 130.534 36.6775 130.628 36.8065L130.798 37.0294L129.707 38.1262L128.616 39.2172L129.355 39.968L130.094 40.7246L131.203 39.6219L132.311 38.5133L132.804 38.7832C133.385 39.094 134.083 39.3697 134.617 39.4987C135.127 39.6278 136.699 39.6747 137.233 39.5867C138.558 39.358 139.79 38.748 140.734 37.8388C142.359 36.2728 143.039 34.2081 142.617 32.0731C142.494 31.4279 142.118 30.5598 141.667 29.8853L141.403 29.4806L142.353 28.5304L143.303 27.5802L142.564 26.8529C142.159 26.4482 141.819 26.1138 141.808 26.1021C141.796 26.0963 141.356 26.5244 140.822 27.064ZM136.693 29.9322C137.145 30.0261 137.608 30.1903 137.608 30.249C137.608 30.2724 136.605 31.293 135.379 32.513C133.303 34.5777 133.138 34.7243 133.068 34.6187C132.804 34.2433 132.71 33.0996 132.892 32.4016C132.945 32.208 133.004 32.0321 133.027 32.0145C133.05 31.9969 133.15 31.8385 133.244 31.6684C133.731 30.7593 134.763 30.0378 135.76 29.9029C136.265 29.8384 136.253 29.8384 136.693 29.9322ZM139.391 32.5248C139.69 33.6685 139.268 35.0117 138.347 35.8622C137.362 36.783 136.083 37.0118 134.892 36.4839L134.546 36.3373L136.828 34.0556L139.104 31.7798L139.203 31.9734C139.256 32.079 139.344 32.3253 139.391 32.5248Z" fill="white"/>
<path d="M121.8 27.0639C121.372 27.1578 121.096 27.2516 120.657 27.4628C120.258 27.6563 120.052 27.803 119.648 28.2077L119.131 28.7121V27.9848V27.2634H117.401H115.671V33.3341V39.4048L117.389 39.3931L119.102 39.3755L119.131 35.5629L119.161 31.7504L119.36 31.3281C119.777 30.4307 120.633 29.9028 121.654 29.9028C122.375 29.9028 122.874 30.1198 123.319 30.6125C123.607 30.9293 123.712 31.1287 123.871 31.6331C123.947 31.8853 123.965 32.4777 123.982 35.6626L124.006 39.4048H125.648H127.284V35.3107C127.279 31.551 127.273 31.1815 127.173 30.6946C126.903 29.4101 126.381 28.5303 125.472 27.844C124.639 27.2106 124.029 27.0287 122.768 27.0346C122.299 27.0405 121.865 27.0522 121.8 27.0639Z" fill="white"/>
<path d="M101.301 31.4751C101.301 34.8887 101.318 35.7568 101.383 36.0794C101.43 36.2964 101.494 36.5076 101.524 36.5487C101.553 36.5897 101.612 36.7246 101.653 36.8537C102.01 37.9857 103.107 39.0415 104.351 39.4638C104.896 39.6515 106.204 39.6984 106.844 39.5518C107.806 39.3406 108.574 38.9007 109.155 38.2496L109.454 37.9094V38.6543V39.4051H111.155H112.856V33.3344V27.2637H111.155H109.454V30.7595C109.454 34.531 109.43 34.8829 109.16 35.4166C108.568 36.578 107.055 37.1 105.911 36.5369C105.213 36.1967 104.791 35.575 104.644 34.6835C104.609 34.484 104.585 32.8124 104.585 30.7947V27.2637H102.943H101.301V31.4751Z" fill="white"/>
</svg>
