<svg width="169" height="64" viewBox="0 0 169 64" fill="none" xmlns="http://www.w3.org/2000/svg">
<g clip-path="url(#clip0)">
<path d="M118.683 47.246C118.68 47.261 118.675 47.2752 118.666 47.2873C118.656 47.2994 118.645 47.3091 118.631 47.3154C118.617 47.3192 118.603 47.3193 118.589 47.3157C118.576 47.3121 118.563 47.3049 118.553 47.2948C118.535 47.2746 118.522 47.2507 118.514 47.2247C118.506 47.1988 118.503 47.1715 118.507 47.1446C118.513 47.0631 118.545 46.9858 118.599 46.9247C118.633 46.886 118.677 46.857 118.726 46.8408C118.776 46.8252 118.829 46.823 118.879 46.8345C118.93 46.8459 118.977 46.8706 119.015 46.906C119.06 46.9465 119.096 46.9962 119.12 47.0516C119.137 47.0867 119.15 47.1238 119.158 47.1621C119.177 47.2468 119.175 47.3347 119.154 47.4187C119.121 47.5462 119.059 47.6647 118.975 47.7655C118.941 47.8078 118.903 47.8473 118.863 47.8838C118.835 47.9111 118.808 47.9382 118.782 47.9645C118.727 48.0165 118.668 48.0699 118.605 48.1247C117.955 48.6789 117.173 49.0568 116.335 49.222C116.275 49.235 116.185 49.2548 116.065 49.2814C115.945 49.3018 115.795 49.3194 115.62 49.3441C115.419 49.3755 115.216 49.3959 115.013 49.4051C114.785 49.4155 114.531 49.4414 114.258 49.4308C112.86 49.4116 111.471 49.2028 110.129 48.8099C109.334 48.5882 108.498 48.3094 107.642 47.9818C106.786 47.6543 105.912 47.2853 105.015 46.9023C103.225 46.1369 101.363 45.3015 99.4821 44.584C97.6745 43.8658 95.8029 43.3207 93.8925 42.9559C92.2475 42.6492 90.5687 42.5648 88.9012 42.7051C87.7187 42.8075 86.5529 43.0523 85.4291 43.4341C85.2442 43.4984 85.0619 43.5618 84.8824 43.6242C84.7476 43.6762 84.6147 43.7277 84.4816 43.7783C84.2626 43.8586 84.1397 43.8898 84.1279 43.8648C84.1161 43.8398 84.2169 43.7585 84.4173 43.6272C84.5181 43.5624 84.6431 43.482 84.7941 43.396C84.9676 43.3072 85.1448 43.2174 85.3258 43.1265C86.4408 42.6069 87.6254 42.2521 88.8425 42.0733C90.5605 41.8183 92.3062 41.811 94.0263 42.0518C96.0072 42.336 97.9547 42.8172 99.8399 43.4882C101.778 44.1494 103.68 44.9298 105.48 45.6355C106.38 45.9878 107.259 46.329 108.091 46.6214C108.924 46.9139 109.729 47.158 110.483 47.3471C111.717 47.6757 112.99 47.8381 114.267 47.83C114.511 47.8355 114.729 47.8069 114.927 47.7941C115.102 47.7835 115.277 47.7627 115.45 47.7317L115.829 47.6732C115.932 47.6501 116.008 47.6321 116.057 47.6203C116.862 47.4446 117.581 47.2544 118.126 47.0988C118.195 47.0821 118.263 47.0674 118.327 47.0549C118.357 47.0484 118.387 47.0437 118.418 47.0408C118.432 47.043 118.445 47.0461 118.458 47.05C118.462 47.0513 118.465 47.0529 118.468 47.0546L118.492 47.0794L118.53 47.1159C118.566 47.1515 118.608 47.1808 118.654 47.2026C118.668 47.2099 118.683 47.2138 118.699 47.2139C118.693 47.2147 118.688 47.2161 118.682 47.2183L118.742 47.1952H118.744L118.749 47.1938L118.756 47.1908L118.768 47.1811C118.763 47.1961 118.763 47.212 118.766 47.2273C118.769 47.2492 118.776 47.2706 118.785 47.2907C118.763 47.2588 118.734 47.2327 118.7 47.2144C118.677 47.2065 118.673 47.2121 118.677 47.2093C118.686 47.2044 118.688 47.1959 118.696 47.1804C118.704 47.1649 118.7 47.1765 118.698 47.1834L118.692 47.204L118.683 47.246Z" fill="white"/>
<path d="M84.2467 43.5865C86.3429 42.6387 88.2079 41.4804 90.4597 40.8955C92.5924 40.3415 94.8039 40.1543 96.9994 40.3419C101.383 40.7205 105.43 42.6676 109.578 44.0715C113.339 45.3454 117.463 46.2097 121.339 45.1332C122.771 44.7356 124.751 43.9903 125.637 42.6598C126.41 41.5 125.849 39.763 124.887 38.886C123.904 37.9879 122.068 38.0004 121.574 39.4639C121.16 40.6909 122.406 41.9637 123.541 41.4115C123.612 41.3749 123.665 41.3131 123.692 41.2386C123.718 41.1641 123.716 41.0824 123.685 41.0097C123.653 40.937 123.596 40.8788 123.524 40.8467C123.451 40.8146 123.37 40.811 123.295 40.8366C122.439 41.1505 121.893 39.8067 122.524 39.2732C122.739 39.1034 123.001 39.0035 123.275 38.9869C123.549 38.9704 123.821 39.038 124.056 39.1807C124.827 39.6102 125.458 40.7328 125.295 41.6593C125.005 43.2969 122.23 44.1498 120.9 44.486C117.795 45.2719 114.468 44.8036 111.409 43.9062C105.408 42.1454 99.7717 39.0927 93.3893 39.8056C90.3014 40.1502 86.4809 41.1796 84.1559 43.4298C84.0865 43.4975 84.1519 43.6286 84.2467 43.5858V43.5865Z" fill="white"/>
<path d="M62.4192 11.7957C63.0209 10.9349 63.3437 9.91009 63.3438 8.85986C63.3271 8.24228 63.1155 7.64579 62.7393 7.15572C62.5532 6.92707 62.3163 6.74504 62.0474 6.62413C61.7785 6.50321 61.4851 6.44674 61.1905 6.45922C58.7776 6.45922 57.5541 8.71122 57.5541 13.1528C57.5548 13.7913 57.5896 14.4293 57.6586 15.0641L54.094 18.057C53.2361 17.3149 52.1092 16.9391 50.7407 16.9391C49.7303 16.9363 48.7331 17.1686 47.8281 17.6178C46.9392 18.0521 46.1505 18.6669 45.5125 19.4229C44.7995 20.3147 44.2187 21.3046 43.788 22.362C43.2445 23.678 42.9758 25.0912 42.9983 26.5148C42.9658 27.9928 43.2885 29.457 43.9392 30.7844C43.4347 32.3483 43.1858 33.9833 43.202 35.6264C43.1907 37.3933 43.7233 39.1208 44.7277 40.5745C45.7589 42.0803 47.0962 42.8441 48.7023 42.8441C48.7529 42.8452 48.8031 42.8357 48.8498 42.8164C48.8965 42.7971 48.9387 42.7682 48.9737 42.7317C49.0218 42.6734 49.0573 42.6058 49.078 42.5331C49.0987 42.4604 49.1041 42.3843 49.0939 42.3094C49.0708 41.8484 48.8121 41.7987 48.7023 41.7987C47.4737 41.7987 46.4945 41.2187 45.7087 40.0255C44.9101 38.8108 44.4923 37.3854 44.5088 35.9318C44.4962 34.6951 44.6304 33.4613 44.9087 32.2563C46.2215 33.7771 48.0927 34.5476 50.4784 34.5476C52.0954 34.5798 53.6997 34.2543 55.1763 33.5942C56.4663 33.0095 57.5744 32.0872 58.3835 30.9248C59.1624 29.7789 59.7439 28.5107 60.104 27.1727C60.4796 25.7862 60.6683 24.3558 60.6653 22.9193C60.6653 21.481 60.3669 18.753 59.7781 14.8103C60.7703 13.9092 61.6564 12.8978 62.4192 11.7957ZM62.0664 8.99071C62.0664 10.1433 61.2358 11.5777 59.5957 13.2585C59.5333 12.6204 59.5019 12.0872 59.5019 11.669C59.5019 9.04064 60.0703 7.70797 61.1914 7.70797C61.5671 7.70797 62.0664 7.84089 62.0664 8.99071ZM53.0766 18.9347C48.8498 22.5464 45.9903 25.9801 44.5656 29.154C44.3302 28.3342 44.2134 27.4848 44.2189 26.6318C44.2179 25.6371 44.3714 24.6482 44.674 23.7006C45.353 21.4773 46.4841 19.8758 48.0363 18.9409C48.8895 18.4358 49.8652 18.1753 50.8565 18.1878C51.7872 18.1878 52.5154 18.4324 53.0766 18.9347ZM48.5319 25.1787C50.1314 23.3011 51.8772 21.5534 53.753 19.9518C53.8803 20.3517 53.945 20.7687 53.9449 21.1883C53.9362 22.5042 53.4145 23.7648 52.4909 24.702C51.8411 25.424 51.1252 25.7901 50.3642 25.7901H50.0881L50.1365 26.0617C50.164 26.2871 50.2658 26.4969 50.4259 26.6579C50.5947 26.8013 50.8117 26.8749 51.0329 26.8639C51.9752 26.8765 52.8935 26.5665 53.6354 25.9855C54.3291 25.4667 54.8677 24.7681 55.193 23.9653C55.4953 23.147 55.6438 22.2798 55.631 21.4075C55.6374 20.5365 55.3812 19.6838 54.8957 18.9606L57.8016 16.5514C58.1213 19.9174 58.2834 21.9664 58.2834 22.6447C58.2834 25.5197 57.6773 27.9973 56.4817 30.0084C55.8814 31.0181 55.0214 31.8483 53.9911 32.4125C52.8497 33.0226 51.5703 33.3283 50.2763 33.3002C48.0141 33.3002 46.3927 32.4897 45.3199 30.8228C46.0319 28.7588 47.121 26.845 48.5319 25.1787Z" fill="white"/>
<path d="M66.7226 15.8587C67.0418 15.8385 67.3481 15.7249 67.6033 15.5319C67.8994 15.3695 68.1465 15.1308 68.319 14.8405C68.4915 14.5502 68.583 14.219 68.5841 13.8814C68.5841 12.895 68.0196 12.7487 67.6826 12.7487C67.461 12.7453 67.244 12.8117 67.0622 12.9385C66.8805 13.0653 66.7432 13.246 66.6698 13.4551C66.503 13.8346 66.3764 14.2305 66.2921 14.6363C66.2228 14.9699 66.1395 15.0192 66.14 15.0194H65.8203L65.9475 15.404C66.0101 15.6107 66.195 15.8587 66.7226 15.8587Z" fill="white"/>
<path d="M77.4942 6.45996C76.7714 6.45996 76.0975 6.78821 75.4914 7.4357C74.8674 8.12465 74.3618 8.91217 73.9951 9.7663C72.9694 11.9677 71.9867 15.9532 71.0718 21.6098L70.7909 22.1796H70.3041C70.2156 22.1796 69.9271 22.2161 69.9271 22.6882C69.9271 23.1403 70.191 23.1917 70.2907 23.1951L70.0958 23.5904C69.4088 24.973 68.6264 26.306 67.7541 27.5799C66.6228 29.2392 66.0571 29.487 65.8207 29.487C65.712 29.487 65.3814 29.487 65.3814 28.4814C65.3962 27.541 65.5022 26.6042 65.6981 25.6843C65.8197 25.0179 65.924 24.4873 66.0171 24.0615C66.1128 23.6207 66.2483 23.0444 66.4228 22.3509C66.5951 21.6625 66.7234 21.1257 66.8031 20.7559C66.8814 20.4006 66.9222 20.0381 66.9249 19.6743C66.9307 19.3653 66.8878 19.0574 66.7978 18.7618C66.5634 18.0018 66.1369 17.8423 65.8204 17.8423C65.5641 17.8423 65.2261 17.9791 65.0717 18.6282C65.01 18.8774 64.9503 19.1403 64.8951 19.4093C64.8405 19.6733 64.788 19.8987 64.739 20.0774C64.6916 20.2466 64.6304 20.4903 64.5479 20.8402C63.7515 23.9871 63.3477 26.298 63.3477 27.7093C63.3477 30.21 64.6445 30.7348 65.7323 30.7348C66.2488 30.7348 66.8221 30.4024 67.4848 29.7177C68.1189 29.0607 68.6849 28.3412 69.1739 27.5701C69.5884 26.9192 70.0248 26.1716 70.4735 25.351C70.413 25.7328 70.3487 26.1402 70.2794 26.5801L69.7401 29.9999C69.0094 30.6465 68.3549 31.3743 67.789 32.1692C66.1512 34.3717 65.013 36.5211 64.4059 38.5576C64.2087 39.1628 64.0975 39.7926 64.0756 40.4287C64.0756 41.6465 64.6997 42.2902 65.8787 42.2902C67.5819 42.2902 68.9779 40.3792 70.1462 36.4501C70.8771 34.0661 71.7706 29.6014 72.8023 23.1778C73.5366 23.1039 74.2568 22.926 74.941 22.6493L75.0816 22.5932L75.1181 21.451L74.7797 21.6042C74.2046 21.8679 73.5927 22.0423 72.965 22.1216C73.2309 20.4281 73.4505 19.1035 73.6181 18.1777L74.1363 18.0649L74.1551 18.06C75.7224 17.5778 77.0807 16.2766 78.1933 14.1915C79.0994 12.4756 79.5588 10.8525 79.5588 9.36778C79.5595 6.96482 78.4365 6.45996 77.4942 6.45996ZM78.3114 9.25289C78.3114 10.4702 77.8791 11.9231 77.0254 13.5729C76.1047 15.3818 75.0409 16.5008 73.8585 16.9061C74.4151 13.924 74.9956 11.5978 75.5848 9.9873C76.166 8.39781 76.8474 7.59174 77.61 7.59174C78.0756 7.59174 78.3114 8.1507 78.3114 9.25289ZM69.4421 31.726C68.9238 34.6227 68.3769 36.9055 67.8147 38.5202C67.2333 40.1938 66.5433 41.0424 65.7626 41.0424C65.6614 41.0424 65.3537 41.0424 65.3537 40.1825C65.3537 39.4918 65.8556 38.0805 66.8452 35.9878C67.5315 34.4654 68.4037 33.0339 69.4421 31.726Z" fill="white"/>
<path d="M94.8012 20.1694C94.832 19.5602 94.6279 18.9624 94.2309 18.4993C94.0274 18.2877 93.7809 18.1223 93.5081 18.014C93.2353 17.9058 92.9424 17.8572 92.6493 17.8717C91.008 17.8717 89.449 19.4147 87.897 22.5821C88.1411 21.1752 88.4176 19.6382 88.7211 17.9974C89.5301 17.5813 90.3575 16.692 91.2431 15.2863C92.4962 13.3087 93.2815 11.3595 93.5767 9.49125C93.6321 9.14291 93.662 8.79099 93.6662 8.43829C93.6662 6.80373 92.8282 6.46045 92.1252 6.46045C91.0787 6.46045 90.1555 7.34905 89.3817 9.0992C88.9848 9.97504 88.6368 10.8723 88.3394 11.7867C88.0359 12.7139 87.7245 13.8919 87.387 15.3885C87.0352 16.9539 86.7497 18.2496 86.5139 19.3497C86.3639 20.0469 86.1954 20.8523 86.0054 21.777L85.7143 22.4041C85.2176 23.5112 84.3433 24.9677 83.1186 26.7294C82.5962 27.4581 81.9788 28.1138 81.2829 28.6791C80.6393 29.196 80.0272 29.4579 79.4629 29.4579C78.0318 29.4579 77.3362 28.4195 77.3362 26.283C77.368 24.6054 77.783 22.9573 78.5496 21.4647C79.3284 19.8696 80.1842 19.0619 81.0924 19.0619C81.3349 19.0619 81.5594 19.1329 81.5594 19.6461C81.5523 20.1823 81.426 20.7103 81.1895 21.1916C80.9253 21.7483 80.788 21.8664 80.7524 21.8893H80.4435L80.5547 22.1986C80.5831 22.3293 80.6543 22.4468 80.7571 22.5324C80.8598 22.6181 80.9881 22.6671 81.1218 22.6716C81.3414 22.6686 81.5582 22.6211 81.7589 22.5319C81.9597 22.4427 82.1402 22.3136 82.2896 22.1526C82.6093 21.84 82.8366 21.4452 82.9464 21.0118C83.0509 20.5789 83.1022 20.1349 83.0991 19.6895C83.0975 19.4289 83.0409 19.1716 82.933 18.9344C82.8251 18.6972 82.6683 18.4854 82.4729 18.313C82.0813 17.9676 81.5705 17.7885 81.049 17.8136C80.4544 17.8205 79.8686 17.9573 79.3326 18.2145C77.909 18.8971 76.774 20.23 75.9601 22.1755C75.4053 23.4809 75.1261 24.6027 75.1261 25.5119C75.1089 26.2754 75.2004 27.0375 75.3979 27.7752C75.971 29.7202 77.3397 30.7064 79.4625 30.7064C80.2306 30.7064 81.0425 30.3712 81.8763 29.7098C82.6685 29.0857 83.377 28.3622 83.9843 27.557C84.3754 27.0357 84.7823 26.4282 85.1993 25.7465C85.0423 26.5114 84.9163 27.1115 84.8246 27.5293C84.6998 28.0227 84.6201 28.5263 84.5865 29.0341C84.5851 29.3187 84.6401 29.6006 84.7483 29.8638C85.0134 30.5111 85.4385 30.6481 85.7483 30.6481C86.0747 30.6481 86.3158 30.3968 86.4649 29.9022C86.949 28.3157 87.6811 26.3244 88.6422 23.9809C89.1183 22.7141 89.7445 21.509 90.5075 20.3914C91.1374 19.5092 91.701 19.0619 92.1823 19.0619C92.3441 19.0619 92.6788 19.0619 92.6788 19.7624C92.6788 20.3597 92.3927 21.7353 91.8282 23.8507C91.2533 26.0006 90.9617 27.6527 90.9617 28.7577C90.9617 31.1387 92.0055 31.638 92.8804 31.638C93.153 31.6417 93.4187 31.5525 93.6338 31.3851C93.7342 31.3209 93.8183 31.2341 93.8793 31.1317C93.9403 31.0293 93.9765 30.914 93.9852 30.7952V30.564H93.754C93.4567 30.564 93.2863 29.9588 93.2863 28.9033C93.2863 28.0681 93.539 26.5628 94.0369 24.4289C94.5517 22.2268 94.8012 20.8331 94.8012 20.1694ZM89.0417 16.3675C90.5068 8.94524 91.6282 7.65534 92.1976 7.59454C92.4209 7.70851 92.5339 8.01064 92.5339 8.49608C92.5339 9.7349 91.984 11.4529 90.8998 13.6018C90.2613 14.8485 89.6386 15.7752 89.0417 16.367V16.3675Z" fill="white"/>
<path d="M110.521 21.4517L109.468 23.5893C108.781 24.972 107.999 26.305 107.126 27.5788C105.995 29.2381 105.429 29.4859 105.193 29.4859C104.83 29.4859 104.753 28.8518 104.753 28.3199C104.753 28.1118 104.777 27.7669 104.825 27.2949C104.874 26.8229 105.218 25.017 105.856 21.9266C105.912 21.6254 105.942 21.3199 105.946 21.0135C105.946 19.8114 105.425 19.5592 104.987 19.5592C104.476 19.5592 104.186 20.2296 104.012 20.7344C103.786 21.396 103.018 22.9217 101.728 25.2708C101.183 26.3063 100.534 27.2831 99.7896 28.1858C98.9683 29.1641 98.4509 29.3696 98.1615 29.3696C97.7387 29.3696 97.6499 28.5772 97.6499 27.9133C97.6499 26.1312 98.1123 24.2146 99.0272 22.2153C99.9713 20.1228 101.017 19.0617 102.135 19.0617C102.366 19.0445 102.597 19.1035 102.792 19.2298C102.981 19.38 102.981 19.4922 102.981 19.5289C102.977 19.5955 102.988 19.6622 103.011 19.7246C103.034 19.7871 103.07 19.8441 103.117 19.8919C103.163 19.9397 103.219 19.9774 103.281 20.0024C103.343 20.0275 103.409 20.0394 103.476 20.0375C103.544 20.045 103.614 20.0383 103.68 20.0176C103.746 19.9969 103.806 19.9627 103.858 19.9173C103.905 19.8707 103.942 19.8148 103.966 19.7532C103.99 19.6916 104 19.6257 103.997 19.5597C103.995 19.332 103.946 19.1072 103.855 18.8989C103.763 18.6906 103.63 18.5031 103.463 18.3479C103.273 18.1671 103.049 18.0267 102.803 17.935C102.557 17.8434 102.296 17.8024 102.034 17.8146C101.457 17.8175 100.886 17.933 100.354 18.1546C98.8113 18.8357 97.5281 20.2952 96.5394 22.4943C95.8311 24.1076 95.4717 25.6178 95.4717 26.9831C95.4717 29.4348 96.323 30.678 98.0022 30.678C99.3661 30.678 100.952 29.0316 102.842 25.6511C102.765 26.2182 102.725 26.7895 102.72 27.3617C102.72 29.6012 103.522 30.7367 105.105 30.7367C105.622 30.7367 106.195 30.4043 106.858 29.7196C107.492 29.0628 108.057 28.3434 108.545 27.5723C109.041 26.7958 109.568 25.8848 110.112 24.8637C110.667 23.8235 111.025 23.1256 111.21 22.7269C111.391 22.3339 111.542 22.019 111.658 21.7876L111.826 21.4529L110.521 21.4517Z" fill="white"/>
<path d="M117.217 21.4519L116.163 23.5894C115.476 24.9721 114.694 26.3051 113.821 27.5789C112.69 29.2382 112.124 29.486 111.888 29.486C111.779 29.486 111.449 29.486 111.449 28.4804C111.463 27.54 111.569 26.6032 111.766 25.6833C111.887 25.0169 111.991 24.4864 112.084 24.0606C112.18 23.6197 112.315 23.0434 112.49 22.3499C112.662 21.6615 112.791 21.1248 112.87 20.7549C112.949 20.3996 112.989 20.0371 112.992 19.6733C112.998 19.3644 112.955 19.0564 112.865 18.7609C112.631 18.0008 112.204 17.8413 111.888 17.8413C111.631 17.8413 111.293 17.9782 111.139 18.6273C111.077 18.8765 111.017 19.1393 110.962 19.4084C110.907 19.6774 110.855 19.901 110.806 20.0767C110.758 20.2487 110.695 20.499 110.615 20.8395C109.819 23.9864 109.415 26.2973 109.415 27.7086C109.415 30.2093 110.712 30.734 111.8 30.734C112.316 30.734 112.889 30.4016 113.552 29.7169C114.186 29.0599 114.752 28.3404 115.241 27.5694C115.737 26.7899 116.264 25.8787 116.807 24.8611C117.362 23.8208 117.72 23.123 117.905 22.7242C118.086 22.3312 118.237 22.0164 118.353 21.785L118.521 21.4503L117.217 21.4519Z" fill="white"/>
<path d="M112.789 15.8587C113.109 15.8385 113.415 15.7249 113.67 15.5319C113.966 15.3695 114.213 15.1308 114.386 14.8405C114.558 14.5502 114.65 14.219 114.651 13.8814C114.651 12.895 114.087 12.7487 113.749 12.7487C113.528 12.7453 113.311 12.8117 113.129 12.9385C112.948 13.0653 112.81 13.246 112.737 13.4551C112.57 13.8346 112.443 14.2305 112.359 14.6363C112.29 14.9699 112.207 15.0192 112.207 15.0194H111.888L112.015 15.404C112.077 15.6107 112.262 15.8587 112.789 15.8587Z" fill="white"/>
<path d="M125.916 20.0536C125.948 19.4351 125.752 18.8262 125.365 18.3429C125.162 18.1235 124.914 17.9517 124.637 17.8397C124.36 17.7278 124.062 17.6786 123.764 17.6957C122.218 17.6957 120.673 19.309 119.056 22.6195L119.274 21.5261C119.352 21.1707 119.393 20.8082 119.396 20.4445C119.398 20.1168 119.345 19.791 119.237 19.4814C118.976 18.7274 118.547 18.569 118.233 18.569C117.995 18.569 117.581 18.6742 117.482 19.3705C116.382 25.4991 115.848 28.7024 115.848 29.1633C115.848 30.3885 116.417 30.6465 116.894 30.6465C117.153 30.6465 117.49 30.5031 117.63 29.8207C117.714 29.407 118.054 28.3644 118.64 26.7231C119.291 24.936 120.074 23.2 120.984 21.5295C122.145 19.3684 122.883 18.9148 123.298 18.9148C123.544 18.9148 123.795 18.9964 123.795 19.6007C123.795 20.1906 123.499 21.5906 122.915 23.7617C122.321 25.9728 122.02 27.6531 122.02 28.7562C122.02 31.1372 123.063 31.6365 123.938 31.6365C124.211 31.6401 124.476 31.5511 124.692 31.3839C124.792 31.3196 124.876 31.2328 124.937 31.1303C124.998 31.0279 125.034 30.9126 125.043 30.7937V30.5625H124.812C124.514 30.5625 124.344 29.9573 124.344 28.9019C124.344 28.0697 124.606 26.5493 125.124 24.3851C125.656 22.1553 125.916 20.7378 125.916 20.0536Z" fill="white"/>
<path d="M71.7398 53.7862C71.7462 53.7748 71.7491 53.7619 71.7483 53.7488C71.7476 53.7358 71.743 53.7233 71.7353 53.7128C71.7277 53.7022 71.7171 53.6941 71.705 53.6894C71.6928 53.6847 71.6795 53.6835 71.6668 53.6861C71.6438 53.6905 71.6221 53.6999 71.6033 53.7138C71.5845 53.7276 71.5691 53.7455 71.5581 53.7661C71.5222 53.8263 71.5085 53.8971 71.5193 53.9663C71.5259 54.0114 71.5444 54.054 71.5727 54.0897C71.6021 54.1261 71.6402 54.1547 71.6834 54.1727C71.7266 54.1907 71.7737 54.1977 71.8203 54.1931C71.8729 54.1886 71.924 54.1729 71.97 54.1468C72 54.1315 72.0278 54.1123 72.0528 54.0897C72.108 54.0409 72.1504 53.9792 72.176 53.9101C72.2141 53.8034 72.2267 53.6893 72.213 53.5768C72.2084 53.53 72.2 53.4836 72.188 53.4381C72.1804 53.4043 72.1737 53.372 72.1668 53.3401C72.1513 53.2758 72.1342 53.2088 72.1138 53.1383C71.8949 52.4094 71.4976 51.7466 70.958 51.2099C70.9192 51.1698 70.8618 51.1099 70.7858 51.0303C70.706 50.9542 70.6025 50.8648 70.4839 50.7577C70.3492 50.6324 70.2081 50.5141 70.0611 50.4034C69.896 50.279 69.7197 50.1306 69.5102 49.9972C68.4574 49.2916 67.3192 48.7227 66.123 48.3042C65.4207 48.0487 64.6599 47.8125 63.8601 47.5991C63.0603 47.3857 62.2262 47.1922 61.3688 46.9964C59.6564 46.6065 57.8551 46.2274 56.0997 45.7579C54.3937 45.3248 52.7297 44.7405 51.1276 44.0119C49.7493 43.3788 48.4561 42.5749 47.2784 41.6191C46.4492 40.943 45.6999 40.1743 45.0451 39.328C44.9383 39.1879 44.8335 39.0503 44.7305 38.9152C44.6556 38.8098 44.5814 38.7057 44.5072 38.6022C44.3831 38.4339 44.3066 38.3491 44.2853 38.3604C44.264 38.3717 44.2996 38.4799 44.3847 38.6738C44.4282 38.7707 44.482 38.8904 44.5523 39.0282C44.6383 39.1789 44.7262 39.3322 44.8161 39.488C45.3976 40.4276 46.1068 41.2819 46.9234 42.0264C48.0835 43.0892 49.3813 43.9912 50.782 44.7079C52.3978 45.5286 54.087 46.1962 55.8274 46.7019C57.599 47.2406 59.4021 47.6779 61.0924 48.1141C61.937 48.3328 62.7604 48.5483 63.5256 48.7737C64.2908 48.999 65.012 49.2441 65.6676 49.5004C66.7512 49.9079 67.7797 50.4492 68.7291 51.1116C68.9141 51.2335 69.0627 51.3659 69.2042 51.4762C69.3296 51.5734 69.4495 51.6775 69.5634 51.788C69.6646 51.8805 69.7509 51.9612 69.8177 52.0238C69.8831 52.0932 69.9305 52.144 69.9615 52.1775C70.4765 52.7134 70.9196 53.2152 71.2497 53.6031C71.2941 53.6511 71.337 53.6957 71.3783 53.737C71.3975 53.7569 71.4178 53.7757 71.4391 53.7934C71.4503 53.799 71.462 53.8039 71.474 53.8079C71.4769 53.8087 71.4799 53.8092 71.483 53.8096L71.5135 53.8049L71.5597 53.7989C71.6046 53.7929 71.6501 53.7941 71.6945 53.8026C71.7086 53.8047 71.722 53.8099 71.7338 53.8179C71.73 53.8145 71.7267 53.8106 71.7239 53.8063C71.7239 53.8063 71.7865 53.8956 71.7571 53.8526L71.7599 53.8563C71.7613 53.858 71.7625 53.8599 71.7636 53.8618C71.7671 53.8731 71.7678 53.8748 71.7678 53.8748C71.772 53.8618 71.7796 53.8503 71.7897 53.8412C71.8034 53.8277 71.8189 53.8162 71.836 53.8073C71.8035 53.8181 71.769 53.8212 71.7352 53.8163C71.7139 53.8098 71.7139 53.8043 71.7151 53.8077C71.719 53.8156 71.7167 53.8227 71.7151 53.8375C71.7135 53.8523 71.7151 53.8422 71.7176 53.8361L71.7236 53.8193L71.7398 53.7862Z" fill="white"/>
<path d="M45.1966 40.4345C46.6859 41.8869 47.916 43.4385 49.6462 44.6445C51.2846 45.7868 53.0988 46.6535 55.0169 47.2104C58.8427 48.3163 62.8561 48.0289 66.792 48.2194C70.3607 48.3912 74.1129 49.0156 77.0707 51.1487C78.1629 51.9366 79.6149 53.1865 79.9644 54.5626C80.2689 55.7616 79.2709 57.0025 78.1914 57.4101C77.0882 57.8278 75.5374 57.2251 75.5603 55.8668C75.5797 54.7286 77.0187 54.0889 77.8134 54.9077C77.8614 54.9592 77.8877 55.0272 77.8868 55.0976C77.8859 55.168 77.858 55.2353 77.8088 55.2856C77.7596 55.3359 77.6929 55.3653 77.6225 55.3678C77.5522 55.3702 77.4836 55.3454 77.4311 55.2986C76.8009 54.7653 75.9343 55.6893 76.3069 56.3296C76.4392 56.5388 76.6302 56.7043 76.856 56.8056C77.0818 56.9069 77.3325 56.9395 77.5767 56.8992C78.3592 56.7966 79.2318 56.0813 79.3731 55.27C79.6214 53.8367 77.5286 52.2417 76.5039 51.5364C74.1111 49.8905 71.1533 49.1989 68.2929 48.9455C62.6805 48.449 56.989 49.1279 51.7984 46.4829C49.2879 45.2034 46.363 43.1266 45.0715 40.5334C45.0327 40.4551 45.1281 40.3693 45.1954 40.4349L45.1966 40.4345Z" fill="white"/>
<path d="M44.9159 39.0556C47.0498 41.5078 49.9488 43.1891 53.2609 43.2476C54.8971 43.2769 56.4891 42.8692 58.0883 42.5772C59.3757 42.3409 60.8329 42.0545 62.1154 42.402C62.9867 42.6382 63.7992 43.3597 63.7223 44.3401C63.6409 45.3731 62.5665 45.8258 61.6554 45.8567C60.8341 45.8835 59.8512 45.415 59.856 44.4663C59.8523 44.2883 59.8967 44.1127 59.9846 43.9579C60.0725 43.8031 60.2005 43.6749 60.3552 43.5869C60.51 43.4989 60.6856 43.4543 60.8635 43.4578C61.0415 43.4614 61.2152 43.5129 61.3662 43.607C61.4212 43.6408 61.461 43.6945 61.4773 43.7569C61.4936 43.8193 61.4852 43.8856 61.4539 43.942C61.4225 43.9984 61.3706 44.0405 61.309 44.0595C61.2473 44.0785 61.1807 44.073 61.1231 44.0442C60.9073 44.2277 60.6906 44.4108 60.473 44.5934C60.5143 44.7542 60.6078 44.8967 60.7388 44.9987C60.8697 45.1007 61.0308 45.1563 61.1968 45.157C61.4901 45.2327 61.7983 45.2285 62.0893 45.1448C62.9009 44.9332 63.3795 44.0909 62.7135 43.4221C61.9079 42.6144 60.2754 42.8673 59.2437 42.9926C57.3532 43.2252 55.4942 43.7749 53.5802 43.7719C50.152 43.7659 46.6568 42.0742 44.7608 39.1793C44.7002 39.0868 44.8419 38.9713 44.9163 39.0568L44.9159 39.0556Z" fill="white"/>
<path d="M69.6521 48.9764C70.9697 48.6031 72.3237 49.1988 73.4236 49.8927C74.3306 50.4646 75.691 51.3128 75.5325 52.5742C75.4192 53.4779 74.3979 54.0156 73.6348 53.4481C72.9876 52.9656 73.0542 51.7998 73.8732 51.5576C73.9072 51.5487 73.943 51.5499 73.9763 51.5611C74.0096 51.5722 74.0389 51.5929 74.0607 51.6204C74.0825 51.648 74.0958 51.6813 74.0989 51.7163C74.1021 51.7513 74.095 51.7864 74.0784 51.8174C74.0237 51.9011 73.9712 51.9864 73.9201 52.0717C73.6863 52.4029 73.8356 52.7402 74.3681 53.0837C74.559 52.7523 74.7495 52.4209 74.9395 52.0897C74.8771 51.8526 74.7501 51.6375 74.5727 51.4684C74.1353 50.9842 73.6285 50.5675 73.069 50.2319C72.0715 49.5464 70.8906 49.1773 69.6803 49.1729C69.6566 49.1725 69.6337 49.1636 69.6159 49.1479C69.5981 49.1322 69.5864 49.1106 69.5831 49.0871C69.5797 49.0636 69.5847 49.0396 69.5974 49.0195C69.61 48.9994 69.6294 48.9845 69.6521 48.9773V48.9764Z" fill="white"/>
<path d="M45.9109 42.0045C48.2094 44.665 50.9224 47.1581 54.3873 48.1244C57.5725 49.0123 61.1921 48.4161 64.1064 50.2245C64.8394 50.6794 66.0549 51.5361 65.8537 52.5768C65.6788 53.4876 64.5625 53.9025 63.7529 53.6772C61.7566 53.1224 63.2746 50.5636 64.3863 51.6838C64.5343 51.8329 64.3366 52.1291 64.1533 51.9961C63.8029 51.7419 63.2273 52.1667 63.3193 52.5648C63.405 52.9386 63.9122 53.1712 64.2851 53.1471C64.7381 53.1182 65.2855 52.6411 65.2638 52.1492C65.2513 51.875 64.881 51.5595 64.7113 51.3928C63.8507 50.5474 62.6947 50.052 61.5444 49.7423C59.4394 49.1745 57.2271 49.2326 55.1 48.7714C51.2342 47.9362 48.0566 45.2524 45.8534 42.0489C45.8303 42.0147 45.8827 41.9721 45.91 42.0027L45.9109 42.0045Z" fill="white"/>
<path d="M45.6522 40.1884C46.4528 40.8356 47.4165 41.0437 48.0774 40.0379C48.2122 39.7786 48.377 39.5361 48.5684 39.3153C49.1107 38.7787 49.9066 38.4683 50.6285 38.2702C52.1701 37.8592 53.8046 37.9744 55.2733 38.5975C55.3382 38.6353 55.3858 38.697 55.4059 38.7693C55.426 38.8417 55.4171 38.919 55.381 38.9849C54.6607 40.5501 53.1593 41.355 51.5527 41.7446C50.1237 42.0901 48.3971 42.4494 47.2181 41.3636C47.1807 41.3246 47.1538 41.2767 47.14 41.2245C47.1262 41.1722 47.126 41.1173 47.1395 41.0649C47.1529 41.0125 47.1795 40.9645 47.2167 40.9253C47.254 40.8861 47.3006 40.857 47.3522 40.8409C49.1294 40.1151 51.0021 39.3846 52.8965 39.0552C52.9519 39.0411 53.0107 39.0492 53.0602 39.0778C53.1098 39.1064 53.1462 39.1533 53.1616 39.2083C53.1771 39.2634 53.1704 39.3224 53.1429 39.3726C53.1155 39.4228 53.0695 39.4603 53.0148 39.4771C51.1674 40.0709 49.3603 40.5776 47.5926 41.4078C47.6127 41.2441 47.6342 41.0809 47.6544 40.9172C48.72 41.8269 50.4665 41.3997 51.6981 41.0737C53.0537 40.715 54.2654 40.0212 54.8861 38.7096C54.9215 38.8386 54.9582 38.968 54.995 39.0977C52.9459 38.2369 49.7066 38.2466 48.4826 40.4124C47.8409 41.5485 46.1989 41.3162 45.4465 40.3978C45.4212 40.37 45.4075 40.3336 45.4082 40.296C45.4089 40.2585 45.424 40.2226 45.4503 40.1958C45.4767 40.169 45.5123 40.1533 45.5498 40.1519C45.5874 40.1505 45.624 40.1636 45.6522 40.1884Z" fill="white"/>
<path d="M50.4484 43.0399C51.4531 43.0412 52.4528 42.8989 53.4173 42.6174C54.3419 42.3349 54.7042 41.6141 55.4358 41.0755C55.9562 40.7008 56.5569 40.4526 57.19 40.3507C57.8232 40.2488 58.4714 40.296 59.0831 40.4886C59.1169 40.4975 59.1483 40.514 59.1748 40.5368C59.2014 40.5596 59.2224 40.5881 59.2363 40.6202C59.2502 40.6523 59.2566 40.6871 59.2551 40.7221C59.2536 40.757 59.2442 40.7911 59.2276 40.8219C58.0667 42.438 55.9374 42.7145 54.0957 42.4632C53.835 42.4281 53.9018 42.0321 54.1461 42.017C55.8873 41.9102 57.6758 42.146 58.8661 40.5512C58.9023 40.6788 58.9372 40.8055 58.9733 40.9333C58.1759 40.6539 57.3075 40.652 56.5089 40.9278C56.0376 41.0881 55.6025 41.3394 55.2282 41.6675C54.9615 41.907 54.7781 42.2399 54.4966 42.4583C53.4903 43.2357 51.6415 43.2485 50.4512 43.1595C50.3765 43.1541 50.3705 43.0404 50.4486 43.0395L50.4484 43.0399Z" fill="white"/>
<path d="M95.1495 42.5564C95.1475 42.5421 95.1414 42.5287 95.132 42.5178C95.1226 42.5068 95.1102 42.4989 95.0964 42.4948C95.0825 42.4908 95.0678 42.4908 95.054 42.4949C95.0402 42.499 95.0278 42.507 95.0184 42.518C95.0013 42.5372 94.9887 42.5601 94.9816 42.5849C94.9745 42.6096 94.973 42.6357 94.9773 42.6611C94.9864 42.7378 95.0221 42.8088 95.0781 42.862C95.1143 42.8968 95.159 42.9216 95.2078 42.9339C95.258 42.9458 95.3104 42.9451 95.3602 42.9317C95.4101 42.9184 95.4559 42.8929 95.4935 42.8576C95.5364 42.818 95.5703 42.7697 95.5929 42.7159C95.6086 42.6822 95.62 42.6467 95.6269 42.6102C95.6421 42.5303 95.6374 42.4479 95.6132 42.3703C95.5748 42.2515 95.5091 42.1433 95.4214 42.0545C95.3858 42.0164 95.3471 41.9813 95.3058 41.9496C95.2764 41.9264 95.2487 41.9015 95.2212 41.8784C95.1645 41.8321 95.1044 41.7859 95.0395 41.7378C94.358 41.2485 93.5652 40.9367 92.7329 40.8307C92.672 40.8219 92.5816 40.8081 92.4615 40.7893C92.3409 40.7769 92.1901 40.7683 92.0144 40.7544C91.8124 40.7357 91.6094 40.7274 91.4065 40.7295C91.1788 40.7318 90.925 40.7209 90.6522 40.7454C89.258 40.8374 87.8811 41.1062 86.5546 41.5453C85.7686 41.7947 84.9459 42.1 84.1042 42.4519C83.2626 42.8037 82.4033 43.1955 81.5226 43.6015C79.7646 44.4129 77.9363 45.2936 76.087 46.0645C74.3055 46.834 72.459 47.4431 70.5693 47.8845C68.9396 48.2587 67.2693 48.4264 65.5977 48.3838C64.4184 48.3514 63.2467 48.1841 62.1055 47.8852C61.9177 47.8348 61.7335 47.7852 61.5527 47.7363C61.4164 47.6947 61.2818 47.6535 61.1473 47.6133C60.9256 47.5498 60.8017 47.5269 60.7908 47.5511C60.78 47.5754 60.8833 47.6459 61.0886 47.758C61.1917 47.8135 61.3197 47.8819 61.4732 47.955C61.6497 48.0287 61.8295 48.1033 62.0128 48.179C63.1529 48.6084 64.3472 48.8775 65.5614 48.9786C67.2896 49.1262 69.0299 49.0407 70.7353 48.7243C72.6989 48.354 74.6235 47.8007 76.4839 47.0717C78.3935 46.3505 80.263 45.5192 82.0318 44.7631C82.917 44.3858 83.7811 44.0203 84.601 43.702C85.421 43.3837 86.2159 43.1132 86.961 42.8962C88.1816 42.5229 89.4442 42.3038 90.7192 42.2438C90.9622 42.2258 91.1816 42.2415 91.3792 42.2424C91.5542 42.243 91.729 42.2533 91.9028 42.2732C92.0544 42.2868 92.183 42.2984 92.284 42.3079C92.3878 42.3243 92.4636 42.337 92.5131 42.3453C93.3222 42.4671 94.048 42.607 94.5975 42.7237C94.6682 42.7358 94.7362 42.7468 94.7995 42.7542C94.8298 42.7587 94.8603 42.7615 94.8908 42.7626C94.9045 42.7599 94.9179 42.7563 94.9311 42.7519C94.9341 42.7505 94.937 42.7488 94.9398 42.7471L94.963 42.7226L94.9995 42.6863C95.0345 42.6508 95.0751 42.6213 95.1197 42.5989C95.1334 42.5912 95.1486 42.5867 95.1643 42.5857C95.1586 42.5854 95.153 42.5843 95.1477 42.5825L95.2082 42.6012H95.2101H95.2149C95.2173 42.6019 95.2196 42.6027 95.2219 42.6038C95.2325 42.6111 95.2343 42.6121 95.2343 42.6121C95.2291 42.598 95.2279 42.5828 95.2309 42.5682C95.2334 42.5473 95.2391 42.527 95.2475 42.5078C95.2267 42.5392 95.1986 42.5652 95.1657 42.5836C95.1426 42.5922 95.1391 42.5873 95.1426 42.5897C95.1511 42.5938 95.1539 42.6017 95.1625 42.6155C95.171 42.6294 95.1662 42.619 95.1636 42.6128L95.1576 42.5938L95.1495 42.5564Z" fill="white"/>
<path d="M63.9567 48.7745C67.6904 49.8159 71.703 50.4507 75.4744 49.2246C78.9419 48.097 81.9008 45.341 85.6815 45.2254C86.6323 45.1961 88.2705 45.2414 88.7213 46.3198C89.1161 47.2634 88.3441 48.3251 87.4629 48.612C85.2899 49.3191 85.1244 46.0442 86.829 46.3949C87.0558 46.4411 87.0549 46.8341 86.8059 46.8239C86.3295 46.8048 86.0595 47.5454 86.3868 47.8549C86.6935 48.146 87.3011 48.05 87.6288 47.8006C88.0274 47.4976 88.2389 46.7255 87.919 46.2872C87.7405 46.0428 87.2079 45.979 86.9504 45.9293C85.6443 45.6781 84.2807 45.9293 83.0351 46.3454C80.7556 47.1083 78.7586 48.5108 76.5251 49.3859C72.4651 50.9771 67.9098 50.4493 63.9329 48.8515C63.8901 48.8348 63.9132 48.7632 63.9571 48.7754L63.9567 48.7745Z" fill="white"/>
</g>
<defs>
<clipPath id="clip0">
<rect width="82.9999" height="51.0804" fill="white" transform="translate(43 6.45996)"/>
</clipPath>
</defs>
</svg>
