<svg width="169" height="64" viewBox="0 0 169 64" fill="none" xmlns="http://www.w3.org/2000/svg">
<path d="M39.7318 40.0864L31.4739 41.0133L36.3192 29.8241L31.3535 23.0528L43.4276 21.6744L46.7079 14.1387L53.8944 23.9075L62.1525 22.9805L57.3253 34.1156L62.2549 40.8388L50.247 42.2051L46.9185 49.8552L39.7318 40.0864ZM43.1627 39.3461C42.8436 39.5026 42.5066 39.629 42.1576 39.7253L41.8445 39.8156L46.5032 46.1476L48.1584 42.3435L47.8575 42.3074C46.2323 42.1028 44.7516 41.224 43.7947 39.9059L43.3312 39.2678L43.1627 39.3461ZM41.5435 33.6101L45.2994 38.8044C46.0639 39.8577 47.2977 40.4897 48.5978 40.4897C48.7482 40.4897 48.8987 40.4837 49.0492 40.4656L58.8481 39.3521L54.9478 34.0193C54.7552 33.7545 54.5324 33.5198 54.2797 33.3091L54.0509 33.1165L51.2582 39.4244L46.4009 32.9961L41.5435 33.6101ZM41.7121 27.2781C40.2555 27.4285 38.9915 28.3615 38.4077 29.7098L34.4713 38.7924L41.0079 38.058C41.3329 38.0219 41.6519 37.9437 41.9529 37.8353L42.2297 37.733L38.185 32.1474L46.1601 31.1363L48.056 26.604L41.7121 27.2781ZM47.8816 31.8646L50.8368 35.7828L52.6425 31.7081L53.437 29.9143C54.0329 28.5722 53.8584 27.0072 52.9917 25.8215L47.1292 17.8524L44.4929 23.9075C44.3604 24.2084 44.2701 24.5214 44.2099 24.8404L44.1618 25.1354L50.9994 24.4131L47.8816 31.8646ZM55.0622 25.659L55.1766 25.9359C55.8086 27.4526 55.7965 29.1801 55.1344 30.6727L54.8154 31.395L54.9719 31.5034C55.2668 31.702 55.5437 31.9307 55.8025 32.1835L56.0372 32.4123L59.161 25.2016L55.0622 25.659ZM34.7662 24.5515L37.2581 27.9461L37.4387 27.7115C38.4317 26.4234 39.9124 25.5928 41.5135 25.4182L42.2959 25.334L42.308 25.1414C42.332 24.7501 42.3983 24.3589 42.5066 23.9737L42.5969 23.6486L34.7662 24.5515Z" fill="#E6E6E6"/>
<path d="M45.0645 49.9991C39.8761 49.4996 35.2235 46.8031 32.1719 42.5296L34.2605 42.2949C34.6035 42.7163 34.9706 43.1255 35.3499 43.5047C37.6129 45.7799 40.4479 47.3148 43.5537 47.9466L45.0645 49.9991Z" fill="#E6E6E6"/>
<path d="M49.4158 48.0674C52.7804 47.5258 55.832 45.9487 58.2636 43.5111C58.4804 43.2944 58.703 43.0596 58.9197 42.8129L61.4537 42.5239C58.4141 46.7914 53.7615 49.4939 48.5791 49.9995L49.4158 48.0674Z" fill="#E6E6E6"/>
<path d="M61.9648 37.7691C62.657 35.9334 63.0062 33.9892 63.0062 31.997C63.0062 30.2395 62.7293 28.512 62.1876 26.8628L63.2048 24.5215C64.2701 26.8748 64.8118 29.3847 64.8118 31.997C64.8118 34.6032 64.2762 37.1131 63.2108 39.4605L61.9648 37.7691Z" fill="#E6E6E6"/>
<path d="M30.4207 39.4904C29.3493 37.1371 28.8076 34.6151 28.8076 32.0029C28.8076 29.3726 29.3553 26.8387 30.4388 24.4731L31.6787 26.1645C30.9684 28.0244 30.6072 29.9866 30.6072 32.0029C30.6072 33.7664 30.8841 35.5 31.4318 37.1551L30.4207 39.4904Z" fill="#E6E6E6"/>
<path d="M32.25 21.3612C35.2955 17.16 39.9181 14.4936 45.0583 14L44.2157 15.9321C40.8511 16.4738 37.7875 18.0508 35.3557 20.4945C35.1751 20.6811 34.9886 20.8736 34.802 21.0783L32.25 21.3612Z" fill="#E6E6E6"/>
<path d="M59.3594 21.7043C59.0103 21.277 58.6431 20.8736 58.264 20.4885C56.0068 18.2194 53.1719 16.6845 50.0722 16.0525L48.5674 14C53.7437 14.4996 58.3964 17.1961 61.442 21.4696L59.3594 21.7043Z" fill="#E6E6E6"/>
<path d="M137.062 37.8878C135.337 37.8878 133.939 36.4841 133.939 34.7653V29.9719H132.002V28.2463H133.939V26.4658H135.666V28.2463H138.897V29.9719H135.666V34.7653C135.666 35.5391 136.296 36.1691 137.069 36.1691H138.576C139.466 36.1691 140.192 36.8949 140.192 37.7851V37.8947H137.062V37.8878Z" fill="#E6E6E6"/>
<path d="M75.0977 26.4658H73.3721V37.8878H75.0977V26.4658Z" fill="#E6E6E6"/>
<path d="M91.9092 26.4658H90.1836V37.8878H91.9092V26.4658Z" fill="#E6E6E6"/>
<path d="M94.0663 37.8878V37.7851C94.0663 36.8949 94.7922 36.1691 95.6824 36.1691H101.558C101.989 36.1691 102.394 35.9978 102.688 35.6828C102.989 35.3679 103.14 34.957 103.119 34.5256C103.078 33.6902 102.372 33.0397 101.516 33.0397H97.3533C96.4562 33.0397 95.6208 32.6836 94.9977 32.0468C94.3745 31.4031 94.0458 30.5607 94.0663 29.6638C94.1143 27.9039 95.6208 26.4658 97.4217 26.4658H104.03V26.5754C104.03 27.4656 103.304 28.1914 102.414 28.1914H97.3464C96.915 28.1914 96.511 28.3626 96.2165 28.6777C95.9152 28.9927 95.7646 29.4035 95.7851 29.8349C95.8262 30.6703 96.5315 31.3208 97.3875 31.3208H101.551C102.448 31.3208 103.284 31.6769 103.907 32.3138C104.53 32.9574 104.858 33.7998 104.838 34.6968C104.789 36.4566 103.284 37.8947 101.482 37.8947H94.0663V37.8878Z" fill="#E6E6E6"/>
<path d="M86.8074 37.8878C86.2459 37.8878 85.7255 37.6344 85.3763 37.203L82.3084 33.3615H80.1583V33.252C80.1583 32.3617 80.8841 31.6358 81.7743 31.6358H84.575C85.5269 31.6358 86.3007 30.8621 86.3007 29.9102V28.616C86.3007 28.3763 86.1089 28.1846 85.8693 28.1846H79.405C79.1654 28.1846 78.9736 28.3763 78.9736 28.616V37.8878H77.2549V27.6505C77.2549 26.9999 77.789 26.4658 78.4395 26.4658H86.8486C87.4991 26.4658 88.0332 26.9999 88.0332 27.6505V29.917C88.0332 31.6016 86.78 33.067 85.116 33.3273L84.9311 33.3547L88.5605 37.8947H86.8074V37.8878Z" fill="#E6E6E6"/>
<path d="M122.621 37.8877C120.895 37.8877 119.498 36.4839 119.498 34.7651V31.3686C119.498 29.643 120.902 28.2461 122.621 28.2461H127.147C127.997 28.2461 128.79 28.5816 129.387 29.191C129.982 29.8006 130.291 30.6085 130.269 31.4576C130.222 33.1354 128.79 34.498 127.079 34.498H121.867V34.3885C121.867 33.4983 122.593 32.7724 123.483 32.7724H127.113C127.852 32.7724 128.475 32.2177 128.544 31.5056C128.578 31.1085 128.455 30.7249 128.188 30.4305C127.92 30.136 127.545 29.9717 127.154 29.9717H122.628C121.854 29.9717 121.223 30.6017 121.223 31.3755V34.772C121.223 35.5458 121.854 36.1758 122.628 36.1758H128.661C129.551 36.1758 130.277 36.9016 130.277 37.7918V37.9014H122.621V37.8877Z" fill="#E6E6E6"/>
<path d="M117.664 37.8878C116.772 37.8878 116.047 37.162 116.047 36.2718V31.6906C116.047 30.8278 115.348 30.1294 114.486 30.1294H109.151C108.911 30.1294 108.72 30.3211 108.72 30.5608V37.8878H106.994V29.5885C106.994 28.9379 107.529 28.4038 108.179 28.4038H114.486C116.3 28.4038 117.773 29.876 117.773 31.6906V37.8878H117.664Z" fill="#E6E6E6"/>
</svg>
