<svg width="171" height="64" viewBox="0 0 171 64" fill="none" xmlns="http://www.w3.org/2000/svg">
<path fill-rule="evenodd" clip-rule="evenodd" d="M34.0082 16.4722H65.2943V29.5763C65.2943 29.7892 65.2961 30.0196 65.2979 30.2652C65.3185 32.9773 65.3531 37.5443 63.2013 41.0945C60.2793 46.0038 54.9149 49.7638 49.6934 50.2161L49.6514 50.2197L49.6094 50.2161C44.348 49.7639 38.9826 46.0035 36.0605 41.0928L36.0594 41.091C33.949 37.5108 33.9838 32.9838 34.0045 30.2747C34.0064 30.0258 34.0082 29.7923 34.0082 29.5763V16.4722ZM34.9853 17.4493V29.5763C34.9853 29.7946 34.9838 30.0267 34.9823 30.2708C34.9647 33.01 34.9373 37.2625 36.9007 40.594C39.6835 45.2699 44.7698 48.8017 49.6511 49.2389C54.493 48.8017 59.5797 45.2699 62.3626 40.5932L62.3647 40.5896C64.3645 37.2919 64.3374 33.0047 64.3201 30.2598C64.3186 30.0196 64.3172 29.7912 64.3172 29.5763V17.4493H34.9853Z" fill="white"/>
<path d="M60.9574 20.7295H38.3447V27.5361L55.8326 40.7771L54.5117 41.947L38.3447 29.8227V32.8007C38.3447 42.2129 47.2207 45.7225 49.651 45.7225C57.7874 44.6058 60.8518 37.6929 60.8518 34.1832L45.4244 22.5907H48.2246L60.9574 32.1625V20.7295Z" fill="white"/>
<path d="M68.4951 12.9539H68.019V12.7952H69.1695V12.9539H68.6934V14.382H68.4951V12.9539Z" fill="white"/>
<path d="M70.7565 13.668C70.7565 13.4299 70.7169 13.1919 70.7169 12.9936C70.6772 13.1919 70.5979 13.3902 70.5185 13.5886L70.2409 14.3424H70.0822L69.8442 13.5886C69.7649 13.3902 69.7252 13.1919 69.6854 12.9936C69.6854 13.1919 69.6854 13.4696 69.6458 13.7077L69.6061 14.382H69.4077L69.5268 12.7952H69.8045L70.0822 13.5489C70.1615 13.7473 70.2012 13.906 70.2409 14.0647C70.2805 13.906 70.3202 13.7473 70.3995 13.5489L70.6375 12.7952H70.9153L70.9947 14.382H70.7963L70.7565 13.668Z" fill="white"/>
<path d="M83.1565 36.7077H85.2259V32.5381H89.3954V30.4687H85.2259V26.3069H83.1565V30.4687H78.9946V32.5381H83.1565V36.7077Z" fill="white"/>
<g clip-path="url(#clip0_2615_7248)">
<path fill-rule="evenodd" clip-rule="evenodd" d="M136.3 31.517C136.3 42.2602 127.591 50.9693 116.848 50.9693C106.105 50.9693 97.3955 42.2602 97.3955 31.517C97.3955 20.7738 106.105 12.0647 116.848 12.0647C127.591 12.0647 136.3 20.7738 136.3 31.517ZM125.739 21.4998H107.921L112.243 24.8938H125.739V21.4998ZM107.921 29.6445H125.739V33.0385H107.921V29.6445ZM125.739 41.5236H107.921L112.243 38.1296H125.739V41.5236Z" fill="white"/>
</g>
<defs>
<clipPath id="clip0_2615_7248">
<rect width="38.8768" height="39.0147" fill="white" transform="translate(97.3955 12)"/>
</clipPath>
</defs>
</svg>
