<svg width="169" height="64" viewBox="0 0 169 64" fill="none" xmlns="http://www.w3.org/2000/svg">
<path fill-rule="evenodd" clip-rule="evenodd" d="M20.8898 17.8597C21.7833 17.8427 22.2592 18.4889 22.7871 18.8697C24.0574 19.7859 25.293 20.7426 26.5572 21.6534C30.4986 24.493 34.3412 27.4405 38.2861 30.2752C39.4271 31.0952 40.538 31.9646 41.6865 32.788C41.9987 33.0118 42.3047 33.2491 42.6228 33.4777C42.7736 33.5861 42.9072 33.779 43.1157 33.8226C43.3194 33.6161 43.5894 33.475 43.8302 33.3053C44.2774 32.9904 44.7056 32.6406 45.1608 32.3201C46.4432 31.4168 47.665 30.4204 48.9554 29.5117C49.817 28.9051 50.6326 28.1977 51.4936 27.5903C54.4524 25.502 57.2844 23.2477 60.2164 21.1361C61.251 20.3908 62.2529 19.6288 63.2964 18.8943C63.6862 18.6199 64.046 18.2595 64.4544 18.0075C64.9451 17.705 65.6498 17.9186 65.9083 18.2785C66.2731 18.7864 66.001 19.5573 65.8098 20.0768C65.2767 21.5243 64.9011 23.0287 64.4053 24.5109C63.1389 28.297 61.993 32.1788 60.7337 35.9659C60.1813 37.6276 59.7573 39.3214 59.1568 40.9419C59.0009 41.3626 58.9304 41.7693 58.7871 42.1982C58.5545 42.8952 58.3043 43.6435 58.0725 44.3415C57.8029 45.1532 57.7405 45.9074 56.8651 46.1151C56.3825 46.2296 56.0565 45.933 55.8303 45.7702C55.189 45.3087 54.5675 44.8231 53.9329 44.3661C51.2914 42.4638 48.7167 40.5 46.0725 38.6017C45.3132 38.0564 44.5716 37.4768 43.8056 36.9266C43.6781 36.835 43.1712 36.378 43.0664 36.4093C42.7824 36.5025 42.4448 36.8763 42.204 37.0496C41.4962 37.5596 40.8145 38.1039 40.1096 38.6017C37.6813 40.3162 35.3539 42.142 32.9391 43.8734C32.1116 44.4666 31.3085 45.0988 30.4751 45.6963C30.1778 45.9093 29.7206 46.2936 29.1445 46.0658C28.4592 45.795 28.4179 45.1416 28.1588 44.44C27.6873 43.1634 27.3406 41.8369 26.9021 40.5231C25.099 35.1213 23.4229 29.6207 21.629 24.2153C21.2017 22.9279 20.89 21.642 20.4216 20.3724C20.2896 20.0149 19.8932 19.1135 20.0273 18.648C20.121 18.3226 20.3609 18.0724 20.6433 17.9336L20.8898 17.8597ZM73.1772 19.8058C73.5416 19.8109 73.824 19.8082 74.0397 19.9536C74.3166 20.1404 74.4144 20.515 74.5572 20.8404C74.8211 21.4417 75.0982 22.0448 75.3703 22.6634C76.4026 25.0091 77.5176 27.3625 78.549 29.7088C78.8283 30.3441 79.1164 30.9645 79.3868 31.5809C79.4646 31.7583 79.5165 32.1126 79.6824 32.1968C79.7642 31.831 80.0068 31.4879 80.1506 31.1622C80.4638 30.4533 80.783 29.7581 81.0869 29.0683C82.0996 26.7705 83.1399 24.4995 84.1424 22.22C84.3494 21.749 84.5594 21.2931 84.7583 20.8404C84.9035 20.5103 84.9983 20.1472 85.2758 19.9536C85.5932 19.7323 86.2311 19.7802 86.5325 19.9782C86.8186 20.1661 87.1146 20.5809 86.9514 21.0622C86.8314 21.4164 86.606 21.7632 86.4586 22.0967C86.2355 22.6019 86.0402 23.0712 85.8179 23.5747C84.5385 26.4735 83.1037 29.3474 81.8261 32.246C81.5752 32.8158 81.3052 33.3693 81.0623 33.9211C80.7771 34.5693 80.6114 35.0722 79.855 35.2515C79.4453 35.3485 79.0262 35.1492 78.82 35.005C78.4777 34.7661 78.3575 34.3022 78.1795 33.8965C77.8968 33.2531 77.583 32.6116 77.2923 31.9504C76.0215 29.0608 74.5961 26.1921 73.3252 23.3039C73.0091 22.5856 72.6615 21.8897 72.3641 21.1853C72.2551 20.927 72.2439 20.5577 72.3889 20.3231C72.4961 20.1494 72.7359 19.9622 72.931 19.8797C73.0176 19.8431 73.1084 19.8543 73.1772 19.8058ZM89.9823 19.8058C91.5153 19.8326 91.1651 21.3201 91.1651 22.8112V33.6503C91.1651 33.9554 91.2105 34.3555 91.1157 34.5864C90.9791 34.9189 90.7068 35.1343 90.3272 35.2267C90.1311 35.2746 89.8125 35.2222 89.6867 35.1776C89.4333 35.0874 89.2238 34.9677 89.0953 34.7587C88.9316 34.4928 88.9473 34.0792 88.9473 33.6503V21.4809C88.9473 21.0666 88.9142 20.6128 89.0705 20.3478C89.1657 20.1864 89.3633 19.982 89.5387 19.9043C89.6631 19.8493 89.8631 19.879 89.9823 19.8058ZM108.044 19.8058C108.411 19.8114 108.687 19.8106 108.906 19.9536C109.236 20.1684 109.299 20.5616 109.449 20.9636C109.654 21.5161 109.827 22.0919 110.04 22.6634C110.548 24.0283 110.967 25.4807 111.518 26.8265C111.743 27.3763 111.835 27.9281 112.06 28.4771C112.37 29.2315 112.577 30.0322 112.873 30.8173C113.006 31.1689 113.174 31.5425 113.268 31.9258C113.288 31.9006 113.276 31.9191 113.292 31.8765C113.451 31.6866 113.463 31.3569 113.563 31.1129C113.828 30.4712 114.005 29.7795 114.278 29.1176C115.183 26.9205 115.816 24.5657 116.717 22.3678C117.008 21.6595 117.174 20.4444 117.752 20.0521C117.955 19.9145 118.299 19.7503 118.664 19.8551C119.561 20.1124 119.748 21.5535 120.069 22.4172C120.639 23.9537 121.099 25.5849 121.719 27.0976C121.811 27.3216 121.825 27.539 121.917 27.7627C122.166 28.3698 122.357 29.0513 122.606 29.6596C122.857 30.2711 123.005 30.9152 123.247 31.507C123.31 31.6599 123.31 31.9464 123.444 32.0243C123.48 31.6758 123.758 31.0833 123.888 30.768C124.147 30.1397 124.303 29.4793 124.553 28.8712C124.769 28.3472 124.854 27.8198 125.071 27.2948C125.754 25.6363 126.265 23.8554 126.894 22.1707C127.117 21.5749 127.402 20.2481 127.855 19.9537C128.127 19.7771 128.72 19.7461 129.013 19.9291C129.26 20.0829 129.611 20.4585 129.481 20.9638C129.383 21.3478 129.209 21.7418 129.062 22.0969C128.853 22.6063 128.74 23.1098 128.545 23.6242C127.817 25.545 127.205 27.5642 126.426 29.4625C126.061 30.3501 125.821 31.2797 125.465 32.1476C125.229 32.7226 125.076 33.317 124.849 33.8721C124.7 34.2359 124.646 34.5979 124.43 34.8821C124.306 35.0445 124.006 35.1895 123.789 35.2516C123.379 35.369 122.956 35.2057 122.73 35.0545C122.126 34.6501 121.928 33.3154 121.621 32.5665C120.767 30.4841 120.183 28.2425 119.329 26.1616C119.044 25.4662 118.866 24.7418 118.59 24.0676C118.505 23.8595 118.5 23.5917 118.368 23.4271V23.4519C118.218 23.6602 118.201 23.9637 118.097 24.2154C117.852 24.8101 117.685 25.4488 117.432 26.0631C116.536 28.2373 115.887 30.5629 114.993 32.7388C114.786 33.2413 114.649 33.7592 114.451 34.2416C114.352 34.4816 114.32 34.6945 114.18 34.8821C114.067 35.0317 113.875 35.0994 113.687 35.1777C113.498 35.2557 113.147 35.3308 112.873 35.2516C112.596 35.1714 112.302 34.9779 112.159 34.7589C112.029 34.5613 112.009 34.3287 111.913 34.0938C111.639 33.4252 111.456 32.7124 111.173 32.0244C110.227 29.723 109.557 27.2559 108.611 24.9544C108.364 24.3559 108.208 23.7353 107.97 23.1563C107.843 22.8483 107.801 22.5551 107.674 22.2447C107.525 21.8795 107.354 21.4638 107.231 21.0869C107.144 20.8218 107.22 20.4131 107.329 20.2494C107.43 20.099 107.669 19.9229 107.847 19.8552C107.926 19.8249 107.987 19.8457 108.044 19.8058ZM133.054 19.8058C134.587 19.8326 134.237 21.3201 134.237 22.8112V33.6503C134.237 33.9554 134.282 34.3555 134.188 34.5864C134.051 34.9189 133.779 35.1343 133.399 35.2267C132.702 35.3964 132.215 34.9457 132.068 34.537C131.978 34.2847 132.019 33.8977 132.019 33.5764V21.4809C132.019 21.0666 131.986 20.6128 132.143 20.3478C132.263 20.1427 132.496 19.9402 132.734 19.8551C132.829 19.8212 132.976 19.854 133.054 19.8058ZM98.3356 21.7765H94.8858C94.3417 21.7765 93.6734 21.8407 93.3333 21.6287C93.0243 21.4361 92.8605 20.775 93.0871 20.3477C93.4058 19.7467 94.7202 19.9289 95.625 19.9289H102.943C103.763 19.9289 105.414 19.7678 105.752 20.2245C106.066 20.6478 105.936 21.4197 105.555 21.6533C105.233 21.8512 104.554 21.7764 104.052 21.7764H100.602C100.5 22.0873 100.578 22.621 100.578 22.9834V34.3646C100.544 34.417 100.556 34.4951 100.528 34.5615C100.459 34.7276 100.301 34.9582 100.159 35.0542C99.4869 35.5074 98.5788 35.1036 98.3847 34.5124C98.2726 34.1705 98.3354 33.6268 98.3356 33.2068V21.7765ZM141.407 21.7765H137.958C137.414 21.7765 136.745 21.8407 136.405 21.6287C136.095 21.4353 135.932 20.776 136.159 20.3477C136.478 19.7467 137.792 19.9289 138.697 19.9289H146.015C146.835 19.9289 148.486 19.7678 148.824 20.2245C149.138 20.6478 149.008 21.4197 148.627 21.6533C148.305 21.8512 147.626 21.7764 147.124 21.7764H143.674C143.572 22.0873 143.65 22.621 143.65 22.9834V34.3646C143.611 34.4218 143.631 34.4827 143.6 34.5615C143.537 34.7262 143.37 34.9607 143.231 35.0542C142.559 35.5074 141.651 35.1036 141.457 34.5124C141.344 34.1705 141.407 33.6268 141.407 33.2068V21.7765ZM22.9103 21.5056C23.4877 23.096 23.9193 24.7354 24.4627 26.3586C25.7421 30.1802 26.9365 34.0878 28.2081 37.9119C28.6613 39.2749 29.0695 40.638 29.514 41.9765C29.6384 42.3509 29.73 42.7125 29.8589 43.0605C29.9119 43.203 29.908 43.4332 30.0315 43.5039C33.8093 40.704 37.5875 37.9039 41.3661 35.1037C40.9083 34.8404 40.509 34.4485 40.0848 34.143C39.1296 33.4543 38.2061 32.7231 37.2513 32.049C34.1168 29.8365 31.1235 27.4589 27.9863 25.2499C27.8009 25.1193 27.6295 24.9372 27.4442 24.8065C26.4441 24.101 25.4807 23.3772 24.4874 22.6634C24.1091 22.3915 23.7384 22.102 23.3539 21.8258C23.2125 21.7242 23.0912 21.5663 22.9103 21.5056ZM56.2246 43.5039C56.2496 43.2584 56.376 43.0237 56.4463 42.8142C56.6148 42.3115 56.7376 41.8109 56.9145 41.336C57.0718 40.9135 57.1398 40.5097 57.2841 40.0797C57.57 39.2274 57.8621 38.3214 58.1466 37.4685C58.8888 35.2411 59.5316 32.9961 60.2655 30.7927C60.5638 29.8972 60.7534 29.0206 61.0788 28.1321C61.5301 26.8998 61.8627 25.6084 62.2862 24.3385C62.5927 23.419 62.9667 22.4626 63.1977 21.5056H63.1486C63.0562 21.6318 62.9082 21.6854 62.7789 21.7765C62.4575 22.003 62.1445 22.2563 61.818 22.491C60.8338 23.1983 59.8838 23.9558 58.8858 24.6587C58.2495 25.1067 57.6484 25.6391 57.0131 26.0875C55.0105 27.5006 53.1031 29.012 51.0993 30.423C50.4633 30.8709 49.8621 31.4036 49.2267 31.8519C48.1291 32.6262 47.0882 33.4728 45.9986 34.2415C45.7103 34.4449 45.4407 34.6562 45.1608 34.8572C45.0461 34.9398 44.8788 34.9965 44.8158 35.1282H44.8406C45.0905 35.3816 45.4352 35.5589 45.7276 35.7688C46.4209 36.2666 47.0917 36.7991 47.7974 37.2961C48.107 37.5141 48.3996 37.7919 48.7092 38.0105C50.2176 39.0752 51.6595 40.1991 53.1691 41.2621C53.8996 41.7766 54.5988 42.3434 55.3374 42.8633C55.5648 43.0233 55.9471 43.4458 56.2246 43.5039ZM88.0109 42.3706C88.1776 42.3694 88.2377 42.4118 88.3561 42.4445C88.7055 43.1926 89.0756 43.9383 89.4154 44.711C89.5458 45.0068 89.8014 45.2994 89.8345 45.6717C89.7898 45.7249 89.7531 45.7919 89.7112 45.8441C89.2481 46.0213 89.1718 45.4853 89.0214 45.2036C89.0049 45.1544 88.9885 45.1052 88.972 45.0558H87.2472C87.1763 45.2261 86.9782 45.7897 86.8283 45.8441C86.7802 45.8916 86.6537 45.9198 86.5819 45.8687C86.428 45.8254 86.3776 45.7322 86.3847 45.5239C86.5975 45.2856 86.6939 44.868 86.8283 44.5632C87.0253 44.116 87.2963 43.6563 87.4936 43.2083C87.5964 42.9746 87.6928 42.5048 87.937 42.4199C87.9561 42.4031 87.9921 42.3877 88.0109 42.3706ZM90.5737 42.3706L90.7954 42.4199C90.9756 42.7052 91.158 43.0365 91.3374 43.3315C91.4339 43.4897 91.4631 43.6657 91.5593 43.824C91.7108 44.0737 91.9187 44.3628 92.0027 44.6617H92.0275V44.6371C92.1469 44.5037 92.1844 44.3086 92.2738 44.1444C92.4792 43.7674 92.7139 43.367 92.9145 42.9866C93.0463 42.7367 93.0893 42.3846 93.4566 42.3706C93.4907 42.398 93.5274 42.4076 93.5798 42.4199C93.7434 42.6717 93.703 43.0152 93.703 43.43C93.703 44.128 93.8011 45.2336 93.6537 45.8195C93.579 45.8567 93.5666 45.8821 93.4566 45.8934C93.4046 45.9229 93.3721 45.9011 93.2842 45.8934C93.2432 45.8392 93.2142 45.8435 93.1855 45.7702C93.0982 45.6549 93.1362 45.3485 93.1362 45.1544V43.6271H93.1116V43.6762C92.9778 43.8149 92.9447 44.022 92.8406 44.1935C92.7084 44.411 92.5655 44.6552 92.4463 44.8834C92.36 45.0487 92.3105 45.287 92.126 45.3514C91.8825 45.4996 91.7808 45.2257 91.7071 45.1051C91.5309 44.8166 91.3965 44.4946 91.2144 44.1935C91.1153 44.0301 90.9724 43.8539 90.9186 43.6517H90.8693V43.6762C90.9371 43.7832 90.894 44.0867 90.894 44.2429C90.894 44.7457 90.9432 45.3733 90.8447 45.7948C90.7996 45.8223 90.7582 45.8555 90.7215 45.8934C90.61 45.9015 90.5558 45.9277 90.475 45.8687C90.2555 45.7856 90.3272 45.3491 90.3272 45.0558C90.3272 44.2282 90.2557 43.3017 90.352 42.5184C90.42 42.4752 90.5046 42.424 90.5737 42.3706ZM107.97 42.3706C108.063 42.3708 108.139 42.3801 108.192 42.4199C108.272 42.4455 108.288 42.464 108.315 42.5432C108.426 42.6898 108.364 43.1441 108.364 43.3806C108.364 44.1237 108.463 45.1504 108.315 45.7948C108.17 45.8823 107.903 45.9866 107.773 45.7948C107.662 45.6321 107.724 45.1831 107.724 44.9327V43.2083C107.724 43.0164 107.669 42.6601 107.748 42.5184C107.79 42.4447 107.904 42.4226 107.97 42.3706ZM109.35 42.3706C109.465 42.3736 109.507 42.3982 109.596 42.4199C109.94 43.0115 110.498 43.5455 110.902 44.0951C111.031 44.2707 111.258 44.6974 111.444 44.7849V42.5677C111.503 42.5048 111.498 42.4547 111.592 42.4199C111.69 42.3399 111.801 42.3907 111.913 42.4199C112.074 42.6743 112.036 43.0136 112.036 43.43C112.036 44.1596 112.131 45.1623 111.986 45.7948C111.941 45.8223 111.9 45.8554 111.863 45.8934C111.748 45.9034 111.676 45.931 111.592 45.8687C111.408 45.799 111.195 45.3922 111.075 45.2283C110.792 44.8428 110.443 44.4832 110.163 44.0951C110.023 43.901 109.889 43.6161 109.695 43.4793V45.6963C109.676 45.7227 109.68 45.7196 109.67 45.7702C109.621 45.8112 109.572 45.8523 109.522 45.8934C109.411 45.9015 109.357 45.9277 109.276 45.8687C109.204 45.8455 109.189 45.8252 109.153 45.7702C109.039 45.621 109.103 45.1489 109.103 44.908V43.2083C109.103 43.016 109.049 42.6605 109.128 42.5184C109.169 42.4445 109.284 42.423 109.35 42.3706ZM123.37 42.3706C123.956 42.3544 124.763 42.4516 124.898 42.8388C124.939 42.8897 124.945 42.9411 124.947 43.0359C124.856 43.1516 124.867 43.231 124.652 43.2328C124.376 42.9612 123.208 42.5891 123.001 43.1837C122.948 43.2493 122.949 43.3548 122.951 43.4793C123.058 43.5993 123.111 43.7063 123.272 43.7749C123.877 44.0323 125.253 44.0222 124.972 45.1051C124.945 45.2088 124.903 45.3083 124.849 45.4007C124.506 45.9231 123.507 46.0408 122.804 45.7702C122.588 45.6872 122.288 45.6202 122.262 45.3514C122.205 45.2592 122.29 45.1116 122.385 45.0805C122.555 44.9802 122.708 45.1697 122.804 45.2283C123.143 45.4366 124.147 45.545 124.307 45.1051C124.357 45.043 124.358 44.9522 124.356 44.8341C124.3 44.7788 124.273 44.6816 124.208 44.6371C124.092 44.5577 123.964 44.5626 123.814 44.5139C123.189 44.3107 122.539 44.2853 122.36 43.6271C122.316 43.4631 122.33 43.2026 122.385 43.0605C122.435 42.9311 122.539 42.8071 122.631 42.7155C122.759 42.5893 122.961 42.4802 123.149 42.4199C123.232 42.3931 123.309 42.4102 123.37 42.3706ZM129.432 42.3706C129.606 42.3684 129.658 42.411 129.777 42.4445C130.142 43.1135 130.414 43.8397 130.763 44.5385C130.914 44.8428 131.242 45.3051 131.255 45.6963C131.084 45.8853 131.072 45.9296 130.763 45.8441C130.723 45.7598 130.427 45.0742 130.393 45.0558H128.668C128.628 45.2277 128.395 45.7596 128.274 45.8441C128.215 45.8912 128.139 45.8948 128.028 45.8934C127.945 45.8254 127.87 45.8116 127.83 45.6963C127.758 45.5832 128.062 44.9843 128.126 44.8588C128.377 44.3643 128.643 43.8334 128.865 43.3315C128.977 43.0783 129.06 42.7399 129.21 42.5184C129.257 42.4498 129.371 42.4264 129.432 42.3706ZM135.346 42.3706C135.42 42.3789 135.494 42.3872 135.568 42.3954C135.609 42.4496 135.637 42.4453 135.666 42.5184C135.773 42.6433 135.715 43.0678 135.715 43.2822V45.3268C136.051 45.4384 136.811 45.3534 137.219 45.3514C137.245 45.37 137.242 45.3662 137.292 45.3761C137.343 45.4523 137.378 45.4482 137.391 45.5731C137.425 45.6325 137.386 45.7152 137.366 45.7948C137.015 45.9612 136.27 45.8689 135.789 45.8687C135.569 45.8687 135.324 45.8794 135.173 45.8195C135.059 45.6181 135.099 45.1975 135.099 44.8834C135.099 44.1791 135 43.0607 135.149 42.4693C135.205 42.4433 135.295 42.41 135.346 42.3706ZM138.056 42.3706C138.149 42.3708 138.226 42.3801 138.278 42.4199C138.384 42.4569 138.384 42.5225 138.45 42.5925V44.6124C138.45 45.0054 138.473 45.478 138.401 45.7948C138.315 45.8469 138.296 45.8857 138.155 45.8934C138.109 45.9164 138.009 45.8867 137.933 45.8687C137.778 45.625 137.81 45.3343 137.81 44.9327V43.2083C137.81 43.0158 137.755 42.6607 137.834 42.5184C137.876 42.4445 137.991 42.4232 138.056 42.3706ZM140.126 42.3706C140.926 42.3538 141.317 42.491 141.703 42.8633V43.0605C141.644 43.1234 141.65 43.1738 141.555 43.2083C141.52 43.232 141.475 43.2322 141.407 43.2328C141.151 42.9835 140.411 42.6887 139.954 42.962C139.855 43.0209 139.809 43.1277 139.732 43.2083C139.722 43.3404 139.688 43.4363 139.756 43.5284C139.839 43.742 140.048 43.7499 140.274 43.824C140.807 43.9992 141.969 44.171 141.752 45.0312C141.465 46.1724 139.743 46.1222 139.017 45.4253C139.004 45.1664 139.056 45.0484 139.313 45.0558C139.582 45.2941 140.225 45.5373 140.742 45.3514C140.91 45.2911 141.276 45.1014 141.087 44.8095C140.959 44.4554 139.811 44.3635 139.461 44.1444C138.95 43.8252 139.002 42.9742 139.461 42.6416C139.598 42.5479 139.747 42.4734 139.904 42.4199C139.988 42.3927 140.065 42.4104 140.126 42.3706ZM142.984 43.8488H144.758V42.5432C144.812 42.4982 144.861 42.4488 144.906 42.3954C145.077 42.3822 145.24 42.3651 145.325 42.4938C145.438 42.6644 145.374 43.1228 145.374 43.3806C145.374 44.121 145.475 45.1536 145.325 45.7948C145.219 45.862 145.062 45.9641 144.931 45.8687C144.836 45.8368 144.821 45.7805 144.758 45.7209V44.3907C144.618 44.344 144.373 44.3661 144.192 44.3661H142.984C142.988 44.8237 143.022 45.3922 142.935 45.7702C142.886 45.8112 142.837 45.8523 142.787 45.8934C142.672 45.9034 142.6 45.931 142.516 45.8687C142.282 45.7858 142.344 45.4149 142.344 45.1051V43.1098C142.344 42.8122 142.293 42.5001 142.516 42.4199C142.601 42.3517 142.69 42.3832 142.812 42.3954C142.881 42.4839 142.945 42.4877 142.96 42.6416C143.048 42.7821 142.987 43.6129 142.984 43.8488ZM76.9473 42.3954C78.7473 42.3688 79.8223 42.517 79.7563 44.3661C79.748 44.6002 79.683 44.8866 79.584 45.0558C79.2195 45.6782 78.6671 45.8687 77.6619 45.8687C77.3519 45.8687 76.8135 45.9527 76.7256 45.7209C76.6284 45.5655 76.7009 45.0986 76.7009 44.8834V43.3561C76.7009 43.0828 76.6799 42.7517 76.7256 42.5184C76.7707 42.491 76.8121 42.4579 76.8489 42.4199C76.9061 42.4151 76.9185 42.4153 76.9473 42.3954ZM81.013 44.4893V45.7209C80.9872 45.7929 80.8904 45.841 80.8406 45.8934C80.7249 45.9034 80.6537 45.931 80.5696 45.8687C80.4973 45.8455 80.4829 45.8252 80.4464 45.7702C80.3477 45.6425 80.397 45.2679 80.397 45.0558V43.1837C80.397 42.9011 80.3339 42.5245 80.5448 42.4445C80.7227 42.316 81.2806 42.3954 81.5551 42.3954C82.3404 42.3954 82.8627 42.4622 83.0828 43.085C83.1222 43.1961 83.1782 43.4726 83.1321 43.6517C83.054 43.9554 82.8542 44.2258 82.5901 44.3415C82.49 44.3852 82.3749 44.3805 82.2943 44.44C82.585 44.4845 83.2227 45.384 83.2308 45.7209C83.0816 45.8827 82.9963 45.9332 82.7379 45.8687C82.5357 45.5463 82.2845 45.2253 82.0726 44.908C81.9808 44.7707 81.9077 44.5817 81.7522 44.5139C81.5823 44.4398 81.23 44.4857 81.013 44.4893ZM84.4382 42.9127V43.8488C84.7742 43.9605 85.5339 43.8754 85.9411 43.8734C85.972 43.8936 86.0051 43.9101 86.0398 43.9227C86.0727 43.995 86.1003 44.0459 86.1137 44.1444C86.0761 44.1913 86.0648 44.2827 86.015 44.3168C85.826 44.4465 84.7691 44.37 84.4382 44.3661V45.3761H85.5716C85.7071 45.3761 85.9497 45.3438 86.0398 45.4007C86.1395 45.4309 86.1783 45.4736 86.1876 45.5978C86.211 45.6453 86.1811 45.7192 86.163 45.7948C85.9858 45.8784 85.701 45.8687 85.4236 45.8687C84.9325 45.8687 84.3048 45.9229 83.8961 45.8195C83.7875 45.5871 83.822 45.1526 83.822 44.8095V43.3315C83.822 43.0655 83.8029 42.7446 83.8468 42.5184C84.1915 42.2957 85.0275 42.3954 85.5716 42.3954C85.8214 42.3954 86.0932 42.359 86.163 42.5432C86.2351 42.6333 86.1908 42.7062 86.163 42.8142C85.8084 43.0172 84.9616 42.9151 84.4382 42.9127ZM98.5818 42.3954C100.07 42.3682 100.945 42.3891 101.317 43.5532C101.384 43.7609 101.439 44.156 101.391 44.4646C101.357 44.6816 101.295 44.9388 101.194 45.1051C100.832 45.6983 100.269 45.8687 99.2965 45.8687C99.0074 45.8689 98.4825 45.9464 98.3847 45.7456C98.2726 45.6151 98.3356 45.1554 98.3356 44.9327V43.3561C98.3356 43.0828 98.3142 42.7517 98.3601 42.5184C98.4052 42.491 98.4466 42.4579 98.4834 42.4199C98.5406 42.4151 98.553 42.4153 98.5818 42.3954ZM102.648 42.9127V43.8488C102.945 43.9477 103.794 43.8752 104.175 43.8734C104.21 43.9107 104.243 43.9278 104.274 43.9718C104.404 44.1219 104.281 44.3308 104.101 44.3415C104.02 44.3927 103.807 44.3661 103.683 44.3661H102.648V45.3514C102.958 45.4547 103.852 45.378 104.249 45.3761C104.283 45.4072 104.293 45.4096 104.348 45.4253C104.416 45.5548 104.463 45.7211 104.323 45.8195C104.23 45.8916 104.019 45.8687 103.855 45.8687H102.697C102.557 45.8687 102.298 45.9038 102.204 45.8441C102.132 45.8207 102.118 45.8006 102.081 45.7456C101.982 45.6173 102.032 45.2436 102.032 45.0312V43.2083C102.032 42.9882 101.978 42.5702 102.105 42.4693C102.232 42.3696 102.5 42.3954 102.721 42.3954C103.243 42.3954 103.883 42.3477 104.323 42.4445C104.385 42.5401 104.421 42.5661 104.422 42.7403C104.377 42.7829 104.352 42.8272 104.298 42.8633C104.201 42.9376 103.975 42.9127 103.806 42.9127H102.648ZM105.58 42.9127V43.8488C106.069 43.847 106.608 43.8411 107.058 43.8734C107.09 43.9186 107.107 43.9156 107.132 43.9718C107.2 44.0441 107.18 44.1653 107.157 44.2676C106.832 44.4558 106.069 44.3689 105.58 44.3661C105.588 44.7283 105.662 45.7513 105.432 45.8441C105.313 45.9568 105.177 45.8837 105.038 45.8441C104.826 45.424 104.939 43.9288 104.939 43.2822C104.939 43.0065 104.873 42.5635 105.062 42.4693C105.176 42.3661 105.439 42.3954 105.654 42.3954C106.152 42.3954 106.762 42.3523 107.181 42.4445C107.247 42.545 107.281 42.5797 107.28 42.7649C107.243 42.7996 107.226 42.8329 107.181 42.8633C107.087 42.935 106.878 42.9127 106.713 42.9127H105.58ZM113.416 42.9127V43.8734C113.927 43.8695 114.589 43.8149 115.017 43.9227C115.044 44.0128 115.067 44.077 115.067 44.2183C115.016 44.265 115.02 44.2889 114.943 44.3168C114.781 44.4402 113.723 44.3689 113.416 44.3661V45.3761C113.941 45.3733 114.587 45.3079 115.067 45.4007C115.135 45.5059 115.167 45.5505 115.165 45.7456C115.116 45.7866 115.067 45.8276 115.017 45.8687H113.416C113.158 45.8687 112.896 45.9113 112.824 45.7209C112.727 45.5655 112.8 45.0986 112.8 44.8834V43.3561C112.8 43.0828 112.778 42.7517 112.824 42.5184C113.157 42.3077 114.62 42.3424 115.091 42.4445C115.115 42.4882 115.122 42.4859 115.14 42.5432C115.23 42.6642 115.139 42.8315 115.042 42.8633C114.948 42.935 114.738 42.9127 114.574 42.9127H113.416ZM120.192 42.9127V43.8488C120.49 43.9477 121.338 43.8752 121.719 43.8734V43.8979C121.814 43.9272 121.834 43.9525 121.843 44.0705C121.929 44.2228 121.766 44.3011 121.646 44.3415C121.333 44.4459 120.574 44.3769 120.192 44.3661V45.3514C120.502 45.4547 121.396 45.378 121.793 45.3761V45.4007C121.865 45.424 121.88 45.4441 121.917 45.4992C121.996 45.5956 121.946 45.6898 121.917 45.7948C121.555 45.9667 120.783 45.8689 120.29 45.8687C120.139 45.8687 119.851 45.909 119.748 45.8441C119.653 45.8122 119.638 45.756 119.576 45.6963V43.2576C119.576 42.9636 119.504 42.5286 119.724 42.4445C119.828 42.3692 120.065 42.3954 120.241 42.3954C120.637 42.3954 121.766 42.3091 121.917 42.5184C121.99 42.6061 121.958 42.7196 121.917 42.8142C121.565 43.018 120.714 42.9153 120.192 42.9127ZM126.943 42.9372V44.7356C126.943 45.0886 126.963 45.5176 126.894 45.7948C126.763 45.8725 126.474 45.9675 126.352 45.7948C126.248 45.6476 126.303 45.2391 126.303 45.0066V42.9372C125.933 42.9411 125.488 42.9559 125.194 42.8881C125.174 42.8519 125.149 42.8187 125.12 42.7894C125.118 42.6903 125.126 42.5912 125.144 42.4938C125.35 42.3765 125.695 42.3954 126.032 42.3954C126.681 42.3954 127.487 42.3229 128.052 42.4445C128.076 42.4882 128.083 42.4859 128.101 42.5432C128.151 42.6146 128.119 42.7626 128.101 42.8388C128.058 42.8625 128.06 42.8696 128.003 42.8881C127.869 42.9906 127.189 42.9405 126.943 42.9372ZM131.97 42.3954C132.742 42.3775 133.649 42.2985 134.089 42.6171C134.576 42.9691 134.496 43.9107 133.892 44.0705C133.917 44.0902 133.899 44.0792 133.941 44.0951C134.089 44.2256 134.275 44.2697 134.385 44.44C134.443 44.5309 134.478 44.6779 134.483 44.8095C134.52 45.7428 133.888 45.8687 132.98 45.8687C132.76 45.8687 132.028 45.9281 131.896 45.8441C131.824 45.8207 131.81 45.8006 131.773 45.7456C131.662 45.599 131.724 45.1447 131.724 44.908C131.724 44.2049 131.624 43.0838 131.773 42.4938C131.829 42.4679 131.919 42.4348 131.97 42.3954ZM81.013 43.9966C81.5557 44.0102 82.412 44.1074 82.4914 43.6517C82.6163 43.4858 82.4849 43.2306 82.4423 43.085C82.0728 42.8666 81.6357 42.8871 81.0378 42.8881V42.9127H81.013V43.9966ZM132.364 42.8881C132.283 43.1305 132.337 43.5583 132.34 43.8488C132.576 43.9278 132.992 43.8754 133.276 43.8734C133.462 43.7615 133.668 43.8248 133.744 43.6023C133.842 43.4825 133.777 43.2383 133.744 43.1098C133.348 42.851 133.012 42.8863 132.364 42.8881ZM77.317 42.9372V45.3268C77.5334 45.3995 77.9165 45.3534 78.1795 45.3514C78.245 45.3107 78.3404 45.3306 78.4257 45.3022C78.6434 45.2297 78.8563 45.0643 78.9678 44.8834C79.0415 44.764 79.0902 44.5689 79.1158 44.4154C79.2579 43.5573 78.849 43.0812 78.2534 42.9372H77.317ZM98.9761 42.9372V45.3514C99.4911 45.3599 100.025 45.3802 100.331 45.179C100.792 44.8767 100.924 43.82 100.553 43.3067C100.27 42.9153 99.6676 42.9261 98.9761 42.9372ZM88.0848 43.1344C88.0619 43.309 87.9482 43.4403 87.8879 43.5778C87.7403 43.9136 87.6124 44.2323 87.4689 44.5632H88.7501V44.5385C88.6174 44.3829 88.3983 43.8114 88.3067 43.6023C88.2426 43.4564 88.217 43.2089 88.0848 43.1344ZM129.531 43.1344C129.317 43.6107 129.104 44.0869 128.89 44.5632H130.171V44.5139C130.076 44.4079 130.061 44.2621 129.999 44.1196C129.909 43.9154 129.769 43.685 129.679 43.4793C129.625 43.3571 129.614 43.2239 129.531 43.1344ZM132.34 44.3661V45.3761C132.764 45.3828 133.454 45.4592 133.719 45.2775C133.784 45.2336 133.814 45.1368 133.867 45.0805C133.885 44.9065 133.868 44.7309 133.818 44.5632C133.417 44.3009 132.99 44.3635 132.34 44.3661ZM95.9454 45.1544C96.0382 45.1544 96.1147 45.1638 96.1671 45.2036C96.2082 45.2151 96.2457 45.237 96.2759 45.2673C96.3062 45.2975 96.3281 45.335 96.3397 45.3761C96.403 45.4519 96.402 45.6165 96.3397 45.6963C96.31 45.7927 96.2524 45.8502 96.1425 45.8687C96.0745 45.9206 95.9456 45.9245 95.8713 45.8687C95.7466 45.826 95.7288 45.7306 95.6496 45.647C95.6419 45.2937 95.7568 45.2984 95.9454 45.1544ZM117.21 45.1544C117.292 45.1571 117.36 45.1676 117.407 45.2036C117.448 45.2151 117.486 45.237 117.516 45.2673C117.546 45.2975 117.568 45.335 117.58 45.3761C117.666 45.4807 117.61 45.6293 117.58 45.7456C117.522 45.7948 117.465 45.844 117.407 45.8934C117.284 45.9009 117.201 45.9312 117.112 45.8687C117.071 45.8572 117.033 45.8353 117.003 45.8051C116.973 45.7749 116.951 45.7374 116.939 45.6963C116.853 45.5917 116.909 45.4431 116.939 45.3268C117.001 45.2828 117.059 45.2334 117.112 45.179C117.169 45.1741 117.181 45.1743 117.21 45.1544Z" fill="white"/>
</svg>
