<svg width="169" height="64" viewBox="0 0 169 64" fill="none" xmlns="http://www.w3.org/2000/svg">
<path d="M80.8623 19.7427V40.5424H85.601V35.3083L89.2684 40.5424H94.9764L89.7483 33.1155L94.816 26.0168H89.1057L85.601 30.9292V19.7427H80.8623Z" fill="#E6E6E6"/>
<path d="M143.108 30.3935V40.4242H138.437V30.5035C138.437 29.4917 137.578 28.6671 136.527 28.6671C135.467 28.6671 134.608 29.4917 134.608 30.5035V40.4242H129.937V19.5747H134.608V26.3271C135.502 25.6861 136.609 25.3028 137.806 25.3028C140.736 25.3028 143.108 27.5804 143.108 30.3935Z" fill="#E6E6E6"/>
<path d="M72.609 25.8663V26.5861C71.3395 25.8002 69.8315 25.3389 68.2069 25.3389C63.7171 25.3389 60.0771 28.8332 60.0771 33.1432C60.0771 37.4532 63.7171 40.9475 68.2069 40.9475C69.8315 40.9475 71.3395 40.4856 72.609 39.6981V40.4581H77.2778V25.8663H72.609ZM68.8903 36.9436C66.6016 36.9436 64.7482 35.1623 64.7482 32.9671C64.7482 30.7698 66.6016 28.9907 68.8903 28.9907C71.1768 28.9907 73.0324 30.7698 73.0324 32.9671C73.0324 35.1623 71.1768 36.9436 68.8903 36.9436Z" fill="#E6E6E6"/>
<path d="M106.345 25.8663V26.5861C105.075 25.8002 103.566 25.3389 101.942 25.3389C97.4522 25.3389 93.8115 28.8332 93.8115 33.1432C93.8115 37.4532 97.4522 40.9475 101.942 40.9475C103.566 40.9475 105.075 40.4856 106.345 39.6981V40.4581H111.013V25.8663H106.345ZM102.625 36.9436C100.337 36.9436 98.4836 35.1623 98.4836 32.9671C98.4836 30.7698 100.337 28.9907 102.625 28.9907C104.912 28.9907 106.768 30.7698 106.768 32.9671C106.768 35.1623 104.912 36.9436 102.625 36.9436Z" fill="#E6E6E6"/>
<path d="M117.834 35.7157C117.854 36.0143 117.937 36.2691 118.078 36.4726C118.226 36.6866 118.421 36.8626 118.656 36.9964C118.908 37.1397 119.204 37.246 119.538 37.3135C119.889 37.3848 120.256 37.4221 120.629 37.4221C121.472 37.4221 122.105 37.2987 122.516 37.0588C122.861 36.8552 123.016 36.639 123.016 36.3538C123.016 36.2216 122.987 36.1131 122.93 36.0232C122.898 35.9705 122.804 35.862 122.554 35.7283C122.32 35.6021 121.994 35.4809 121.587 35.371C121.16 35.2536 120.605 35.1333 119.937 35.0122C119.05 34.8436 118.225 34.6252 117.484 34.3689C116.728 34.1052 116.067 33.7791 115.524 33.401C114.959 33.0073 114.51 32.5475 114.189 32.0289C113.856 31.4919 113.687 30.8708 113.687 30.1815C113.687 29.5204 113.855 28.8785 114.184 28.2776C114.508 27.684 114.978 27.1558 115.581 26.7146C116.171 26.28 116.894 25.9324 117.733 25.6791C118.561 25.4302 119.504 25.3032 120.534 25.3032C121.61 25.3032 122.59 25.4265 123.452 25.6701C124.325 25.9175 125.082 26.2659 125.695 26.7035C126.324 27.1522 126.813 27.6966 127.146 28.3199C127.485 28.9469 127.654 29.634 127.654 30.365H122.852C122.852 29.9542 122.688 29.6318 122.334 29.3495C121.962 29.0531 121.357 28.9022 120.534 28.9022C119.761 28.9022 119.183 29.0271 118.82 29.2745C118.501 29.4906 118.354 29.7232 118.354 30.0114C118.354 30.1466 118.383 30.2699 118.441 30.3851C118.49 30.4823 118.594 30.5811 118.748 30.6785C118.939 30.7973 119.217 30.9109 119.574 31.0157C119.952 31.1271 120.443 31.2259 121.03 31.3069C121.947 31.4518 122.806 31.6367 123.59 31.8618C124.401 32.0928 125.111 32.3974 125.704 32.7651C126.321 33.1484 126.81 33.6246 127.164 34.178C127.527 34.7463 127.71 35.426 127.71 36.1955C127.71 36.9073 127.528 37.572 127.171 38.173C126.82 38.7629 126.321 39.2784 125.681 39.7011C125.059 40.1156 124.3 40.4417 123.429 40.669C122.569 40.8941 121.6 41.0077 120.548 41.0077C119.385 41.0077 118.34 40.8577 117.438 40.5628C116.533 40.2641 115.762 39.8682 115.144 39.3824C114.515 38.8899 114.033 38.3194 113.706 37.6872C113.376 37.0514 113.21 36.3991 113.21 35.7484L117.834 35.7157Z" fill="#E6E6E6"/>
<path d="M35.5488 19L50.5952 44.9997L55.6057 36.3322L45.5773 19H35.5488Z" fill="#E6E6E6"/>
<path d="M35.5488 36.8286L40.7526 45H51.1487L45.9524 36.8286H35.5488Z" fill="#E6E6E6"/>
<path d="M31.0915 27.1709L25.8916 36.0851L31.0952 44.9992L41.4914 27.1709H31.0915Z" fill="#E6E6E6"/>
</svg>
