<svg width="208" height="34" viewBox="0 0 208 34" fill="none" xmlns="http://www.w3.org/2000/svg">
<path d="M33.0823 18.1628L32.5656 19.0556L30.4693 22.689L29.9428 23.5981C29.4696 24.4271 28.7864 25.1168 27.962 25.5979C27.1376 26.0789 26.2011 26.3344 25.2466 26.3387H8.42391C8.04878 26.3378 7.68239 26.4519 7.37413 26.6657C7.17696 26.8052 7.01009 26.9832 6.88358 27.189C6.88358 27.189 6.88358 27.189 6.88358 27.189L6.86068 27.2249C6.85185 27.2373 6.84419 27.2504 6.83779 27.2642C6.83779 27.2642 6.83779 27.2642 6.83779 27.2642L6.58924 27.6893L5.2811 29.9361H12.6165C12.9927 29.9374 13.3603 29.8232 13.6695 29.609C13.8825 29.4584 14.06 29.2631 14.1895 29.0367V29.0367C14.1906 29.0291 14.1906 29.0214 14.1895 29.0138L14.9483 27.7057H19.1441L17.836 29.9524L17.3552 30.7798L17.3094 30.8583C16.8304 31.6854 16.1421 32.372 15.3138 32.849C14.4854 33.326 13.5462 33.5767 12.5903 33.576H2.12849C1.81002 33.5768 1.49717 33.492 1.2226 33.3307C1.06617 33.2438 0.923903 33.1335 0.800729 33.0036C0.537588 32.7205 0.37136 32.3609 0.326091 31.977C0.280821 31.5931 0.358858 31.2047 0.548912 30.8681V30.8681L0.784378 30.4626L1.06563 29.9786L2.37377 27.7318L3.17827 26.3387L3.65574 25.5146L3.70153 25.4328C4.18098 24.605 4.86968 23.9179 5.69855 23.4403C6.52742 22.9627 7.4673 22.7115 8.42391 22.7119H25.1452C25.1844 22.7151 25.2238 22.7151 25.2629 22.7119C25.5613 22.7016 25.8526 22.6185 26.1114 22.4697C26.3702 22.3209 26.5887 22.111 26.7477 21.8583L26.7771 21.806L28.3436 19.0916H2.12849C1.81056 19.0915 1.49822 19.0081 1.2226 18.8496C1.06687 18.7616 0.924753 18.6514 0.800729 18.5225C0.535692 18.2376 0.368883 17.8752 0.324745 17.4886C0.280606 17.1019 0.361458 16.7113 0.555453 16.3739L0.800729 15.9521L1.08198 15.4648L3.17827 11.8314L3.7048 10.9223C4.18333 10.0934 4.87174 9.40526 5.70075 8.92702C6.52976 8.44879 7.47012 8.19737 8.42718 8.19806H25.2662C25.5645 8.18755 25.8557 8.10429 26.1145 7.95552C26.3733 7.80676 26.5917 7.597 26.7509 7.3445L26.7804 7.2889V7.26928L27.0453 6.81143L28.3534 4.5647H21.0115C20.6361 4.56234 20.2693 4.67661 19.9617 4.89174C19.7647 5.03009 19.5978 5.20699 19.4711 5.41172V5.41172C19.4711 5.41172 19.4711 5.43789 19.4482 5.45424C19.4416 5.46332 19.4361 5.47321 19.4319 5.48367C19.4308 5.49127 19.4308 5.49897 19.4319 5.50657L18.6895 6.79181H14.4708L15.7789 4.54508L16.2989 3.64574C16.7778 2.81751 17.4664 2.13 18.2954 1.65236C19.1244 1.17472 20.0645 0.923786 21.0213 0.924808H31.5093C31.8282 0.924437 32.1416 1.00812 32.418 1.16742C32.6943 1.32673 32.9237 1.55603 33.0832 1.83223C33.2427 2.10844 33.3266 2.42179 33.3264 2.74074C33.3263 3.05968 33.2421 3.37296 33.0823 3.64901L32.5558 4.55816L31.2477 6.80489L30.4464 8.19152L29.9199 9.10068C29.4455 9.92374 28.7639 10.6083 27.9429 11.0862C27.1218 11.5641 26.19 11.8188 25.24 11.8249H8.42391C8.11057 11.8247 7.80251 11.9056 7.52972 12.0597C7.25693 12.2139 7.02869 12.4361 6.86722 12.7046V12.7046C6.8666 12.7133 6.8666 12.7221 6.86722 12.7308V12.7569L5.32362 15.4288H31.5485C31.867 15.428 32.1799 15.5127 32.4544 15.6741C32.8677 15.9209 33.166 16.3217 33.2838 16.7884C33.4015 17.2551 33.3291 17.7495 33.0823 18.1628V18.1628Z" fill="white"/>
<path d="M52.2101 25.4316H50.745C49.3608 25.4504 47.9788 25.3155 46.6243 25.0293C45.6747 24.8394 44.7587 24.5087 43.9067 24.0482C43.3055 23.6998 42.7877 23.2243 42.3892 22.6551C42.0607 22.2114 41.8158 21.7116 41.6665 21.1801C41.5567 20.7207 41.5029 20.2496 41.5063 19.7772V19.545H45.8885C46.0898 19.5469 46.2857 19.6107 46.4495 19.7277C46.6133 19.8447 46.7371 20.0092 46.8042 20.199C47.2577 21.4287 48.7762 22.0424 51.3598 22.0402H51.6574C52.4815 22.0501 53.3053 22.0042 54.1233 21.9029C54.6168 21.8565 55.0983 21.7237 55.5459 21.5105C55.7856 21.3924 55.9898 21.213 56.1378 20.9905C56.2425 20.7981 56.2944 20.5815 56.2882 20.3626C56.3046 20.0722 56.2138 19.7859 56.0331 19.5581C55.8631 19.3586 55.4674 19.1852 54.8427 19.0348C53.9552 18.8596 53.0527 18.7708 52.148 18.7699L49.427 18.7078C44.2904 18.5682 41.721 17.0246 41.7188 14.077V13.9102C41.7149 13.4324 41.7799 12.9566 41.9118 12.4974C42.0657 12.0096 42.3273 11.5625 42.677 11.1892C43.0969 10.7277 43.6051 10.3552 44.1716 10.0937C44.9639 9.74707 45.7968 9.50203 46.6505 9.36438C47.8574 9.16196 49.0798 9.06675 50.3035 9.07986H51.7686C53.0492 9.06612 54.3286 9.1657 55.5916 9.37746C56.5025 9.51711 57.3917 9.77321 58.2373 10.1395C58.8444 10.418 59.3927 10.8099 59.8529 11.2939C60.2277 11.6777 60.5204 12.134 60.713 12.6347C60.8723 13.0965 60.952 13.582 60.9485 14.0704V14.283H56.4616C56.2797 14.2818 56.1015 14.2309 55.9465 14.1358C55.7914 14.0407 55.6653 13.905 55.5818 13.7434C55.5143 13.6093 55.432 13.4832 55.3366 13.3673C55.1321 13.1564 54.886 12.9904 54.6138 12.88C54.1856 12.723 53.7414 12.6133 53.2893 12.553C52.611 12.4482 51.9252 12.399 51.2388 12.4058H50.9118C49.9929 12.3806 49.074 12.4551 48.1712 12.6282C47.5368 12.7754 47.1509 12.9323 47.0135 13.0959C46.8733 13.2842 46.8028 13.5154 46.814 13.7499C46.8039 13.9881 46.8833 14.2214 47.0364 14.404C47.3391 14.6552 47.7021 14.8231 48.0895 14.8913C48.8676 15.0571 49.6617 15.1361 50.4572 15.1267L53.1094 15.1692C56.0549 15.2259 58.1828 15.626 59.4932 16.3695C60.8035 17.1129 61.4576 18.2772 61.4554 19.8622V20.1598C61.4625 20.6859 61.3987 21.2106 61.2657 21.7198C61.1057 22.2404 60.8383 22.7217 60.4808 23.1325C60.0448 23.6434 59.5053 24.0559 58.898 24.3426C58.039 24.7299 57.1313 24.9984 56.1999 25.1405C54.8809 25.3529 53.546 25.4503 52.2101 25.4316V25.4316Z" fill="white"/>
<path d="M68.5975 25.1545V13.0935H62.7992C62.539 13.0935 62.2895 12.9901 62.1055 12.8061C61.9215 12.6221 61.8181 12.3726 61.8181 12.1124V9.35547H80.4199V12.096C80.4199 12.3562 80.3165 12.6058 80.1325 12.7898C79.9485 12.9738 79.699 13.0771 79.4387 13.0771H73.5881V25.1382L68.5975 25.1545Z" fill="white"/>
<path d="M94.8785 24.6149L93.6717 22.2668H84.0929L82.9515 24.5986C82.8684 24.7652 82.7406 24.9055 82.5823 25.0037C82.4241 25.1018 82.2417 25.1541 82.0554 25.1545H77.6372L85.3454 9.90162C85.4281 9.7395 85.5533 9.60299 85.7078 9.50676C85.8622 9.41052 86.0399 9.35822 86.2219 9.35547H91.4544C91.6349 9.35574 91.812 9.40482 91.9668 9.49752C92.1217 9.59021 92.2486 9.72306 92.3341 9.88199L100.51 25.1545H95.7647C95.5813 25.1564 95.4011 25.1068 95.2444 25.0115C95.0878 24.9161 94.961 24.7787 94.8785 24.6149ZM91.8436 18.6989L88.7858 12.773L85.8425 18.6989H91.8436Z" fill="white"/>
<path d="M135.081 19.8893H128.18V24.1407C128.18 24.2709 128.155 24.3999 128.104 24.52C128.054 24.6401 127.98 24.749 127.887 24.8403C127.794 24.9316 127.684 25.0035 127.563 25.0519C127.443 25.1002 127.313 25.124 127.183 25.1218H123.232V9.35547H135.081C139.993 9.35547 142.449 11.0691 142.449 14.4965V14.709C142.449 18.1625 139.993 19.8893 135.081 19.8893ZM128.18 12.9463V16.3409H134.996C136.522 16.3409 137.285 15.7893 137.285 14.6861V14.6207C137.285 13.5066 136.522 12.9485 134.996 12.9463H128.18Z" fill="white"/>
<path d="M154.539 9.08071H155.452C156.705 9.07134 157.956 9.16651 159.193 9.36523C160.155 9.51611 161.098 9.76936 162.006 10.1207C162.718 10.4064 163.387 10.7918 163.991 11.2653C164.494 11.6559 164.94 12.1136 165.319 12.6258C165.64 13.0864 165.9 13.5866 166.094 14.1138C166.271 14.5766 166.399 15.0567 166.476 15.5462C166.534 15.9897 166.562 16.4365 166.561 16.8838V17.5215C166.561 17.9589 166.533 18.3959 166.476 18.8296C166.399 19.3254 166.27 19.812 166.094 20.2816C165.901 20.8145 165.644 21.3219 165.328 21.7925C164.957 22.3158 164.509 22.7809 164.001 23.1726C163.395 23.6509 162.728 24.0437 162.015 24.3401C161.109 24.7013 160.166 24.9613 159.203 25.1152C157.964 25.3232 156.709 25.4228 155.452 25.4128H154.539C153.281 25.4227 152.023 25.3231 150.782 25.1152C149.814 24.962 148.867 24.7021 147.956 24.3401C147.245 24.0428 146.577 23.65 145.971 23.1726C145.462 22.7782 145.012 22.3135 144.634 21.7925C144.313 21.3248 144.056 20.8168 143.868 20.2816C143.697 19.8113 143.573 19.3248 143.499 18.8296C143.441 18.396 143.412 17.9589 143.414 17.5215V16.8936C143.411 16.4495 143.44 16.0059 143.499 15.5658C143.574 15.0741 143.698 14.591 143.868 14.1236C144.054 13.5919 144.312 13.088 144.634 12.6258C145.011 12.1129 145.458 11.655 145.961 11.2653C146.565 10.7911 147.234 10.4057 147.946 10.1207C148.861 9.76711 149.812 9.51381 150.782 9.36523C152.024 9.16692 153.281 9.07176 154.539 9.08071V9.08071ZM161.378 17.3416V17.044C161.379 16.663 161.33 16.2835 161.231 15.9157C161.107 15.5168 160.912 15.1434 160.655 14.8136C160.358 14.4155 159.983 14.0818 159.553 13.8325C158.973 13.5229 158.35 13.3024 157.705 13.1785C156.812 12.9902 155.9 12.9014 154.988 12.9136C150.727 12.9136 148.596 14.2936 148.594 17.0538V17.3089C148.591 17.802 148.681 18.2913 148.859 18.7511C149.07 19.2579 149.377 19.7197 149.761 20.1116C150.311 20.6353 150.987 21.0081 151.724 21.1941C153.847 21.7239 156.069 21.7239 158.192 21.1941C158.932 21.0115 159.614 20.6473 160.178 20.1345C160.578 19.7523 160.896 19.2928 161.113 18.7838C161.291 18.324 161.381 17.8347 161.378 17.3416V17.3416Z" fill="white"/>
<path d="M173.292 19.5491V24.1571C173.292 24.4173 173.188 24.6668 173.004 24.8508C172.82 25.0348 172.571 25.1382 172.311 25.1382H168.344V9.35547H181.098C185.677 9.35547 187.966 10.7214 187.966 13.4532V13.7083C187.966 15.3784 186.985 16.5328 185.023 17.1716C185.851 17.3887 186.602 17.834 187.191 18.4568C187.759 19.1023 188.056 19.9425 188.018 20.8017V25.1545H184.035C183.905 25.1567 183.775 25.1329 183.654 25.0846C183.533 25.0362 183.423 24.9643 183.331 24.873C183.238 24.7817 183.164 24.6728 183.114 24.5527C183.063 24.4326 183.037 24.3036 183.037 24.1734V22.3486C183.037 21.3675 182.792 20.6643 182.295 20.2228C181.798 19.7813 180.951 19.5688 179.747 19.5688L173.292 19.5491ZM173.292 12.9463V16.0466H180.787C181.325 16.0892 181.859 15.9384 182.295 15.6215C182.456 15.4827 182.584 15.3096 182.669 15.1149C182.753 14.9201 182.793 14.7088 182.786 14.4965V14.4736C182.792 14.2644 182.751 14.0565 182.666 13.8652C182.581 13.6739 182.454 13.504 182.295 13.3682C181.859 13.0524 181.324 12.9028 180.787 12.9463H173.292Z" fill="white"/>
<path d="M106.377 19.5491V24.1571C106.377 24.2873 106.351 24.4162 106.3 24.5363C106.25 24.6564 106.176 24.7653 106.083 24.8567C105.991 24.948 105.88 25.0199 105.76 25.0682C105.639 25.1166 105.509 25.1403 105.379 25.1382H101.428V9.35547H114.183C118.761 9.35547 121.051 10.7214 121.051 13.4532V13.7083C121.051 15.3784 120.069 16.5328 118.107 17.1716C118.935 17.3893 119.685 17.8345 120.272 18.4568C120.84 19.1023 121.137 19.9425 121.1 20.8017V25.1545H117.123C116.993 25.1567 116.863 25.1329 116.742 25.0846C116.621 25.0362 116.511 24.9643 116.419 24.873C116.326 24.7817 116.252 24.6728 116.202 24.5527C116.151 24.4326 116.125 24.3036 116.125 24.1734V24.1734V22.3486C116.125 21.3675 115.877 20.6643 115.38 20.2228C114.883 19.7813 114.036 19.5688 112.832 19.5688L106.377 19.5491ZM106.377 12.9463V16.0466H113.872C114.409 16.0892 114.944 15.9384 115.38 15.6215C115.541 15.4827 115.668 15.3096 115.753 15.1149C115.838 14.9201 115.878 14.7088 115.87 14.4965V14.4736C115.876 14.2644 115.835 14.0565 115.751 13.8652C115.666 13.6739 115.539 13.504 115.38 13.3682C114.944 13.0524 114.409 12.9028 113.872 12.9463H106.377Z" fill="white"/>
<path d="M195.732 25.1545V13.0935H189.934C189.675 13.0885 189.428 12.9835 189.246 12.8006C189.063 12.6176 188.958 12.371 188.953 12.1124V9.35547H207.551V12.096C207.546 12.3574 207.439 12.6065 207.252 12.7898C207.066 12.9732 206.815 13.0763 206.554 13.0771H200.732V25.1382L195.732 25.1545Z" fill="white"/>
</svg>
