<svg width="54" height="64" viewBox="0 0 54 64" fill="none" xmlns="http://www.w3.org/2000/svg">
<g clip-path="url(#clip0_2127:9500)">
<path fill-rule="evenodd" clip-rule="evenodd" d="M42.3961 40.1122C40.2998 40.1122 38.5993 38.4124 38.5993 36.3153C38.5993 34.2182 40.2998 32.5184 42.3961 32.5184C44.4933 32.5184 46.193 34.2182 46.193 36.3153C46.193 38.4124 44.4933 40.1122 42.3961 40.1122ZM42.3961 25.5767C36.4653 25.5767 31.6575 30.3845 31.6575 36.3153C31.6575 42.2461 36.4653 47.054 42.3961 47.054C48.327 47.054 53.1348 42.2461 53.1348 36.3153C53.1348 30.3845 48.327 25.5767 42.3961 25.5767Z" fill="#EBEBEB"/>
<path d="M7.87654 25.5767H0.206055V47.054H7.87654V25.5767Z" fill="#EBEBEB"/>
<path fill-rule="evenodd" clip-rule="evenodd" d="M20.1552 30.946L14.7858 25.5767H9.4165V30.946L14.7858 36.3153L9.4165 41.6847V47.054H14.7858L20.1552 41.6847L25.5245 47.054H30.8939V41.6847L25.5245 36.3153L30.8939 30.946V25.5767H25.5245L20.1552 30.946Z" fill="#EBEBEB"/>
<path fill-rule="evenodd" clip-rule="evenodd" d="M4.0413 24.0367C1.92348 24.0367 0.206055 22.3193 0.206055 20.2015C0.206055 18.0836 1.92348 16.3662 4.0413 16.3662C6.15912 16.3662 7.87654 18.0836 7.87654 20.2015C7.87654 22.3193 6.15912 24.0367 4.0413 24.0367Z" fill="#EBEBEB"/>
</g>
<defs>
<clipPath id="clip0_2127:9500">
<rect width="53.5879" height="53.5879" fill="white" transform="translate(0.206055 5.20605)"/>
</clipPath>
</defs>
</svg>
