<svg width="169" height="64" viewBox="0 0 169 64" fill="none" xmlns="http://www.w3.org/2000/svg">
<g clip-path="url(#clip0)">
<path fill-rule="evenodd" clip-rule="evenodd" d="M36.5771 46.7019C34.6364 46.7023 32.6966 45.9634 31.2192 44.4864C29.7882 43.0555 29 41.1528 29 39.1294C29 37.1059 29.7882 35.2032 31.2192 33.7723L31.2736 33.7179L41.2986 23.6929L42.9323 25.3262L32.8546 35.4039C31.8581 36.4004 31.3104 37.7226 31.3104 39.1294C31.3104 40.5361 31.8581 41.8583 32.853 42.8527C34.9061 44.9059 38.2468 44.9059 40.3 42.8527C40.3276 42.8251 41.2681 41.8846 41.2681 41.8846L42.9014 43.5188C42.9014 43.5188 41.9497 44.4706 41.9317 44.4881C40.456 45.9638 38.5165 46.7019 36.5771 46.7019Z" fill="white"/>
<path fill-rule="evenodd" clip-rule="evenodd" d="M50.379 31.2298L40.3013 21.1521C39.3052 20.156 37.9825 19.6078 36.5759 19.6078C35.1696 19.6078 33.8469 20.156 32.8525 21.1504C31.8577 22.1448 31.3099 23.4674 31.3099 24.8742C31.3099 26.2808 31.8577 27.6031 32.8525 28.5974C32.8684 28.6137 33.8202 29.5655 33.8202 29.5655L32.1868 31.1992L31.2204 30.2324C29.7878 28.7999 29 26.8976 29 24.8742C29 22.8502 29.7878 20.948 31.2188 19.5166C32.6497 18.0857 34.5524 17.2979 36.5759 17.2979C38.5997 17.2979 40.5024 18.0857 41.9333 19.517L41.986 19.5693L52.0128 29.5964L50.379 31.2298Z" fill="white"/>
<path fill-rule="evenodd" clip-rule="evenodd" d="M46.1054 40.3102L44.4717 38.6769L54.5511 28.5971C55.5455 27.6026 56.0937 26.2804 56.0937 24.8737C56.0937 23.4674 55.5455 22.1448 54.5511 21.1504C52.4979 19.0972 49.1572 19.0972 47.1041 21.1504L46.136 22.118L44.5023 20.4847L45.4703 19.5166C46.9013 18.0861 48.8038 17.2979 50.8278 17.2979C52.8513 17.2979 54.7539 18.0861 56.1849 19.5166C57.6154 20.9476 58.4036 22.8502 58.4036 24.8737C58.4036 26.8976 57.6154 28.8002 56.1849 30.2308L46.1054 40.3102Z" fill="white"/>
<path fill-rule="evenodd" clip-rule="evenodd" d="M50.8314 46.7019C48.8075 46.7019 46.9049 45.9137 45.4739 44.4832L35.3945 34.4038L37.0283 32.77L47.1077 42.8494C48.1025 43.8442 49.4248 44.392 50.8314 44.392C52.2377 44.392 53.5599 43.8442 54.5547 42.8494C56.6075 40.7962 56.6075 37.4555 54.5547 35.4023C54.5401 35.3877 53.5867 34.4343 53.5867 34.4343L55.2205 32.801C55.2205 32.801 56.1534 33.7339 56.186 33.7661C59.1424 36.7225 59.1424 41.5292 56.1886 44.4827C54.7575 45.9137 52.855 46.7019 50.8314 46.7019Z" fill="white"/>
<path d="M70.166 28.6804H71.4352V20.3071H70.166V28.6804Z" fill="white"/>
<path d="M73.668 28.6804H74.9372V22.7307H74.9601L78.7447 28.6804H79.9451V20.3071H78.6758V26.2568H78.6528L74.8625 20.3071H73.668V28.6804Z" fill="white"/>
<path d="M83.6088 28.6804H84.8838V21.4385H87.1752V20.3071H81.3174V21.4385H83.6088V28.6804Z" fill="white"/>
<path d="M88.542 28.6804H93.8887V27.4801H89.8112V25.0221H93.2915V23.8965H89.8112V21.5074H93.8887V20.3071H88.542V28.6804Z" fill="white"/>
<path d="M96.8287 21.4385H98.8158C99.2216 21.4385 99.5318 21.5246 99.7462 21.6969C100.018 21.8922 100.158 22.2081 100.165 22.6445C100.165 23.0082 100.049 23.3145 99.8151 23.5634C99.5777 23.8314 99.2216 23.9692 98.7469 23.9769H96.8287V21.4385ZM95.5596 28.6804H96.8287V25.1025H98.4483L100.177 28.6804H101.687L99.7462 24.9647C100.811 24.555 101.35 23.7816 101.366 22.6445C101.343 21.8711 101.065 21.2758 100.533 20.8585C100.093 20.4909 99.5241 20.3071 98.8273 20.3071H95.5596V28.6804Z" fill="white"/>
<path d="M107.51 26.3373C107.157 27.0992 106.625 27.4802 105.913 27.4802C105.614 27.4802 105.358 27.417 105.144 27.2907C104.926 27.1834 104.749 27.0437 104.615 26.8714C104.451 26.6914 104.342 26.456 104.288 26.165C104.226 25.8741 104.196 25.317 104.196 24.4938C104.196 23.6707 104.226 23.1098 104.288 22.8111C104.342 22.5278 104.451 22.2962 104.615 22.1162C104.749 21.9439 104.926 21.8004 105.144 21.6855C105.358 21.5745 105.614 21.5151 105.913 21.5075C106.319 21.5151 106.664 21.6319 106.947 21.8578C107.219 22.0952 107.406 22.3823 107.51 22.7192H108.854C108.719 22.0186 108.398 21.4309 107.889 20.9561C107.379 20.4852 106.721 20.2459 105.913 20.2383C105.255 20.2459 104.705 20.4029 104.265 20.7092C103.817 21.0117 103.491 21.3562 103.288 21.7429C103.163 21.9459 103.069 22.2119 103.008 22.5412C102.95 22.8705 102.921 23.5213 102.921 24.4938C102.921 25.4509 102.95 26.0981 103.008 26.4349C103.038 26.6149 103.076 26.7642 103.122 26.8829C103.172 26.9977 103.227 27.1184 103.288 27.2447C103.491 27.6314 103.817 27.9721 104.265 28.267C104.705 28.5732 105.255 28.734 105.913 28.7493C106.641 28.7493 107.27 28.5426 107.803 28.1291C108.319 27.7118 108.67 27.1145 108.854 26.3373H107.51Z" fill="white"/>
<path d="M114.809 28.6804H116.078V20.3071H114.809V23.8965H111.495V20.3071H110.226V28.6804H111.495V25.0221H114.809V28.6804Z" fill="white"/>
<path d="M119.805 25.6825L121.016 22.0243H121.04L122.251 25.6825H119.805ZM123.262 28.6804H124.6L121.556 20.3071H120.494L117.45 28.6804H118.794L119.437 26.8082H122.613L123.262 28.6804Z" fill="white"/>
<path d="M125.972 28.6804H127.24V20.3071H125.972V28.6804Z" fill="white"/>
<path d="M129.475 28.6804H130.743V22.7307H130.767L134.551 28.6804H135.752V20.3071H134.482V26.2568H134.459L130.669 20.3071H129.475V28.6804Z" fill="white"/>
<path d="M70.166 43.3825H71.4352V39.8046H74.9154V38.679H71.4352V36.2095H75.5127V35.0093H70.166V43.3825Z" fill="white"/>
<path d="M76.666 39.1955C76.666 40.1526 76.6948 40.7997 76.7522 41.1366C76.7828 41.3166 76.8211 41.4659 76.8671 41.5846C76.9168 41.6994 76.9723 41.82 77.0336 41.9463C77.2365 42.3331 77.562 42.6738 78.0099 42.9686C78.4502 43.2749 78.9996 43.4357 79.6581 43.451C80.3243 43.4357 80.8795 43.2749 81.3236 42.9686C81.7639 42.6738 82.0816 42.3331 82.2769 41.9463C82.4185 41.7434 82.5162 41.4735 82.5698 41.1366C82.6196 40.7997 82.6444 40.1526 82.6444 39.1955C82.6444 38.223 82.6196 37.5721 82.5698 37.2429C82.5162 36.9136 82.4185 36.6475 82.2769 36.4446C82.0816 36.0579 81.7639 35.7133 81.3236 35.4108C80.8795 35.1046 80.3243 34.9476 79.6581 34.9399C78.9996 34.9476 78.4502 35.1046 78.0099 35.4108C77.562 35.7133 77.2365 36.0579 77.0336 36.4446C76.9072 36.6475 76.8134 36.9136 76.7522 37.2429C76.6948 37.5721 76.666 38.223 76.666 39.1955ZM77.941 39.1955C77.941 38.3723 77.9716 37.8114 78.0329 37.5128C78.0864 37.2295 78.1956 36.9979 78.3602 36.8179C78.4942 36.6456 78.6703 36.502 78.8886 36.3872C79.1029 36.2761 79.3595 36.2168 79.6581 36.2092C79.9606 36.2168 80.2229 36.2761 80.4449 36.3872C80.6555 36.502 80.824 36.6456 80.9502 36.8179C81.1149 36.9979 81.2279 37.2295 81.2891 37.5128C81.3465 37.8114 81.3753 38.3723 81.3753 39.1955C81.3753 40.0187 81.3465 40.5757 81.2891 40.8667C81.2279 41.1576 81.1149 41.3931 80.9502 41.573C80.824 41.7453 80.6555 41.8851 80.4449 41.9923C80.2229 42.1186 79.9606 42.1818 79.6581 42.1818C79.3595 42.1818 79.1029 42.1186 78.8886 41.9923C78.6703 41.8851 78.4942 41.7453 78.3602 41.573C78.1956 41.3931 78.0864 41.1576 78.0329 40.8667C77.9716 40.5757 77.941 40.0187 77.941 39.1955Z" fill="white"/>
<path d="M84.4473 40.5455C84.455 41.426 84.7459 42.1247 85.3202 42.6417C85.8831 43.1738 86.5837 43.4437 87.4221 43.4514C88.276 43.4437 88.9823 43.1738 89.5413 42.6417C90.0964 42.1247 90.3817 41.426 90.397 40.5455V35.0093H89.1278V40.4076C89.1201 40.9781 88.9594 41.4127 88.6454 41.7113C88.3238 42.0252 87.9161 42.1822 87.4221 42.1822C86.9282 42.1822 86.5244 42.0252 86.2104 41.7113C85.8888 41.4127 85.7241 40.9781 85.7165 40.4076V35.0093H84.4473V40.5455Z" fill="white"/>
<path d="M92.4814 43.3825H93.7507V37.4328H93.7736L97.5582 43.3825H98.7585V35.0093H97.4893V40.959H97.4663L93.676 35.0093H92.4814V43.3825Z" fill="white"/>
<path d="M101.004 43.3825H103.847C104.475 43.3825 105.005 43.2447 105.438 42.969C105.874 42.7125 106.215 42.387 106.459 41.9927C106.551 41.8433 106.63 41.6998 106.695 41.562C106.756 41.4203 106.803 41.2595 106.833 41.0796C106.898 40.7235 106.931 40.0956 106.931 39.1959C106.931 38.3497 106.909 37.7544 106.867 37.4098C106.814 37.0652 106.686 36.736 106.483 36.422C105.916 35.4878 105.066 35.0169 103.933 35.0093H101.004V43.3825ZM102.273 36.2095H103.789C104.433 36.1942 104.93 36.4296 105.282 36.9159C105.454 37.1111 105.564 37.3658 105.61 37.6797C105.644 37.9936 105.662 38.5144 105.662 39.2418C105.662 39.9884 105.644 40.4976 105.61 40.7694C105.571 41.0451 105.482 41.2729 105.34 41.4529C105.019 41.9391 104.501 42.1822 103.789 42.1822H102.273V36.2095Z" fill="white"/>
<path d="M110.146 40.3846L111.358 36.7264H111.381L112.593 40.3846H110.146ZM113.603 43.3825H114.941L111.897 35.0093H110.835L107.791 43.3825H109.136L109.778 41.5103H112.954L113.603 43.3825Z" fill="white"/>
<path d="M116.859 43.3825H118.134V36.1406H120.425V35.0093H114.567V36.1406H116.859V43.3825Z" fill="white"/>
<path d="M121.792 43.3825H123.062V35.0093H121.792V43.3825Z" fill="white"/>
<path d="M125.007 39.1955C125.007 40.1526 125.036 40.7997 125.094 41.1366C125.124 41.3166 125.162 41.4659 125.208 41.5846C125.258 41.6994 125.313 41.82 125.374 41.9463C125.577 42.3331 125.903 42.6738 126.351 42.9686C126.791 43.2749 127.341 43.4357 127.999 43.451C128.665 43.4357 129.22 43.2749 129.664 42.9686C130.105 42.6738 130.423 42.3331 130.618 41.9463C130.76 41.7434 130.857 41.4735 130.911 41.1366C130.96 40.7997 130.985 40.1526 130.985 39.1955C130.985 38.223 130.96 37.5721 130.911 37.2429C130.857 36.9136 130.76 36.6475 130.618 36.4446C130.423 36.0579 130.105 35.7133 129.664 35.4108C129.22 35.1046 128.665 34.9476 127.999 34.9399C127.341 34.9476 126.791 35.1046 126.351 35.4108C125.903 35.7133 125.577 36.0579 125.374 36.4446C125.248 36.6475 125.155 36.9136 125.094 37.2429C125.036 37.5721 125.007 38.223 125.007 39.1955ZM126.282 39.1955C126.282 38.3723 126.312 37.8114 126.374 37.5128C126.428 37.2295 126.537 36.9979 126.701 36.8179C126.835 36.6456 127.011 36.502 127.23 36.3872C127.444 36.2761 127.7 36.2168 127.999 36.2092C128.302 36.2168 128.564 36.2761 128.786 36.3872C128.996 36.502 129.165 36.6456 129.291 36.8179C129.456 36.9979 129.569 37.2295 129.63 37.5128C129.688 37.8114 129.717 38.3723 129.717 39.1955C129.717 40.0187 129.688 40.5757 129.63 40.8667C129.569 41.1576 129.456 41.3931 129.291 41.573C129.165 41.7453 128.996 41.8851 128.786 41.9923C128.564 42.1186 128.302 42.1818 127.999 42.1818C127.7 42.1818 127.444 42.1186 127.23 41.9923C127.011 41.8851 126.835 41.7453 126.701 41.573C126.537 41.3931 126.428 41.1576 126.374 40.8667C126.312 40.5757 126.282 40.0187 126.282 39.1955Z" fill="white"/>
<path d="M132.943 43.3825H134.212V37.4328H134.235L138.02 43.3825H139.22V35.0093H137.951V40.959H137.928L134.138 35.0093H132.943V43.3825Z" fill="white"/>
</g>
<defs>
<clipPath id="clip0">
<rect width="111" height="29.404" fill="white" transform="translate(29 17.2979)"/>
</clipPath>
</defs>
</svg>
