<svg width="169" height="64" viewBox="0 0 169 64" fill="none" xmlns="http://www.w3.org/2000/svg">
<g clip-path="url(#clip0)">
<path d="M100.926 24.3535H105.264L97.7158 43.1124H92.7034L85.1553 24.3535H89.4928L95.1998 38.5914L100.926 24.3535Z" fill="white"/>
<path d="M50.1863 20.4751H46.2354V43.1195H50.1863V20.4751Z" fill="white"/>
<path d="M60.9914 43.119L52.3359 31.7968L60.9914 20.4746H65.9514L57.4073 31.7968L65.9514 43.119H60.9914Z" fill="white"/>
<path d="M75.4061 23.8555C71.0816 23.8555 67.8252 26.247 67.5893 29.8049L67.5631 30.2242H71.442L71.5075 29.9162C71.8679 28.2454 73.2308 27.3281 75.3406 27.3281C77.6338 27.3281 78.9508 28.4813 78.9508 30.4994V31.6591L74.0825 31.9343C69.7057 32.1899 67.0586 34.3324 67.0586 37.6609C67.0586 41.1729 69.6926 43.5251 73.5649 43.5251C75.8713 43.5251 77.5552 42.8961 78.9312 41.4874V43.2041H82.8625V30.198C82.8625 26.3453 79.8878 23.8555 75.4061 23.8555ZM78.9443 34.6993V35.8656C78.6887 38.4144 76.9262 40.0132 74.2267 40.1442C73.1849 40.1966 72.2872 39.9149 71.6975 39.3514C71.2323 38.9124 70.9899 38.3227 70.9899 37.6544C70.9899 36.1605 72.261 35.2235 74.4953 35.0794L78.9443 34.6993Z" fill="white"/>
<path d="M115.309 23.8555C110.984 23.8555 107.728 26.247 107.492 29.8049L107.466 30.2242H111.345L111.41 29.9162C111.771 28.2454 113.133 27.3281 115.243 27.3281C117.536 27.3281 118.853 28.4813 118.853 30.4994V31.6591L113.992 31.9343C109.615 32.1899 106.968 34.3324 106.968 37.6609C106.968 41.1729 109.602 43.5251 113.474 43.5251C115.78 43.5251 117.464 42.8961 118.84 41.4874V43.2041H122.772V30.198C122.765 26.3453 119.79 23.8555 115.309 23.8555ZM118.853 34.6993V35.8656C118.598 38.4144 116.835 40.0132 114.136 40.1442C113.094 40.1966 112.196 39.9149 111.607 39.3514C111.142 38.9124 110.899 38.3227 110.899 37.6544C110.899 36.1605 112.17 35.2235 114.405 35.0794L118.853 34.6993Z" fill="white"/>
</g>
<defs>
<clipPath id="clip0">
<rect width="77.709" height="23.5879" fill="white" transform="translate(45.6455 20.2061)"/>
</clipPath>
</defs>
</svg>
