<svg width="171" height="64" viewBox="0 0 171 64" fill="none" xmlns="http://www.w3.org/2000/svg">
<path fill-rule="evenodd" clip-rule="evenodd" d="M122.317 31.4253C122.317 35.9031 118.687 39.5331 114.209 39.5331C109.732 39.5331 106.102 35.9031 106.102 31.4253C106.102 26.9476 109.732 23.3176 114.209 23.3176C118.687 23.3176 122.317 26.9476 122.317 31.4253ZM110.488 27.2491H117.915V28.6637H112.29L110.488 27.2491ZM110.489 30.6447H117.915V32.0593H110.489V30.6447ZM117.915 35.5955H110.489L112.29 34.1809H117.915V35.5955Z" fill="white"/>
<path d="M125.512 34.2881V28.177H129.903V29.4342H126.839V30.508H128.55V31.7651H126.839V33.0222H130.078V34.2881H125.512ZM134.799 34.2881L133.541 32.3588L132.284 34.2881H130.722L132.764 31.1453L130.835 28.177H132.398L133.541 29.9318L134.676 28.177H136.248L134.327 31.1453L136.361 34.2881H134.799ZM137.227 34.2881V28.177H138.554V34.2881H137.227ZM139.895 28.177H142.147C142.659 28.177 143.113 28.2643 143.509 28.4389C143.905 28.6077 144.216 28.8405 144.443 29.1373C144.676 29.4283 144.848 29.7514 144.958 30.1064C145.074 30.4614 145.133 30.8368 145.133 31.2326C145.133 31.5236 145.101 31.8087 145.037 32.0881C144.973 32.3617 144.865 32.6352 144.714 32.9087C144.562 33.1765 144.373 33.4122 144.146 33.6159C143.919 33.8138 143.631 33.9767 143.282 34.1048C142.933 34.227 142.543 34.2881 142.112 34.2881H139.895V28.177ZM142.252 33.0222C142.752 33.0222 143.128 32.8447 143.378 32.4897C143.628 32.1289 143.753 31.7098 143.753 31.2326C143.753 30.7553 143.631 30.3363 143.387 29.9754C143.148 29.6146 142.802 29.4342 142.348 29.4342H141.222V33.0222H142.252ZM146.256 34.2881V28.177H147.583V34.2881H146.256ZM151.42 34.3929C151.036 34.3929 150.687 34.3318 150.372 34.2095C150.064 34.0873 149.808 33.9244 149.604 33.7207C149.4 33.5111 149.229 33.2696 149.089 32.9961C148.955 32.7225 148.856 32.4402 148.792 32.1492C148.734 31.8524 148.705 31.5469 148.705 31.2326C148.705 30.9183 148.734 30.6156 148.792 30.3246C148.856 30.0278 148.955 29.7426 149.089 29.4691C149.229 29.1955 149.4 28.9569 149.604 28.7532C149.808 28.5437 150.064 28.3778 150.372 28.2556C150.687 28.1334 151.036 28.0723 151.42 28.0723C151.891 28.0723 152.308 28.1654 152.668 28.3516C153.029 28.5321 153.312 28.7794 153.515 29.0937C153.719 29.4022 153.87 29.7368 153.969 30.0977C154.074 30.4585 154.126 30.8368 154.126 31.2326C154.126 31.6283 154.074 32.0066 153.969 32.3675C153.87 32.7283 153.719 33.0659 153.515 33.3802C153.312 33.6886 153.029 33.936 152.668 34.1222C152.308 34.3027 151.891 34.3929 151.42 34.3929ZM151.42 33.1095C151.723 33.1095 151.979 33.0077 152.188 32.804C152.398 32.5945 152.543 32.3558 152.625 32.0881C152.706 31.8146 152.747 31.5294 152.747 31.2326C152.747 30.9183 152.709 30.6273 152.633 30.3596C152.558 30.086 152.415 29.8503 152.206 29.6524C151.996 29.4487 151.734 29.3469 151.42 29.3469C151.106 29.3469 150.841 29.4516 150.626 29.6612C150.416 29.8648 150.273 30.1035 150.198 30.377C150.122 30.6447 150.084 30.9299 150.084 31.2326C150.084 31.4595 150.108 31.6778 150.154 31.8873C150.201 32.0968 150.273 32.2976 150.372 32.4897C150.471 32.6759 150.611 32.8273 150.791 32.9437C150.972 33.0542 151.181 33.1095 151.42 33.1095Z" fill="white"/>
<path fill-rule="evenodd" clip-rule="evenodd" d="M93.5756 23C93.7721 23 93.9314 23.1593 93.9314 23.3559V39.6442C93.9314 39.8407 93.7721 40 93.5756 40C93.379 40 93.2197 39.8407 93.2197 39.6442V23.3559C93.2197 23.1593 93.379 23 93.5756 23Z" fill="white"/>
<path d="M40.4349 32.4315C40.4349 33.0795 40.1993 33.5848 39.7284 33.9474C39.2573 34.31 38.618 34.4913 37.8104 34.4913C36.9356 34.4913 36.2626 34.3788 35.7915 34.1538V33.3279C36.0943 33.4555 36.4242 33.5562 36.7808 33.6301C37.1375 33.704 37.4907 33.7409 37.8407 33.7409C38.4127 33.7409 38.8434 33.6335 39.1327 33.4186C39.422 33.2004 39.5668 32.8982 39.5668 32.5121C39.5668 32.2569 39.5147 32.0488 39.4103 31.8876C39.3094 31.7231 39.1378 31.572 38.8955 31.4344C38.6566 31.2967 38.2916 31.1406 37.8004 30.966C37.1139 30.721 36.6226 30.4305 36.3266 30.0948C36.0338 29.7591 35.8875 29.321 35.8875 28.7804C35.8875 28.213 36.1012 27.7615 36.5284 27.4257C36.9558 27.09 37.5211 26.9221 38.2243 26.9221C38.9578 26.9221 39.6324 27.0564 40.2481 27.325L39.9807 28.0703C39.3717 27.8152 38.7794 27.6876 38.2041 27.6876C37.7498 27.6876 37.3949 27.785 37.1391 27.9797C36.8835 28.1744 36.7556 28.4447 36.7556 28.7905C36.7556 29.0456 36.8026 29.2555 36.8968 29.42C36.991 29.5811 37.1493 29.7305 37.3712 29.8682C37.5967 30.0025 37.9399 30.1519 38.4009 30.3164C39.1748 30.5917 39.7064 30.8871 39.9958 31.2027C40.2886 31.5183 40.4349 31.9279 40.4349 32.4315Z" fill="white"/>
<path d="M46.0577 34.3905H41.9443V27.0278H46.0577V27.7883H42.8023V30.1602H45.8609V30.9156H42.8023V33.625H46.0577V34.3905Z" fill="white"/>
<path d="M53.4616 34.3905H52.4824L48.4497 28.2113H48.4094C48.4632 28.9365 48.4902 29.6012 48.4902 30.2056V34.3905H47.6978V27.0278H48.6668L52.6894 33.1819H52.7298C52.7229 33.0912 52.7078 32.8008 52.6843 32.3106C52.6608 31.8171 52.6524 31.4646 52.6591 31.2531V27.0278H53.4616V34.3905Z" fill="white"/>
<path d="M57.7616 34.3905H56.9037V27.7883H54.5669V27.0278H60.0984V27.7883H57.7616V34.3905Z" fill="white"/>
<path d="M61.2139 34.3905V27.0278H62.0718V34.3905H61.2139Z" fill="white"/>
<path d="M69.8654 34.3905H68.8862L64.8535 28.2113H64.8132C64.867 28.9365 64.8941 29.6012 64.8941 30.2056V34.3905H64.1016V27.0278H65.0706L69.0932 33.1819H69.1336C69.1267 33.0912 69.1117 32.8008 69.0881 32.3106C69.0646 31.8171 69.0562 31.4646 69.0629 31.2531V27.0278H69.8654V34.3905Z" fill="white"/>
<path d="M76.0069 34.3905H71.8936V27.0278H76.0069V27.7883H72.7515V30.1602H75.8101V30.9156H72.7515V33.625H76.0069V34.3905Z" fill="white"/>
<path d="M77.6475 34.3905V27.0278H78.5056V33.615H81.7608V34.3905H77.6475Z" fill="white"/>
<path d="M30.5517 23.3176V29.6196C30.5517 30.9277 30.671 33.3849 29.5404 35.2484C28.1129 37.6459 25.4982 39.4696 22.9798 39.6853C20.4431 39.4666 17.8269 37.6428 16.4009 35.2484C15.2902 33.365 15.4095 30.9277 15.4095 29.6196V23.3176H30.5517Z" stroke="white" stroke-width="0.488063" stroke-miterlimit="10"/>
<path d="M26.5902 35.2379L25.8864 34.71C25.6895 34.9132 25.4732 35.0966 25.2407 35.2577L25.9246 35.7718V35.8315C26.6182 35.2934 27.2024 34.6276 27.6458 33.8701C27.8811 33.4477 28.0528 32.993 28.1553 32.5206V32.5007C28.0585 32.9841 27.8794 33.4473 27.626 33.8701C27.3499 34.3745 27.0009 34.8354 26.5902 35.2379Z" fill="white"/>
<path d="M26.5899 35.2379L25.8861 34.71C25.6868 34.9148 25.4686 35.1002 25.2344 35.2639L25.9259 35.7718V35.8315C26.6191 35.293 27.2032 34.6273 27.6472 33.8701C27.8813 33.4474 28.0524 32.9927 28.1551 32.5206V32.5007C28.0581 32.9838 27.8796 33.4469 27.6273 33.8701C27.3507 34.3745 27.0011 34.8354 26.5899 35.2379Z" fill="white"/>
<path d="M25.2421 36.2952C24.5522 36.7189 23.7776 36.9858 22.9731 37.077C23.779 36.9922 24.555 36.7248 25.2421 36.2952Z" fill="white"/>
<path d="M25.2421 36.2952C24.5522 36.7189 23.7776 36.9858 22.9731 37.077C23.779 36.9922 24.555 36.7248 25.2421 36.2952Z" fill="white"/>
<path d="M19.751 25.2451L20.9184 26.1325H22.2678L21.0943 25.2451H19.751Z" fill="white"/>
<path d="M19.751 25.2451L20.9184 26.1325H22.2678L21.0943 25.2451H19.751Z" fill="white"/>
<path d="M18.8867 25.2451H17.5557V28.4718L25.8879 34.7111C26.9237 33.6738 27.4714 32.462 27.5296 32.2065C27.5694 32.0704 27.6076 32.0306 27.6826 32.0306C27.8188 32.0306 27.9886 32.2065 28.1707 32.4223V32.5003C28.2268 32.2755 28.2662 32.0469 28.2885 31.8164V31.6404L20.9201 26.1325H18.8867V25.2451Z" fill="white"/>
<path d="M27.6844 32.0308C27.6064 32.0308 27.5682 32.069 27.5314 32.2067C27.4901 32.4607 26.9424 33.6923 25.8867 34.7097L26.5905 35.2376C27.0019 34.8274 27.3569 34.3644 27.6462 33.8606C27.8953 33.4364 28.0736 32.9744 28.174 32.4928V32.4148C27.9981 32.2067 27.8221 32.0308 27.6844 32.0308Z" fill="white"/>
<path d="M27.6844 32.0308C27.6064 32.0308 27.5682 32.069 27.5314 32.2067C27.4901 32.4607 26.9424 33.6923 25.8867 34.7097L26.5905 35.2376C27.0019 34.8274 27.3569 34.3644 27.6462 33.8606C27.8953 33.4364 28.0736 32.9744 28.174 32.4928V32.4148C27.9981 32.2067 27.8221 32.0308 27.6844 32.0308Z" fill="white"/>
<path d="M18.8848 25.2451V26.1325H20.9181L19.7507 25.2451H18.8848Z" fill="white"/>
<path d="M18.8848 25.2451V26.1325H20.9181L19.7507 25.2451H18.8848Z" fill="white"/>
<path d="M18.8848 25.2451V26.1325H20.9181L19.7507 25.2451H18.8848Z" fill="white"/>
<path d="M28.3502 25.2451H27.4904V26.1325H22.2686L28.3502 30.6811V25.2451Z" fill="white"/>
<path d="M27.49 25.2451H21.0962L22.2697 26.1325H27.49V25.2451Z" fill="white"/>
<path d="M27.49 25.2451H21.0962L22.2697 26.1325H27.49V25.2451Z" fill="white"/>
<path d="M27.49 25.2451H21.0962L22.2697 26.1325H27.49V25.2451Z" fill="white"/>
<path d="M25.2805 36.2751C25.2606 36.2751 25.2606 36.295 25.2407 36.295C25.256 36.2936 25.2702 36.2865 25.2805 36.2751Z" fill="white"/>
<path d="M25.2805 36.2751C25.2606 36.2751 25.2606 36.295 25.2407 36.295C25.256 36.2936 25.2702 36.2865 25.2805 36.2751Z" fill="white"/>
<path d="M23.2698 36.157C23.9903 36.0166 24.6701 35.7159 25.2587 35.2772L17.5553 29.5276V29.8045C17.5553 30.7424 17.4773 32.5218 18.279 33.8712C19.1587 35.4012 20.6841 36.5701 22.2676 36.9618C21.9938 36.6649 22.1514 36.3528 23.2698 36.157Z" fill="white"/>
<path d="M25.2592 35.2773C24.6729 35.7201 23.9922 36.0212 23.2702 36.1571C22.1549 36.3529 21.9988 36.6666 22.2727 36.9588C22.3484 36.9805 22.4265 36.9928 22.5052 36.9955C22.6597 37.0304 22.816 37.0565 22.9734 37.0735C23.7772 36.9795 24.5512 36.7128 25.2424 36.2917C25.2622 36.2917 25.2622 36.2718 25.2821 36.2718C25.3642 36.2272 25.4424 36.1761 25.5162 36.1188C25.6692 36.0209 25.81 35.9031 25.966 35.8128V35.7929L25.2592 35.2773Z" fill="white"/>
<path d="M25.2592 35.2773C24.6729 35.7201 23.9922 36.0212 23.2702 36.1571C22.1549 36.3529 21.9988 36.6666 22.2727 36.9588C22.3484 36.9805 22.4265 36.9928 22.5052 36.9955C22.6597 37.0304 22.816 37.0565 22.9734 37.0735C23.7772 36.9795 24.5512 36.7128 25.2424 36.2917C25.2622 36.2917 25.2622 36.2718 25.2821 36.2718C25.3642 36.2272 25.4424 36.1761 25.5162 36.1188C25.6692 36.0209 25.81 35.8924 25.966 35.7945V35.7853L25.2592 35.2773Z" fill="white"/>
<mask id="mask0_2634_7248" style="mask-type:alpha" maskUnits="userSpaceOnUse" x="15" y="23" width="16" height="17">
<path d="M30.5327 23.3176V29.5997C30.5327 30.9078 30.6505 33.3451 29.5413 35.2285C28.1138 37.626 25.5174 39.4497 22.9807 39.6655C20.444 39.4299 17.8476 37.6076 16.4202 35.2086C15.314 33.3451 15.4303 30.888 15.4303 29.5798V23.3176H30.5327Z" fill="#142D51"/>
</mask>
<g mask="url(#mask0_2634_7248)">
<path d="M18.8867 25.2451H17.5556V28.4718L25.8879 34.7111C26.942 33.7518 27.528 32.4804 27.5295 32.2065C27.5693 32.0703 27.6076 32.0306 27.6825 32.0306C27.8187 32.0306 27.9885 32.2065 28.1706 32.4223V32.5003C28.2267 32.2755 28.2661 32.0469 28.2884 31.8164V31.6404L20.92 26.1325H18.8867V25.2451Z" fill="white"/>
<path d="M27.6843 32.0307C27.6063 32.0307 27.568 32.0689 27.5313 32.2066C27.49 32.4606 26.9423 33.6922 25.8866 34.7097L26.5904 35.2375C27.0018 34.8274 27.3568 34.3643 27.6461 33.8605C27.8952 33.4363 28.0735 32.9743 28.1739 32.4927V32.4147C27.998 32.2066 27.822 32.0307 27.6843 32.0307Z" fill="white"/>
<path d="M28.35 25.2451H27.4902V26.1325H22.2683L28.35 30.6811V25.2451Z" fill="white"/>
<path d="M23.2698 36.1569C24.1082 36.0988 24.6972 35.6872 25.2587 35.2771L17.5553 29.5275V29.8044C17.5553 30.7423 17.4773 32.5217 18.279 33.8711C19.1587 35.4011 20.6841 36.57 22.2676 36.9617C21.9938 36.6648 22.1514 36.3527 23.2698 36.1569Z" fill="white"/>
<path d="M25.2587 35.2771C24.6725 35.7199 23.9918 36.021 23.2698 36.1569C22.1544 36.3527 21.9986 36.6666 22.2724 36.9588C22.3482 36.9805 22.4263 36.9929 22.505 36.9955C22.6594 37.0305 22.8158 37.0565 22.9732 37.0736C23.777 36.9795 24.551 36.7128 25.2421 36.2918C25.262 36.2918 25.262 36.2719 25.2819 36.2719C25.3639 36.2273 25.4422 36.1761 25.516 36.1189C25.669 36.0209 25.8098 35.8924 25.9658 35.7945V35.7853L25.2587 35.2771Z" fill="white"/>
</g>
</svg>
