<svg width="171" height="64" viewBox="0 0 171 64" fill="none" xmlns="http://www.w3.org/2000/svg">
<g clip-path="url(#clip0)">
<path d="M59 24.3884C59 24.0277 59.1546 23.7186 59.4122 23.461C59.6698 23.2034 59.9789 23.0488 60.391 23.0488C60.7517 23.0488 61.0608 23.2034 61.3699 23.461C61.6275 23.7186 61.7821 24.0277 61.7821 24.3884V28.2524C62.9155 27.4281 64.2035 27.0159 65.6976 27.0159C67.5524 27.0159 69.098 27.6341 70.386 28.9221C71.674 30.2101 72.3438 31.7558 72.3438 33.559C72.3438 35.3622 71.674 36.9078 70.386 38.1958C69.098 39.4838 67.5524 40.102 65.6976 40.102C63.8429 40.102 62.2973 39.4838 61.0093 38.1958C59.7213 36.9593 59.103 35.4137 59.0515 33.6105L59 24.3884ZM62.864 36.2895C63.6368 37.0623 64.5642 37.423 65.6461 37.423C66.728 37.423 67.6554 37.0623 68.4282 36.2895C69.201 35.5167 69.5617 34.5894 69.5617 33.559C69.5617 32.477 69.201 31.5497 68.4282 30.7769C67.6554 30.0041 66.728 29.6434 65.6461 29.6434C64.5642 29.6434 63.6368 30.0041 62.864 30.7769C62.1943 31.4466 61.8336 32.1679 61.7306 33.0438V33.559C61.7306 33.662 61.7306 33.7135 61.7306 33.8166C61.7821 34.7955 62.1427 35.6198 62.864 36.2895Z" fill="white"/>
<path d="M76.311 25.6766C75.9503 25.6766 75.6412 25.5221 75.3321 25.2644C75.0745 25.0068 74.9199 24.6977 74.9199 24.3371C74.9199 23.9764 75.0745 23.6673 75.3321 23.4097C75.5897 23.1521 75.8988 22.9976 76.311 22.9976C76.6716 22.9976 76.9807 23.1521 77.2899 23.4097C77.5475 23.6673 77.702 23.9764 77.702 24.3371C77.702 24.6977 77.5475 25.0068 77.2899 25.2644C77.0323 25.5221 76.6716 25.6766 76.311 25.6766ZM76.311 40.1023C75.9503 40.1023 75.6412 39.9477 75.3321 39.6901C75.0745 39.4325 74.9199 39.1234 74.9199 38.7628V28.2526C74.9199 27.892 75.0745 27.5829 75.3321 27.3253C75.5897 27.0677 75.8988 26.9131 76.311 26.9131C76.6716 26.9131 76.9807 27.0677 77.2899 27.3253C77.5475 27.5829 77.702 27.892 77.702 28.2526V38.7628C77.702 39.1234 77.5475 39.4325 77.2899 39.6901C77.0323 39.9477 76.7231 40.1023 76.311 40.1023Z" fill="white"/>
<path d="M83.421 26.9131V24.4401C83.421 24.0795 83.5756 23.7703 83.8332 23.5127C84.0908 23.2551 84.3999 23.1006 84.8121 23.1006C85.1727 23.1006 85.4818 23.2551 85.791 23.5127C86.0486 23.7703 86.2031 24.0795 86.2031 24.4401V26.9131H87.6972C88.0579 26.9131 88.367 27.0676 88.6761 27.3252C88.9337 27.5828 89.0883 27.892 89.0883 28.2526C89.0883 28.6133 88.9337 28.9224 88.6761 29.18C88.4185 29.4376 88.1094 29.5921 87.6972 29.5921H86.2031V38.7112C86.2031 39.0719 86.0486 39.381 85.791 39.6386C85.5334 39.8962 85.2242 40.0508 84.8121 40.0508C84.4514 40.0508 84.1423 39.8962 83.8332 39.6386C83.5756 39.381 83.421 39.0719 83.421 38.7112V29.5921H81.8754C81.5148 29.5921 81.2057 29.4376 80.8965 29.18C80.6389 28.9224 80.4844 28.6133 80.4844 28.2526C80.4844 27.892 80.6389 27.5828 80.8965 27.3252C81.1541 27.0676 81.4633 26.9131 81.8754 26.9131H83.421Z" fill="white"/>
<path d="M94.3946 26.9644C94.7553 26.9644 95.0644 27.0674 95.322 27.325C95.5796 27.5826 95.6826 27.8917 95.6826 28.2524C95.6826 28.613 95.5796 28.9221 95.322 29.1797C95.0644 29.4373 94.7553 29.5919 94.3946 29.5919C94.1886 29.5919 94.034 29.6434 93.9309 29.798C93.8279 29.901 93.7249 30.0556 93.7249 30.2617C93.7249 30.4677 93.7764 30.6223 93.9309 30.7253C94.034 30.8284 94.2401 30.9314 94.3946 30.9314C95.6826 30.9314 96.7646 31.3951 97.6919 32.2709C98.6193 33.1468 99.0315 34.2287 99.0315 35.5167C99.0315 36.8047 98.5678 37.8867 97.6919 38.7625C96.7646 39.6383 95.6826 40.102 94.3946 40.102C93.1066 40.102 92.0247 39.6383 91.0973 38.7625C90.17 37.8867 89.7578 36.8047 89.7578 35.5167C89.7578 35.1561 89.9124 34.847 90.17 34.5894C90.4276 34.3318 90.7367 34.2287 91.0973 34.2287C91.458 34.2287 91.7671 34.3318 92.0247 34.5894C92.2823 34.847 92.3853 35.1561 92.3853 35.5167C92.3853 36.0834 92.5914 36.5471 92.9521 36.9078C93.3127 37.2684 93.8279 37.4745 94.3431 37.4745C94.9098 37.4745 95.3735 37.2684 95.7342 36.9078C96.1463 36.5471 96.3009 36.0834 96.3009 35.5167C96.3009 34.95 96.0948 34.4863 95.7342 34.1257C95.322 33.765 94.8583 33.5589 94.3431 33.5589C93.4157 33.5589 92.6429 33.2498 91.9732 32.5801C91.3034 31.9618 90.9943 31.189 90.9943 30.2617C90.9943 29.3343 91.3034 28.5615 91.9732 27.9432C92.6945 27.2735 93.4673 26.9644 94.3946 26.9644Z" fill="white"/>
<path d="M113.044 28.8706C114.332 30.1586 115.002 31.7042 115.002 33.5074C115.002 35.3106 114.332 36.8562 113.044 38.1443C111.756 39.4323 110.211 40.0505 108.356 40.0505C106.501 40.0505 104.956 39.4323 103.668 38.1443C102.38 36.8562 101.71 35.3106 101.71 33.5074C101.71 31.7042 102.38 30.1586 103.668 28.8706C104.956 27.5826 106.501 26.9644 108.356 26.9644C110.159 26.9644 111.705 27.6341 113.044 28.8706ZM108.356 29.6434C107.274 29.6434 106.347 30.0041 105.574 30.7769C104.801 31.5497 104.441 32.477 104.441 33.5074C104.441 34.5894 104.801 35.5167 105.574 36.2895C106.347 37.0623 107.274 37.423 108.356 37.423C109.438 37.423 110.365 37.0623 111.138 36.2895C111.911 35.5167 112.272 34.5894 112.272 33.5074C112.272 32.4255 111.911 31.4981 111.138 30.7769C110.365 30.0041 109.438 29.6434 108.356 29.6434Z" fill="white"/>
<path d="M124.431 26.9644C126.286 27.0674 127.831 27.7372 129.016 28.9221C130.304 30.1586 130.923 31.7042 130.974 33.5074V38.5564C130.974 39.0716 130.82 39.4323 130.562 39.6899C130.304 39.9475 129.995 40.102 129.583 40.102C129.222 40.102 128.913 39.9475 128.604 39.6899C128.347 39.4323 128.192 39.0716 128.192 38.5564V33.5074C128.192 33.4044 128.192 33.3529 128.192 33.2498C128.141 32.2709 127.78 31.4466 127.059 30.7769C126.286 30.0041 125.358 29.6434 124.277 29.6434H124.225C123.143 29.6434 122.216 30.0041 121.443 30.7769C120.722 31.4466 120.361 32.2709 120.309 33.2498C120.309 33.3529 120.309 33.4044 120.309 33.5074V38.5564C120.309 39.0716 120.155 39.4323 119.897 39.6899C119.64 39.9475 119.331 40.102 118.918 40.102C118.558 40.102 118.249 39.9475 117.94 39.6899C117.682 39.4323 117.527 39.0201 117.527 38.5564V33.5074C117.527 31.7042 118.197 30.2101 119.485 28.9221C120.67 27.7372 122.216 27.0674 124.07 26.9644H124.431Z" fill="white"/>
<path d="M144.163 38.814C143.03 39.6383 141.742 40.0505 140.248 40.0505C138.393 40.0505 136.847 39.4323 135.559 38.1443C134.271 36.8562 133.602 35.3106 133.602 33.5074C133.602 31.7042 134.271 30.1586 135.559 28.8706C136.847 27.5826 138.393 26.9644 140.248 26.9644C142.102 26.9644 143.648 27.5826 144.936 28.8706C146.224 30.1586 146.894 31.7042 146.894 33.5074V38.711C146.894 38.7625 146.894 38.8655 146.894 38.9171C146.842 40.6687 146.224 42.1628 144.936 43.3993C143.648 44.6873 142.102 45.3056 140.248 45.3056H140.196C139.836 45.3056 139.526 45.151 139.217 44.8934C138.908 44.6358 138.805 44.3267 138.805 43.966C138.805 43.6054 138.96 43.2963 139.217 43.0387C139.475 42.7811 139.784 42.6265 140.196 42.6265C140.248 42.6265 140.299 42.6265 140.402 42.6265C141.433 42.575 142.308 42.2144 143.081 41.4931C143.803 40.7718 144.163 39.8444 144.163 38.814ZM140.248 29.5919C139.166 29.5919 138.238 29.9525 137.466 30.7253C136.693 31.4981 136.332 32.4255 136.332 33.4559C136.332 34.5378 136.693 35.4652 137.466 36.238C138.238 37.0108 139.166 37.3714 140.248 37.3714C141.33 37.3714 142.257 37.0108 143.03 36.238C143.803 35.4652 144.163 34.5378 144.163 33.4559C144.163 32.374 143.803 31.4466 143.03 30.7253C142.257 30.0041 141.33 29.5919 140.248 29.5919Z" fill="white"/>
<path d="M38.5979 18C37.5675 18 36.5371 18.103 35.5067 18.3606C35.5067 18.4122 35.5067 18.4637 35.5067 18.5152V35.2593C35.5067 35.6199 35.1976 35.8775 34.8885 35.8775H33.652C33.3944 35.8775 33.1883 35.6715 33.1883 35.4139V19.0819C28.2939 21.1427 24.8936 25.9856 24.8936 31.5498C24.8936 39.0718 31.0245 45.1512 38.6495 45.1512C46.2745 45.1512 52.3539 39.0718 52.3539 31.6014C52.3539 24.1309 46.1714 18 38.5979 18ZM38.3403 37.2171C38.3403 37.5262 38.0827 37.7838 37.7736 37.7838H36.5371C36.228 37.7838 35.9704 37.5262 35.9704 37.2171V28.6132C35.9704 28.3041 36.228 28.0465 36.5371 28.0465H37.7736C38.0827 28.0465 38.3403 28.3041 38.3403 28.6132V37.2171ZM41.1224 38.0414C41.1224 38.3505 40.8648 38.6081 40.5557 38.6081H39.3192C39.0101 38.6081 38.7525 38.3505 38.7525 38.0414V27.7889C38.7525 27.4797 39.0101 27.2221 39.3192 27.2221H40.5557C40.8648 27.2221 41.1224 27.4797 41.1224 27.7889V38.0414ZM43.9045 36.4958C43.9045 36.8049 43.6469 37.0625 43.3378 37.0625H42.1013C41.7922 37.0625 41.5346 36.8049 41.5346 36.4958V29.4375C41.5346 29.1284 41.7922 28.8708 42.1013 28.8708H43.3378C43.6469 28.8708 43.9045 29.1284 43.9045 29.4375V36.4958Z" fill="white"/>
</g>
<defs>
<clipPath id="clip0">
<rect width="122" height="27.3057" fill="white" transform="translate(24.8936 18)"/>
</clipPath>
</defs>
</svg>
