<svg width="169" height="64" viewBox="0 0 169 64" fill="none" xmlns="http://www.w3.org/2000/svg">
<g clip-path="url(#clip0_2175:5461)">
<path d="M36.9523 30.8728V33.6253H40.8528V36.1839H36.9523V39.169H41.9725V41.8246H33.6377V28.2173H41.9725V30.8728H36.9523Z" fill="white"/>
<path d="M53.0632 41.7424L50.5023 36.6058H49.1691V41.7424H45.8545V28.1351H51.4175C52.4903 28.1351 53.4013 28.3225 54.1507 28.6972C54.9131 29.072 55.4818 29.5889 55.8564 30.2479C56.2312 30.8941 56.4185 31.6177 56.4185 32.4189C56.4185 33.3235 56.1601 34.1311 55.6432 34.8419C55.1392 35.5526 54.3898 36.0566 53.3947 36.3538L56.535 41.7424H53.0632ZM49.1691 34.2604H51.2239C51.8312 34.2604 52.2834 34.1117 52.5806 33.8145C52.8907 33.5173 53.0458 33.0973 53.0458 32.5546C53.0458 32.0377 52.8907 31.6306 52.5806 31.3334C52.2834 31.0362 51.8312 30.8876 51.2239 30.8876H49.1691V34.2604Z" fill="white"/>
<path d="M64.7925 41.9599C63.7974 41.9599 62.9057 41.7984 62.1174 41.4753C61.3292 41.1522 60.696 40.6741 60.2179 40.0409C59.7527 39.4077 59.5071 38.6453 59.4814 37.7536H63.0092C63.0607 38.2576 63.2353 38.6453 63.5325 38.9167C63.8297 39.1751 64.2174 39.3043 64.6956 39.3043C65.1866 39.3043 65.5742 39.1945 65.8586 38.9748C66.1429 38.7422 66.285 38.4256 66.285 38.025C66.285 37.689 66.1687 37.4112 65.936 37.1915C65.7165 36.9718 65.4386 36.7909 65.1026 36.6488C64.7796 36.5066 64.3144 36.3451 63.7069 36.1642C62.8283 35.8928 62.1111 35.6214 61.5553 35.3501C60.9998 35.0787 60.5217 34.6781 60.121 34.1483C59.7205 33.6185 59.52 32.9271 59.52 32.0742C59.52 30.8078 59.9789 29.8193 60.8963 29.1086C61.8139 28.3849 63.0092 28.0231 64.4824 28.0231C65.9812 28.0231 67.1894 28.3849 68.1071 29.1086C69.0245 29.8193 69.5156 30.8143 69.5803 32.0936H65.9942C65.9685 31.6543 65.8069 31.3118 65.5097 31.0663C65.2125 30.8078 64.8313 30.6786 64.3659 30.6786C63.9654 30.6786 63.6424 30.7885 63.3967 31.0082C63.1513 31.2149 63.0285 31.5186 63.0285 31.9192C63.0285 32.3585 63.2353 32.701 63.6487 32.9465C64.0624 33.192 64.7085 33.457 65.5871 33.7412C66.4659 34.0385 67.1767 34.3227 67.7193 34.5941C68.2751 34.8655 68.7532 35.2596 69.1537 35.7765C69.5544 36.2934 69.7546 36.9589 69.7546 37.773C69.7546 38.5484 69.5544 39.2526 69.1537 39.8858C68.7661 40.519 68.1974 41.023 67.448 41.3978C66.6986 41.7725 65.8132 41.9599 64.7925 41.9599Z" fill="white"/>
<path d="M76.6603 28.2173V41.8246H73.3457V28.2173H76.6603Z" fill="white"/>
<path d="M85.5359 41.9599C84.5408 41.9599 83.6491 41.7984 82.8608 41.4753C82.0726 41.1522 81.4394 40.6741 80.9613 40.0409C80.4961 39.4077 80.2505 38.6453 80.2246 37.7536H83.7526C83.8041 38.2576 83.9787 38.6453 84.2759 38.9167C84.5731 39.1751 84.9608 39.3043 85.439 39.3043C85.93 39.3043 86.3175 39.1945 86.602 38.9748C86.8862 38.7422 87.0284 38.4256 87.0284 38.025C87.0284 37.689 86.9121 37.4112 86.6794 37.1915C86.4597 36.9718 86.182 36.7909 85.846 36.6488C85.523 36.5066 85.0578 36.3451 84.4503 36.1642C83.5717 35.8928 82.8545 35.6214 82.2987 35.3501C81.7432 35.0787 81.2648 34.6781 80.8644 34.1483C80.4637 33.6185 80.2634 32.9271 80.2634 32.0742C80.2634 30.8078 80.7223 29.8193 81.6397 29.1086C82.5573 28.3849 83.7526 28.0231 85.2258 28.0231C86.7246 28.0231 87.9328 28.3849 88.8505 29.1086C89.7679 29.8193 90.259 30.8143 90.3237 32.0936H86.7375C86.7117 31.6543 86.5503 31.3118 86.2531 31.0663C85.9559 30.8078 85.5745 30.6786 85.1093 30.6786C84.7088 30.6786 84.3858 30.7885 84.1401 31.0082C83.8947 31.2149 83.7719 31.5186 83.7719 31.9192C83.7719 32.3585 83.9787 32.701 84.3921 32.9465C84.8058 33.192 85.4519 33.457 86.3305 33.7412C87.2093 34.0385 87.9199 34.3227 88.4627 34.5941C89.0185 34.8655 89.4966 35.2596 89.8971 35.7765C90.2978 36.2934 90.498 36.9589 90.498 37.773C90.498 38.5484 90.2978 39.2526 89.8971 39.8858C89.5096 40.519 88.9408 41.023 88.1914 41.3978C87.4418 41.7725 86.5566 41.9599 85.5359 41.9599Z" fill="white"/>
<path d="M103.878 28.2173V30.8728H100.273V41.8246H96.958V30.8728H93.3525V28.2173H103.878Z" fill="white"/>
<path d="M110.406 30.8728V33.6253H114.307V36.1839H110.406V39.169H115.427V41.8246H107.092V28.2173H115.427V30.8728H110.406Z" fill="white"/>
<path d="M131.303 41.8246H127.988L122.444 33.4315V41.8246H119.13V28.2173H122.444L127.988 36.6492V28.2173H131.303V41.8246Z" fill="white"/>
<path d="M134.694 35.0015C134.694 33.6575 134.985 32.4622 135.567 31.4155C136.148 30.3559 136.956 29.5353 137.99 28.9538C139.036 28.3593 140.219 28.0621 141.537 28.0621C143.152 28.0621 144.535 28.4886 145.685 29.3415C146.835 30.1943 147.604 31.3573 147.992 32.8305H144.348C144.076 32.2619 143.688 31.829 143.184 31.5318C142.693 31.2346 142.131 31.086 141.498 31.086C140.477 31.086 139.65 31.4413 139.017 32.1521C138.384 32.8628 138.067 33.8126 138.067 35.0015C138.067 36.1903 138.384 37.1401 139.017 37.8509C139.65 38.5616 140.477 38.917 141.498 38.917C142.131 38.917 142.693 38.7683 143.184 38.4711C143.688 38.1739 144.076 37.741 144.348 37.1724H147.992C147.604 38.6456 146.835 39.8086 145.685 40.6615C144.535 41.5014 143.152 41.9214 141.537 41.9214C140.219 41.9214 139.036 41.6307 137.99 41.0491C136.956 40.4547 136.148 39.6341 135.567 38.5874C134.985 37.5407 134.694 36.3454 134.694 35.0015Z" fill="white"/>
<path d="M154.886 30.8728V33.6253H158.786V36.1839H154.886V39.169H159.906V41.8246H151.571V28.2173H159.906V30.8728H154.886Z" fill="white"/>
<path d="M27.8587 22.1201H10.3708C9.72106 22.1201 9.19434 22.6468 9.19434 23.2966V40.7836C9.19434 41.4334 9.72106 41.9601 10.3708 41.9601H27.8587C28.5084 41.9601 29.0352 41.4334 29.0352 40.7836V23.2966C29.0352 22.6468 28.5084 22.1201 27.8587 22.1201Z" fill="white"/>
<path d="M24.349 32.6525C24.349 33.4482 24.1664 34.1787 23.8011 34.844C23.4359 35.4962 22.875 36.0245 22.1184 36.4289C21.3618 36.8332 20.4226 37.0354 19.3008 37.0354H17.2267V41.9662H13.8809V28.2305H19.3008C20.3965 28.2305 21.3227 28.4196 22.0793 28.7979C22.8358 29.1762 23.4033 29.698 23.7815 30.3632C24.1598 31.0285 24.349 31.7916 24.349 32.6525ZM19.0464 34.3744C19.6856 34.3744 20.1617 34.2244 20.4748 33.9244C20.7879 33.6243 20.9444 33.2004 20.9444 32.6525C20.9444 32.1047 20.7879 31.6807 20.4748 31.3807C20.1617 31.0807 19.6856 30.9307 19.0464 30.9307H17.2267V34.3744H19.0464Z" fill="black"/>
<path d="M24.349 24.7505H13.8809V26.9611H24.349V24.7505Z" fill="black"/>
</g>
<defs>
<clipPath id="clip0_2175:5461">
<rect width="150.824" height="20" fill="white" transform="translate(9.08789 22)"/>
</clipPath>
</defs>
</svg>
