<svg width="169" height="64" viewBox="0 0 169 64" fill="none" xmlns="http://www.w3.org/2000/svg">
<g clip-path="url(#clip0)">
<path d="M53.672 23.5323L53.681 23.5471V23.5441V23.5471V23.5441L50.8871 8.81679L48.5509 8.07373L47.1094 10.0295L47.1123 10.0324L53.672 23.5323Z" fill="white"/>
<path d="M55.2002 17.3735L56.3891 23.0801L57.6493 17.2873L56.3891 16.458L55.2002 17.3853V17.3735Z" fill="white"/>
<path d="M64.0188 18.3843L62.5118 18.5507L60.7285 24.1831L64.6429 19.7426L64.0188 18.3843Z" fill="white"/>
<path d="M76.977 19.5674V17.148L74.6378 16.396L63.6406 26.7007L76.977 19.5674Z" fill="white"/>
<path d="M50.0997 25.6543L46.8303 20.7383L46.8897 20.8512L46.8303 20.7383L45.3442 20.9761L45.1094 22.4622L50.0997 25.6543Z" fill="white"/>
<path d="M71.1431 30.6743L65.3027 31.8275L71.1431 33.0878H71.1491L72.0348 31.8781L71.1431 30.6743Z" fill="white"/>
<path d="M47.5018 31.8514L32.4415 29.9521L31 31.9108L32.4475 33.8636L47.5018 31.8514Z" fill="white"/>
<path d="M41.9461 35.1058L41.4795 36.5265L42.707 37.4004L47.9054 34.5024L41.9461 35.1058Z" fill="white"/>
<path d="M43.6501 39.2494L43.6025 40.7385L45.0292 41.2438L49.1992 36.8657L43.6501 39.2494Z" fill="white"/>
<path d="M51.1514 38.8838L46.7109 42.7774L47.1181 44.213L48.634 44.2754L51.1514 38.8838Z" fill="white"/>
<path d="M56.4155 40.6045L55.2266 46.3587L56.4541 47.2325L57.6786 46.3409L56.4155 40.6045Z" fill="white"/>
<path d="M77.0156 44.1238V44.1208L63.6436 37.0112L74.6824 47.2921L77.0186 46.5402L77.0156 44.1238Z" fill="white"/>
<path d="M62.2735 45.2173L59.2656 40.1973L59.9463 45.9693L61.3908 46.43L62.2765 45.2203L62.2735 45.2173Z" fill="white"/>
<path d="M53.7044 40.2065L47.2012 53.7391V53.7361V53.7391L48.6486 55.6948L50.9818 54.9428L53.7044 40.2065Z" fill="white"/>
<path d="M96.6562 26.9028C97.0154 26.7876 97.3507 26.6084 97.646 26.3737C98.2801 25.8605 98.5961 25.1125 98.5941 24.1297C98.6088 23.723 98.5305 23.3183 98.3652 22.9464C98.1998 22.5745 97.9518 22.2453 97.64 21.9837C97.004 21.4428 96.1123 21.1753 94.965 21.1753H90.3789V30.7875H92.8399V27.2773H94.3409L96.3887 30.7875H99.1559L96.6562 26.9028ZM92.8399 23.0686H94.6232C95.0109 23.0413 95.3964 23.1461 95.717 23.3658C95.8443 23.4805 95.9433 23.6231 96.0062 23.7824C96.0691 23.9418 96.0943 24.1135 96.0796 24.2842C96.0948 24.4567 96.0699 24.6304 96.007 24.7918C95.9441 24.9531 95.8449 25.0978 95.717 25.2145C95.3958 25.4328 95.0108 25.5374 94.6232 25.5118H92.8399V23.0686Z" fill="white"/>
<path d="M108.061 28.8496H102.889V26.8849H106.851V25.063H102.889V23.1102H107.871V21.1753H100.384V30.7875H108.061V28.8496Z" fill="white"/>
<path d="M113.741 27.2771H115.94V27.4228C115.945 27.6665 115.895 27.9082 115.795 28.1302C115.7 28.3252 115.559 28.4945 115.384 28.6236C115.201 28.7587 114.995 28.8594 114.775 28.9208C114.523 28.9895 114.263 29.0235 114.002 29.0218C113.542 29.0379 113.085 28.9246 112.686 28.6949C112.313 28.4559 112.03 28.0992 111.883 27.6814C111.689 27.1352 111.597 26.5578 111.613 25.9783C111.598 25.4206 111.687 24.8651 111.877 24.3406C112.023 23.9328 112.292 23.5806 112.647 23.333C113.012 23.0994 113.438 22.9803 113.872 22.9912C114.293 22.9779 114.708 23.0952 115.06 23.3271C115.412 23.5965 115.652 23.9858 115.735 24.4208L118.051 23.5024C117.747 22.7267 117.201 22.0699 116.493 21.6299C115.683 21.2394 114.796 21.0366 113.897 21.0366C112.998 21.0366 112.11 21.2394 111.301 21.6299C110.588 22.0187 110.007 22.6118 109.633 23.333C109.218 24.1623 109.014 25.0811 109.039 26.008C109.011 26.9364 109.201 27.8584 109.592 28.7008C109.933 29.4005 110.478 29.9806 111.155 30.3653C111.852 30.7514 112.638 30.9472 113.435 30.933C114.154 30.9637 114.866 30.7784 115.48 30.4009C115.797 30.1859 116.064 29.9039 116.261 29.5747L116.362 30.7873H118.065V25.6097H113.741V27.2771Z" fill="white"/>
<path d="M127.633 28.8496H122.465V26.8849H126.427V25.063H122.465V23.1102H127.446V21.1753H119.959V30.7875H127.633V28.8496Z" fill="white"/>
<path d="M137.783 30.7875V21.1753H135.572V26.026L135.628 27.8004H135.613L134.885 26.3737L131.901 21.1753H129.119V30.7875H131.333V25.9368L131.274 24.1594H131.289L132.017 25.5861L135.004 30.7875H137.783Z" fill="white"/>
<path d="M94.9389 40.4473L94.9805 41.5173H94.9686L94.2523 40.1827L91.4733 35.7393H90.4746V42.406H91.2414V37.698L91.1998 36.628H91.2117L91.9191 37.9417L94.7071 42.406H95.7087V35.7393H94.9389V40.4473Z" fill="white"/>
<path d="M98.4247 39.407H101.438V38.6491H98.4247V36.4972H102.297V35.7393H97.6162V42.406H102.446V41.648H98.4247V39.407Z" fill="white"/>
<path d="M103.022 36.4972H105.347V42.406H106.155V36.4972H108.479V35.7393H103.022V36.4972Z" fill="white"/>
<path d="M115.443 41.7907L113.865 35.7393H112.947L111.371 41.7699L109.763 35.7393H108.896L110.866 42.406H111.865L113.039 38.0814L113.381 36.5774H113.392L113.734 38.0814L114.917 42.406H115.916L117.878 35.7393H117.06L115.443 41.7907Z" fill="white"/>
<path d="M121.667 35.6377C119.768 35.6377 118.576 36.9603 118.576 39.0706C118.576 41.1809 119.765 42.5065 121.667 42.5065C123.57 42.5065 124.758 41.1839 124.758 39.0706C124.758 36.9574 123.567 35.6377 121.667 35.6377ZM121.667 41.7486C120.282 41.7486 119.423 40.7499 119.423 39.0736C119.423 37.3973 120.282 36.3986 121.667 36.3986C123.052 36.3986 123.911 37.3973 123.911 39.0736C123.911 40.7499 123.052 41.7486 121.667 41.7486Z" fill="white"/>
<path d="M131.045 37.689C131.045 36.5001 130.153 35.7393 128.792 35.7393H126.266V42.406H127.074V39.6388H128.67L130.489 42.406H131.461L129.583 39.5467C130.006 39.4576 130.384 39.2228 130.651 38.8833C130.918 38.5437 131.058 38.121 131.045 37.689ZM127.074 38.8779V36.5001H128.786C129.734 36.5001 130.201 36.8955 130.201 37.689C130.201 38.4826 129.734 38.8779 128.786 38.8779H127.074Z" fill="white"/>
<path d="M135.281 38.4559L137.938 35.7393H136.877L133.521 39.1751V35.7393H132.713V42.406H133.521V40.266L134.716 39.0533L136.999 42.406H137.968L135.281 38.4559Z" fill="white"/>
</g>
<defs>
<clipPath id="clip0">
<rect width="107" height="47.8528" fill="white" transform="translate(31 8.07373)"/>
</clipPath>
</defs>
</svg>
