<svg width="171" height="64" viewBox="0 0 171 64" fill="none" xmlns="http://www.w3.org/2000/svg">
<g clip-path="url(#clip0_2489:5665)">
<path d="M49.2234 32.5587H45.8966V36.1779H43.4473V27.2212H49.1868V29.0125H45.8601V30.7308H49.1868V32.5587H49.2234Z" fill="white"/>
<path d="M62.567 31.6815C62.5708 32.4779 62.396 33.2649 62.0552 33.9847C61.7064 34.6749 61.1755 35.2564 60.5198 35.6664C59.7606 36.0896 58.9028 36.304 58.0338 36.2879C57.1473 36.3147 56.2718 36.0863 55.5113 35.6298C54.8371 35.226 54.3016 34.6268 53.9759 33.9116C53.6429 33.2021 53.4683 32.4287 53.4641 31.645C53.4463 30.8589 53.6221 30.0806 53.9759 29.3784C54.322 28.6767 54.8528 28.0827 55.5113 27.6602C56.2718 27.2037 57.1473 26.9752 58.0338 27.0021C58.7104 26.982 59.3835 27.1067 60.008 27.3677C60.5478 27.5921 61.0338 27.9285 61.4337 28.3548C61.8168 28.7754 62.1038 29.2744 62.2745 29.8171C62.4756 30.4178 62.5745 31.0481 62.567 31.6815ZM60.1176 31.6815C60.1286 31.3703 60.079 31.0599 59.9714 30.7676C59.8968 30.4956 59.759 30.2451 59.5693 30.0364C59.3917 29.827 59.1659 29.6639 58.9112 29.5612C58.6309 29.4565 58.333 29.4069 58.0338 29.415C57.7482 29.4016 57.4631 29.4503 57.198 29.5575C56.933 29.6648 56.6943 29.8282 56.4984 30.0364C56.1127 30.497 55.9051 31.0808 55.9135 31.6815C55.8943 31.9811 55.9362 32.2814 56.0368 32.5643C56.1373 32.8471 56.2944 33.1065 56.4984 33.3267C56.6913 33.5387 56.9295 33.7047 57.1953 33.8123C57.4611 33.9199 57.7477 33.9663 58.0338 33.9481C58.4313 33.9562 58.8233 33.855 59.1671 33.6557C59.4638 33.4516 59.703 33.1746 59.8618 32.8514C60.0485 32.4908 60.1368 32.0872 60.1176 31.6815Z" fill="white"/>
<path d="M75.5816 32.1567C75.6119 32.8378 75.4738 33.5159 75.1795 34.1308C74.9388 34.6289 74.5889 35.0663 74.1558 35.4103C73.7477 35.7307 73.2731 35.9555 72.7666 36.0684C72.2926 36.2126 71.7998 36.2865 71.3043 36.2878C70.6245 36.303 69.9499 36.1655 69.3302 35.8856C68.6728 35.6204 68.1118 35.1613 67.7216 34.5695C67.2511 33.8422 67.0209 32.9854 67.0636 32.1201V27.1848H69.4764V31.4255C69.4635 31.9221 69.5377 32.417 69.6958 32.8879C69.8095 33.2368 70.0424 33.5345 70.3538 33.7287C70.6496 33.9113 70.9936 34.0004 71.3408 33.9846C71.6761 33.9956 72.007 33.9065 72.2914 33.7287C72.585 33.5154 72.813 33.2241 72.9494 32.8879C73.1075 32.417 73.1817 31.9221 73.1688 31.4255V27.1848H75.6181L75.5816 32.1567Z" fill="white"/>
<path d="M89.327 36.1779H87.1706L83.0027 31.206V36.1779H80.5898V27.2212H82.747L86.9141 32.1931V27.2212H89.327V36.1779Z" fill="white"/>
<path d="M102.745 31.864C102.777 32.6199 102.627 33.3726 102.305 34.0575C102.043 34.5727 101.683 35.032 101.245 35.4102C100.563 35.9549 99.7039 36.2283 98.8324 36.1779H94.4824V27.2212H97.8089C98.2367 27.223 98.6639 27.2474 99.0889 27.2943C99.4239 27.3534 99.7539 27.439 100.075 27.5502C100.333 27.6423 100.579 27.7651 100.807 27.9158C101.02 28.0202 101.207 28.1699 101.355 28.3545C101.637 28.6126 101.883 28.9078 102.086 29.2319C102.31 29.5921 102.47 29.9877 102.562 30.4017C102.699 30.8766 102.76 31.37 102.745 31.864ZM100.295 31.7544C100.329 31.1593 100.202 30.5659 99.9296 30.0362C99.7346 29.6777 99.426 29.3946 99.0517 29.2319C98.7174 29.0858 98.3567 29.0111 97.9917 29.0125H96.9681V34.3134H97.9917C98.5824 34.3351 99.1631 34.1545 99.6367 33.8016C100.112 33.436 100.295 32.8146 100.295 31.7544Z" fill="white"/>
<path d="M115.686 36.1779H113.2L112.541 34.35H109.032L108.374 36.1779H105.888L109.471 27.2212H112.139L115.686 36.1779ZM111.993 32.8146L110.823 29.5609L109.617 32.8146H111.993Z" fill="white"/>
<path d="M126.397 29.3781H123.436V36.1413H121.023V29.3781H118.062V27.2212H126.397V29.3781Z" fill="white"/>
<path d="M133.379 36.1779H130.93V27.2212H133.379V36.1779Z" fill="white"/>
<path d="M147.126 31.6815C147.129 32.4779 146.954 33.2649 146.614 33.9847C146.265 34.6749 145.734 35.2564 145.078 35.6664C144.319 36.0896 143.461 36.304 142.592 36.2879C141.706 36.3147 140.83 36.0863 140.07 35.6298C139.396 35.226 138.86 34.6268 138.534 33.9116C138.197 33.2034 138.023 32.4292 138.022 31.645C138.005 30.8589 138.181 30.0806 138.534 29.3784C138.881 28.6767 139.411 28.0827 140.07 27.6602C140.83 27.2037 141.706 26.9752 142.592 27.0021C143.269 26.982 143.942 27.1067 144.566 27.3677C145.106 27.5921 145.592 27.9285 145.992 28.3548C146.375 28.7754 146.662 29.2744 146.833 29.8171C147.016 30.422 147.115 31.0495 147.126 31.6815ZM144.676 31.6815C144.687 31.3703 144.637 31.0599 144.53 30.7676C144.455 30.4956 144.317 30.2451 144.128 30.0364C143.95 29.827 143.724 29.6639 143.469 29.5612C143.189 29.4565 142.891 29.4069 142.592 29.415C142.306 29.4016 142.021 29.4503 141.756 29.5575C141.491 29.6648 141.253 29.8282 141.057 30.0364C140.671 30.497 140.464 31.0808 140.472 31.6815C140.453 31.9811 140.494 32.2814 140.595 32.5643C140.696 32.8471 140.853 33.1065 141.057 33.3267C141.255 33.532 141.494 33.6935 141.759 33.8006C142.023 33.9076 142.307 33.9579 142.592 33.9481C142.99 33.9562 143.381 33.855 143.726 33.6557C144.022 33.4516 144.261 33.1746 144.42 32.8514C144.59 32.4848 144.677 32.0855 144.676 31.6815Z" fill="white"/>
<path d="M160.323 36.1779H158.166L153.998 31.206V36.1779H151.586V27.2212H153.742L157.91 32.1931V27.2212H160.36V36.1779H160.323Z" fill="white"/>
<path d="M18.6245 36.1779H15.6633L12.5924 31.9737V36.1779H10.1431V27.2212H12.5924V31.2426L15.5171 27.2212H18.1493L15.1515 31.4254L18.6245 36.1779Z" fill="white"/>
<path d="M25.2048 36.1779H22.7554V27.2212H25.2048V36.1779Z" fill="white"/>
<path d="M34.3077 33.1071C35.2163 33.1071 35.9528 32.3706 35.9528 31.462C35.9528 30.5534 35.2163 29.8169 34.3077 29.8169C33.3992 29.8169 32.6626 30.5534 32.6626 31.462C32.6626 32.3706 33.3992 33.1071 34.3077 33.1071Z" fill="#06EDF7"/>
</g>
<defs>
<clipPath id="clip0_2489:5665">
<rect width="150.714" height="10" fill="white" transform="translate(10.1431 27)"/>
</clipPath>
</defs>
</svg>
