<svg width="169" height="64" viewBox="0 0 169 64" fill="none" xmlns="http://www.w3.org/2000/svg">
<path d="M42.5316 32.5849L42.2236 33.117L40.9742 35.2825L40.6604 35.8244C40.3784 36.3184 39.9712 36.7295 39.4799 37.0162C38.9885 37.303 38.4303 37.4552 37.8615 37.4578H27.8351C27.6115 37.4572 27.3932 37.5253 27.2094 37.6527C27.0919 37.7358 26.9925 37.8419 26.9171 37.9645L26.9034 37.986C26.8982 37.9933 26.8936 38.0012 26.8898 38.0094L26.7416 38.2628L25.962 39.6018H30.3339C30.5581 39.6026 30.7772 39.5346 30.9615 39.4069C31.0885 39.3171 31.1942 39.2007 31.2714 39.0658C31.2721 39.0613 31.2721 39.0567 31.2714 39.0522L31.7236 38.2725H34.2244L33.4447 39.6116L33.1582 40.1047L33.1309 40.1515C32.8454 40.6444 32.4352 41.0536 31.9415 41.3379C31.4478 41.6222 30.888 41.7717 30.3183 41.7712H24.083C23.8932 41.7717 23.7068 41.7212 23.5431 41.625C23.4499 41.5732 23.3651 41.5075 23.2917 41.4301C23.1348 41.2613 23.0358 41.047 23.0088 40.8182C22.9818 40.5894 23.0283 40.3579 23.1416 40.1573L23.2819 39.9156L23.4496 39.6271L24.2292 38.2881L24.7087 37.4578L24.9933 36.9666L25.0206 36.9179C25.3063 36.4245 25.7168 36.0149 26.2108 35.7303C26.7048 35.4457 27.265 35.296 27.8351 35.2962H37.801C37.8244 35.2981 37.8478 35.2981 37.8712 35.2962C38.049 35.2901 38.2226 35.2405 38.3769 35.1518C38.5312 35.0632 38.6614 34.9381 38.7561 34.7874L38.7736 34.7563L39.7073 33.1385H24.083C23.8935 33.1384 23.7074 33.0887 23.5431 32.9942C23.4503 32.9418 23.3656 32.8761 23.2917 32.7993C23.1337 32.6295 23.0343 32.4135 23.008 32.1831C22.9817 31.9526 23.0299 31.7198 23.1455 31.5187L23.2917 31.2673L23.4593 30.9769L24.7087 28.8114L25.0225 28.2695C25.3077 27.7756 25.718 27.3654 26.2121 27.0804C26.7062 26.7953 27.2666 26.6455 27.8371 26.6459H37.8731C38.0509 26.6396 38.2245 26.59 38.3787 26.5014C38.533 26.4127 38.6632 26.2877 38.7581 26.1372L38.7756 26.1041V26.0924L38.9335 25.8195L39.7131 24.4804H35.3373C35.1136 24.479 34.895 24.5471 34.7116 24.6753C34.5942 24.7578 34.4948 24.8632 34.4193 24.9852C34.4193 24.9852 34.4193 25.0008 34.4056 25.0106C34.4017 25.016 34.3984 25.0219 34.3959 25.0281C34.3952 25.0327 34.3952 25.0372 34.3959 25.0418L33.9534 25.8078H31.4391L32.2187 24.4687L32.5286 23.9327C32.8141 23.4391 33.2245 23.0293 33.7185 22.7447C34.2126 22.46 34.7729 22.3104 35.3432 22.311H41.594C41.7841 22.3108 41.9709 22.3607 42.1356 22.4556C42.3003 22.5506 42.4371 22.6872 42.5321 22.8519C42.6272 23.0165 42.6772 23.2032 42.6771 23.3933C42.677 23.5834 42.6268 23.7701 42.5316 23.9347L42.2178 24.4765L41.4381 25.8156L40.9606 26.642L40.6468 27.1839C40.364 27.6744 39.9578 28.0824 39.4684 28.3672C38.9791 28.6521 38.4237 28.8039 37.8576 28.8075H27.8351C27.6484 28.8074 27.4648 28.8556 27.3022 28.9475C27.1396 29.0394 27.0036 29.1718 26.9073 29.3318C26.9069 29.337 26.9069 29.3422 26.9073 29.3474V29.363L25.9873 30.9554H41.6174C41.8072 30.955 41.9937 31.0055 42.1573 31.1016C42.4037 31.2487 42.5815 31.4876 42.6516 31.7658C42.7218 32.0439 42.6786 32.3386 42.5316 32.5849Z" fill="white"/>
<path d="M53.9314 36.9178H53.0582C52.2332 36.929 51.4095 36.8486 50.6022 36.6781C50.0362 36.5648 49.4903 36.3678 48.9825 36.0933C48.6242 35.8856 48.3156 35.6023 48.0781 35.263C47.8823 34.9986 47.7363 34.7007 47.6474 34.3839C47.5819 34.1101 47.5498 33.8293 47.5518 33.5478V33.4094H50.1637C50.2837 33.4105 50.4004 33.4485 50.498 33.5183C50.5956 33.588 50.6695 33.6861 50.7094 33.7992C50.9797 34.5321 51.8848 34.8979 53.4246 34.8966H53.602C54.0931 34.9024 54.5841 34.8751 55.0716 34.8147C55.3658 34.7871 55.6528 34.7079 55.9195 34.5808C56.0624 34.5104 56.1841 34.4035 56.2723 34.2709C56.3347 34.1562 56.3656 34.0271 56.3619 33.8966C56.3717 33.7236 56.3176 33.553 56.2099 33.4172C56.1085 33.2983 55.8727 33.195 55.5004 33.1053C54.9714 33.0009 54.4335 32.948 53.8943 32.9474L52.2727 32.9104C49.2112 32.8272 47.6798 31.9072 47.6785 30.1504V30.051C47.6762 29.7663 47.7149 29.4827 47.7935 29.209C47.8853 28.9182 48.0412 28.6518 48.2496 28.4293C48.4999 28.1543 48.8028 27.9322 49.1404 27.7764C49.6126 27.5698 50.109 27.4237 50.6178 27.3417C51.3371 27.2211 52.0657 27.1643 52.795 27.1721H53.6682C54.4315 27.1639 55.194 27.2233 55.9468 27.3495C56.4897 27.4327 57.0196 27.5854 57.5236 27.8037C57.8854 27.9697 58.2122 28.2032 58.4865 28.4917C58.7099 28.7205 58.8843 28.9924 58.9991 29.2908C59.0941 29.566 59.1415 29.8554 59.1395 30.1465V30.2732H56.4652C56.3568 30.2725 56.2507 30.2422 56.1583 30.1855C56.0658 30.1288 55.9907 30.0479 55.9409 29.9516C55.9007 29.8717 55.8516 29.7965 55.7947 29.7274C55.6729 29.6017 55.5262 29.5028 55.364 29.437C55.1087 29.3435 54.844 29.2781 54.5746 29.2421C54.1703 29.1797 53.7615 29.1503 53.3525 29.1544H53.1576C52.6099 29.1394 52.0622 29.1838 51.5242 29.2869C51.146 29.3747 50.9161 29.4682 50.8342 29.5657C50.7506 29.6779 50.7086 29.8157 50.7153 29.9555C50.7093 30.0974 50.7565 30.2365 50.8478 30.3453C51.0282 30.495 51.2446 30.5951 51.4755 30.6357C51.9392 30.7346 52.4125 30.7817 52.8866 30.7761L54.4674 30.8014C56.2229 30.8352 57.4911 31.0736 58.2721 31.5168C59.053 31.9599 59.4429 32.6537 59.4416 33.5984V33.7758C59.4458 34.0894 59.4078 34.4021 59.3285 34.7055C59.2332 35.0158 59.0738 35.3027 58.8607 35.5476C58.6009 35.852 58.2793 36.0979 57.9173 36.2687C57.4054 36.4996 56.8644 36.6596 56.3093 36.7443C55.5232 36.8709 54.7275 36.929 53.9314 36.9178Z" fill="white"/>
<path d="M63.6988 36.7517V29.5633H60.2429C60.0879 29.5633 59.9391 29.5017 59.8295 29.392C59.7198 29.2824 59.6582 29.1337 59.6582 28.9786V27.3354H70.7449V28.9688C70.7449 29.1239 70.6833 29.2726 70.5736 29.3823C70.464 29.492 70.3152 29.5536 70.1601 29.5536H66.6731V36.742L63.6988 36.7517Z" fill="white"/>
<path d="M79.3618 36.4301L78.6425 35.0306H72.9335L72.2533 36.4204C72.2038 36.5197 72.1276 36.6033 72.0333 36.6618C71.9389 36.7203 71.8302 36.7515 71.7192 36.7517H69.0859L73.68 27.661C73.7293 27.5643 73.804 27.483 73.896 27.4256C73.988 27.3683 74.094 27.3371 74.2024 27.3354H77.321C77.4286 27.3356 77.5341 27.3649 77.6264 27.4201C77.7187 27.4754 77.7944 27.5545 77.8453 27.6493L82.7182 36.7517H79.89C79.7807 36.7528 79.6733 36.7233 79.5799 36.6665C79.4865 36.6096 79.411 36.5277 79.3618 36.4301ZM77.553 32.9041L75.7305 29.3723L73.9763 32.9041H77.553Z" fill="white"/>
<path d="M103.322 33.6136H99.2098V36.1475C99.2098 36.2251 99.1943 36.3019 99.1644 36.3735C99.1344 36.4451 99.0904 36.51 99.0351 36.5644C98.9797 36.6189 98.9141 36.6617 98.8421 36.6905C98.77 36.7194 98.6929 36.7335 98.6153 36.7322H96.2607V27.3354H103.322C106.25 27.3354 107.714 28.3568 107.714 30.3995V30.5262C107.714 32.5845 106.25 33.6136 103.322 33.6136ZM99.2098 29.4756V31.4988H103.272C104.181 31.4988 104.636 31.17 104.636 30.5125V30.4736C104.636 29.8096 104.181 29.4769 103.272 29.4756H99.2098Z" fill="white"/>
<path d="M114.92 27.1718H115.464C116.211 27.1662 116.956 27.2229 117.694 27.3413C118.267 27.4313 118.829 27.5822 119.37 27.7916C119.795 27.9619 120.193 28.1916 120.553 28.4738C120.853 28.7066 121.119 28.9794 121.344 29.2846C121.536 29.5592 121.691 29.8573 121.806 30.1715C121.912 30.4473 121.988 30.7335 122.034 31.0252C122.069 31.2895 122.086 31.5558 122.085 31.8224V32.2025C122.085 32.4632 122.068 32.7236 122.034 32.9821C121.988 33.2776 121.912 33.5676 121.806 33.8475C121.692 34.1651 121.538 34.4675 121.35 34.748C121.129 35.0599 120.862 35.3371 120.559 35.5706C120.198 35.8556 119.8 36.0898 119.376 36.2664C118.836 36.4817 118.274 36.6366 117.7 36.7284C116.961 36.8524 116.213 36.9117 115.464 36.9057H114.92C114.17 36.9116 113.421 36.8523 112.681 36.7284C112.104 36.637 111.539 36.4821 110.997 36.2664C110.572 36.0892 110.174 35.8551 109.813 35.5706C109.51 35.3355 109.242 35.0586 109.016 34.748C108.825 34.4693 108.672 34.1665 108.56 33.8475C108.458 33.5672 108.384 33.2773 108.34 32.9821C108.305 32.7237 108.288 32.4632 108.289 32.2025V31.8282C108.288 31.5636 108.305 31.2992 108.34 31.0369C108.385 30.7438 108.459 30.4559 108.56 30.1773C108.671 29.8605 108.824 29.5601 109.016 29.2846C109.241 28.979 109.507 28.7061 109.808 28.4738C110.167 28.1912 110.566 27.9614 110.991 27.7916C111.536 27.5809 112.103 27.4299 112.681 27.3413C113.421 27.2231 114.17 27.1664 114.92 27.1718ZM118.996 32.0953V31.9179C118.997 31.6908 118.967 31.4647 118.908 31.2455C118.834 31.0077 118.718 30.7852 118.565 30.5886C118.388 30.3513 118.164 30.1524 117.908 30.0039C117.563 29.8193 117.191 29.6879 116.807 29.614C116.274 29.5018 115.731 29.4489 115.187 29.4561C112.648 29.4561 111.378 30.2787 111.377 31.9238V32.0758C111.375 32.3697 111.428 32.6613 111.534 32.9354C111.661 33.2374 111.843 33.5126 112.072 33.7462C112.4 34.0583 112.803 34.2805 113.242 34.3914C114.508 34.7071 115.832 34.7071 117.097 34.3914C117.538 34.2825 117.945 34.0655 118.28 33.7598C118.519 33.5321 118.709 33.2582 118.838 32.9548C118.944 32.6808 118.998 32.3892 118.996 32.0953Z" fill="white"/>
<path d="M126.097 33.4109V36.1572C126.097 36.3123 126.035 36.461 125.925 36.5707C125.816 36.6804 125.667 36.742 125.512 36.742H123.147V27.3354H130.749C133.478 27.3354 134.842 28.1495 134.842 29.7777V29.9297C134.842 30.9251 134.258 31.6131 133.088 31.9939C133.582 32.1233 134.03 32.3887 134.38 32.7599C134.719 33.1446 134.896 33.6454 134.873 34.1574V36.7517H132.499C132.422 36.753 132.345 36.7388 132.273 36.71C132.201 36.6812 132.135 36.6384 132.08 36.5839C132.024 36.5295 131.98 36.4646 131.95 36.393C131.92 36.3214 131.905 36.2446 131.905 36.167V35.0794C131.905 34.4946 131.759 34.0756 131.462 33.8124C131.166 33.5493 130.661 33.4226 129.944 33.4226L126.097 33.4109ZM126.097 29.4756V31.3234H130.564C130.884 31.3487 131.203 31.2589 131.462 31.07C131.558 30.9873 131.634 30.8841 131.685 30.7681C131.736 30.652 131.76 30.526 131.755 30.3995V30.3858C131.758 30.2612 131.734 30.1372 131.683 30.0232C131.633 29.9092 131.557 29.808 131.462 29.727C131.202 29.5388 130.884 29.4497 130.564 29.4756H126.097Z" fill="white"/>
<path d="M86.2147 33.4109V36.1572C86.2147 36.2348 86.1992 36.3117 86.1692 36.3833C86.1392 36.4549 86.0953 36.5198 86.04 36.5742C85.9846 36.6286 85.919 36.6715 85.8469 36.7003C85.7749 36.7291 85.6978 36.7433 85.6202 36.742H83.2656V27.3354H90.8672C93.596 27.3354 94.9604 28.1495 94.9604 29.7777V29.9297C94.9604 30.9251 94.3757 31.6131 93.2062 31.9939C93.6995 32.1236 94.1465 32.389 94.4965 32.7599C94.8352 33.1446 95.012 33.6454 94.9897 34.1574V36.7517H92.6195C92.5419 36.753 92.4648 36.7388 92.3928 36.71C92.3207 36.6812 92.2551 36.6384 92.1997 36.5839C92.1444 36.5295 92.1004 36.4646 92.0705 36.393C92.0405 36.3214 92.025 36.2446 92.025 36.167V35.0794C92.025 34.4946 91.8769 34.0756 91.5806 33.8124C91.2844 33.5493 90.7795 33.4226 90.0623 33.4226L86.2147 33.4109ZM86.2147 29.4756V31.3234H90.6821C91.0022 31.3487 91.3209 31.2589 91.5806 31.07C91.6765 30.9873 91.7526 30.8841 91.8032 30.7681C91.8538 30.652 91.8777 30.526 91.873 30.3995V30.3858C91.8766 30.2612 91.8522 30.1372 91.8016 30.0232C91.751 29.9092 91.6755 29.808 91.5806 29.727C91.3206 29.5388 91.002 29.4497 90.6821 29.4756H86.2147Z" fill="white"/>
<path d="M139.471 36.7517V29.5633H136.015C135.861 29.5603 135.714 29.4977 135.605 29.3887C135.496 29.2797 135.434 29.1327 135.431 28.9786V27.3354H146.515V28.9688C146.512 29.1246 146.448 29.2731 146.337 29.3823C146.226 29.4916 146.077 29.5531 145.921 29.5536H142.451V36.742L139.471 36.7517Z" fill="white"/>
</svg>
