<svg width="169" height="64" viewBox="0 0 169 64" fill="none" xmlns="http://www.w3.org/2000/svg">
<g clip-path="url(#clip0_2378-5839)">
<path d="M70.4629 39.5352L70.5329 39.5921C75.8254 43.9144 83.0492 45.7128 90.1538 43.8104C99.3559 41.3467 105.623 33.3961 106.382 24.4217C106.39 24.3386 106.398 24.2163 106.411 24.0527C105.444 23.2546 104.654 22.9661 104.043 23.1846C88.2455 28.8167 77.0527 34.2669 70.4629 39.5352Z" fill="white"/>
<path d="M70.4658 39.53L70.5358 39.5869C75.8283 43.9093 83.0521 45.7077 90.1541 43.8052C99.3562 41.3415 105.623 33.3909 106.382 24.4166C106.39 24.3335 106.398 24.2111 106.411 24.0476C105.444 23.2521 104.654 22.9609 104.043 23.1794C88.2484 28.8089 77.055 34.2591 70.4658 39.53Z" fill="url(#paint0_linear_2378-5839)"/>
<path d="M104.262 32.1432L104.392 31.8678C109.178 21.6406 105.419 9.27744 95.4549 3.52567C87.204 -1.23564 77.1489 -0.0482572 70.266 5.76109C70.1716 5.84054 70.078 5.92101 69.9854 6.00249C69.9932 7.36455 70.2896 8.18296 70.877 8.46099C83.6066 14.5013 93.5649 18.6208 98.0102 22.0122C102.764 25.6378 104.849 29.0142 104.262 32.1432Z" fill="white"/>
<path d="M104.262 32.1432L104.392 31.8678C109.178 21.6406 105.419 9.27744 95.4549 3.52567C87.204 -1.23564 77.1489 -0.0482572 70.266 5.76109C70.1716 5.84054 70.078 5.92101 69.9854 6.00249C69.9932 7.36455 70.2896 8.18296 70.877 8.46099C83.6066 14.5013 93.5649 18.6208 98.0102 22.0122C102.764 25.6378 104.849 29.0142 104.262 32.1432Z" fill="url(#paint1_linear_2378-5839)"/>
<path d="M82.8492 0.638672L82.5476 0.662223C71.2973 1.63176 62.4668 11.0713 62.4668 22.5716C62.4668 32.0968 68.5234 40.2083 76.998 43.2621L77.346 43.3845C75.9971 27.7437 75.706 16.9578 76.4701 11.0294C77.2289 5.10363 79.3577 1.63895 82.8492 0.638672Z" fill="white"/>
<path d="M82.8492 0.638672L82.5476 0.662223C71.2973 1.63176 62.4668 11.0713 62.4668 22.5716C62.4668 32.0968 68.5234 40.2083 76.998 43.2621L77.346 43.3845C75.9971 27.7437 75.706 16.9578 76.4701 11.0294C77.2289 5.10363 79.3577 1.63895 82.8492 0.638672Z" fill="url(#paint2_linear_2378-5839)"/>
<path d="M70.4635 39.5357L70.5335 39.5927C72.8808 41.5082 75.6049 42.9278 78.5319 43.7521C78.5659 43.7599 78.6123 43.7757 78.6804 43.794L77.5623 34.7869L77.4426 34.8569C75.6259 35.9069 73.2989 37.4665 70.4629 39.5357H70.4635Z" fill="white"/>
<g filter="url(#filter0_d_2378-5839)">
<path d="M56.9321 49.7854C56.4709 49.7854 56.0673 49.881 55.7219 50.0713C55.375 50.2629 55.075 50.5293 54.8439 50.8512C54.6136 51.1802 54.4357 51.5616 54.312 51.9947C54.1969 52.4278 54.1393 52.8825 54.1393 53.3594C54.1393 53.8101 54.1969 54.2517 54.312 54.6848C54.4279 55.0916 54.6074 55.4776 54.8439 55.8283C55.079 56.1534 55.3777 56.4274 55.7219 56.6337C56.0679 56.8332 56.4709 56.9326 56.9321 56.9326C57.2959 56.9326 57.6459 56.8548 57.9828 56.6984C58.3197 56.5336 58.6167 56.3 58.8738 55.9965C59.1309 55.6929 59.335 55.3207 59.4855 54.8791C59.6451 54.4375 59.7249 53.9305 59.7249 53.3587C59.7249 52.8478 59.6582 52.3754 59.5254 51.9424C59.4011 51.5008 59.2192 51.124 58.9798 50.8119C58.7477 50.4977 58.4476 50.2401 58.1019 50.0582C57.7558 49.8764 57.3659 49.7854 56.9315 49.7854H56.9321ZM56.9321 58.2711C56.1608 58.2711 55.4778 58.1455 54.8838 57.8943C54.2898 57.6431 53.7841 57.301 53.3674 56.8679C52.9591 56.4263 52.6491 55.9062 52.4364 55.3083C52.2238 54.7103 52.1172 54.0607 52.1172 53.3587C52.1172 52.6829 52.2238 52.0464 52.4364 51.4484C52.6582 50.8505 52.9729 50.3311 53.3811 49.8888C53.8052 49.4332 54.3224 49.0742 54.8976 48.8362C55.4916 48.5765 56.17 48.4463 56.9328 48.4463C57.8016 48.4463 58.5376 48.5935 59.1407 48.8879C59.7524 49.1823 60.249 49.5683 60.6304 50.0445C61.0182 50.508 61.3038 51.0482 61.4684 51.6297C61.6457 52.2099 61.7347 52.7863 61.7347 53.3581C61.7347 53.9992 61.628 54.6141 61.4154 55.2036C61.2028 55.793 60.892 56.317 60.4845 56.7763C60.0854 57.227 59.5843 57.5908 58.9811 57.8682C58.3871 58.1364 57.7041 58.2711 56.9328 58.2711H56.9321Z" fill="white"/>
<path d="M63.9566 48.6416H66.3641L68.4792 55.9321L68.5721 56.3998L68.6787 55.9321L70.78 48.6416H73.2006L74.1053 58.089H72.3632L71.8444 50.968L71.8045 50.3438L71.6449 50.968L69.5436 57.9594H67.5881L65.46 50.9549L65.3004 50.3438L65.2605 50.9549L64.7685 58.089H63.0264L63.9573 48.6416H63.9566Z" fill="white"/>
<path d="M78.1676 51.4743L77.955 51.0066L77.9818 51.4481V58.0883H76.3594V48.6416H78.1951L82.2786 54.9959L82.4651 55.516L82.4383 54.9959V48.6416H84.1143V58.089H82.4383L78.1676 51.4743Z" fill="white"/>
<path d="M88.4132 58.089H86.5645V48.6416H88.4132V58.089Z" fill="white"/>
<path d="M90.6309 48.6416H96.4304V49.9801H92.5333V58.089H90.6315V48.6416H90.6309ZM93.0383 53.7876C93.0828 53.6489 93.1404 53.5017 93.211 53.346C93.2808 53.192 93.3703 53.0477 93.4773 52.9168C93.5839 52.7866 93.7076 52.6826 93.8496 52.6048C94 52.5184 94.1734 52.4746 94.3683 52.4746H95.9777V53.7869H93.0383V53.7876Z" fill="white"/>
<path d="M98.3848 48.6416H100.3V56.7374H103.785V58.089H98.3848V48.6416Z" fill="white"/>
<path d="M107.314 58.089H105.465V48.6416H107.314V58.089Z" fill="white"/>
<path d="M108.959 48.6416H111.061L112.697 51.7471L112.83 52.1501L112.937 51.7471L114.573 48.6416H116.661L113.775 53.3067L116.808 58.089H114.745L108.96 48.6416H108.959ZM110.848 58.089H108.812L111.446 53.8654C111.526 53.978 111.619 54.1252 111.726 54.307C111.832 54.4889 111.916 54.6884 111.978 54.905C112.05 55.113 112.085 55.3341 112.085 55.5677C112.094 55.7908 112.039 56.0119 111.925 56.2042L110.848 58.0883V58.089Z" fill="white"/>
</g>
</g>
<defs>
<filter id="filter0_d_2378-5839" x="49.5004" y="48.4463" width="69.9241" height="15.0586" filterUnits="userSpaceOnUse" color-interpolation-filters="sRGB">
<feFlood flood-opacity="0" result="BackgroundImageFix"/>
<feColorMatrix in="SourceAlpha" type="matrix" values="0 0 0 0 0 0 0 0 0 0 0 0 0 0 0 0 0 0 127 0" result="hardAlpha"/>
<feOffset dy="2.61682"/>
<feGaussianBlur stdDeviation="1.30841"/>
<feColorMatrix type="matrix" values="0 0 0 0 0 0 0 0 0 0 0 0 0 0 0 0 0 0 0.25 0"/>
<feBlend mode="normal" in2="BackgroundImageFix" result="effect1_dropShadow_2378-5839"/>
<feBlend mode="normal" in="SourceGraphic" in2="effect1_dropShadow_2378-5839" result="shape"/>
</filter>
<linearGradient id="paint0_linear_2378-5839" x1="86.5527" y1="38.1549" x2="113.469" y2="21.4072" gradientUnits="userSpaceOnUse">
<stop stop-opacity="0"/>
<stop offset="1"/>
</linearGradient>
<linearGradient id="paint1_linear_2378-5839" x1="90.3606" y1="14.1199" x2="53.8729" y2="0.468567" gradientUnits="userSpaceOnUse">
<stop stop-color="white"/>
<stop offset="1"/>
</linearGradient>
<linearGradient id="paint2_linear_2378-5839" x1="75.6929" y1="22.359" x2="86.7614" y2="54.9063" gradientUnits="userSpaceOnUse">
<stop stop-opacity="0"/>
<stop offset="1"/>
</linearGradient>
<clipPath id="clip0_2378-5839">
<rect width="70" height="63.4579" fill="white" transform="translate(49.5 0.270996)"/>
</clipPath>
</defs>
</svg>
