<svg width="171" height="64" viewBox="0 0 171 64" fill="none" xmlns="http://www.w3.org/2000/svg">
<path d="M68.8525 45.1415V18.9102H42.6211V45.1415H68.8525ZM51.3722 27.6613H60.1151V36.4042H51.3653L51.3722 27.6613Z" fill="white"/>
<path d="M25.1338 27.6489H33.878V36.3918H25.1338V27.6489Z" fill="white"/>
<path d="M91.3338 40.2178H87.9534L86.8316 37.1457H80.046L78.9201 40.2233H75.5342L81.7693 24.3066H85.0974L91.3338 40.2178ZM80.9833 34.5401H85.8833L83.4209 27.8564L80.9833 34.5401Z" fill="white"/>
<path d="M103.669 39.7829C103.669 41.4282 103.18 42.7546 102.202 43.7621C101.225 44.7696 99.7921 45.4716 97.9574 45.4716C95.6258 45.4716 93.8282 44.3925 92.5041 42.5701L94.2205 40.946C95.2596 42.12 96.8797 43.3092 98.8066 42.6513C100.224 42.1696 100.528 40.8138 100.528 39.86V38.9681H100.391C100.373 39.0039 100.343 39.0562 100.299 39.1264C100.205 39.259 100.1 39.3833 99.9848 39.498C99.8174 39.676 99.6283 39.8323 99.4219 39.9632C99.1428 40.1236 98.8425 40.2441 98.53 40.3211C98.1197 40.4303 97.6965 40.4835 97.2719 40.4794C96.586 40.4924 95.906 40.3507 95.2824 40.0647C94.6588 39.7788 94.1076 39.3559 93.6699 38.8277C92.7174 37.7321 92.2412 36.3263 92.2412 34.6104C92.2412 32.8596 92.7262 31.4539 93.6961 30.3931C94.666 29.3324 95.8933 28.802 97.3779 28.802C97.8654 28.797 98.351 28.8637 98.819 29.0002C99.1937 29.1028 99.548 29.269 99.8665 29.4916C100.106 29.6659 100.33 29.8612 100.535 30.0752C100.679 30.2197 100.807 30.3799 100.915 30.5528L101.02 30.7648H101.124L101.623 29.0663H103.665L103.669 39.7829ZM99.9628 32.3132C99.7291 32.0306 99.4342 31.8049 99.1003 31.6532C98.7664 31.5016 98.4024 31.4279 98.0358 31.4378C97.6756 31.4326 97.3192 31.5127 96.9958 31.6716C96.6724 31.8304 96.3911 32.0635 96.175 32.3518C95.6868 32.9629 95.4423 33.7369 95.4413 34.6737C95.4404 35.6106 95.6808 36.3754 96.1626 36.9682C96.3835 37.2525 96.6681 37.481 96.9934 37.6352C97.3188 37.7894 97.6759 37.8651 98.0358 37.856C98.4031 37.8691 98.7686 37.7984 99.1044 37.6491C99.4402 37.4998 99.7375 37.2758 99.9738 36.9943C100.464 36.419 100.708 35.6455 100.707 34.6737C100.708 33.6827 100.46 32.8959 99.9628 32.3132Z" fill="white"/>
<path d="M115.598 38.8776C114.489 39.9484 113.131 40.4834 111.524 40.4825C109.9 40.4825 108.533 39.9475 107.424 38.8776C106.314 37.8077 105.76 36.4152 105.76 34.7002C105.76 32.9669 106.314 31.552 107.424 30.4554C108.533 29.3589 109.9 28.8111 111.524 28.812C113.132 28.812 114.49 29.3598 115.598 30.4554C116.707 31.551 117.261 32.966 117.262 34.7002C117.263 36.4152 116.709 37.8077 115.598 38.8776ZM113.424 37.0608C113.922 36.4588 114.171 35.6541 114.171 34.6466C114.171 33.6574 113.922 32.8572 113.424 32.2461C113.201 31.9556 112.913 31.7214 112.583 31.5624C112.253 31.4034 111.89 31.3241 111.524 31.3308C111.154 31.3225 110.787 31.4009 110.452 31.5599C110.117 31.7188 109.825 31.9538 109.597 32.2461C109.102 32.8572 108.854 33.6574 108.854 34.6466C108.854 35.6559 109.098 36.4606 109.588 37.0608C109.822 37.3428 110.115 37.5698 110.447 37.7257C110.778 37.8815 111.14 37.9623 111.507 37.9623C111.873 37.9623 112.235 37.8815 112.567 37.7257C112.899 37.5698 113.192 37.3428 113.426 37.0608H113.424Z" fill="white"/>
<path d="M126.505 31.756H125.04C124.288 31.756 123.681 31.9992 123.219 32.4855C122.756 32.9718 122.524 33.6307 122.524 34.462V40.2181H119.38V29.0762H121.345L121.793 30.721H121.95C122.526 29.6254 123.548 29.0771 125.016 29.0762H126.508L126.505 31.756Z" fill="white"/>
<path d="M128.536 26.8233C128.363 26.6556 128.226 26.4532 128.136 26.2294C128.046 26.0056 128.003 25.7652 128.012 25.524C128.004 25.2803 128.046 25.0376 128.136 24.8111C128.226 24.5847 128.363 24.3794 128.536 24.2082C128.708 24.0379 128.913 23.9042 129.138 23.8153C129.363 23.7263 129.603 23.6839 129.845 23.6906C130.088 23.6853 130.33 23.7283 130.556 23.8172C130.782 23.906 130.988 24.0389 131.162 24.2082C131.339 24.3771 131.478 24.5814 131.57 24.8076C131.663 25.0338 131.707 25.277 131.699 25.5212C131.707 25.7635 131.664 26.0048 131.571 26.2289C131.479 26.453 131.339 26.6547 131.162 26.8206C130.805 27.1564 130.329 27.3374 129.838 27.3243C129.599 27.3309 129.361 27.2901 129.137 27.2041C128.914 27.1181 128.709 26.9887 128.536 26.8233ZM128.247 29.0778H131.385V40.2198H128.24L128.247 29.0778Z" fill="white"/>
<path d="M135.005 38.8376C133.94 37.742 133.407 36.3449 133.407 34.6465C133.407 32.948 133.94 31.551 135.005 30.4553C136.071 29.3597 137.468 28.8119 139.198 28.8119C139.844 28.8049 140.487 28.8897 141.11 29.0638C141.686 29.2317 142.088 29.3951 142.315 29.5538L142.657 29.8195L141.843 32.1001C141.14 31.6522 140.319 31.4219 139.485 31.4381C139.094 31.425 138.704 31.4964 138.342 31.6475C137.98 31.7985 137.655 32.0257 137.389 32.3135C136.849 32.8962 136.578 33.6761 136.577 34.6534C136.577 35.6444 136.848 36.4271 137.389 37.0015C137.931 37.5759 138.629 37.8631 139.485 37.8631C139.889 37.8634 140.29 37.8054 140.677 37.6911C140.981 37.6111 141.275 37.5 141.555 37.3594L141.843 37.2011L142.63 39.4556C142.542 39.5258 142.416 39.6194 142.249 39.7309C142.083 39.8424 141.708 40.0062 141.123 40.1947C140.501 40.3954 139.85 40.4939 139.196 40.4865C137.465 40.4838 136.068 39.9341 135.005 38.8376Z" fill="white"/>
<path d="M145.293 38.411C145.478 38.411 145.659 38.4659 145.813 38.5687C145.967 38.6716 146.087 38.8178 146.158 38.9888C146.229 39.1598 146.247 39.348 146.211 39.5295C146.175 39.7111 146.086 39.8779 145.955 40.0088C145.824 40.1397 145.657 40.2288 145.476 40.2649C145.294 40.301 145.106 40.2825 144.935 40.2117C144.764 40.1408 144.618 40.0209 144.515 39.8669C144.412 39.713 144.357 39.5321 144.357 39.347C144.358 39.0988 144.456 38.861 144.632 38.6855C144.807 38.5101 145.045 38.4114 145.293 38.411ZM145.293 38.2114C145.069 38.2117 144.85 38.2785 144.663 38.4034C144.476 38.5282 144.331 38.7056 144.245 38.913C144.16 39.1205 144.137 39.3487 144.181 39.5688C144.225 39.789 144.333 39.9912 144.492 40.1499C144.65 40.3086 144.853 40.4167 145.073 40.4606C145.293 40.5045 145.521 40.4821 145.729 40.3963C145.936 40.3105 146.113 40.1652 146.238 39.9787C146.363 39.7921 146.43 39.5728 146.43 39.3483C146.43 39.0472 146.311 38.7583 146.098 38.5454C145.885 38.3324 145.596 38.2128 145.295 38.2128L145.293 38.2114Z" fill="white"/>
<path d="M144.566 39.0347H145.14V39.1861H144.939V39.7614H144.767V39.1902H144.566V39.0347Z" fill="white"/>
<path d="M145.742 39.3579L145.589 39.5657H145.516L145.362 39.3579V39.7612H145.191V39.0386H145.329L145.551 39.3483L145.772 39.0386H145.91V39.7612H145.742V39.3579Z" fill="white"/>
</svg>
