<svg width="169" height="64" viewBox="0 0 169 64" fill="none" xmlns="http://www.w3.org/2000/svg">
<path fill-rule="evenodd" clip-rule="evenodd" d="M24.0067 19.624H49.7588V30.4102C49.7588 30.5855 49.7602 30.7751 49.7617 30.9772C49.7787 33.2096 49.8072 36.9688 48.036 39.891C45.6309 43.9319 41.2153 47.0268 36.9174 47.3991L36.8829 47.4021L36.8483 47.3991C32.5176 47.0269 28.1012 43.9316 25.696 39.8896L25.6951 39.8881C23.958 36.9412 23.9866 33.2149 24.0037 30.985C24.0053 30.7802 24.0067 30.588 24.0067 30.4102V19.624ZM24.811 20.4283V30.4102C24.811 30.5899 24.8098 30.781 24.8085 30.9819C24.794 33.2365 24.7715 36.7368 26.3876 39.479C28.6781 43.3278 32.8647 46.2349 36.8826 46.5948C40.8681 46.2349 45.055 43.3278 47.3457 39.4783L47.3473 39.4754C48.9934 36.761 48.9711 33.2322 48.9569 30.9728C48.9556 30.7751 48.9545 30.5871 48.9545 30.4102V20.4283H24.811Z" fill="white"/>
<path d="M46.189 23.1284H27.5762V28.731L41.9707 39.6299L40.8834 40.5928L27.5762 30.6131V33.0644C27.5762 40.8117 34.8821 43.7005 36.8825 43.7005C43.5797 42.7813 46.102 37.0912 46.102 34.2023L33.4036 24.6604H35.7084L46.189 32.539V23.1284Z" fill="white"/>
<path d="M52.3938 16.7283H52.002V16.5977H52.9489V16.7283H52.557V17.9038H52.3938V16.7283Z" fill="white"/>
<path d="M54.2548 17.3161C54.2548 17.1201 54.2222 16.9242 54.2222 16.761C54.1895 16.9242 54.1242 17.0875 54.0589 17.2508L53.8303 17.8712H53.6997L53.5038 17.2508C53.4385 17.0875 53.4058 16.9242 53.3731 16.761C53.3731 16.9242 53.3731 17.1528 53.3405 17.3487L53.3079 17.9038H53.1445L53.2426 16.5977H53.4711L53.6997 17.2181C53.765 17.3813 53.7977 17.512 53.8303 17.6426C53.8629 17.512 53.8956 17.3813 53.9609 17.2181L54.1568 16.5977H54.3854L54.4508 17.9038H54.2875L54.2548 17.3161Z" fill="white"/>
<path d="M58.696 36.4842C59.4797 36.9414 60.5899 37.3658 61.7654 37.3658C63.5288 37.3658 64.5411 36.4516 64.5411 35.1128C64.5411 33.8719 63.8227 33.1535 62.0267 32.4678C59.8715 31.6841 58.5328 30.5738 58.5328 28.7125C58.5328 26.6554 60.2308 25.1206 62.8104 25.1206C64.1818 25.1206 65.1615 25.4472 65.7493 25.7737L65.2921 27.1778C64.8677 26.9492 63.9859 26.5574 62.7777 26.5574C60.9818 26.5574 60.2634 27.635 60.2634 28.5493C60.2634 29.7902 61.0797 30.4106 62.9084 31.0963C65.1615 31.978 66.3044 33.0555 66.3044 34.9821C66.3044 37.0394 64.8023 38.8026 61.6675 38.8026C60.394 38.8026 58.9899 38.4435 58.2715 37.9537L58.696 36.4842Z" fill="white"/>
<path d="M76.8187 32.3375H71.6594V37.1377H77.4065V38.5744H69.9287V25.3169H77.0799V26.7537H71.6594V30.9334H76.8187V32.3375Z" fill="white"/>
<path d="M80.9326 38.5744V25.3169H82.7939L87.039 32.0436C88.0186 33.6111 88.8023 34.9825 89.4227 36.354L89.4554 36.3213C89.2921 34.558 89.2594 32.9253 89.2594 30.8681V25.3169H90.8595V38.5744H89.1288L84.9165 31.8477C84.0021 30.3783 83.1204 28.8435 82.4347 27.4067L82.3694 27.4394C82.4674 29.1047 82.5001 30.7049 82.5001 32.9253V38.6071H80.9326V38.5744Z" fill="white"/>
<path d="M97.7506 26.7531H93.7012V25.2837H103.53V26.7531H99.4806V38.5739H97.7506V26.7531Z" fill="white"/>
<path d="M108.035 25.3169V38.5744H106.338V25.3169H108.035Z" fill="white"/>
<path d="M112.347 38.5744V25.3169H114.208L118.453 32.0436C119.432 33.6111 120.216 34.9825 120.836 36.354L120.869 36.3213C120.706 34.558 120.674 32.9253 120.674 30.8681V25.3169H122.273V38.5744H120.543L116.331 31.8477C115.416 30.3783 114.534 28.8435 113.848 27.4067L113.784 27.4394C113.881 29.1047 113.914 30.7049 113.914 32.9253V38.6071H112.347V38.5744Z" fill="white"/>
<path d="M133.506 32.3375H128.347V37.1377H134.094V38.5744H126.616V25.3169H133.767V26.7537H128.314V30.9334H133.473V32.3375H133.506Z" fill="white"/>
<path d="M137.62 25.3169H139.318V37.1377H145V38.5744H137.62V25.3169Z" fill="white"/>
</svg>
