<svg width="171" height="64" viewBox="0 0 171 64" fill="none" xmlns="http://www.w3.org/2000/svg">
<g clip-path="url(#clip0_2489:5700)">
<path d="M54.2217 34.297C54.2217 29.7243 57.5711 26.4331 62.1729 26.4331C66.7747 26.4331 70.1241 29.7243 70.1241 34.297C70.1241 38.8696 66.7747 42.1608 62.1729 42.1608C57.6002 42.1608 54.2217 38.8696 54.2217 34.297ZM66.8038 34.297C66.8038 31.4427 64.9689 29.2874 62.1729 29.2874C59.3768 29.2874 57.5711 31.4427 57.5711 34.297C57.5711 37.1221 59.3768 39.3065 62.1729 39.3065C64.9689 39.2774 66.8038 37.1221 66.8038 34.297Z" fill="white"/>
<path d="M71.376 39.7412L73.1234 37.2656C74.2011 38.3723 75.8612 39.3044 77.9583 39.3044C79.7349 39.3044 80.6086 38.4889 80.6086 37.6151C80.6086 34.9355 71.8419 36.7704 71.8419 31.0327C71.8419 28.4989 74.0264 26.4019 77.6088 26.4019C80.0261 26.4019 82.0358 27.13 83.5503 28.528L81.7445 30.8871C80.5213 29.7513 78.8611 29.227 77.3175 29.227C75.9195 29.227 75.1623 29.8386 75.1623 30.7415C75.1623 33.1589 83.8998 31.5279 83.8998 37.2073C83.8998 40.0033 81.9193 42.1004 77.8126 42.1004C74.9001 42.1586 72.8031 41.1683 71.376 39.7412Z" fill="white"/>
<path d="M99.3364 41.8961V31.2363L95.0555 41.8961H93.6283L89.3467 31.2363V41.8961H86.1138V26.6636H90.6574L94.3564 35.8672L98.0554 26.6636H102.628V41.867H99.3364V41.8961Z" fill="white"/>
<path d="M104.871 34.2952C104.871 29.7226 108.22 26.4314 112.822 26.4314C117.424 26.4314 120.773 29.7226 120.773 34.2952C120.773 38.8679 117.424 42.1591 112.822 42.1591C108.22 42.1591 104.871 38.8679 104.871 34.2952ZM117.453 34.2952C117.453 31.4409 115.618 29.2857 112.822 29.2857C110.026 29.2857 108.22 31.4409 108.22 34.2952C108.22 37.1204 110.026 39.3047 112.822 39.3047C115.618 39.2756 117.453 37.1204 117.453 34.2952Z" fill="white"/>
<path d="M122.025 39.7412L123.773 37.2656C124.85 38.3723 126.51 39.3044 128.608 39.3044C130.385 39.3044 131.258 38.4889 131.258 37.6151C131.258 34.9355 122.491 36.7704 122.491 31.0327C122.491 28.4989 124.676 26.4019 128.258 26.4019C130.675 26.4019 132.685 27.13 134.2 28.528L132.394 30.8871C131.17 29.7513 129.51 29.227 127.967 29.227C126.569 29.227 125.812 29.8386 125.812 30.7415C125.812 33.1589 134.549 31.5279 134.549 37.2073C134.549 40.0033 132.569 42.1004 128.462 42.1004C125.549 42.1586 123.453 41.1683 122.025 39.7412Z" fill="white"/>
<path d="M136.734 41.8961V26.6636H139.996V41.867H136.734V41.8961Z" fill="white"/>
<path d="M141.977 39.7412L143.724 37.2656C144.801 38.3723 146.462 39.3044 148.558 39.3044C150.335 39.3044 151.209 38.4889 151.209 37.6151C151.209 34.9355 142.442 36.7704 142.442 31.0327C142.442 28.4989 144.627 26.4019 148.209 26.4019C150.627 26.4019 152.636 27.13 154.15 28.528L152.345 30.8871C151.122 29.7513 149.461 29.227 147.918 29.227C146.519 29.227 145.762 29.8386 145.762 30.7415C145.762 33.1589 154.5 31.5279 154.5 37.2073C154.5 40.0033 152.52 42.1004 148.413 42.1004C145.471 42.1586 143.374 41.1683 141.977 39.7412Z" fill="white"/>
<path fill-rule="evenodd" clip-rule="evenodd" d="M45.031 16.9583C47.0275 18.4376 48.1366 19.7664 48.4817 21.0952C48.7035 21.8473 48.5063 22.7499 48.0134 23.4268C47.5204 24.1038 46.7317 24.4798 45.8198 24.4798C45.4747 24.4798 45.1296 24.4297 44.7846 24.3294C44.4395 25.3072 44.1931 26.2599 44.1191 27.0873L44.0945 27.3881C42.3198 24.2542 39.4854 21.8473 36.0841 20.694C36.1827 20.6689 36.9221 20.4433 38.2284 19.641C38.0805 19.4154 37.9573 19.1647 37.8587 18.9641C37.5876 18.3122 37.6861 17.2341 38.1052 16.4318C38.4502 15.7549 38.9924 15.3036 39.6087 15.1782C39.8551 15.1281 40.1016 15.103 40.3727 15.103C41.7283 15.103 43.429 15.78 45.031 16.9583ZM47.7916 21.2956C48.0874 22.474 47.1755 24.229 44.9326 23.6023C44.7354 23.527 44.5382 23.4769 44.3656 23.4518C44.1438 23.9783 43.8974 24.5801 43.7248 25.2569C42.246 23.2512 40.2742 21.6466 38.0066 20.6187C38.0956 20.5644 38.1889 20.5087 38.2857 20.4508C38.5913 20.268 38.9327 20.0639 39.2883 19.8164C38.9186 19.3651 38.6475 18.964 38.5243 18.6882C38.2285 17.9862 38.5736 16.1559 39.7566 15.9052C40.9397 15.6545 42.7882 16.2061 44.6122 17.56C46.436 18.9138 47.4712 20.1173 47.7916 21.2956Z" fill="white"/>
<path d="M41.2846 18.3874C41.7776 18.588 42.4184 18.939 43.2071 19.4655C44.1438 20.0923 44.9571 20.7943 45.4747 21.3458C44.612 22.4991 44.0451 24.0786 43.7001 25.1818C43.8726 25.4325 44.0698 25.6832 44.2423 25.9339C44.4149 25.3072 44.7106 24.3796 45.1049 23.4518C45.2035 23.477 45.3268 23.477 45.4501 23.477C45.7458 23.477 46.0909 23.4268 46.362 23.2011C46.5591 23.0507 46.781 22.775 46.7564 22.2735C46.7564 21.7971 46.3866 21.1954 45.6226 20.4683C45.0803 19.9418 44.3409 19.3652 43.6015 18.8387C41.4818 17.4096 40.003 17.0085 39.3375 17.6854C38.8938 18.1367 38.9431 18.6883 39.091 19.0894C38.3023 19.6159 37.6368 19.992 37.1932 20.2427C37.4889 20.343 37.7601 20.4683 38.0559 20.5937C38.8445 20.1675 39.9783 19.4404 41.2846 18.3874ZM45.943 21.9726C46.0169 22.098 46.0416 22.2234 46.0416 22.2986C46.0416 22.5242 45.9676 22.5995 45.9183 22.6496C45.8197 22.7248 45.6226 22.775 45.4501 22.775C45.5979 22.4741 45.7705 22.2234 45.943 21.9726ZM39.8551 18.237C39.929 18.1618 40.1262 18.1116 40.4467 18.1618C40.2001 18.3623 39.9537 18.5378 39.7072 18.7133C39.6826 18.5378 39.7072 18.3623 39.8551 18.237Z" fill="white"/>
<path d="M32.0912 19.315C24.0315 19.315 17.5 25.9589 17.5 34.1574C17.5 42.3559 24.0315 48.9999 32.0912 48.9999C40.1509 48.9999 46.6824 42.3559 46.6824 34.1574C46.6824 25.9589 40.1263 19.315 32.0912 19.315ZM32.0912 48.1725C24.4752 48.1725 18.3134 41.9045 18.3134 34.1574C18.3134 26.4103 24.4752 20.1423 32.0912 20.1423C39.7072 20.1423 45.869 26.4103 45.869 34.1574C45.869 41.9045 39.6826 48.1725 32.0912 48.1725Z" fill="white"/>
<path d="M45.179 34.0321C45.179 41.3781 39.313 47.3452 32.0913 47.3452C24.8696 47.3452 18.9789 41.3781 18.9789 34.0321H45.179Z" fill="white"/>
<path d="M45.1544 34.1575C45.1544 32.6282 42.5417 31.7507 39.0665 31.4497C36.5525 31.2492 34.0137 31.4999 31.1054 32.4025C28.5914 33.1546 26.3238 33.0293 24.6725 32.8287C21 32.4025 18.9789 32.3523 18.9789 34.1575C18.9789 36.7649 24.2041 40.0243 32.042 38.8961C36.0102 38.3194 38.0559 37.141 40.3974 36.3387C42.9361 35.4863 45.1544 35.5114 45.1544 34.1575Z" fill="white"/>
<path d="M36.3798 27.8395C37.6049 27.8395 38.5981 26.8293 38.5981 25.583C38.5981 24.3368 37.6049 23.3266 36.3798 23.3266C35.1547 23.3266 34.1616 24.3368 34.1616 25.583C34.1616 26.8293 35.1547 27.8395 36.3798 27.8395Z" fill="white"/>
<path d="M40.0029 29.5191C40.5201 29.5191 40.9395 29.0926 40.9395 28.5664C40.9395 28.0402 40.5201 27.6137 40.0029 27.6137C39.4856 27.6137 39.0662 28.0402 39.0662 28.5664C39.0662 29.0926 39.4856 29.5191 40.0029 29.5191Z" fill="white"/>
</g>
<defs>
<clipPath id="clip0_2489:5700">
<rect width="137" height="33.8969" fill="white" transform="translate(17.5 15.103)"/>
</clipPath>
</defs>
</svg>
