<svg width="169" height="64" viewBox="0 0 169 64" fill="none" xmlns="http://www.w3.org/2000/svg">
<path d="M80.934 32.443C80.934 35.4967 79.3694 37.3439 76.5985 37.3439C73.8276 37.3439 71.9992 35.6475 71.9992 32.443V22.2642H68.6816V32.443C68.6816 37.7963 72.3008 40.3787 76.5797 40.3787C81.047 40.3787 84.2704 37.6832 84.2704 32.443V22.2642H80.934V32.443Z" fill="white"/>
<path d="M101.311 27.316C99.6895 27.316 98.238 27.8249 97.1259 29.5968C96.4096 27.8626 94.9205 27.2594 93.4125 27.2594C92.225 27.2594 90.7736 27.7118 90.1138 28.9936L89.8876 27.4667H87.0225V40.0018H90.1138V33.3102C90.1138 31.6702 91.1128 30.1623 92.7716 30.1623C94.4681 30.1623 95.3352 31.6514 95.3352 33.3102V40.0018H98.4265V33.3102C98.4265 31.6702 99.4633 30.2188 101.141 30.2188C102.819 30.2188 103.497 31.6137 103.497 33.2725V40.0207H106.588V33.2725C106.607 29.5025 104.854 27.316 101.311 27.316Z" fill="white"/>
<path d="M115.843 27.1085C111.791 27.1085 109.189 29.8417 109.189 33.6494C109.189 37.6644 111.753 40.3222 116.07 40.3222C117.973 40.3222 120.122 39.6624 121.442 38.2864L119.481 36.3449C118.765 37.08 117.276 37.5136 116.126 37.5136C113.94 37.5136 112.601 36.4014 112.394 34.8557H122.158C122.648 29.6909 120.028 27.1085 115.843 27.1085ZM112.45 32.2922C112.903 30.6711 114.279 29.8606 115.956 29.8606C117.728 29.8606 119.01 30.6711 119.199 32.2922H112.45Z" fill="white"/>
<path d="M130.64 27.1085C126.588 27.1085 123.986 29.8417 123.986 33.6494C123.986 37.6644 126.55 40.3222 130.866 40.3222C132.77 40.3222 134.919 39.6624 136.239 38.2864L134.259 36.3449C133.543 37.08 132.054 37.5136 130.904 37.5136C128.718 37.5136 127.379 36.4014 127.172 34.8557H136.936C137.445 29.6909 134.825 27.1085 130.64 27.1085ZM127.247 32.2922C127.7 30.6711 129.076 29.8606 130.753 29.8606C132.525 29.8606 133.807 30.6711 133.996 32.2922H127.247Z" fill="white"/>
<path d="M60.2182 23.9418V32.198C60.2182 35.3836 59.238 37.9471 57.4473 39.7001C61.7827 39.4174 65.2133 35.8171 65.2133 31.3874V22.2642C63.3472 22.2642 61.6131 22.8862 60.2182 23.9418Z" fill="white"/>
<path d="M46.1561 13.8195C38.3712 13.8195 32.0565 20.1341 32.0565 27.919V32.6126C32.0565 33.065 32.0377 33.5363 32 33.9886V50.1805C35.4118 50.1805 38.5597 48.9742 41.0102 46.9384C45.2702 46.8818 49.1155 45.0723 51.7545 42.1694C51.321 42.2071 50.8874 42.2448 50.435 42.2448C48.5312 42.2448 46.7405 41.8113 45.2513 41.0196C44.5916 40.6614 43.9884 40.2467 43.4418 39.7567C42.1788 38.6068 41.3118 37.1177 40.8405 35.3647C40.5766 34.3845 40.4447 33.3289 40.4447 32.1979V19.8891H46.0807V19.9268V32.1979C46.0807 32.5749 46.0996 32.9142 46.1561 33.2535C46.4766 35.6474 47.9846 36.9481 50.4727 36.9481C54.0353 36.9481 54.5631 33.9698 54.5631 32.1979V16.5527C51.3775 16.7412 48.4558 17.9664 46.1373 19.8702V13.8195H46.1561Z" fill="white"/>
</svg>
