<svg width="169" height="64" viewBox="0 0 169 64" fill="none" xmlns="http://www.w3.org/2000/svg">
<path d="M43.5446 27.6433H47.8497C47.7874 23.8569 44.6754 21.2428 39.945 21.2428C35.2873 21.2428 31.8744 23.8154 31.8951 27.6744C31.8847 30.8072 34.0943 32.6018 37.6836 33.4628L39.9969 34.0438C42.3102 34.6039 43.5965 35.2678 43.6069 36.6994C43.5965 38.2554 42.1235 39.3135 39.8413 39.3135C37.5072 39.3135 35.8267 38.2347 35.6815 36.1081H31.3349C31.449 40.7036 34.7375 43.0792 39.8931 43.0792C45.0799 43.0792 48.1298 40.5999 48.1401 36.7098C48.1298 33.1724 45.4638 31.2948 41.7708 30.4649L39.862 30.0084C38.0155 29.5831 36.4699 28.8985 36.501 27.3736C36.501 26.0042 37.7147 24.998 39.9139 24.998C42.0612 24.998 43.3787 25.9731 43.5446 27.6433ZM57.947 26.8445H54.949V23.027H50.5299V26.8445H48.3514V30.164H50.5299V38.4629C50.5091 41.5854 52.6357 43.131 55.8412 42.9962C56.9823 42.9547 57.7914 42.7265 58.2375 42.5812L57.5424 39.2928C57.3246 39.3343 56.8578 39.438 56.4428 39.438C55.5611 39.438 54.949 39.1061 54.949 37.882V30.164H57.947V26.8445ZM63.7626 43.0792C66.1174 43.0792 67.6424 42.0522 68.4204 40.5687H68.5449V42.7783H72.7358V32.0313C72.7358 28.2346 69.52 26.637 65.9722 26.637C62.1547 26.637 59.6443 28.4628 59.0323 31.3674L63.1195 31.6993C63.4203 30.6412 64.3643 29.8632 65.9515 29.8632C67.4556 29.8632 68.3166 30.6205 68.3166 31.9276V31.9898C68.3166 33.0168 67.2274 33.1516 64.4577 33.4214C61.3041 33.7118 58.4721 34.7699 58.4721 38.3281C58.4721 41.4816 60.7232 43.0792 63.7626 43.0792ZM65.0282 40.0293C63.6693 40.0293 62.6942 39.3965 62.6942 38.1828C62.6942 36.938 63.7211 36.326 65.2772 36.1081C66.2419 35.9733 67.8187 35.745 68.3478 35.3923V37.0832C68.3478 38.7534 66.9681 40.0293 65.0282 40.0293ZM74.5576 42.7783H78.9767V33.7637C78.9767 31.8031 80.4083 30.4545 82.3585 30.4545C82.9706 30.4545 83.8108 30.5582 84.2258 30.6931V26.7719C83.8316 26.6785 83.2818 26.6163 82.8357 26.6163C81.0515 26.6163 79.5888 27.6536 79.0079 29.6246H78.8419V26.8445H74.5576V42.7783ZM84.9039 48.7535H89.323V40.2264H89.4579C90.0699 41.5542 91.4081 43.0377 93.9808 43.0377C97.6115 43.0377 100.444 40.1642 100.444 34.8322C100.444 29.3549 97.487 26.637 93.9911 26.637C91.3251 26.637 90.0492 28.2242 89.4579 29.5209H89.2608V26.8445H84.9039V48.7535ZM89.2297 34.8114C89.2297 31.9691 90.433 30.1537 92.5803 30.1537C94.7692 30.1537 95.931 32.052 95.931 34.8114C95.931 37.5915 94.7484 39.521 92.5803 39.521C90.4538 39.521 89.2297 37.6538 89.2297 34.8114ZM108.982 43.0895C113.816 43.0895 116.825 39.7804 116.825 34.8737C116.825 29.9358 113.816 26.637 108.982 26.637C104.148 26.637 101.14 29.9358 101.14 34.8737C101.14 39.7804 104.148 43.0895 108.982 43.0895ZM109.003 39.6662C106.773 39.6662 105.632 37.6227 105.632 34.8425C105.632 32.0624 106.773 30.0084 109.003 30.0084C111.192 30.0084 112.333 32.0624 112.333 34.8425C112.333 37.6227 111.192 39.6662 109.003 39.6662ZM118.091 42.7783H122.511V33.7637C122.511 31.8031 123.942 30.4545 125.892 30.4545C126.504 30.4545 127.345 30.5582 127.76 30.6931V26.7719C127.365 26.6785 126.816 26.6163 126.37 26.6163C124.585 26.6163 123.123 27.6536 122.542 29.6246H122.376V26.8445H118.091V42.7783ZM137.712 26.8445H134.714V23.027H130.295V26.8445H128.116V30.164H130.295V38.4629C130.274 41.5854 132.4 43.131 135.606 42.9962C136.747 42.9547 137.556 42.7265 138.002 42.5812L137.307 39.2928C137.089 39.3343 136.623 39.438 136.208 39.438C135.326 39.438 134.714 39.1061 134.714 37.882V30.164H137.712V26.8445Z" fill="white"/>
</svg>
