<svg width="116" height="64" viewBox="0 0 116 64" fill="none" xmlns="http://www.w3.org/2000/svg">
<g clip-path="url(#clip0_2127:9487)">
<path d="M0.5 54.7704L9.23628 59.4209V23.2467L0.5 18.563V54.7704Z" fill="white"/>
<path d="M28.5024 4.57861V9.69415L31.9903 11.5876V42.6462L37.2387 45.4365V9.26232L28.5024 4.57861Z" fill="white"/>
<path d="M14.4846 11.5879V16.7034L18.0057 18.5636V49.6223L23.2541 52.4458V16.2384L14.4846 11.5879Z" fill="white"/>
<path d="M58.8637 25.4061C58.4318 24.6421 57.8007 23.9777 57.0035 23.5791C56.0734 23.1141 55.0768 22.8815 54.0471 22.9147H48.0347V36.7001L51.2568 38.4275V33.2455H53.9807C55.0104 33.2787 56.0402 33.0462 56.9703 32.5811C57.7675 32.1825 58.4318 31.5514 58.8637 30.7874C59.3287 29.9569 59.5612 29.0268 59.528 28.0967C59.528 27.1666 59.3287 26.2365 58.8637 25.4061ZM55.8741 29.4254C55.6748 29.824 55.3426 30.123 54.9772 30.3223C54.5121 30.5548 53.9806 30.6877 53.4492 30.6545H51.2568V25.5722H53.4492C53.9806 25.5722 54.5121 25.6718 55.0104 25.9043C55.409 26.1037 55.708 26.4026 55.9073 26.8012C56.2727 27.6317 56.2727 28.595 55.8741 29.4254Z" fill="white"/>
<path d="M63.8133 42.4474C63.4479 42.4474 63.0493 42.4142 62.6839 42.3477C62.3849 42.3145 62.0859 42.2148 61.8202 42.1152L62.5178 39.7567C62.9828 39.9228 63.4479 39.956 63.9461 39.8896C64.378 39.7567 64.7102 39.4245 64.8762 38.9927L65.0755 38.5277L60.9565 26.7354H64.2783L66.6368 35.1395H66.7697L69.1613 26.7354H72.5163L68.0651 39.3913C67.8658 39.956 67.5669 40.5207 67.2015 40.9858C66.8361 41.4508 66.371 41.8162 65.8396 42.0488C65.1752 42.3145 64.4776 42.4474 63.8133 42.4474Z" fill="white"/>
<path d="M85.0063 38.3949C83.9766 38.4281 82.9136 38.1623 82.0167 37.6641C81.1863 37.1658 80.5219 36.4682 80.0569 35.6046C79.5918 34.6412 79.3593 33.5783 79.3593 32.5153C79.3261 31.4523 79.5586 30.3894 80.0569 29.426C80.4887 28.5624 81.1531 27.8316 82.0167 27.3665C83.8769 26.37 86.1357 26.37 87.9959 27.3665C88.8264 27.8648 89.4907 28.5624 89.9558 29.426C90.4208 30.3894 90.6534 31.4523 90.6534 32.5153C90.6866 33.5783 90.4541 34.6412 89.9558 35.6046C89.524 36.4682 88.8596 37.199 87.9959 37.6641C87.0658 38.1623 86.0361 38.4281 85.0063 38.3949ZM85.0063 35.9367C85.5046 35.97 85.9697 35.8039 86.3351 35.5049C86.7004 35.1727 86.9994 34.7409 87.1323 34.2758C87.4977 33.1132 87.4977 31.8842 87.1323 30.7215C86.9662 30.2565 86.7004 29.8247 86.3351 29.4925C85.9697 29.1935 85.5046 29.0274 85.0063 29.0274C84.5081 29.0274 84.043 29.1603 83.6776 29.4925C83.3122 29.8247 83.0133 30.2565 82.8804 30.7215C82.515 31.8842 82.515 33.1132 82.8804 34.2758C83.0465 34.7409 83.3122 35.1727 83.6776 35.5049C84.043 35.8039 84.5081 35.97 85.0063 35.9367Z" fill="white"/>
<path d="M95.9018 31.552V38.1623H92.7461V26.7354H95.7689V28.7617H95.9018C96.1343 28.0974 96.5994 27.5327 97.1641 27.1673C97.7952 26.7686 98.5592 26.5693 99.3232 26.5693C100.054 26.5693 100.752 26.7354 101.383 27.1008C101.981 27.4662 102.446 27.9645 102.745 28.5956C103.077 29.3264 103.243 30.0904 103.243 30.8876V38.1623H100.087V31.4524C100.12 30.8544 99.9211 30.2897 99.5557 29.8247C99.1571 29.4261 98.6256 29.1935 98.0609 29.2268C97.6623 29.2268 97.2637 29.3264 96.9315 29.4925C96.5993 29.6918 96.3336 29.9576 96.1675 30.2897C96.0014 30.6883 95.9018 31.1202 95.9018 31.552Z" fill="white"/>
<path d="M115.235 29.9905L112.345 30.1566C112.278 29.9241 112.179 29.6916 112.012 29.4923C111.846 29.293 111.614 29.1269 111.381 29.0272C111.082 28.8944 110.783 28.8279 110.451 28.8279C110.019 28.8279 109.588 28.9276 109.222 29.1269C108.923 29.293 108.724 29.5919 108.724 29.9573C108.724 30.2231 108.857 30.4888 109.056 30.6549C109.388 30.8874 109.787 31.0535 110.186 31.12L112.245 31.5186C113.142 31.6514 114.006 32.0501 114.736 32.6148C115.301 33.113 115.567 33.8438 115.567 34.6078C115.567 35.3386 115.334 36.003 114.902 36.5677C114.437 37.1656 113.806 37.6306 113.109 37.8964C112.278 38.2286 111.381 38.3947 110.484 38.3614C108.99 38.3614 107.761 38.0293 106.864 37.3981C106 36.8002 105.435 35.8701 105.302 34.8071L108.425 34.641C108.491 35.0729 108.757 35.4383 109.123 35.704C109.953 36.1691 110.983 36.2023 111.846 35.7704C112.145 35.6044 112.345 35.2722 112.378 34.94C112.378 34.6743 112.245 34.4085 112.012 34.2424C111.68 34.0099 111.315 33.8438 110.883 33.8106L108.89 33.412C107.794 33.1795 106.963 32.8141 106.399 32.2494C105.867 31.6847 105.568 30.9206 105.568 30.1566C105.535 29.4591 105.768 28.7947 106.166 28.2632C106.598 27.6985 107.196 27.2667 107.86 27.0342C108.691 26.7352 109.554 26.5691 110.418 26.6023C111.846 26.6023 113.009 26.9013 113.839 27.5324C114.603 28.0971 115.135 28.994 115.235 29.9905Z" fill="white"/>
<path d="M74.21 38.162V22.9482H77.3657V38.1952L74.21 38.162Z" fill="white"/>
</g>
<defs>
<clipPath id="clip0_2127:9487">
<rect width="115" height="54.8426" fill="white" transform="translate(0.5 4.57861)"/>
</clipPath>
</defs>
</svg>
