<svg width="169" height="64" viewBox="0 0 169 64" fill="none" xmlns="http://www.w3.org/2000/svg">
<path d="M57.7207 38.3346V27.9903C57.7207 26.9277 58.5822 26.0664 59.6448 26.0664H59.7858V38.3346H57.7207Z" fill="white"/>
<path d="M62.7793 38.3346V26.0664H64.9521L69.9264 34.9697V26.0664H69.9776C71.0401 26.0664 71.9017 26.9277 71.9017 27.9903V38.3346H69.7287L64.7546 29.4313V38.3346H62.7793Z" fill="white"/>
<path d="M78.4104 38.6326C77.1294 38.6326 76.1298 38.2413 75.4114 37.4585C74.6931 36.6755 74.334 35.6357 74.334 34.3387H76.3991C76.3991 35.0982 76.5668 35.7058 76.9019 36.1615C77.2492 36.6054 77.752 36.8274 78.4104 36.8274C79.0688 36.8274 79.5716 36.6054 79.9187 36.1615C80.278 35.7058 80.4575 35.104 80.4575 34.3563V27.9903C80.4575 26.9277 81.319 26.0664 82.3816 26.0664H82.5226V34.3563C82.5226 35.6531 82.1575 36.6932 81.4272 37.4759C80.709 38.2471 79.7032 38.6326 78.4104 38.6326Z" fill="white"/>
<path d="M85.3271 26.0664H92.5821C92.5821 27.0633 91.7738 27.8716 90.7769 27.8716H87.3923V31.3417H92.5821V33.1469H87.3923V36.5295H92.5821V38.3346H85.3271V31.3417V27.8716V26.0664Z" fill="white"/>
<path d="M137.745 26.0664H145C145 27.0633 144.192 27.8716 143.195 27.8716H139.81V31.3417H145V33.1469H139.81V36.5295H145V38.3346H137.745V31.3417V27.8716V26.0664Z" fill="white"/>
<path d="M101.025 38.6323C99.2338 38.6323 97.8157 38.0365 96.7705 36.8445C95.7256 35.6528 95.2031 34.1047 95.2031 32.2001C95.2031 30.2957 95.7256 28.7476 96.7705 27.5556C97.8157 26.3639 99.2338 25.7681 101.025 25.7681C102.529 25.7681 103.766 26.1887 104.736 27.03C105.706 27.8594 106.277 28.9404 106.448 30.2722H105.986C105.079 30.2722 104.356 29.5874 103.819 28.8575C103.664 28.6471 103.485 28.4584 103.281 28.2919C102.705 27.8127 101.958 27.5733 101.041 27.5733C99.8149 27.5733 98.8553 27.9939 98.1622 28.8352C97.4798 29.6646 97.1385 30.7865 97.1385 32.2001C97.1385 33.6139 97.4798 34.7415 98.1622 35.5828C98.8553 36.4123 99.8149 36.8271 101.041 36.8271C101.958 36.8271 102.705 36.5876 103.281 36.1085C103.485 35.9419 103.664 35.7533 103.819 35.5429C104.356 34.813 105.079 34.1281 105.986 34.1281H106.448C106.277 35.46 105.706 36.5467 104.736 37.388C103.766 38.2175 102.529 38.6323 101.025 38.6323Z" fill="white"/>
<path d="M111.779 38.3346V27.9592H108.134C108.134 26.9139 108.981 26.0664 110.027 26.0664H117.508V27.9592H113.844V38.3346H111.779Z" fill="white"/>
<path d="M120.129 38.3346V27.9903C120.129 26.9277 120.99 26.0664 122.053 26.0664H122.194V38.3346H120.129Z" fill="white"/>
<path d="M128.981 38.3346L124.814 26.0664H125.654C126.491 26.0664 127.232 26.6073 127.487 27.4043L129.968 35.1625L132.449 27.4043C132.704 26.6073 133.445 26.0664 134.282 26.0664H135.122L130.956 38.3346H128.981Z" fill="white"/>
<path d="M27.04 23.797C27.1957 23.6012 27.3607 23.4129 27.5257 23.2246C27.5331 23.2153 27.5498 23.2134 27.5572 23.204C27.5721 23.1854 27.5962 23.1742 27.611 23.1556L27.6259 23.1369C27.7409 23.0305 27.8633 22.9148 28.0044 22.8141C28.5036 22.4351 29.0217 22.1473 29.568 21.9577C31.3202 21.3426 33.2707 21.7217 34.8002 23.1657C36.9361 25.1677 36.7448 28.3927 35.0399 30.5362C32.8853 33.7317 29.183 38.1902 34.3093 42.1839C35.231 42.9019 35.9148 43.494 38.8181 44.333C36.9192 44.6829 35.1586 44.574 33.1989 44.0735C31.8126 43.2911 29.6332 41.6158 28.8917 39.3531C27.771 35.9218 30.8648 30.7924 32.3599 28.8167C34.4128 26.0826 31.0911 23.1228 28.6457 26.4271C27.3674 28.1493 25.1311 33.0221 25.9082 36.6366C26.3626 38.6864 26.9683 40.1805 29.3698 42.2328C28.9244 41.9701 28.492 41.6719 28.0725 41.3385C22.4929 36.1412 23.1402 28.1048 27.04 23.797Z" fill="white"/>
<path d="M46.0341 40.2035C45.8784 40.3993 45.7134 40.5876 45.5484 40.7758C45.541 40.7852 45.5242 40.7871 45.5169 40.7963C45.502 40.815 45.4778 40.8263 45.463 40.8448L45.4482 40.8636C45.3333 40.9699 45.2108 41.0855 45.0698 41.1863C44.5704 41.5654 44.0524 41.8532 43.5061 42.0426C41.7538 42.6579 39.8035 42.2787 38.2738 40.8347C36.1381 38.8328 36.3294 35.6078 38.0343 33.4641C40.1887 30.2687 43.8909 25.8103 38.7647 21.8166C37.843 21.0985 37.1592 20.5063 34.2559 19.6674C36.1548 19.3176 37.9154 19.4264 39.8751 19.9269C41.2614 20.7094 43.4409 22.3846 44.1824 24.6474C45.3031 28.0787 42.2093 33.2081 40.7141 35.1836C38.6614 37.9178 41.983 40.8775 44.4284 37.5733C45.7066 35.8512 47.943 30.9783 47.1658 27.3638C46.7114 25.3141 46.1057 23.82 43.7043 21.7677C44.1495 22.0304 44.582 22.3284 45.0015 22.662C50.5812 27.8593 49.9338 35.8957 46.0341 40.2035Z" fill="white"/>
</svg>
