<svg width="145" height="32" viewBox="0 0 145 32" fill="none" xmlns="http://www.w3.org/2000/svg">
<g clip-path="url(#clip0)">
<path fill-rule="evenodd" clip-rule="evenodd" d="M35.8493 0C31.1 0 26.84 2.09333 23.9373 5.40667C27.167 5.97704 30.1842 7.40457 32.6733 9.54C34.4104 10.9672 35.9493 12.6198 37.2493 14.454L37.9867 15.5553C38.0426 15.64 38.0725 15.7392 38.0725 15.8407C38.0725 15.9421 38.0426 16.0414 37.9867 16.126L37.254 17.2273C35.9568 19.0632 34.4181 20.7159 32.6793 22.1407C30.1921 24.2806 27.1736 25.7099 23.942 26.278C26.844 29.5887 31.1027 31.6793 35.85 31.6793C44.5947 31.6793 51.6833 24.588 51.6833 15.8393C51.6833 7.092 44.5947 0 35.85 0" fill="#fff"/>
<path fill-rule="evenodd" clip-rule="evenodd" d="M29.8087 16.0333C29.7879 16.251 29.7238 16.4624 29.6203 16.655C29.5167 16.8476 29.3757 17.0176 29.2056 17.1549C29.0354 17.2923 28.8395 17.3943 28.6294 17.4549C28.4193 17.5156 28.1992 17.5336 27.9821 17.5081C27.7649 17.4825 27.555 17.4138 27.3647 17.306C27.1745 17.1982 27.0076 17.0535 26.8741 16.8804C26.7405 16.7072 26.6428 16.5091 26.5868 16.2977C26.5308 16.0864 26.5176 15.8659 26.548 15.6494C26.6076 15.2243 26.8313 14.8395 27.1711 14.5773C27.5109 14.3151 27.9399 14.1964 28.3661 14.2466C28.7924 14.2968 29.1821 14.5119 29.4517 14.8459C29.7213 15.1798 29.8495 15.6061 29.8087 16.0333ZM34.134 15.566C32.3107 13.272 28.0827 8.90868 22.068 8.49068L21.828 8.47668C20.6343 10.7473 20.0123 13.2747 20.016 15.84C20.016 18.496 20.67 20.998 21.8247 23.1967C21.908 23.192 21.9913 23.1874 22.074 23.1813C28.082 22.7733 32.3073 18.4207 34.134 16.1267C34.1964 16.0466 34.2304 15.9479 34.2304 15.8464C34.2304 15.7448 34.1964 15.6461 34.134 15.566Z" fill="#fff"/>
<path fill-rule="evenodd" clip-rule="evenodd" d="M21.8247 23.1967C16.6047 23.4613 11.4847 20.712 7.76467 16.0753C7.7108 16.0091 7.68139 15.9264 7.68139 15.841C7.68139 15.7556 7.7108 15.6729 7.76467 15.6067C11.4873 10.968 16.6113 8.218 21.828 8.47666C22.4081 7.37386 23.1161 6.3432 23.9373 5.406C23.3814 5.30727 22.8213 5.2343 22.2587 5.18733C17.3675 4.9664 12.58 6.64305 8.89533 9.86733C7.78061 10.7963 6.75138 11.8233 5.82 12.936C5.80608 12.9497 5.7893 12.9603 5.77087 12.9668C5.75243 12.9733 5.73278 12.9757 5.71331 12.9738C5.69384 12.9719 5.67503 12.9657 5.65821 12.9557C5.6414 12.9458 5.62698 12.9322 5.616 12.916C4.55908 11.0581 3.73041 9.0793 3.148 7.02266L3.14133 6.992C3.05821 6.77904 2.93172 6.58569 2.7699 6.42421C2.60808 6.26274 2.41446 6.13667 2.20133 6.054C2.02275 5.98007 1.8306 5.94459 1.6374 5.94988C1.44419 5.95516 1.25427 6.00109 1.08 6.08466C0.750662 6.26318 0.487532 6.54296 0.32953 6.88262C0.171528 7.22228 0.127046 7.60377 0.202665 7.97066L0.209331 7.99066C0.959142 10.6829 2.08919 13.2543 3.56533 15.6273C3.60368 15.6883 3.62403 15.7589 3.62403 15.831C3.62403 15.9031 3.60368 15.9737 3.56533 16.0347C2.09023 18.4163 0.957991 20.9938 0.201998 23.6913L0.195331 23.722V23.7527C0.19441 24.0852 0.289137 24.4109 0.468218 24.691C0.647298 24.9712 0.903173 25.1939 1.20533 25.3327C1.39 25.414 1.58866 25.4593 1.79066 25.4653C2.05438 25.4593 2.31269 25.3894 2.54342 25.2615C2.77415 25.1337 2.9704 24.9517 3.11533 24.7313L3.13467 24.7007L3.14666 24.67C3.73089 22.6066 4.56177 20.6211 5.62133 18.7567C5.63232 18.7405 5.64673 18.7269 5.66355 18.7169C5.68037 18.7069 5.69917 18.7008 5.71864 18.6988C5.73811 18.6969 5.75776 18.6993 5.7762 18.7059C5.79464 18.7124 5.81141 18.7229 5.82533 18.7367C6.75871 19.8526 7.78992 20.8829 8.90666 21.8153C12.3129 24.769 16.6446 26.4386 21.152 26.5353C21.52 26.5353 21.8947 26.5253 22.264 26.4953C22.8262 26.4491 23.3859 26.3768 23.9413 26.2787C23.1168 25.3383 22.4063 24.3038 21.8247 23.1967ZM122.507 9.38C122.968 9.38 123.349 9.24666 123.64 8.98466C123.933 8.71933 124.083 8.368 124.083 7.94C124.083 7.51266 123.933 7.164 123.638 6.904C123.348 6.64933 122.967 6.52 122.507 6.52C122.033 6.52 121.649 6.65 121.365 6.90533C121.077 7.164 120.931 7.512 120.931 7.94C120.931 8.36733 121.077 8.71866 121.363 8.984C121.647 9.24666 122.032 9.38 122.507 9.38" fill="#fff"/>
<path fill-rule="evenodd" clip-rule="evenodd" d="M122.624 11.0574H117.076V10.7374C117.076 10.1587 117.203 9.71736 117.455 9.42269C117.705 9.13203 118.116 8.95936 118.678 8.91003L119.109 8.87136C119.412 8.84203 119.655 8.73736 119.833 8.56003C120.014 8.37869 120.106 8.12469 120.106 7.80336C120.106 7.34336 119.903 6.79403 118.94 6.79403C118.838 6.79136 118.737 6.79806 118.636 6.81403L118.186 6.85269C116.985 6.96003 116.039 7.38603 115.375 8.11736C114.716 8.84336 114.379 9.83203 114.373 11.0574H113.525C112.514 11.0574 112.301 11.6274 112.301 12.106C112.301 12.584 112.514 13.1547 113.525 13.1547H114.373V19.6934C114.373 20.11 114.507 20.4334 114.772 20.6534C115.029 20.868 115.353 20.9774 115.734 20.9774C116.116 20.9774 116.437 20.868 116.689 20.6527C116.945 20.432 117.075 20.1094 117.075 19.6934V13.1547H121.146V19.6934C121.146 20.1094 121.279 20.4354 121.543 20.662C121.801 20.884 122.125 20.9967 122.507 20.9967C122.889 20.9967 123.211 20.8834 123.463 20.6607C123.719 20.434 123.849 20.1087 123.849 19.694V12.1054C123.849 11.6267 123.636 11.0567 122.624 11.0567V11.0574ZM133.555 16.5554C133.328 16.1834 132.951 15.8707 132.435 15.626C131.933 15.3887 131.232 15.1747 130.353 14.9907C129.55 14.8254 129.004 14.6594 128.731 14.4974C128.484 14.352 128.364 14.1454 128.364 13.866C128.364 13.5687 128.484 13.3414 128.729 13.17C128.986 12.9907 129.346 12.9 129.799 12.9C130.186 12.9 130.513 12.9467 130.772 13.0394C131.037 13.134 131.361 13.2794 131.729 13.47C131.94 13.5887 132.119 13.68 132.259 13.7407C132.412 13.806 132.571 13.8387 132.731 13.8387C132.979 13.8387 133.191 13.734 133.359 13.5274C133.521 13.3287 133.603 13.0807 133.603 12.79C133.603 12.3147 133.372 11.9287 132.918 11.6454C132.505 11.3787 132.033 11.172 131.513 11.032C130.986 10.8916 130.442 10.8212 129.897 10.8227C129.126 10.8227 128.428 10.954 127.822 11.214C127.211 11.476 126.722 11.8527 126.371 12.3327C126.021 12.804 125.834 13.3764 125.837 13.9634C125.837 14.756 126.106 15.388 126.635 15.8414C127.151 16.284 128.01 16.6294 129.185 16.8667C129.827 17.0087 130.311 17.1354 130.626 17.2447C130.923 17.3474 131.13 17.458 131.239 17.5727C131.34 17.6794 131.389 17.8227 131.389 18.012C131.389 18.2914 131.26 18.504 130.993 18.6634C130.709 18.8327 130.3 18.9187 129.779 18.9187C129.259 18.9187 128.827 18.868 128.497 18.768C128.113 18.6482 127.739 18.5011 127.377 18.328C126.963 18.1067 126.643 17.9994 126.397 17.9994C126.151 17.9994 125.941 18.0967 125.772 18.288C125.608 18.4747 125.525 18.7167 125.525 19.0094C125.525 19.512 125.756 19.904 126.212 20.176C127.101 20.746 128.282 21.036 129.721 21.036C130.967 21.036 131.983 20.758 132.739 20.2094C133.507 19.6514 133.897 18.8987 133.897 17.9727C133.897 17.4034 133.781 16.9267 133.555 16.5554Z" fill="#fff"/>
<mask id="mask0" style="mask-type:alpha" maskUnits="userSpaceOnUse" x="135" y="6" width="10" height="15">
<path d="M135.527 6.73535H144.739V20.996H135.527V6.73535Z" fill="white"/>
</mask>
<g mask="url(#mask0)">
<path fill-rule="evenodd" clip-rule="evenodd" d="M141.247 10.822C140.54 10.822 139.899 10.962 139.343 11.2367C138.913 11.447 138.533 11.7473 138.229 12.1174V7.95935C138.229 7.58335 138.103 7.28068 137.853 7.06068C137.608 6.84468 137.283 6.73535 136.888 6.73535C136.491 6.73535 136.163 6.85135 135.911 7.08202C135.656 7.31535 135.527 7.62335 135.527 7.99868V19.6934C135.527 20.0934 135.649 20.4134 135.889 20.6467C136.128 20.8787 136.457 20.996 136.869 20.996C137.278 20.996 137.611 20.8794 137.857 20.648C138.103 20.4147 138.23 20.094 138.23 19.6934V15.332C138.23 14.6274 138.431 14.0587 138.829 13.642C139.225 13.2274 139.762 13.0174 140.426 13.0174C140.984 13.0174 141.395 13.164 141.649 13.452C141.906 13.746 142.037 14.2274 142.037 14.8827V19.6934C142.037 20.094 142.162 20.4153 142.41 20.648C142.655 20.8794 142.987 20.996 143.398 20.996C143.809 20.996 144.138 20.8787 144.377 20.6467C144.617 20.4134 144.739 20.0934 144.739 19.6934V14.8827C144.739 12.1887 143.565 10.8227 141.247 10.8227" fill="#fff"/>
</g>
<path fill-rule="evenodd" clip-rule="evenodd" d="M63.966 16.5554C63.7387 16.1834 63.3613 15.8707 62.8453 15.626C62.3433 15.3887 61.6433 15.1747 60.7633 14.9907C59.9607 14.8254 59.4147 14.6594 59.1413 14.4974C58.8947 14.352 58.7747 14.1454 58.7747 13.866C58.7747 13.5687 58.8947 13.3414 59.14 13.17C59.3967 12.9907 59.7567 12.9 60.2093 12.9C60.5973 12.9 60.924 12.9467 61.1827 13.0394C61.448 13.134 61.772 13.2794 62.14 13.47C62.3507 13.5887 62.5293 13.68 62.6707 13.7407C62.8227 13.806 62.9813 13.8387 63.142 13.8387C63.39 13.8387 63.6013 13.734 63.77 13.5274C63.932 13.3287 64.014 13.0807 64.014 12.79C64.014 12.3147 63.7827 11.9287 63.3293 11.6454C62.8955 11.3693 62.4214 11.1624 61.924 11.032C61.3966 10.8916 60.8531 10.8212 60.3073 10.8227C59.5367 10.8227 58.8393 10.954 58.2327 11.214C57.6213 11.476 57.1333 11.8527 56.782 12.3327C56.428 12.8154 56.2487 13.3647 56.2487 13.9634C56.2487 14.756 56.5167 15.388 57.046 15.8414C57.562 16.284 58.4207 16.6294 59.5953 16.8667C60.238 17.0087 60.7227 17.1354 61.0367 17.2447C61.334 17.3474 61.5407 17.458 61.65 17.5727C61.7513 17.6794 61.8 17.8227 61.8 18.012C61.8 18.2914 61.6707 18.504 61.404 18.6634C61.12 18.8327 60.7107 18.9187 60.19 18.9187C59.67 18.9187 59.2387 18.868 58.908 18.768C58.5247 18.6482 58.1504 18.5011 57.788 18.328C57.3733 18.1067 57.0533 17.9994 56.808 17.9994C56.5613 17.9994 56.3513 18.0967 56.1827 18.288C56.0187 18.4747 55.936 18.7167 55.936 19.0094C55.936 19.512 56.1667 19.904 56.6227 20.176C57.5127 20.746 58.6927 21.036 60.1313 21.036C61.378 21.036 62.394 20.758 63.1493 20.2094C63.9173 19.6514 64.3073 18.8987 64.3073 17.9727C64.3073 17.4034 64.192 16.9267 63.966 16.5554ZM71.2913 18.9187L70.7633 18.88C69.95 18.82 69.554 18.3574 69.554 17.464V13.1547H71.086C71.4673 13.1547 71.768 13.0654 71.98 12.89C72.1993 12.7087 72.3107 12.4447 72.3107 12.106C72.3107 11.7674 72.1993 11.5034 71.98 11.3214C71.768 11.146 71.4667 11.0574 71.0867 11.0574H69.554V9.38669C69.554 9.00002 69.4287 8.68469 69.1807 8.45135C68.9353 8.22069 68.6093 8.10335 68.2127 8.10335C67.8027 8.10335 67.47 8.22069 67.2247 8.45135C66.9773 8.68469 66.8513 8.99935 66.8513 9.38669V11.0567H66.0033C65.6227 11.0567 65.322 11.1454 65.11 11.3207C64.89 11.5027 64.7793 11.7667 64.7793 12.1054C64.7793 12.444 64.8907 12.708 65.11 12.8894C65.3213 13.0647 65.622 13.154 66.0033 13.154H66.8513V17.2874C66.8513 19.5474 67.9967 20.7754 70.2553 20.9367L70.786 20.9767C70.8513 20.9794 70.9147 20.9814 70.9767 20.9814C71.382 20.9814 71.708 20.904 71.948 20.7507C72.24 20.5634 72.388 20.286 72.388 19.9274C72.388 19.4974 72.198 18.9727 71.2913 18.918V18.9187ZM79.4093 16.518V16.7994C79.4093 17.4527 79.214 17.9927 78.8287 18.402C78.4407 18.8154 77.95 19.0167 77.33 19.0167C76.9293 19.0167 76.6033 18.8967 76.332 18.6494C76.0647 18.4054 75.9347 18.1014 75.9347 17.7187C75.9347 17.414 76.0233 17.1827 76.206 17.0107C76.3947 16.8347 76.72 16.7074 77.1747 16.6334C77.648 16.5567 78.3253 16.518 79.1867 16.518H79.4093ZM80.9893 11.8487C80.3227 11.168 79.2947 10.822 77.936 10.822C77.316 10.822 76.678 10.8954 76.04 11.0407C75.3993 11.186 74.8387 11.388 74.374 11.6407C74.0967 11.7934 73.894 11.9607 73.7727 12.1407C73.6453 12.3329 73.5794 12.5594 73.584 12.79C73.584 13.096 73.6707 13.3487 73.8413 13.5407C74.0153 13.7387 74.242 13.8387 74.5147 13.8387C74.6933 13.8387 74.9553 13.7514 75.3047 13.576C75.8333 13.3694 76.2967 13.2094 76.6807 13.1007C77.0441 12.9957 77.4204 12.9414 77.7987 12.9394C78.3713 12.9394 78.7867 13.0734 79.0333 13.338C79.2827 13.6054 79.4093 14.046 79.4093 14.648V14.968H79.0493C77.6267 14.968 76.4927 15.0614 75.6787 15.2454C74.8473 15.4334 74.236 15.7427 73.8607 16.1654C73.4827 16.592 73.2907 17.1807 73.2907 17.914C73.2907 18.498 73.4493 19.0354 73.7613 19.5107C74.0727 19.984 74.5033 20.3614 75.0433 20.6307C75.58 20.8994 76.1853 21.0354 76.8413 21.0354C77.4867 21.0354 78.0653 20.8847 78.56 20.5867C78.8989 20.3849 79.1893 20.1111 79.4107 19.7847C79.4253 20.1267 79.5467 20.41 79.7707 20.628C80.01 20.8594 80.32 20.9767 80.692 20.9767C81.09 20.9767 81.41 20.8627 81.642 20.6367C81.8753 20.4107 81.9947 20.1 81.9947 19.7134V14.9414C81.9947 13.57 81.656 12.5294 80.99 11.8487H80.9893ZM92.9373 18.756L89.6413 15.8L92.61 13.038C92.882 12.7667 93.0193 12.4594 93.0193 12.1254C93.0193 11.792 92.8953 11.4974 92.6493 11.252C92.5366 11.1341 92.401 11.0404 92.2509 10.9767C92.1007 10.913 91.9391 10.8805 91.776 10.8814C91.442 10.8814 91.1413 11.012 90.8847 11.2687L86.9207 15.0687V8.01869C86.9207 7.60202 86.7867 7.27869 86.522 7.05869C86.2647 6.84402 85.9407 6.73535 85.5593 6.73535C85.1773 6.73535 84.856 6.84402 84.606 7.05935C84.3487 7.27935 84.218 7.60269 84.218 8.01869V19.6934C84.218 20.1094 84.3487 20.432 84.6047 20.6527C84.8567 20.868 85.178 20.9767 85.5593 20.9767C85.9407 20.9767 86.2647 20.868 86.522 20.6534C86.7867 20.4334 86.9207 20.11 86.9207 19.6934V16.6414L91.276 20.5894C91.5473 20.8467 91.8473 20.9767 92.1667 20.9767C92.49 20.9767 92.7753 20.8447 93.0147 20.5834C93.2513 20.3247 93.3713 20.0254 93.3713 19.6934C93.3713 19.3454 93.2267 19.0307 92.938 18.756H92.9373ZM101.044 14.9687H96.9067C96.9953 14.288 97.218 13.7567 97.5693 13.3887C97.9393 12.9994 98.444 12.802 99.0687 12.802C99.6867 12.802 100.154 12.99 100.497 13.3754C100.819 13.738 101.003 14.2734 101.044 14.9687ZM102.451 17.9994C102.245 17.9994 101.944 18.1067 101.537 18.324C101.139 18.504 100.778 18.6467 100.465 18.7494C100.161 18.8494 99.8027 18.8994 99.4007 18.8994C98.6187 18.8994 98.018 18.698 97.6147 18.3007C97.232 17.9234 96.9933 17.3307 96.9047 16.538H102.529C102.927 16.538 103.401 16.3694 103.401 15.5674C103.401 14.612 103.219 13.77 102.859 13.064C102.497 12.3547 101.981 11.7974 101.324 11.4074C100.668 11.0194 99.8893 10.8227 99.01 10.8227C98.092 10.8227 97.2573 11.0394 96.53 11.466C95.801 11.8945 95.2104 12.5235 94.8287 13.278C94.43 14.0494 94.228 14.9447 94.228 15.9387C94.228 17.5054 94.6947 18.7607 95.6153 19.6687C96.5353 20.5754 97.7953 21.0354 99.362 21.0354C99.8773 21.0354 100.429 20.9587 100.998 20.806C101.533 20.6675 102.049 20.463 102.534 20.1974C103.057 19.9 103.323 19.52 103.323 19.068C103.323 18.752 103.244 18.4947 103.089 18.3014C103.014 18.2046 102.917 18.1269 102.806 18.0744C102.695 18.022 102.573 17.9963 102.451 17.9994ZM108.44 14.21C108.872 14.2613 109.267 14.4823 109.536 14.8243C109.806 15.1664 109.929 15.6015 109.877 16.034C109.826 16.4665 109.605 16.8609 109.263 17.1304C108.921 17.4 108.486 17.5226 108.053 17.4714C107.621 17.4201 107.226 17.1991 106.957 16.857C106.687 16.515 106.565 16.0798 106.616 15.6474C106.667 15.2149 106.888 14.8205 107.23 14.5509C107.572 14.2814 108.008 14.1587 108.44 14.21Z" fill="#fff"/>
</g>
<defs>
<clipPath id="clip0">
<rect width="144.667" height="32" fill="white" transform="translate(0.166656)"/>
</clipPath>
</defs>
</svg>
