<svg width="90" height="21" viewBox="0 0 90 21" fill="none" xmlns="http://www.w3.org/2000/svg">
<g clip-path="url(#clip0)">
<path d="M26.3166 14.9115H27.8796V7.46509H30.7133V6.01647H23.4829V7.46509H26.3166V14.9115Z" fill="white"/>
<path d="M33.1687 15.064C34.4013 15.064 35.2781 14.5684 35.9134 13.806L35.0112 13.0054C34.4775 13.5264 33.9438 13.806 33.1941 13.806C32.2029 13.806 31.4278 13.196 31.2626 12.1032H36.193C36.2057 11.9507 36.2184 11.8109 36.2184 11.6712C36.2184 9.73968 35.1383 8.06233 33.0035 8.06233C31.0847 8.06233 29.725 9.63802 29.725 11.5568V11.5822C29.725 13.6535 31.2245 15.064 33.1687 15.064ZM31.2499 11.0866C31.3897 10.0446 32.0504 9.32034 32.9908 9.32034C34.0073 9.32034 34.5919 10.0955 34.6935 11.0866H31.2499Z" fill="white"/>
<path d="M37.1145 14.9115H38.6647V11.1248C38.6647 10.0828 39.2874 9.46012 40.1769 9.46012C41.0918 9.46012 41.6128 10.0574 41.6128 11.0993V14.9115H43.1504V10.6292C43.1504 9.0789 42.2736 8.06233 40.7614 8.06233C39.7194 8.06233 39.0968 8.60874 38.6647 9.23139V8.20211H37.1145V14.9115Z" fill="white"/>
<path d="M47.1419 15.0513C48.2347 15.0513 48.9336 14.4922 49.4292 13.7933V14.9115H50.9668V5.63525H49.4292V9.2441C48.9463 8.60874 48.2474 8.06233 47.1419 8.06233C45.5408 8.06233 44.0287 9.32034 44.0287 11.5441V11.5695C44.0287 13.7933 45.5662 15.0513 47.1419 15.0513ZM47.5104 13.717C46.4684 13.717 45.5789 12.8656 45.5789 11.5695V11.5441C45.5789 10.2226 46.4557 9.39658 47.5104 9.39658C48.5397 9.39658 49.4546 10.248 49.4546 11.5441V11.5695C49.4546 12.8529 48.5397 13.717 47.5104 13.717Z" fill="white"/>
<path d="M55.3368 15.064C56.5694 15.064 57.4462 14.5684 58.0815 13.806L57.1793 13.0054C56.6456 13.5264 56.1119 13.806 55.3622 13.806C54.371 13.806 53.5959 13.196 53.4307 12.1032H58.3611C58.3738 11.9507 58.3865 11.8109 58.3865 11.6712C58.3865 9.73968 57.3064 8.06233 55.1716 8.06233C53.2528 8.06233 51.8931 9.63802 51.8931 11.5568V11.5822C51.8931 13.6535 53.3926 15.064 55.3368 15.064ZM53.418 11.0866C53.5578 10.0446 54.2185 9.32034 55.1589 9.32034C56.1754 9.32034 56.76 10.0955 56.8616 11.0866H53.418Z" fill="white"/>
<path d="M59.2825 14.9115H60.8328V12.3574C60.8328 10.5784 61.7732 9.70156 63.1201 9.70156H63.2091V8.07503C62.0273 8.02421 61.2522 8.71039 60.8328 9.71426V8.20211H59.2825V14.9115Z" fill="white"/>
<path d="M63.8963 14.9115H65.4466V11.1248C65.4466 10.0955 66.0312 9.46012 66.8825 9.46012C67.7339 9.46012 68.2422 10.0446 68.2422 11.0866V14.9115H69.7798V11.1248C69.7798 10.0446 70.377 9.46012 71.2157 9.46012C72.0798 9.46012 72.5754 10.0319 72.5754 11.0993V14.9115H74.1129V10.6292C74.1129 8.98995 73.2234 8.06233 71.7621 8.06233C70.7455 8.06233 70.0339 8.53249 69.5002 9.2441C69.1444 8.53249 68.4582 8.06233 67.4925 8.06233C66.4632 8.06233 65.8787 8.62144 65.4466 9.21868V8.20211H63.8963V14.9115Z" fill="white"/>
<path d="M75.361 7.17282H77.0129V5.7115H75.361V7.17282ZM75.4118 14.9115H76.9621V8.20211H75.4118V14.9115Z" fill="white"/>
<path d="M78.3235 14.9115H79.8737V11.1248C79.8737 10.0828 80.4964 9.46012 81.3859 9.46012C82.3008 9.46012 82.8218 10.0574 82.8218 11.0993V14.9115H84.3594V10.6292C84.3594 9.0789 83.4826 8.06233 81.9704 8.06233C80.9284 8.06233 80.3058 8.60874 79.8737 9.23139V8.20211H78.3235V14.9115Z" fill="white"/>
<path d="M87.8299 15.0259C88.4145 15.0259 88.8338 14.8988 89.215 14.6828V13.4248C88.9101 13.5772 88.6051 13.6535 88.262 13.6535C87.741 13.6535 87.436 13.4121 87.436 12.8148V9.52365H89.2404V8.20211H87.436V6.35956H85.8984V8.20211H85.0471V9.52365H85.8984V13.0563C85.8984 14.5303 86.699 15.0259 87.8299 15.0259Z" fill="white"/>
<circle cx="10" cy="10.3335" r="10" fill="white"/>
<path fill-rule="evenodd" clip-rule="evenodd" d="M12.1181 8.13139C11.4487 7.86867 10.7277 7.73145 9.99961 7.73145C8.46927 7.73145 7.02981 8.32954 5.94645 9.4155C4.86778 10.4967 4.26849 11.9329 4.25885 13.4595L4.25757 13.6645L4.43651 13.7659C5.29894 14.2543 6.27425 14.5113 7.26256 14.5113C7.28973 14.5113 7.31713 14.5111 7.34437 14.5107C8.20587 14.4984 9.05818 14.2922 9.83085 13.9115C9.58722 13.7759 9.35374 13.6231 9.13178 13.4547C7.78499 13.9828 6.25861 13.9177 4.96686 13.2562C5.09251 10.5772 7.30819 8.43127 9.99961 8.43127C10.7482 8.43127 11.4876 8.59611 12.1554 8.90934C12.1639 8.64999 12.1516 8.39004 12.1181 8.13139Z" fill="black"/>
<path fill-rule="evenodd" clip-rule="evenodd" d="M15.7402 13.4121C15.7197 11.5141 14.7913 9.78239 13.2437 8.72754C13.2448 9.00527 13.2262 9.28285 13.1878 9.55877C14.2876 10.4526 14.958 11.7689 15.0313 13.2109C12.6592 14.4277 9.70077 13.5756 8.35317 11.2503C7.98919 10.6222 7.76602 9.92 7.70043 9.20246C7.47149 9.32675 7.25282 9.46973 7.04639 9.63005C7.15524 10.3206 7.39179 10.9912 7.74479 11.6002C8.51136 12.9229 9.74378 13.8712 11.2149 14.2703C11.714 14.4058 12.2215 14.4728 12.7262 14.4728C13.7095 14.4728 14.6823 14.2184 15.5626 13.7201L15.7424 13.6182L15.7402 13.4121Z" fill="black"/>
<path fill-rule="evenodd" clip-rule="evenodd" d="M10.2026 3.77695L10.0252 3.67334L9.84769 3.77679C8.97088 4.28759 8.24244 5.01996 7.74105 5.89464C7.30809 6.65003 7.05201 7.49621 6.99194 8.35995C7.23197 8.21792 7.48202 8.09303 7.74057 7.98631C7.96329 6.56246 8.79507 5.27561 10.0248 4.48924C12.2835 5.93494 13.0263 8.93244 11.6696 11.2733C11.3022 11.9073 10.7998 12.4554 10.2046 12.8763C10.427 13.0112 10.6604 13.1284 10.9029 13.2264C11.4531 12.7823 11.9215 12.2383 12.278 11.6233C13.862 8.89013 12.9309 5.37031 10.2026 3.77695Z" fill="black"/>
<path fill-rule="evenodd" clip-rule="evenodd" d="M9.99998 9.74764C9.67695 9.74764 9.41421 10.0104 9.41421 10.3335C9.41421 10.6565 9.67695 10.9193 9.99998 10.9193C10.323 10.9193 10.5858 10.6565 10.5858 10.3335C10.5858 10.0104 10.323 9.74764 9.99998 9.74764ZM9.99998 11.623C9.28903 11.623 8.71069 11.0447 8.71069 10.3337C8.71069 9.6228 9.28903 9.04443 9.99998 9.04443C10.7109 9.04443 11.2893 9.6228 11.2893 10.3337C11.2893 11.0447 10.7109 11.623 9.99998 11.623Z" fill="black"/>
</g>
<defs>
<clipPath id="clip0">
<rect width="90" height="20" fill="white" transform="translate(0 0.333496)"/>
</clipPath>
</defs>
</svg>
