<svg width="153" height="34" viewBox="0 0 153 34" fill="none" xmlns="http://www.w3.org/2000/svg">
<g clip-path="url(#clip0)">
<path d="M44.7382 24.7821H47.3953V12.1232H52.2126V9.66052H39.9209V12.1232H44.7382V24.7821Z" fill="#fff"/>
<path d="M56.3867 25.0413C58.4821 25.0413 59.9727 24.1988 61.0528 22.9027L59.519 21.5417C58.6117 22.4274 57.7044 22.9027 56.4299 22.9027C54.7449 22.9027 53.4272 21.8658 53.1464 20.008H61.528C61.5496 19.7488 61.5712 19.5111 61.5712 19.2735C61.5712 15.99 59.735 13.1385 56.1059 13.1385C52.8439 13.1385 50.5325 15.8172 50.5325 19.0791V19.1223C50.5325 22.6435 53.0815 25.0413 56.3867 25.0413ZM53.1248 18.2798C53.3624 16.5084 54.4857 15.2771 56.0843 15.2771C57.8124 15.2771 58.8061 16.5948 58.979 18.2798H53.1248Z" fill="#fff"/>
<path d="M63.0945 24.7821H65.73V18.3446C65.73 16.5732 66.7885 15.5147 68.3007 15.5147C69.856 15.5147 70.7417 16.53 70.7417 18.3014V24.7821H73.3556V17.5021C73.3556 14.8667 71.865 13.1385 69.2944 13.1385C67.523 13.1385 66.4645 14.0674 65.73 15.1259V13.3761H63.0945V24.7821Z" fill="#fff"/>
<path d="M80.1412 25.0197C81.999 25.0197 83.1871 24.0692 84.0296 22.8811V24.7821H86.6435V9.01245H84.0296V15.1475C83.2087 14.0674 82.0206 13.1385 80.1412 13.1385C77.4193 13.1385 74.8487 15.2771 74.8487 19.0575V19.1007C74.8487 22.8811 77.4625 25.0197 80.1412 25.0197ZM80.7677 22.7515C78.9963 22.7515 77.4841 21.3041 77.4841 19.1007V19.0575C77.4841 16.8109 78.9747 15.4067 80.7677 15.4067C82.5175 15.4067 84.0728 16.8541 84.0728 19.0575V19.1007C84.0728 21.2825 82.5175 22.7515 80.7677 22.7515Z" fill="#fff"/>
<path d="M94.0724 25.0413C96.1679 25.0413 97.6584 24.1988 98.7385 22.9027L97.2048 21.5417C96.2975 22.4274 95.3902 22.9027 94.1157 22.9027C92.4307 22.9027 91.1129 21.8658 90.8321 20.008H99.2138C99.2354 19.7488 99.257 19.5111 99.257 19.2735C99.257 15.99 97.4208 13.1385 93.7916 13.1385C90.5297 13.1385 88.2182 15.8172 88.2182 19.0791V19.1223C88.2182 22.6435 90.7673 25.0413 94.0724 25.0413ZM90.8105 18.2798C91.0481 16.5084 92.1715 15.2771 93.77 15.2771C95.4982 15.2771 96.4919 16.5948 96.6647 18.2798H90.8105Z" fill="#fff"/>
<path d="M100.78 24.7821H103.416V20.44C103.416 17.4157 105.014 15.9252 107.304 15.9252H107.455V13.1601C105.446 13.0737 104.129 14.2402 103.416 15.9468V13.3761H100.78V24.7821Z" fill="#fff"/>
<path d="M108.624 24.7821H111.259V18.3446C111.259 16.5948 112.253 15.5147 113.7 15.5147C115.148 15.5147 116.012 16.5084 116.012 18.2798V24.7821H118.626V18.3446C118.626 16.5084 119.641 15.5147 121.067 15.5147C122.536 15.5147 123.378 16.4868 123.378 18.3014V24.7821H125.992V17.5021C125.992 14.7154 124.48 13.1385 121.996 13.1385C120.267 13.1385 119.058 13.9378 118.15 15.1475C117.545 13.9378 116.379 13.1385 114.737 13.1385C112.987 13.1385 111.994 14.089 111.259 15.1043V13.3761H108.624V24.7821Z" fill="#fff"/>
<path d="M128.114 11.6263H130.922V9.14206H128.114V11.6263ZM128.2 24.7821H130.836V13.3761H128.2V24.7821Z" fill="#fff"/>
<path d="M133.15 24.7821H135.785V18.3446C135.785 16.5732 136.844 15.5147 138.356 15.5147C139.911 15.5147 140.797 16.53 140.797 18.3014V24.7821H143.411V17.5021C143.411 14.8667 141.92 13.1385 139.35 13.1385C137.578 13.1385 136.52 14.0674 135.785 15.1259V13.3761H133.15V24.7821Z" fill="#fff"/>
<path d="M149.311 24.9765C150.305 24.9765 151.017 24.7605 151.666 24.3932V22.2546C151.147 22.5138 150.629 22.6435 150.045 22.6435C149.16 22.6435 148.641 22.233 148.641 21.2177V15.6227H151.709V13.3761H148.641V10.2438H146.027V13.3761H144.58V15.6227H146.027V21.6282C146.027 24.134 147.388 24.9765 149.311 24.9765Z" fill="#fff"/>
<ellipse cx="17" cy="17" rx="17" ry="17" fill="#fff"/>
<path fill-rule="evenodd" clip-rule="evenodd" d="M20.6007 13.2563C19.4627 12.8097 18.2371 12.5764 16.9993 12.5764C14.3977 12.5764 11.9506 13.5932 10.1089 15.4393C8.27514 17.2773 7.25636 19.7189 7.23996 22.3141L7.23779 22.6627L7.542 22.8349C9.00813 23.6653 10.6662 24.1022 12.3463 24.1022C12.3925 24.1022 12.439 24.1019 12.4853 24.1012C13.9499 24.0802 15.3988 23.7296 16.7124 23.0826C16.2982 22.8519 15.9013 22.5922 15.524 22.3059C13.2344 23.2038 10.6396 23.0931 8.44359 21.9685C8.65719 17.4142 12.4238 13.7661 16.9993 13.7661C18.2718 13.7661 19.5288 14.0463 20.664 14.5788C20.6786 14.1379 20.6576 13.696 20.6007 13.2563Z" fill="white"/>
<path fill-rule="evenodd" clip-rule="evenodd" d="M26.7586 22.2333C26.7237 19.0066 25.1454 16.0628 22.5144 14.2695C22.5163 14.7417 22.4846 15.2136 22.4195 15.6826C24.289 17.2022 25.4287 19.4398 25.5534 21.8913C21.5207 23.9598 16.4914 22.5112 14.2005 18.5583C13.5818 17.4905 13.2024 16.2967 13.0909 15.0769C12.7017 15.2882 12.3299 15.5313 11.979 15.8038C12.1641 16.9777 12.5662 18.1177 13.1663 19.1531C14.4695 21.4017 16.5646 23.0138 19.0655 23.6923C19.914 23.9226 20.7767 24.0365 21.6347 24.0365C23.3063 24.0365 24.9601 23.6041 26.4565 22.7568L26.7622 22.5836L26.7586 22.2333Z" fill="white"/>
<path fill-rule="evenodd" clip-rule="evenodd" d="M17.3442 5.85386L17.0426 5.67773L16.7409 5.85359C15.2503 6.72196 14.0119 7.96698 13.1596 9.45394C12.4236 10.7381 11.9882 12.1766 11.8861 13.645C12.2942 13.4035 12.7192 13.1912 13.1588 13.0098C13.5374 10.5892 14.9514 8.4016 17.042 7.06476C20.8818 9.52246 22.1445 14.6182 19.8381 18.5977C19.2135 19.6755 18.3595 20.6073 17.3477 21.3227C17.7256 21.5521 18.1224 21.7513 18.5348 21.9179C19.4701 21.1629 20.2664 20.2382 20.8724 19.1926C23.5652 14.5463 21.9824 8.56259 17.3442 5.85386Z" fill="white"/>
<path fill-rule="evenodd" clip-rule="evenodd" d="M17 16.0039C16.4509 16.0039 16.0042 16.4507 16.0042 16.9998C16.0042 17.549 16.4509 17.9957 17 17.9957C17.5492 17.9957 17.9959 17.549 17.9959 16.9998C17.9959 16.4507 17.5492 16.0039 17 16.0039ZM17 19.1918C15.7914 19.1918 14.8082 18.2086 14.8082 17C14.8082 15.7915 15.7914 14.8082 17 14.8082C18.2086 14.8082 19.1919 15.7915 19.1919 17C19.1919 18.2086 18.2086 19.1918 17 19.1918Z" fill="white"/>
</g>
<defs>
<clipPath id="clip0">
<rect width="153" height="34" fill="white"/>
</clipPath>
</defs>
</svg>
